<?xml version="1.0" encoding="utf-8"?>
<!-- Generator: Adobe Illustrator 27.9.2, SVG Export Plug-In . SVG Version: 6.00 Build 0)  -->
<svg version="1.1" id="Capa_1" xmlns="http://www.w3.org/2000/svg" xmlns:xlink="http://www.w3.org/1999/xlink" x="0px" y="0px"
	 viewBox="0 0 108.9 108.9" style="enable-background:new 0 0 108.9 108.9;" xml:space="preserve">
<style type="text/css">
	.st0{fill:#FFFFFF;}
</style>
<g id="Grupo_1030" transform="translate(-0.5 -0.5)">
	<g>
		<g>
			<g id="Grupo_1029">
				<path id="Trazado_3158" class="st0" d="M102.4,54.7l-5.3-8.4l1.7-9.8l-8.1-5.8L88.5,21l-9.7-2.2L73,10.6l-9.8,1.7L54.8,7
					l-8.4,5.3l-9.8-1.7l-5.8,8.1l-9.7,2.2l-2.2,9.7l-8.2,5.8l1.7,9.8l-5.3,8.4l5.3,8.4l-1.7,9.8l8.1,5.8l2.2,9.7l9.7,2.2l5.7,8.2
					l9.8-1.7l8.4,5.3L63,97l9.8,1.7l5.8-8.1l9.7-2.2l2.2-9.7l8.2-5.7L97,63.2L102.4,54.7z M54.7,88.6c-18.8,0-34-15.2-34-33.9
					c0-18.8,15.2-34,33.9-34c18.8,0,34,15.2,34,33.9l0,0C88.6,73.4,73.4,88.6,54.7,88.6"/>
				<path id="Trazado_3159" class="st0" d="M66.8,72.3l-12-6.3l-12,6.3L45,58.9l-9.7-9.5l13.5-2l6-12.2l6,12.2l13.5,2l-9.7,9.5
					L66.8,72.3z"/>
			</g>
		</g>
	</g>
</g>
</svg>
