<?xml version="1.0" encoding="UTF-8"?>
<svg id="layer" xmlns="http://www.w3.org/2000/svg" viewBox="0 0 850.39 850.39">
  <defs>
    <style>
      .cls-1 {
        fill: #fff;
        stroke-width: 0px;
      }
    </style>
  </defs>
  <g>
    <path class="cls-1" d="m533.81,58.33c5.36-1.98,10.75-3.87,16.17-5.68,18.34-6.13,20.82-30.87,4.1-40.58-.38-.22-.76-.44-1.14-.66-5.4-3.12-11.9-3.8-17.84-1.9-18.1,5.78-36.06,11.94-53.05,18.73-19.91,7.96-38.49,16.37-57.07,25.22,18.14,8.85,35.39,18.58,51.76,28.76,18.14-8.85,37.16-16.81,57.07-23.89Z"/>
    <path class="cls-1" d="m651.49,81.33c-.15-.13-.29-.25-.44-.38-5.58-4.85-13.15-6.64-20.32-4.85-17.57,4.37-34.53,9.52-50.9,14.98-19.91,6.64-38.93,14.16-57.07,22.12-.13.05-.25.12-.37.17-14.49-10.95-29.85-21.05-45.64-31.14-16.37-10.18-33.62-19.47-51.76-28.76-18.14-9.29-37.16-17.7-57.07-25.22-17.38-6.8-35.08-13.28-53.11-18.88-5.9-1.83-12.35-1.09-17.69,2.02-.45.27-.91.53-1.36.8-16.63,9.77-14.15,34.44,4.15,40.55,5.48,1.83,10.89,3.7,16.24,5.6,19.91,7.08,38.93,15.04,57.07,23.89,18.14,8.41,35.39,17.7,51.76,27.43,16.25,9.66,31.61,19.76,45.68,30.29-16.25,9.67-31.62,19.78-45.68,30.33,14.6,11.06,28.32,22.56,40.7,34.95,14.16-11.06,29.64-21.68,46.01-31.41s33.62-18.58,51.76-26.55c18.14-7.96,37.16-15.04,57.07-21.24,7.14-2.22,14.45-4.33,21.88-6.32,17.28-4.64,22.59-26.64,9.08-38.38Z"/>
    <path class="cls-1" d="m219.06,76.05c-7.08-1.76-14.58-.05-20.14,4.68-.14.12-.28.24-.42.36-13.61,11.59-8.65,33.81,8.61,38.47,7.56,2.04,14.99,4.19,22.31,6.47,19.91,6.19,38.93,13.27,57.07,21.24,12.83-11.95,26.55-23.01,40.7-34.07-18.14-8.41-37.16-15.49-57.07-22.12-16.42-5.47-33.44-10.65-51.07-15.02Z"/>
  </g>
  <g>
    <path class="cls-1" d="m367.9,770.65c-20.35,7.96-41.15,15.49-62.38,21.68,18.14,10.62,37.16,20.35,57.07,29.64,9.57,4.47,19.44,8.93,29.48,13.25,20.71,8.91,44.17,9.12,64.91.29,10.34-4.4,20.47-8.92,30.37-13.54-21.68-7.52-42.47-15.49-62.38-23.89-19.47-8.85-38.49-17.7-57.07-27.43Z"/>
    <path class="cls-1" d="m805.47,313.17c-3.54-14.6-7.96-28.76-13.27-42.47-5.31-14.16-11.95-28.32-19.02-42.03-5.17-9.42-10.54-18.84-16.27-28.26-4.8-7.9-13.97-12.1-23.08-10.51-5.7,1-11.33,2.09-16.9,3.27-14.73,3.14-22.07,19.98-14.42,32.96,2.91,4.93,5.68,9.9,8.28,14.93,7.08,13.72,13.72,27.43,19.02,42.03,5.75,14.6,10.18,29.64,13.72,44.69,5.31,23.45,7.96,47.34,7.96,71.67s-2.65,48.23-7.96,71.67c-3.54,15.04-7.96,30.09-13.72,44.69-5.31,14.16-11.95,28.32-19.02,42.03-7.08,13.72-15.49,26.99-24.33,40.26-9.29,13.27-19.02,26.1-30.09,38.49-10.99,12.74-22.85,24.62-35.15,36.48-.23-.07-.46-.13-.69-.2-19.81-6.16-38.74-13.21-56.8-21.12.2-.19.41-.37.61-.56,12.83-11.5,24.33-23.89,35.39-36.28,11.06-12.39,20.79-25.66,30.09-38.93,9.29-13.72,17.25-27.43,24.33-42.03,7.52-15.49,14.16-30.97,19.02-47.34,8.85-28.32,13.27-57.96,13.27-88.04-.44-29.2-5.31-58.84-14.16-87.16-4.87-15.93-11.5-31.85-19.02-47.34-7.08-14.16-15.04-28.32-24.33-42.03-8.85-13.27-18.58-25.66-29.2-38.05l-.44-.44-.44-.44c-10.62-12.39-22.12-24.33-34.95-35.84-18.14,7.96-35.39,16.81-51.76,26.55,12.83,11.95,24.78,24.33,35.39,37.16l.44.44c11.06,13.27,20.79,26.99,29.64,41.15,9.73,15.93,18.14,31.86,24.33,48.67,12.39,31.41,19.02,64.15,19.02,98.22s-6.64,66.81-19.02,98.22c-6.64,16.81-15.04,32.74-24.33,48.67-8.85,14.16-18.58,27.87-29.64,41.59-10.62,12.83-22.56,25.22-35.39,37.16-12.83,11.95-26.1,23.01-40.7,33.62-14.6,10.62-30.09,20.79-46.01,30.53,16.37,9.73,33.62,19.02,51.76,27.43,15.67-9.58,30.91-20.02,45.31-30.89,18.09,8.37,37.05,15.43,56.89,22.04-14.6,11.06-30.09,22.12-46.01,32.3-.14.09-.3.18-.44.28-19.74-7.04-38.19-14.94-56.63-23.73-18.14-8.85-35.39-17.7-51.76-27.43-16.37-9.73-31.85-19.91-46.01-30.53-16.37,9.73-33.62,18.58-51.76,26.55,14.53,11.01,29.95,21.14,45.8,31.27-18.37,8.72-37.18,16.59-56.42,23.59-.24.09-.48.17-.72.25-15.83-10.56-31.22-21.56-45.74-32.99-14.16-11.06-27.87-23.01-40.7-34.95-12.83-11.95-24.33-24.33-35.39-36.72-10.62-12.39-20.79-25.22-30.09-38.49-8.85-12.83-17.25-26.55-24.33-40.26-7.08-13.72-13.72-27.43-19.02-42.03-5.75-14.6-10.18-29.64-13.72-44.69-5.31-23.45-7.96-47.34-7.96-71.67s2.65-48.23,7.96-71.67c3.54-15.04,7.96-30.09,13.72-44.69,5.31-14.16,11.95-28.32,19.02-42.03,2.59-5.03,5.37-10,8.28-14.93,7.65-12.98.31-29.82-14.42-32.96-5.64-1.2-11.36-2.31-17.13-3.31-8.96-1.56-18.02,2.42-22.85,10.13-5.86,9.35-11.38,18.91-16.26,28.68-7.08,13.72-13.72,27.43-19.02,42.03-5.31,14.16-9.73,28.32-13.27,42.47-7.08,27.87-10.62,56.63-10.62,86.27s3.54,57.96,10.62,86.27c3.54,14.6,7.96,28.76,13.27,42.47,5.31,14.16,11.95,28.32,19.02,42.03,7.52,13.72,15.49,27.43,24.33,41.15,9.29,13.72,19.02,26.99,30.09,39.82,11.06,13.27,22.56,26.1,35.39,38.49,12.83,12.39,26.55,24.78,40.7,36.72,14.6,11.95,30.09,23.45,46.01,34.51.26-.07.51-.15.78-.22,16.27,11.41,33.41,21.96,51.43,32.07,21.24-6.64,42.47-13.72,62.38-21.68,19.67-7.87,38.46-16.17,56.4-24.9.08.04.15.08.23.12,17.99,9.22,36.86,17.55,56.59,25.03-18,9.64-36.86,18.85-56.59,27.18,20.35,8.85,41.15,16.81,62.38,24.33,19.91-9.29,38.49-19.02,57.07-29.64,18.14-10.18,35.39-21.24,51.76-32.3,15.93-11.06,31.41-22.56,46.01-34.51,14.05-11.86,27.66-23.72,40.41-36.44.24.05.49.11.73.16,12.39-12.39,24.33-25.22,35.39-38.49,10.62-12.83,20.79-26.1,30.09-39.82,8.85-13.27,17.25-26.99,24.33-41.15,7.08-13.72,13.72-27.43,19.02-42.03,5.31-14.16,9.73-28.32,13.27-42.47,7.08-27.87,10.62-56.63,10.62-86.27s-3.54-57.96-10.62-85.83Z"/>
    <path class="cls-1" d="m424.98,554.3c11.95,13.27,25.66,26.1,40.7,38.05,13.27-12.83,24.78-26.1,35.39-40.26,11.95-15.49,21.68-31.86,30.09-49.11,15.93-33.18,24.33-68.13,24.33-104.86s-8.41-70.35-24.33-103.53c-7.96-16.81-18.14-33.18-30.09-49.11-10.62-14.16-22.12-27.43-35.39-40.26-12.39-12.39-26.1-23.89-40.7-34.95-14.5-10.98-29.44-21.09-45.67-30.33,14.5-10.53,29.87-20.63,45.67-30.29-16.37-9.73-33.62-19.02-51.76-27.43-15.93,9.73-31.41,20.35-46.01,31.41-14.6,10.62-27.87,22.12-40.7,34.07-12.83,11.5-24.33,23.89-35.39,36.28-11.06,12.39-20.79,25.66-30.09,38.93-9.29,13.72-17.25,27.43-24.33,42.03-7.52,15.49-14.16,30.97-19.02,47.34-8.85,28.32-13.27,57.52-13.27,87.6s4.42,59.29,13.27,87.6c4.87,15.49,11.5,31.41,19.02,46.9,7.08,14.16,15.04,28.32,24.33,42.03,8.85,13.27,19.02,26.1,30.09,38.93,10.96,12.28,22.37,24.56,35.07,35.97-18.04,7.91-36.96,14.94-56.75,21.1,12.83,11.95,26.55,23.45,40.7,34.95,19.91-6.64,38.93-14.16,57.07-22.12,18.14-7.96,35.39-17.25,51.76-26.55,16.26-9.67,31.64-19.77,45.72-30.31.1.08.19.15.29.23,14.6,11.06,29.64,21.24,46.01,30.53,14.6-10.62,27.87-22.12,40.7-33.62-16.37-9.73-31.86-20.35-46.01-31.41-15.04-11.95-28.76-24.78-40.7-38.05-13.72-15.04-25.66-31.41-35.39-48.23-19.02-33.62-29.64-69.9-29.64-107.51s10.62-74.33,30.09-107.51c9.73-16.81,21.68-32.74,35.39-48.23-11.95-13.27-25.66-26.1-40.7-38.05-13.27,12.83-24.78,26.1-35.39,40.26-11.95,15.49-21.68,31.86-30.09,49.11-15.93,31.85-24.78,66.81-24.78,103.53s8.41,71.67,24.33,104.86c7.96,16.81,18.14,33.18,30.09,49.11,10.55,14.07,21.98,27.26,35.14,40.01-14.09,10.99-29.49,21.55-45.76,31.22-.1.06-.19.11-.29.17-12.72-11.86-24.57-24.16-35.11-36.89-11.06-13.27-21.24-26.99-30.09-41.59-9.73-15.93-18.14-31.86-24.33-48.67-12.39-31.41-19.02-64.15-19.02-98.22s6.64-66.81,19.02-98.22c6.64-16.81,14.6-32.74,24.33-48.67,8.85-14.16,18.58-27.87,30.09-41.59,10.62-12.83,22.56-25.22,35.39-37.16.1-.09.19-.17.29-.26,16.26,9.69,31.65,20.24,45.72,31.23,15.04,11.95,28.76,24.78,40.7,38.05,13.72,15.04,25.66,31.41,35.39,48.22,19.02,33.62,30.09,69.9,30.09,107.51s-10.62,74.33-30.09,107.51c-9.73,16.81-21.68,32.74-35.39,48.23Z"/>
  </g>
</svg>