<?xml version="1.0" encoding="utf-8"?>
<!-- Generator: Adobe Illustrator 27.9.2, SVG Export Plug-In . SVG Version: 6.00 Build 0)  -->
<svg version="1.1" id="Capa_1" xmlns="http://www.w3.org/2000/svg" xmlns:xlink="http://www.w3.org/1999/xlink" x="0px" y="0px"
	 viewBox="0 0 127.6 100.3" style="enable-background:new 0 0 127.6 100.3;" xml:space="preserve">
<style type="text/css">
	.st0{fill:#FFFFFF;}
</style>
<g id="Grupo_1028" transform="translate(0 0)">
	<path id="Trazado_3150" class="st0" d="M100.9,6.3l2.6,5.2l5.8,0.8l-4.2,4.1l1,5.8l-5.2-2.7l-5.2,2.7l1-5.8l-4.2-4.1l5.8-0.8
		L100.9,6.3z"/>
	<path id="Trazado_3151" class="st0" d="M82.2,2.1l-1.8,3.7l-4.1,0.6l2.9,2.9l-0.7,4.1l3.6-1.9l3.6,1.9L85,9.3l2.9-2.9L84,5.8
		L82.2,2.1z"/>
	<path id="Trazado_3152" class="st0" d="M110.3,30.9l-7.7,1.1l5.6,5.5l-1.3,7.7l6.9-3.6l6.9,3.6l-1.3-7.7L125,32l-7.7-1.1l-3.5-7
		L110.3,30.9z"/>
	<path id="Trazado_3153" class="st0" d="M101.9,51.2l3.5,7l7.7,1.1l-5.6,5.5l1.3,7.7l-6.9-3.6L95,72.5l1.3-7.7l-5.6-5.5l7.7-1.1
		L101.9,51.2z"/>
	<path id="Trazado_3154" class="st0" d="M74.9,67.9l3.5,7l7.7,1.1l-5.6,5.5l1.3,7.7l-6.9-3.6L68,89.2l1.3-7.7L63.7,76l7.7-1.1
		L74.9,67.9z"/>
	<path id="Trazado_3155" class="st0" d="M35.3,83.9L27.6,85l5.6,5.5l-1.3,7.7l6.9-3.6l6.9,3.6l-1.3-7.7L50,85l-7.7-1.1l-3.5-7
		L35.3,83.9z"/>
	<path id="Trazado_3156" class="st0" d="M9.1,71.6l-6.4-0.1l3.9,5.2l-2.1,6.1l6.1-2.1l5.2,3.8l-0.1-6.4l5.3-3.7l-6.2-1.9l-1.9-6.1
		L9.1,71.6z"/>
	<path id="Trazado_3157" class="st0" d="M13.7,44.2l1,5.3l5,2.2L15,54.4l-0.5,5.4l-4-3.7l-5.3,1.2l2.3-4.9l-2.7-4.7l5.4,0.7
		L13.7,44.2z"/>
</g>
</svg>
