<?xml version="1.0" encoding="UTF-8"?>
<svg id="Capa_1" data-name="Capa 1" xmlns="http://www.w3.org/2000/svg" version="1.1" viewBox="0 0 165.3 27">
  <defs>
    <style>
      .cls-1 {
        isolation: isolate;
      }

      .cls-2 {
        fill: #fff;
        stroke-width: 0px;
      }
    </style>
  </defs>
  <g id="Grupo_1556" data-name="Grupo 1556">
    <g class="cls-1">
      <path class="cls-2" d="M15.2,20.7H6.7l-1.6,4.9H0L8.6,2.1h4.5l8.7,23.5h-5.2l-1.4-4.9ZM8,16.9h5.9l-3.1-8.7-2.8,8.7Z"/>
      <path class="cls-2" d="M34,23.7c-1.2,1.4-2.8,2.1-4.7,2.1s-3.3-.5-4.2-1.6c-.9-1.2-1.4-2.6-1.4-4.7v-11.3h4.7v11.3c0,1.9.9,2.8,2.6,2.8s2.6-.5,3.3-1.6v-12.2h4.7v17.4h-4.5l-.5-2.2Z"/>
      <path class="cls-2" d="M46.9,25.6h-4.7V.9h4.7v24.7Z"/>
      <path class="cls-2" d="M60.8,25.6c-.2-.5-.5-.9-.5-1.6-1.2,1.2-2.6,1.9-4.5,1.9s-3.1-.5-4.2-1.4-1.6-2.1-1.6-3.8.7-3.3,2.1-4.2c1.4-.9,3.3-1.4,5.9-1.4h2.1v-.9c0-.7-.2-1.4-.7-1.9s-1.2-.7-1.9-.7-1.4.2-1.9.5-.7.9-.7,1.6h-4.7c0-.9.2-1.9.9-2.8.7-.9,1.4-1.6,2.6-2.1s2.3-.7,3.8-.7,3.8.5,5.2,1.6c1.2,1.2,1.9,2.6,1.9,4.5v7.5c0,1.6.2,2.8.7,3.8v.2h-4.5ZM57,22.3c.7,0,1.4-.2,1.9-.5.5-.2.9-.7,1.2-1.2v-3.1h-1.6c-2.3,0-3.5.7-3.8,2.3v.2c0,.5.2.9.7,1.4.4.7.9.9,1.6.9Z"/>
    </g>
    <path class="cls-2" d="M91.1.3c-.9,0-1.6.4-2.3.9s-.9,1.4-.9,2.1.4,1.6.9,2.1c.7.7,1.4.9,2.3.9s1.6-.2,2.3-.9c.7-.5.9-1.4.9-2.1s-.4-1.6-.9-2.1c-.7-.7-1.4-.9-2.3-.9Z"/>
    <path class="cls-2" d="M106.2,7.3c-1.5,0-2.9.4-3.8,1.6v-1.4h-5.4v19h5.6l.2-12.4c.5-.9,1.9-1.6,3.1-1.4.4,0,1.1.2,1.6.2h.5v-5.4h-.2c-.4-.2-1.1-.2-1.6-.2Z"/>
    <rect class="cls-2" x="88.3" y="7.5" width="5.6" height="19"/>
    <polygon class="cls-2" points="75.4 18.5 70.2 1.4 63.6 1.4 72.3 26.5 78.2 26.5 87.2 1.4 80.6 1.4 75.4 18.5"/>
    <path class="cls-2" d="M118.3,21.9c-.7,0-1.2-.2-1.2-.2-.2-.5-.2-.7-.2-1.2v-8.5h3.1v-4.5h-3.1V3h-5.6v4.5h-2.6v4.5h2.6v9.4c-.2,1.6.5,3,1.4,4.2,1.1.9,2.8,1.4,4.2,1.4s1.9-.2,3.1-.6h.2v-4.5h-1.9Z"/>
    <path class="cls-2" d="M156.4,14.8c0-2.1-.7-4-2.1-5.2-1.6-1.4-3.5-1.9-5.6-1.9s-2.8.2-4.2.7c-.9.4-2.1,1.4-2.8,2.3-.4.8-.9,1.9-.9,3.1v.5h5.6v-.5c0-.5,0-1,.5-1.2.4-.3,1.1-.5,1.6-.5s1.1.2,1.6.7c.3.4.5.9.5,1.6v.5h-1.9c-2.1-.3-4.4.4-6.3,1.6-1.6.9-2.3,2.8-2.3,4.7s.7,3.3,1.9,4.2c1.4,1.1,3.1,1.6,4.7,1.6s3.1-.5,4.4-.9c0,.2,0,.7.2.9l.2.2h5.6v-.9c-.5-1.2-.7-2.6-.7-3.8v-7.7ZM151.6,21.4c-.2.7-.9,1.2-1.4,1.4-.9.2-1.6.4-2.3.4s-1.4-.2-2.1-.7c-.5-.5-.7-1.2-.7-1.9v-.2c.2-2.3,2.3-2.8,4.2-2.8h2.3v3.8Z"/>
    <path class="cls-2" d="M132.4,20.8c-.5.9-1.6,1.6-2.8,1.4-1.4,0-2.1-.7-2.1-2.3V7.7h-5.6v12.2c-.3,1.9.4,3.8,1.6,5.2s2.8,1.9,4.7,1.9,3.3-.5,4.4-1.5v1.2h5.4V7.7h-5.6v13.1Z"/>
    <rect class="cls-2" x="159.7" width="5.6" height="26.5"/>
  </g>
</svg>