<?xml version="1.0" encoding="utf-8"?>
<!-- Generator: Adobe Illustrator 27.9.2, SVG Export Plug-In . SVG Version: 6.00 Build 0)  -->
<svg version="1.1" id="Layer_1" xmlns="http://www.w3.org/2000/svg" xmlns:xlink="http://www.w3.org/1999/xlink" x="0px" y="0px"
	 viewBox="0 0 110.2 78.5" style="enable-background:new 0 0 110.2 78.5;" xml:space="preserve">
<style type="text/css">
	.st0{fill:#FFFFFF;}
</style>
<g id="Grupo_508" transform="translate(0 0)">
	<path id="Trazado_176" class="st0" d="M84.7,37.6c0.1-1.8-0.8-2.5-2.1-3.1c-8.5-4.1-16.9-8.2-25.4-12.3c-0.4-0.2-0.9-0.4-1.3-0.6
		c-0.9-0.5-2-0.2-2.5,0.7c0,0.1-0.1,0.1-0.1,0.2c-0.5,0.9-0.2,2,0.6,2.5c0.1,0.1,0.2,0.1,0.3,0.1c1.9,1,3.8,1.9,5.7,2.8
		c6.6,3.2,13.3,6.4,19.9,9.7c0.4,0.2,0.7,0.6,0.9,1.1c0,0.3-0.5,0.8-0.8,1C72.9,42.9,66,46,59.1,49c0,0-0.1,0-0.1,0.1
		c-2.7,2-5.2,1.2-8,0C35.2,41.9,19.3,34.9,3.5,27.9c-0.4-0.2-0.9-0.4-1.4-0.5c-1.1,0.1-2-0.7-2.1-1.8c-0.1-1.1,0.7-1.7,1.7-2.2
		c4-1.8,8-3.6,12-5.3C27,12.2,40.3,6.3,53.6,0.4c1-0.5,2.1-0.5,3.1,0C73.8,8,90.9,15.6,108,23.2c0.5,0.1,0.9,0.4,1.3,0.7
		c0.4,0.5,0.9,1.2,0.8,1.7c-0.2,0.7-0.6,1.3-1.2,1.6c-3.8,1.7-7.6,3.1-11.4,4.8C93.3,33.8,89.2,35.7,84.7,37.6"/>
	<path id="Trazado_177" class="st0" d="M75.4,68.1c-0.6,0.4-1.3,1.1-2.2,1.3c-14.9,2-29.8,1.9-44.6-1.6c-3.5-0.7-6.9-2.1-9.9-4.1
		c-2-1.3-3.2-3.5-3-5.8c0.1-6.6,0-13.3,0-20.2c2.7,1.2,5.3,2.3,7.9,3.5c10.1,4.5,20.3,9,30.5,13.5c0.8,0.2,1.6,0.2,2.4-0.2
		c7.8-3.4,15.6-6.9,23.4-10.4c0.2-0.1,0.4-0.1,0.8-0.2c0,2.3,0.1,4.4-0.1,6.6c0,0.4-0.7,0.8-1.1,1c-5,1.7-7.7,6.9-6.3,11.9
		C73.8,65.1,74.6,66.6,75.4,68.1"/>
	<path id="Trazado_178" class="st0" d="M85.5,66.1c1.5,3.1,3.1,6.1,4.6,9.2c1,2,0.2,3.2-2,3.3c-3.6,0-7.2,0-10.8,0
		c-2.2,0-2.9-1.2-2-3.2c1.3-2.7,2.7-5.5,4.1-8.2c0.3-0.7,0.5-1.1-0.2-1.7c-2.5-1.9-3.1-5.5-1.2-8.1c0.2-0.2,0.4-0.4,0.6-0.6
		c2.3-2.3,6-2.3,8.3,0c0.1,0.1,0.1,0.1,0.2,0.2c2.3,2.6,1.9,6.4-1,8.7C85.9,65.8,85.8,65.9,85.5,66.1"/>
	<path id="Trazado_179" class="st0" d="M92.4,62.8c0.5-5.9-1.8-9.4-7.8-11.7c0-2.7,0-5.5,0-8.3c0-0.4,0.3-0.7,0.6-0.9
		c3-1.4,6-2.7,9.1-4.2c0,3.4,0,6.7,0,9.9c0,3.7,0,7.5,0,11.2C94.5,60.4,93.7,61.9,92.4,62.8"/>
</g>
</svg>
