<?xml version="1.0" encoding="UTF-8"?>
<svg id="Capa_1" data-name="Capa 1" xmlns="http://www.w3.org/2000/svg" version="1.1" viewBox="0 0 223.8 60">
  <defs>
    <style>
      .cls-1 {
        fill: #fba414;
      }

      .cls-1, .cls-2, .cls-3 {
        stroke-width: 0px;
      }

      .cls-2 {
        fill: #000;
      }

      .cls-3 {
        fill: #fff;
      }
    </style>
  </defs>
  <path id="Trazado_3932" data-name="Trazado 3932" class="cls-1" d="M0,30V.9C0,0,0,0,.8,0h56.4c1,0,1,0,1,1v57.9c0,1.3.1,1.1-1.1,1.1H1c-.2,0-.4,0-.6,0-.2,0-.3-.2-.3-.4,0-.2,0-.4,0-.6v-29.1H0Z"/>
  <path id="Trazado_3933" data-name="Trazado 3933" class="cls-3" d="M31.9,28.9c0-2.9-1-5.6-2.9-7.7-4.3-4.9-11.7-5.4-16.6-1.1-4.9,4.3-5.4,11.7-1.1,16.6.2.3.5.5.7.7,3.8,3.6,8.2,4.2,13,2.2.3-.2.7-.2,1,0,3.4,1.6,6.8,3.3,10.2,4.9.2.1.5.3.7,0,0-.2,0-.4-.2-.6-3.8-3.1-7.6-6.2-11.4-9.3-.2-.3-.6-.3-.9,0,0,0,0,0,0,0-1.7,1.3-3.9,1.8-5.9,1.3-3.8-.9-6.2-4.7-5.3-8.5.7-2.8,3-4.9,5.8-5.4,3.9-.6,7.5,2.1,8.1,6,.2,1.5,0,3-.7,4.3-.2.3-.1.6.1.8,0,0,0,0,0,0,.9.7,1.8,1.5,2.7,2.3.4.3.6.3.8-.1,1.2-1.9,1.8-4,1.7-6.2h0Z"/>
  <path id="Trazado_3934" data-name="Trazado 3934" class="cls-3" d="M33.6,32.5c0,0-.1.2-.2.2-.6,1.3-1.2,2.5-1.8,3.8-.2.3,0,.5.2.6,3.4,2.8,7.8,3.9,12.1,3,3-.5,5.2-2.9,5.5-5.9.4-2.1-.5-4.3-2.2-5.6-1.4-.9-2.9-1.6-4.5-1.9-1.4-.4-2.8-.8-4.1-1.3-.8-.2-1.4-1.1-1.2-1.9,0-.8.7-1.5,1.5-1.6.9-.1,1.8-.2,2.7,0,1.5.3,2.9.9,4.1,1.8.4.3.6.2.9-.2.6-1,1.3-1.9,1.9-2.8.3-.4.2-.6-.1-.8-1.5-1.2-3.3-1.9-5.2-2.3-2.3-.6-4.8-.3-7,.6-2.4,1.1-4,3.6-3.8,6.2-.1,2.6,1.5,4.9,4,5.6,1.5.6,3.1.9,4.7,1.5.8.3,1.6.6,2.4.9.7.3,1.1,1,1,1.8,0,.7-.5,1.3-1.1,1.6-.5.2-1,.3-1.6.4-2.2.2-4.3-.5-6.1-1.8-.7-.5-1.3-1.1-2.1-1.6h0Z"/>
  <path id="Trazado_3935" data-name="Trazado 3935" class="cls-1" d="M183.7,16.1h-39.3c-.4,0-.9-.3-.9-.7,0,0,0-.2,0-.2V.8c0-.4.2-.8.6-.8,0,0,.1,0,.2,0h77.4c.5,0,1,0,1.5,0,.4,0,.6.2.6.6,0,1.6,0,3.1,0,4.7v10c0,.4-.2.8-.6.8,0,0-.1,0-.2,0h-39.3,0Z"/>
  <path id="Trazado_3936" data-name="Trazado 3936" class="cls-1" d="M195.7,60c-9.2,0-18.3,0-27.4,0-.5,0-.7-.1-.7-.7,0-5,0-9.9,0-14.9,0-.4.1-.6.6-.6.1,0,.3,0,.4,0h54.1c1.4,0,1.2,0,1.2,1.2,0,4.7,0,9.5,0,14.2,0,.7,0,.7-.7.7h-27.4Z"/>
  <path id="Trazado_3937" data-name="Trazado 3937" class="cls-1" d="M201.7,38h-21.3c-.4,0-.8-.2-.8-.6,0,0,0-.1,0-.2v-14.5c0-.8,0-.8.8-.8h42.5q.9,0,.9.9v14.3c0,.4-.2.8-.7.9,0,0-.1,0-.2,0h-21.3,0Z"/>
  <path id="Trazado_3938" data-name="Trazado 3938" class="cls-2" d="M81,10.2c.2-.6.4-1.2.6-1.8.5-1.7,1-3.4,1.5-5.1,0-.3.3-.5.7-.5,0,0,0,0,0,0,.7,0,1.4,0,2.1,0,0,.2,0,.4-.1.5-1.2,3.4-2.3,6.9-3.5,10.3,0,.4-.4.6-.8.6-1.6,0-1.6,0-2.1-1.6-.6-1.7-1.2-3.4-1.8-5.1,0-.2-.1-.3-.2-.6-.5,1.4-.9,2.6-1.3,3.9-.3,1-.7,2-1,3,0,.3-.3.5-.6.4,0,0,0,0,0,0-.3,0-.5,0-.8,0-1.1,0-.9.2-1.2-.9-1.1-3.3-2.2-6.6-3.3-9.9,0-.2-.1-.4-.2-.7.6,0,1.1,0,1.6,0,1.4,0,1.1-.2,1.5,1.1.6,2,1.2,3.9,1.8,5.9,0,.1,0,.3.2.5.3-.7.5-1.4.7-2,.6-1.7,1.1-3.3,1.7-5,0-.3.3-.5.6-.5,1.7,0,1.7,0,2.2,1.6.6,1.9,1.3,3.9,1.9,5.8,0,0,0,0,.1,0h0Z"/>
  <path id="Trazado_3939" data-name="Trazado 3939" class="cls-2" d="M89.8,31v-.6c0-1.8,0-3.7,0-5.5,0-.5.1-.6.6-.6.5,0,1,0,1.5,0,.4,0,.5.1.5.5,0,1.3,0,2.6,0,3.9,0,2.1,0,4.2,0,6.3,0,.5-.1.6-.6.6-1,.2-2-.3-2.5-1.2-1.3-1.8-2.7-3.6-4.1-5.4,0-.1-.2-.2-.3-.4,0,.2,0,.4,0,.5,0,1.9,0,3.8,0,5.8,0,.5-.1.7-.7.7-.4,0-.9,0-1.3,0-.5,0-.6-.2-.6-.6,0-1.7,0-3.4,0-5.1s0-3.3,0-5c0-.5.1-.6.6-.7,1.1-.2,2.3.4,2.8,1.4,1.1,1.7,2.5,3.3,3.7,4.9.1.1.2.3.3.4,0,0,0,0,.1,0h0Z"/>
  <path id="Trazado_3940" data-name="Trazado 3940" class="cls-2" d="M125.8,50.3v6.1c0,.4-.2.7-.6.8,0,0-.1,0-.2,0h-1.7v-11.3c.7,0,1.5,0,2.2,0,.2,0,.3.3.5.4,1.5,1.9,2.9,3.9,4.4,5.8.1.2.3.3.5.4v-.5c0-1.9,0-3.7,0-5.6,0-.4.1-.6.5-.5.5,0,1,0,1.6,0,.3,0,.4.1.4.4,0,3.5,0,7,0,10.5,0,.3,0,.5-.4.4h0c-1,0-2-.4-2.6-1.3-1.3-1.8-2.7-3.5-4.1-5.3,0-.1-.2-.2-.3-.3,0,0,0,0-.1,0h0Z"/>
  <path id="Trazado_3941" data-name="Trazado 3941" class="cls-2" d="M101.8,52.7v-6c0-.4.2-.7.6-.8,0,0,.1,0,.2,0,.4,0,.7,0,1.1,0,.5,0,.7.2.7.7,0,3.3,0,6.7,0,10,0,.5-.2.6-.7.7-1,.2-2-.3-2.4-1.2-1.3-1.9-2.7-3.6-4.1-5.4,0-.1-.2-.2-.3-.4,0,.3,0,.4,0,.6,0,1.9,0,3.9,0,5.8,0,.5-.1.6-.6.6-.5,0-.9,0-1.4,0-.4,0-.5-.1-.5-.6,0-2.1,0-4.1,0-6.1s0-2.7,0-4.1c0-.4.1-.5.6-.6,1.2-.2,2.3.3,2.9,1.4,1.2,1.7,2.5,3.4,3.8,5,0,0,.2.2.3.4h0Z"/>
  <path id="Trazado_3942" data-name="Trazado 3942" class="cls-2" d="M129.2,31.7c.9,1.3,1.7,2.5,2.7,4-.5,0-1,0-1.5,0-1,.2-2-.3-2.4-1.3-.3-.7-.8-1.2-1.2-1.9-.2-.3-.5-.5-.9-.5-1.3,0-1.3,0-1.3,1.3s0,1.2,0,1.8c0,.4-.1.5-.5.5-.5,0-1.1,0-1.6,0-.4,0-.5-.2-.5-.5,0-3.5,0-6.9,0-10.4,0-.3.1-.5.5-.5,1.7,0,3.3,0,5,0,.3,0,.6,0,.9,0,1.4.1,2.5,1.1,2.9,2.4.5,1.4.2,2.9-.8,3.9-.4.4-.8.7-1.3,1h0ZM124.6,28.3h0c0,.4,0,.8,0,1.2,0,.1.2.4.3.4.9,0,1.7,0,2.6,0,.8,0,1.5-.8,1.4-1.7,0-.8-.7-1.4-1.5-1.4-.7,0-1.5,0-2.2,0-.5,0-.7.1-.7.6,0,.3,0,.6,0,1h0Z"/>
  <path id="Trazado_3943" data-name="Trazado 3943" class="cls-2" d="M79.9,57.2c-1,0-1.9,0-2.8,0-.1,0-.3-.2-.4-.4-.6-.9-1.2-1.7-1.8-2.6-.2-.4-.6-.6-1-.6-1.2,0-1.2,0-1.3,1.3,0,.6,0,1.3,0,1.9,0,.3-.1.5-.5.5-.5,0-1,0-1.6,0-.5,0-.5-.2-.5-.6,0-2.2,0-4.4,0-6.6v-3.7c0-.2,0-.5.3-.5,1.9,0,3.8,0,5.7,0,1.7,0,3.2,1.2,3.4,2.9.4,1.7-.5,3.5-2.1,4.2,0,0-.1,0-.2.1.9,1.3,1.8,2.6,2.7,4h0ZM72.7,48.2v3c1,0,2,0,3,0,.8,0,1.3-.7,1.3-1.5,0,0,0,0,0,0,0-.7-.5-1.4-1.2-1.4,0,0,0,0,0,0-1,0-2,0-3,0h0Z"/>
  <path id="Trazado_3944" data-name="Trazado 3944" class="cls-2" d="M92.7,2.7c3.2-.1,5.9,2.4,6,5.6,0,0,0,.2,0,.2,0,3.2-2.7,5.9-5.9,5.8,0,0,0,0-.1,0-3.2,0-5.9-2.5-6-5.7,0-3.2,2.5-5.9,5.7-6,.1,0,.2,0,.3,0ZM89.3,8.5c0,1.8,1.3,3.4,3.2,3.5,0,0,.1,0,.2,0,1.8,0,3.3-1.4,3.3-3.3,0,0,0-.1,0-.2,0-1.9-1.4-3.5-3.2-3.5,0,0,0,0-.1,0-1.8,0-3.3,1.5-3.3,3.3,0,0,0,.1,0,.2h0Z"/>
  <path id="Trazado_3945" data-name="Trazado 3945" class="cls-2" d="M121.8,8.5c0-1.7,0-3.3,0-5,0-.5.1-.6.6-.6,1.5,0,3.1,0,4.6,0,3,.1,5.4,2.7,5.3,5.7,0,3-2.4,5.5-5.4,5.5-1.5,0-3.1,0-4.6,0-.4,0-.5-.2-.5-.5,0-1.7,0-3.4,0-5.2h0ZM125.8,5.2h0c-.3,0-.6,0-1,0-.3,0-.4,0-.4.4,0,2,0,4,0,5.9,0,.3.1.4.4.4.6,0,1.2,0,1.8,0,1.7,0,3-1.4,3.1-3.1.2-1.7-.9-3.2-2.6-3.6-.4,0-.8,0-1.2,0h0Z"/>
  <path id="Trazado_3946" data-name="Trazado 3946" class="cls-2" d="M110.4,14.2c-1,0-1.9,0-2.7,0-.2,0-.4-.2-.5-.4-.6-.9-1.3-1.8-1.9-2.8-.2-.3-.5-.5-.8-.4-.4,0-.9,0-1.4,0v3.6c-.8,0-1.5,0-2.3,0-.1,0-.2-.2-.3-.3,0,0,0-.2,0-.3,0-3.4,0-6.7,0-10.1,0-.5.1-.7.6-.6,1.8,0,3.6,0,5.3,0,2,0,3.6,1.6,3.6,3.6,0,.3,0,.6-.1,1-.2,1-.8,1.9-1.7,2.4-.2,0-.3.2-.6.3l2.7,4h0ZM103.2,8.3c1,0,1.9,0,2.9,0,.8,0,1.4-.7,1.4-1.5,0-.8-.4-1.4-1.2-1.5,0,0,0,0,0,0-1,0-2,0-3,0v3.1h0Z"/>
  <path id="Trazado_3947" data-name="Trazado 3947" class="cls-2" d="M145.7,47.3c-.5.6-1,1.2-1.6,1.9-.2-.2-.4-.3-.6-.4-1.5-1.2-3.7-.9-4.8.6,0,0,0,0,0,0-1.2,1.6-.9,3.8.7,5,1.1.9,2.7,1,3.9.2.3-.1.5-.5.4-.8,0-1.1.2-1-1-1-.3,0-.7,0-1,0-.4,0-.5-.1-.5-.5,0-1.7,0-1.7,1.7-1.7s2,0,3.1,0c0,0,.2,0,.2,0v1.9c0,.9,0,1.7,0,2.6,0,.2,0,.4-.2.6-2.3,1.9-5.6,2.1-8.1.6-2-1.4-2.9-3.8-2.3-6.2.5-2.3,2.4-4.1,4.8-4.4,1.8-.3,3.6.1,5.1,1.2.1,0,.2.2.4.3h0Z"/>
  <path id="Trazado_3948" data-name="Trazado 3948" class="cls-2" d="M115.7,35.7c-1.3,0-2.5,0-3.8,0-.4,0-.5,0-.5-.5,0-3.4,0-6.9,0-10.3,0-.4.1-.5.5-.5,2.5,0,5,0,7.5,0,.4,0,.6.1.5.5,0,.4,0,.8,0,1.2,0,.4-.1.6-.6.6-1.6,0-3.2,0-4.8,0-.6,0-.7.2-.7.7,0,.3,0,.6,0,1,0,.4.1.6.5.6,1.4,0,2.8,0,4.1,0,.5,0,.7.2.6.6,0,.5.2,1.3-.1,1.5-.3.3-1,.1-1.5.1-1,0-2,0-3.1,0-.5,0-.6.2-.6.6,0,.3,0,.7,0,1,0,.5.1.7.6.7,1.6,0,3.3,0,4.9,0,.4,0,.6.1.6.6,0,.5.1,1.3-.2,1.6-.3.3-1,.1-1.5.1-.9,0-1.8,0-2.6,0h0Z"/>
  <path id="Trazado_3949" data-name="Trazado 3949" class="cls-2" d="M109.5,50.6c.2-.2.4-.5.6-.7,1.1-1.2,2.2-2.4,3.3-3.6.2-.3.6-.4,1-.4.8,0,1.5,0,2.5,0-.3.3-.4.5-.6.6-1.2,1.3-2.4,2.5-3.6,3.8-.2.2-.3.5-.2.7,0,0,0,0,0,.1,1.4,1.8,2.7,3.6,4,5.4.1.2.2.3.5.7-.5,0-1,0-1.4,0-1.1.2-2.2-.3-2.6-1.3-.7-1.2-1.6-2.3-2.5-3.4-.4.4-.8.8-1.1,1.2-.1.2-.2.4-.1.5,0,.9,0,1.7,0,2.6,0,.3-.1.5-.5.5-.5,0-1,0-1.5,0-.5,0-.7-.1-.6-.6,0-2.6,0-5.3,0-7.9s0-1.5,0-2.3c0-.4,0-.6.5-.5.5,0,1,0,1.6,0,.4,0,.5.1.5.5,0,1.1,0,2.3,0,3.5v.7c0,0,.1,0,.2,0h0Z"/>
  <path id="Trazado_3950" data-name="Trazado 3950" class="cls-2" d="M70.1,28.1c0-1.1,0-2.2,0-3.2,0-.4.1-.5.5-.5.5,0,1,0,1.5,0,.4,0,.5.1.5.5,0,1.9,0,3.8,0,5.7,0,.5,0,.9.2,1.4.3,1.1,1.4,1.8,2.5,1.6,1.1,0,2-.9,2.1-2,0-.8,0-1.7,0-2.5,0-1.4,0-2.8,0-4.2,0-.4.1-.5.5-.5.6,0,1.1,0,1.7,0,.1,0,.4.2.4.4,0,2.3,0,4.7,0,7,0,2.3-1.9,4.1-4.1,4.1-.6,0-1.3,0-1.9,0-2-.2-3.6-1.9-3.6-4,0-1.2,0-2.4,0-3.7h0Z"/>
  <path id="Trazado_3951" data-name="Trazado 3951" class="cls-2" d="M92.7,57.2c-.9,0-1.6,0-2.4,0-.1,0-.3-.2-.4-.4-.3-.6-.5-1.2-.7-1.7,0-.3-.3-.4-.5-.4-1.3,0-2.6,0-3.9,0-.2,0-.4.2-.5.4-.3.5-.5,1.1-.7,1.7,0,.3-.3.5-.6.4-.7,0-1.4,0-2.1,0,.1-.4.2-.6.4-.9,1.4-3.3,2.8-6.7,4.3-10,0-.3.4-.5.8-.5,1.8,0,1.8,0,2.5,1.6,1.3,3.1,2.6,6.1,3.9,9.2,0,.2.1.4.3.7ZM86.8,49.1c0,0-.1,0-.1,0-.4,1.1-.9,2.2-1.3,3.3h2.9c-.5-1.2-.9-2.2-1.4-3.3h0Z"/>
  <path id="Trazado_3952" data-name="Trazado 3952" class="cls-2" d="M141.6,25.7c-.4.6-.8,1.2-1.3,1.8-.2-.1-.4-.2-.6-.4-.8-.5-1.8-.8-2.8-.7-.4,0-.8.3-.9.7-.2.4,0,.9.5,1.1,0,0,0,0,0,0,.5.2,1.1.4,1.7.6.6.2,1.3.4,1.9.7,1.2.4,1.9,1.6,1.8,2.9,0,1.3-.7,2.5-1.9,3-1.8.8-3.9.6-5.6-.3-.5-.3-1.1-.6-1.6-1,.5-.7,1-1.2,1.5-1.8.2.1.3.2.5.3.8.6,1.8,1,2.9,1,.2,0,.5,0,.7,0,.5,0,.8-.4.9-.9,0-.5-.2-.9-.7-1-.5-.2-1-.3-1.5-.5-.6-.2-1.2-.3-1.8-.6-1.2-.3-2-1.4-2-2.6-.1-1.3.5-2.5,1.6-3.2,2.2-1,4.7-.6,6.5.9h0Z"/>
  <path id="Trazado_3953" data-name="Trazado 3953" class="cls-2" d="M147.5,55.6c.6-.7,1-1.2,1.5-1.8.4.2.7.5,1,.7.9.6,1.9.8,2.9.6.5,0,.9-.3,1-.9s-.3-.9-.8-1c-.6-.2-1.1-.4-1.7-.5-.5-.2-1.1-.3-1.6-.5-1.2-.4-1.9-1.5-1.9-2.7-.1-1.3.6-2.5,1.8-3.1,1.6-.7,3.4-.7,4.9,0,.5.3,1.1.5,1.6.9-.5.7-.9,1.3-1.3,1.9-.5-.3-1.1-.6-1.7-.8-.6-.2-1.2-.2-1.8-.2-.5,0-.8.4-.8.8,0,.4.2.8.7.9.6.2,1.1.4,1.7.5.6.2,1.2.3,1.7.6,1.2.4,2,1.6,1.9,2.9,0,1.3-.8,2.6-2,3-1.8.7-3.8.5-5.4-.4-.5-.3-1.1-.6-1.6-1h0Z"/>
  <path id="Trazado_3954" data-name="Trazado 3954" class="cls-2" d="M98.6,24.4c.9,0,1.7,0,2.5,0,.1,0,.3.3.4.5.8,2.2,1.7,4.4,2.5,6.7,0,.2.1.4.3.7.3-.8.6-1.5.8-2.2.6-1.7,1.3-3.4,1.9-5.1,0-.4.4-.6.8-.6.7,0,1.3,0,2.1,0,0,.2-.1.4-.2.5-1.4,3.5-2.8,6.9-4.2,10.4,0,.3-.4.5-.7.5-1.7,0-1.7,0-2.3-1.6-1.2-3.1-2.5-6.2-3.7-9.3,0-.2-.1-.3-.2-.6Z"/>
  <path id="Trazado_3955" data-name="Trazado 3955" class="cls-2" d="M163.7,28.8c.8-1.4,1.6-2.7,2.4-4,.2-.4.5-.6.9-.5.7,0,1.4,0,2.2,0-.1.3-.2.4-.3.6-1.2,1.9-2.5,3.8-3.7,5.8-.2.3-.3.7-.3,1.1,0,1.1,0,2.2,0,3.3,0,.4-.1.6-.5.5-.5,0-1,0-1.6,0-.4,0-.5-.1-.5-.5,0-1.2,0-2.3,0-3.5,0-.3-.1-.6-.3-.9-1.2-1.9-2.4-3.8-3.6-5.7-.1-.2-.2-.4-.5-.7.4,0,.9,0,1.3,0,1.1-.3,2.2.3,2.5,1.4.5,1.1,1.1,2.1,1.8,3.1h0Z"/>
  <path id="Trazado_3956" data-name="Trazado 3956" class="cls-2" d="M152.5,24.4c1.4,0,2.8,0,4.1,0,.4,0,.6.1.5.6,0,.4,0,.9,0,1.3,0,.3-.1.5-.5.5-.8,0-1.6,0-2.4,0-.4,0-.5.2-.5.6,0,2.6,0,5.2,0,7.8,0,.5-.1.7-.7.7-.4,0-.8,0-1.2,0-.5,0-.7-.1-.7-.7,0-2.6,0-5.1,0-7.7,0-.5-.1-.7-.7-.7-.8,0-1.5,0-2.3,0-.4,0-.5-.1-.5-.5,0-.5,0-.9,0-1.4,0-.4.2-.5.5-.5,1.4,0,2.8,0,4.2,0h0Z"/>
  <path id="Trazado_3957" data-name="Trazado 3957" class="cls-2" d="M114.7,2.9v.9c0,2.5,0,5,0,7.4,0,.5.1.7.7.7,1.5,0,2.9,0,4.4,0,.4,0,.6.1.5.6,0,.4,0,.9,0,1.3,0,.3-.1.4-.5.4-2.4,0-4.9,0-7.3,0-.3,0-.4-.1-.4-.4,0-3.5,0-7,0-10.5,0-.1.2-.4.3-.4.7,0,1.5,0,2.3,0h0Z"/>
  <path id="Trazado_3958" data-name="Trazado 3958" class="cls-2" d="M120.9,57.2c-.7,0-1.4,0-2.1,0-.4,0-.4-.3-.4-.6,0-2.6,0-5.2,0-7.8,0-.8,0-1.7,0-2.5,0-.4,0-.6.5-.5.6,0,1.3,0,2,0v11.3h0Z"/>
  <path id="Trazado_3959" data-name="Trazado 3959" class="cls-2" d="M146.3,30c0,1.7,0,3.4,0,5.1,0,.5-.2.7-.6.6-.5,0-1,0-1.5,0-.3,0-.5,0-.5-.4,0-3.5,0-7,0-10.5,0-.3.1-.4.4-.4.5,0,1.1,0,1.6,0,.4,0,.5.2.5.5,0,1.7,0,3.4,0,5.1h0Z"/>
  <path id="Trazado_3960" data-name="Trazado 3960" class="cls-2" d="M94.7,30c0-1.7,0-3.4,0-5.1,0-.5.2-.6.6-.6.5,0,1,0,1.5,0,.3,0,.5,0,.5.5,0,3.5,0,7,0,10.5,0,.3-.1.4-.5.4-.5,0-1.1,0-1.6,0-.4,0-.5-.1-.5-.5,0-1.7,0-3.5,0-5.2h0Z"/>
</svg>