<?xml version="1.0" encoding="UTF-8"?>
<svg id="Capa_1" data-name="Capa 1" xmlns="http://www.w3.org/2000/svg" xmlns:xlink="http://www.w3.org/1999/xlink" version="1.1" viewBox="0 0 87.96 62.56">
  <defs>
    <style>
      .cls-1 {
        fill: url(#Degradado_sin_nombre_11);
      }

      .cls-1, .cls-2, .cls-3, .cls-4, .cls-5, .cls-6, .cls-7, .cls-8, .cls-9, .cls-10, .cls-11, .cls-12, .cls-13, .cls-14, .cls-15, .cls-16 {
        stroke-width: 0px;
      }

      .cls-2 {
        fill: url(#Degradado_sin_nombre_10);
      }

      .cls-3 {
        fill: #b8b8b8;
      }

      .cls-4 {
        fill: #000;
      }

      .cls-5 {
        fill: url(#Degradado_sin_nombre_11-2);
      }

      .cls-6 {
        fill: #88af2c;
      }

      .cls-7 {
        fill: #bbd900;
      }

      .cls-8 {
        fill: url(#Degradado_sin_nombre_3);
      }

      .cls-9 {
        fill: url(#Degradado_sin_nombre_9);
      }

      .cls-10 {
        fill: url(#Degradado_sin_nombre_6);
      }

      .cls-11 {
        fill: #fefefe;
      }

      .cls-12 {
        fill: url(#Degradado_sin_nombre_6-5);
      }

      .cls-13 {
        fill: url(#Degradado_sin_nombre_6-4);
      }

      .cls-14 {
        fill: url(#Degradado_sin_nombre_6-3);
      }

      .cls-15 {
        fill: url(#Degradado_sin_nombre_6-2);
      }

      .cls-16 {
        fill: url(#Degradado_sin_nombre_9-2);
      }
    </style>
    <radialGradient id="Degradado_sin_nombre_3" data-name="Degradado sin nombre 3" cx="-698.69" cy="567.34" fx="-698.69" fy="567.34" r=".59" gradientTransform="translate(28329.66 22988.6) scale(40.51 -40.5)" gradientUnits="userSpaceOnUse">
      <stop offset=".15" stop-color="#3eaf52"/>
      <stop offset=".24" stop-color="#31aa4d"/>
      <stop offset=".41" stop-color="#0f9e42"/>
      <stop offset=".48" stop-color="#00993d"/>
    </radialGradient>
    <radialGradient id="Degradado_sin_nombre_6" data-name="Degradado sin nombre 6" cx="-679.16" cy="530.62" fx="-679.16" fy="530.62" r="3.76" gradientTransform="translate(4351.72 3399.81) scale(6.37 -6.38)" gradientUnits="userSpaceOnUse">
      <stop offset="0" stop-color="#3eaf52"/>
      <stop offset=".64" stop-color="#00993d"/>
    </radialGradient>
    <radialGradient id="Degradado_sin_nombre_6-2" data-name="Degradado sin nombre 6" cx="-605.94" cy="440.7" fx="-605.94" fy="440.7" r="12.34" gradientTransform="translate(1212.13 871.1) scale(1.93 -1.95)" xlink:href="#Degradado_sin_nombre_6"/>
    <radialGradient id="Degradado_sin_nombre_6-3" data-name="Degradado sin nombre 6" cx="-443.99" cy="137.61" fx="-443.99" fy="137.61" r="38.72" gradientTransform="translate(299.98 99.58) scale(.62 -.62)" xlink:href="#Degradado_sin_nombre_6"/>
    <radialGradient id="Degradado_sin_nombre_6-4" data-name="Degradado sin nombre 6" cx="-238.44" cy="122.82" fx="-238.44" fy="122.82" r="42.49" gradientTransform="translate(255.15 83.05) scale(.57 -.56)" xlink:href="#Degradado_sin_nombre_6"/>
    <radialGradient id="Degradado_sin_nombre_6-5" data-name="Degradado sin nombre 6" cx="-185.11" cy="39.7" fx="-185.11" fy="39.7" r="50.69" gradientTransform="translate(190.53 32.48) scale(.48 -.47)" xlink:href="#Degradado_sin_nombre_6"/>
    <linearGradient id="Degradado_sin_nombre_11" data-name="Degradado sin nombre 11" x1="-687.59" y1="568.23" x2="-687.59" y2="567.72" gradientTransform="translate(6850.05 23446.73) scale(9.92 -41.22)" gradientUnits="userSpaceOnUse">
      <stop offset="0" stop-color="#fef7ca"/>
      <stop offset=".12" stop-color="#fdf6c4"/>
      <stop offset=".27" stop-color="#fdf3b3"/>
      <stop offset=".45" stop-color="#fdf098"/>
      <stop offset=".64" stop-color="#fdea71"/>
      <stop offset=".84" stop-color="#fce341"/>
      <stop offset="1" stop-color="#fcde17"/>
    </linearGradient>
    <linearGradient id="Degradado_sin_nombre_9" data-name="Degradado sin nombre 9" x1="-685.7" y1="567.94" x2="-685.7" y2="567.41" gradientTransform="translate(6717.31 23418.59) scale(9.79 -41.19)" gradientUnits="userSpaceOnUse">
      <stop offset="0" stop-color="#f6bb00"/>
      <stop offset=".82" stop-color="#fcd600"/>
      <stop offset="1" stop-color="#fcde17"/>
    </linearGradient>
    <linearGradient id="Degradado_sin_nombre_9-2" data-name="Degradado sin nombre 9" x1="-695.25" y1="566.66" x2="-695.25" y2="565.99" gradientTransform="translate(15211.06 18645.54) scale(21.85 -32.86)" xlink:href="#Degradado_sin_nombre_9"/>
    <linearGradient id="Degradado_sin_nombre_10" data-name="Degradado sin nombre 10" x1="-687.45" y1="565.94" x2="-687.45" y2="565.2" gradientTransform="translate(6788.36 16965.56) scale(9.83 -29.93)" gradientUnits="userSpaceOnUse">
      <stop offset=".22" stop-color="#f6bb00"/>
      <stop offset=".45" stop-color="#f6be00"/>
      <stop offset=".67" stop-color="#f9ca00"/>
      <stop offset=".82" stop-color="#fcd600"/>
      <stop offset="1" stop-color="#fcde17"/>
    </linearGradient>
    <linearGradient id="Degradado_sin_nombre_11-2" data-name="Degradado sin nombre 11" x1="-698.14" y1="569.11" x2="-698.14" y2="568.69" gradientTransform="translate(26444.44 28661.45) scale(37.86 -50.32)" xlink:href="#Degradado_sin_nombre_11"/>
  </defs>
  <path id="Trazado_3827" data-name="Trazado 3827" class="cls-6" d="M85.13,45.99l-.07.12c-.17.28-.51.4-.82.3-.37-.11-.73-.23-1.1-.34-.43-.13-.89-.14-1.34-.05-.62.14-1.17.51-1.53,1.05-.45.64-.72,1.39-.77,2.17-.09.98.1,1.96.53,2.84.36.78,1.11,1.31,1.97,1.4.5.07,1.02,0,1.48-.21.21-.09.42-.19.63-.27.31-.17.71-.06.88.26.07.12.09.26.07.39.02.36-.18.7-.51.87-.37.19-.76.31-1.17.37-.78.15-1.59.12-2.36-.1-1.22-.36-2.22-1.25-2.72-2.43-.49-1.09-.65-2.3-.46-3.48.1-.83.36-1.63.78-2.36.68-1.16,1.87-1.91,3.21-2.02.81-.1,1.64,0,2.4.3.13.05.26.12.38.19.24.11.42.31.51.56v.46h0Z"/>
  <path id="Trazado_3828" data-name="Trazado 3828" class="cls-6" d="M48.61,43.31c-.03.09-.07.17-.09.26-1.05,3.51-2.11,7.02-3.16,10.54-.03.09-.05.18-.09.28-.08.34-.38.58-.73.6-.36.02-.71-.17-.87-.49-.05-.09-.08-.19-.11-.3-1.05-3.54-2.11-7.09-3.16-10.63-.02-.08-.05-.16-.09-.29-.03.05-.06.11-.08.17-.24,1.63-.47,3.26-.71,4.89-.24,1.64-.47,3.28-.71,4.92-.05.36-.1.72-.16,1.08-.06.43-.41.77-.85.8-.32.03-.62-.14-.74-.43-.12-.24-.16-.52-.11-.78.08-.48.15-.97.24-1.45.47-2.75.95-5.49,1.42-8.24.13-.76.25-1.51.4-2.26.13-.69.79-1.15,1.48-1.02.09.02.18.04.27.08.36.13.63.43.72.8.34,1.19.69,2.37,1.03,3.56.6,2.05,1.19,4.1,1.79,6.15.03.12.09.24.16.35.03-.08.06-.15.08-.23.92-3.15,1.83-6.31,2.74-9.46.03-.12.07-.24.11-.36.15-.55.66-.92,1.23-.89.58-.02,1.09.36,1.25.92.08.29.12.58.17.87.53,3.1,1.05,6.19,1.58,9.29.09.52.19,1.04.26,1.56.03.21.04.42.01.63-.02.42-.35.76-.78.79-.44.01-.82-.31-.88-.75-.09-.55-.16-1.1-.24-1.65-.2-1.43-.41-2.86-.61-4.29-.22-1.55-.44-3.09-.66-4.63-.02-.12-.04-.24-.06-.35-.02,0-.03,0-.05,0h0Z"/>
  <path id="Trazado_3829" data-name="Trazado 3829" class="cls-6" d="M47.15,34.04h-.38c-.65,0-1.31-.02-1.95,0-.44.04-.83-.27-.87-.71-.02-.18.03-.36.12-.51.09-.2.28-.33.49-.34.09,0,.17,0,.26,0h2.93c.55-.06,1.04.34,1.09.89,0,.06,0,.12,0,.18.08,1.17-.06,2.34-.43,3.46-.47,1.57-1.72,2.78-3.31,3.2-1.1.31-2.27.35-3.39.12-1.36-.27-2.56-1.07-3.34-2.22-.65-.93-1.08-2-1.25-3.12-.34-1.83-.06-3.73.8-5.39.89-1.81,2.7-2.99,4.71-3.07,1.38-.13,2.77.14,4.01.78.42.21.8.5,1.1.86.24.25.29.63.12.93-.18.31-.55.46-.89.37-.2-.06-.39-.15-.56-.27-.3-.19-.58-.4-.88-.59-.51-.34-1.1-.55-1.72-.61-1.23-.2-2.49.18-3.4,1.03-.54.54-.95,1.21-1.19,1.94-.47,1.37-.54,2.84-.2,4.25.13.64.36,1.25.69,1.82.86,1.58,2.71,2.34,4.43,1.81,1.77-.41,3.02-1.99,3.02-3.8.02-.33.02-.66-.02-.98h0Z"/>
  <g id="Grupo_1353" data-name="Grupo 1353">
    <path id="Trazado_3830" data-name="Trazado 3830" class="cls-6" d="M43.67,54.49c.17.32.51.52.87.49.35-.02.64-.26.73-.6.03-.09.06-.18.09-.28,1.05-3.51,2.11-7.02,3.16-10.54.03-.09.06-.17.09-.26.02,0,.03,0,.05,0,.02.12.04.23.06.35.22,1.54.44,3.09.66,4.63.2,1.43.41,2.86.61,4.29.08.55.15,1.1.24,1.65.06.44.44.76.88.75.42-.03.76-.37.78-.79.02-.21.02-.42-.01-.63-.08-.52-.18-1.04-.26-1.56-.53-3.1-1.05-6.19-1.58-9.29-.05-.29-.09-.59-.17-.87-.15-.56-.67-.94-1.25-.92-.57-.03-1.08.35-1.23.89-.04.12-.07.24-.11.36-.92,3.15-1.83,6.31-2.74,9.46-.02.08-.05.16-.08.23-.07-.11-.13-.22-.16-.35-.6-2.05-1.2-4.1-1.79-6.15-.35-1.19-.69-2.37-1.03-3.56-.09-.37-.36-.67-.72-.8-.65-.27-1.39.03-1.67.68-.04.09-.06.17-.08.27-.15.75-.27,1.51-.4,2.26-.47,2.75-.95,5.49-1.42,8.24-.08.48-.16.96-.24,1.45-.05.27-.01.54.11.78.13.29.43.47.74.43.44-.03.79-.37.85-.8.06-.36.11-.72.16-1.08.24-1.64.48-3.28.71-4.92.24-1.63.47-3.26.71-4.89.02-.06.04-.12.08-.17.04.13.07.21.09.29,1.05,3.54,2.11,7.09,3.16,10.63.03.1.07.2.11.3h0Z"/>
    <path id="Trazado_3831" data-name="Trazado 3831" class="cls-6" d="M38.38,38.09c.77,1.16,1.97,1.96,3.34,2.22,1.12.23,2.28.19,3.39-.12,1.58-.42,2.84-1.63,3.31-3.2.36-1.12.51-2.29.43-3.46.04-.55-.38-1.03-.93-1.06-.06,0-.11,0-.17,0h-2.93c-.09,0-.17,0-.26,0-.22.01-.41.14-.49.34-.24.37-.13.86.24,1.1.15.1.33.14.51.12.65-.03,1.3,0,1.95,0h.38c.04.33.04.65.02.98,0,1.81-1.25,3.39-3.02,3.8-1.72.53-3.57-.23-4.43-1.81-.32-.57-.55-1.18-.69-1.82-.34-1.41-.27-2.88.2-4.25.24-.73.64-1.4,1.19-1.94.91-.85,2.17-1.23,3.4-1.03.61.06,1.2.27,1.72.61.3.19.58.41.88.59.17.12.36.21.56.27.35.09.71-.06.89-.37.17-.3.12-.68-.12-.93-.31-.36-.68-.65-1.1-.86-1.24-.63-2.63-.9-4.01-.78-2.01.08-3.82,1.26-4.71,3.07-.86,1.66-1.14,3.55-.8,5.39.18,1.12.6,2.19,1.25,3.12h0Z"/>
    <path id="Trazado_3832" data-name="Trazado 3832" class="cls-6" d="M69.51,40.34c1.53.3,3.11-.04,4.37-.95.18-.12.35-.27.49-.44.12-.14.21-.32.26-.5.08-.28-.02-.57-.26-.74-.21-.15-.5-.13-.7.04-.2.13-.39.28-.58.42-.87.65-1.97.92-3.04.75-1.29-.16-2.31-1.19-2.46-2.49-.02-.17-.03-.34-.05-.55.18,0,.3-.02.42-.02h5.72c.16,0,.33,0,.49-.03.4,0,.73-.34.72-.74,0-.02,0-.04,0-.06,0-.23-.01-.46-.05-.69-.13-1.34-.78-2.58-1.81-3.46-1.42-1.16-3.43-1.26-4.96-.24-.64.44-1.16,1.04-1.52,1.74-.49.93-.74,1.96-.73,3.01,0,1.15.35,2.27,1,3.22.62.92,1.59,1.55,2.68,1.73h0ZM68.69,31.96c.94-.68,2.19-.74,3.19-.15.87.62,1.35,1.67,1.23,2.73h-5.51c-.22-.67.35-2.02,1.09-2.59h0Z"/>
    <path id="Trazado_3833" data-name="Trazado 3833" class="cls-6" d="M57.83,39.65c.7.48,1.52.75,2.37.78,1.51.12,3.01-.4,4.12-1.43.24-.21.35-.52.29-.83,0-.31-.26-.55-.56-.55-.1,0-.21.03-.29.09-.21.13-.42.27-.62.42-.88.68-2.01.97-3.11.8-1.25-.15-2.25-1.13-2.43-2.37-.04-.2-.05-.41-.07-.66.2,0,.33-.02.46-.02h5.69c.19,0,.38-.01.57-.04.37-.03.64-.35.61-.72.06-1.51-.52-2.97-1.6-4.02-1.61-1.53-4.14-1.53-5.75,0-1.13,1.16-1.73,2.74-1.68,4.36,0,.83.19,1.64.56,2.39.32.72.83,1.35,1.47,1.81h0ZM58.42,32.17c.58-.58,1.4-.86,2.21-.75,1.32.09,2.37,1.14,2.47,2.46.03.2.04.41.06.63-.35.07-5.37.06-5.61,0-.01-.03-.02-.07-.02-.1,0-.83.32-1.63.89-2.24h0Z"/>
  </g>
  <g id="Grupo_1354" data-name="Grupo 1354">
    <path id="Trazado_3834" data-name="Trazado 3834" class="cls-6" d="M61.6,52.33c.04.06.08.12.11.19-.03-.07-.06-.13-.11-.19Z"/>
    <path id="Trazado_3835" data-name="Trazado 3835" class="cls-6" d="M61.58,53.37s-.05.06-.08.1c.03-.03.05-.06.08-.1Z"/>
    <path id="Trazado_3836" data-name="Trazado 3836" class="cls-6" d="M60.54,52.45c-.07.05-.13.1-.2.15-.11.08-.21.16-.32.23.11-.07.22-.15.32-.23.07-.05.13-.1.2-.15Z"/>
    <path id="Trazado_3837" data-name="Trazado 3837" class="cls-6" d="M61.65,53.27s-.04.07-.06.1c.02-.03.04-.06.06-.1Z"/>
    <path id="Trazado_3838" data-name="Trazado 3838" class="cls-6" d="M61.72,53.11c-.02.05-.05.11-.08.15.03-.05.05-.1.08-.15Z"/>
    <path id="Trazado_3840" data-name="Trazado 3840" class="cls-6" d="M59.85,52.92c.05-.03.11-.06.16-.1-.05.03-.11.07-.16.1Z"/>
    <path id="Trazado_3841" data-name="Trazado 3841" class="cls-6" d="M61.97,49.81c-.02.09-.06.17-.12.25.06-.07.1-.16.12-.25Z"/>
    <path id="Trazado_3842" data-name="Trazado 3842" class="cls-6" d="M54.73,51.05c.1.66.43,1.26.92,1.71-.49-.45-.82-1.05-.92-1.71-.07-.22-.08-.46-.02-.69h0c-.06.23-.05.46.02.69Z"/>
    <path id="Trazado_3844" data-name="Trazado 3844" class="cls-6" d="M57.76,53.48c-.1,0-.2,0-.3,0-.67-.03-1.31-.28-1.82-.72.51.44,1.15.69,1.82.72.1,0,.2,0,.3,0Z"/>
    <path id="Trazado_3845" data-name="Trazado 3845" class="cls-6" d="M53.77,46.74c.05-.09.1-.17.16-.25-.05.08-.11.17-.16.25Z"/>
    <path id="Trazado_3846" data-name="Trazado 3846" class="cls-6" d="M53.92,46.49c.05-.08.11-.17.17-.25-.06.08-.12.16-.17.25Z"/>
    <path id="Trazado_3847" data-name="Trazado 3847" class="cls-6" d="M58.12,44.49c.12.02.25.04.36.06-.12-.02-.24-.05-.36-.06Z"/>
    <path id="Trazado_3848" data-name="Trazado 3848" class="cls-6" d="M61.71,47.73c.07.22.13.45.18.69-.04-.23-.1-.46-.18-.69Z"/>
    <path id="Trazado_3849" data-name="Trazado 3849" class="cls-6" d="M61.52,47.24c.07.16.13.33.19.49-.05-.17-.12-.33-.19-.49Z"/>
    <path id="Trazado_3850" data-name="Trazado 3850" class="cls-6" d="M53.33,47.66c.03-.09.07-.18.11-.27-.04.09-.07.18-.11.27Z"/>
    <path id="Trazado_3851" data-name="Trazado 3851" class="cls-6" d="M61.28,46.76c.09.15.17.31.24.47-.07-.16-.15-.32-.24-.47Z"/>
    <path id="Trazado_3852" data-name="Trazado 3852" class="cls-6" d="M55.1,54.26c-.12-.08-.24-.17-.35-.26.11.09.23.18.35.26Z"/>
    <path id="Trazado_3853" data-name="Trazado 3853" class="cls-6" d="M55.25,54.35s-.1-.06-.15-.09l.15.09Z"/>
    <path id="Trazado_3854" data-name="Trazado 3854" class="cls-6" d="M61.6,52.33c-.09-.12-.23-.19-.37-.19.15,0,.29.08.37.19Z"/>
    <path id="Trazado_3855" data-name="Trazado 3855" class="cls-6" d="M57.99,44.48c-.08,0-.17-.02-.26-.02s-.18,0-.27,0c.09,0,.18,0,.27,0s.17.01.26.02Z"/>
    <path id="Trazado_3856" data-name="Trazado 3856" class="cls-6" d="M55.71,54.59c-.13-.06-.26-.12-.39-.19.13.07.26.14.39.19Z"/>
    <path id="Trazado_3857" data-name="Trazado 3857" class="cls-6" d="M54.19,53.44c.17.2.36.39.56.56-.21-.17-.39-.36-.56-.56Z"/>
    <path id="Trazado_3858" data-name="Trazado 3858" class="cls-6" d="M55.71,54.58c.19.08.39.15.59.2.46.12.94.18,1.42.18-.48,0-.96-.07-1.42-.18-.2-.05-.4-.12-.59-.2Z"/>
    <path id="Trazado_3859" data-name="Trazado 3859" class="cls-6" d="M62,49.42c0-.16-.02-.32-.04-.47,0-.06-.01-.12-.02-.18-.01-.12-.03-.24-.05-.35-.04-.23-.1-.46-.18-.69-.05-.17-.12-.33-.19-.49-.07-.16-.15-.32-.24-.47-.03-.05-.06-.1-.09-.15-.06-.1-.13-.2-.2-.3-.05-.07-.1-.14-.15-.2s-.1-.13-.16-.19c-.56-.68-1.34-1.15-2.2-1.35-.12-.03-.24-.05-.36-.06-.04,0-.08,0-.12-.01-.08,0-.17-.02-.26-.02s-.18,0-.27,0c-.59,0-1.18.12-1.72.37-.42.2-.79.46-1.12.79-.06.06-.12.12-.18.19s-.12.13-.17.2c-.03.03-.06.07-.08.11l-.09.12c-.06.08-.12.16-.17.25s-.11.17-.16.25c-.12.21-.24.43-.33.65-.04.09-.07.18-.11.27s-.06.18-.09.27-.05.18-.08.28-.05.19-.06.28c0,.05-.02.09-.03.14-.02.09-.03.19-.05.29-.03.19-.04.38-.05.58-.02.35,0,.7.03,1.05,0,.06.01.12.02.18.02.12.04.24.06.36.01.06.02.12.04.18.03.12.06.23.09.35.18.58.45,1.13.81,1.61.05.07.11.14.17.21.17.2.36.39.56.56.11.09.23.18.35.26l.15.09s.05.03.08.04c.13.07.26.14.39.19.19.08.39.15.59.2.46.12.94.18,1.42.18.1,0,.21,0,.31,0,.05,0,.1,0,.15,0,.1,0,.2-.02.3-.03.15-.02.3-.05.45-.08s.29-.07.44-.12c.6-.19,1.17-.48,1.68-.85.16-.12.32-.25.45-.4.03-.03.05-.06.08-.1.02-.03.04-.06.06-.1.03-.05.05-.1.08-.15.06-.17.07-.35,0-.53,0-.03-.02-.05-.03-.08-.03-.07-.06-.13-.11-.19-.09-.12-.23-.19-.37-.19-.04,0-.09,0-.13.01-.02,0-.05.01-.07.02h-.03s-.05.03-.07.04l-.04.02c-.12.07-.24.14-.35.22-.07.05-.13.1-.2.15-.11.08-.21.16-.32.23-.05.03-.11.07-.16.1-.08.05-.17.09-.25.14-.57.28-1.2.43-1.83.42-.1,0-.2,0-.3,0-.67-.03-1.31-.28-1.82-.72-.49-.45-.82-1.05-.92-1.71-.07-.22-.08-.46-.02-.69h6.31c.08,0,.17,0,.25-.01.22-.01.43-.12.57-.29.06-.07.1-.16.12-.25.02-.08.03-.16.03-.24v-.16h0ZM60.25,49.06h-5.55c-.05-.17-.05-.35,0-.52.06-.74.4-1.43.95-1.94.14-.13.3-.24.46-.34,1.06-.59,2.38-.43,3.28.38.58.61.9,1.43.88,2.27,0,.05-.02.1-.03.15h0Z"/>
  </g>
  <path id="Trazado_3860" data-name="Trazado 3860" class="cls-6" d="M78.21,31.28c.11-.12.18-.19.24-.25,1.39-1.43,3.68-1.46,5.11-.07.23.23.43.48.6.76.3.57.46,1.2.46,1.85,0,1.15,0,2.3,0,3.45v2.56c.03.31-.14.6-.42.73-.3.16-.66.13-.93-.07-.16-.1-.26-.26-.29-.45-.03-.17-.04-.34-.04-.51,0-1.72,0-3.45,0-5.17,0-.27,0-.54-.05-.8-.17-.97-.95-1.71-1.93-1.83-.94-.16-1.89.25-2.41,1.06-.19.3-.31.64-.34,1-.03.3-.04.59-.04.89,0,1.64,0,3.27,0,4.91,0,.12,0,.25,0,.37,0,.41-.32.76-.73.78-.43.03-.81-.26-.9-.69-.03-.15-.04-.3-.04-.46v-8.24c0-.15.01-.31.03-.46.05-.42.43-.72.85-.68.41,0,.75.32.77.74.02.18.02.35.03.6h0Z"/>
  <path id="Trazado_3861" data-name="Trazado 3861" class="cls-6" d="M65.86,44.54c.19,0,.33.01.47.02.18,0,.36.02.54.04.32.07.55.37.53.7,0,.33-.21.62-.53.7-.12.02-.25.03-.37.03-.19,0-.38,0-.6,0-.01.16-.03.29-.03.42v7.64c0,.48-.4.87-.88.87-.07,0-.14,0-.2-.03-.31-.06-.55-.32-.58-.64-.01-.14-.02-.29-.01-.43v-7.39c0-.49,0-.44-.46-.45-.18,0-.36-.01-.54-.04-.33-.07-.57-.36-.58-.7,0-.35.25-.65.6-.7.14-.02.28-.03.43-.03.16,0,.32,0,.52,0,.01-.14.04-.24.04-.35,0-.62.02-1.25,0-1.87-.03-.46.32-.85.78-.88.15,0,.3.02.44.1.31.12.5.43.47.75,0,.61,0,1.23,0,1.84v.39h0Z"/>
  <path id="Trazado_3862" data-name="Trazado 3862" class="cls-6" d="M70.01,46.16c.05-.08.11-.15.16-.23.26-.4.59-.75.98-1.05.3-.23.65-.38,1.02-.43.51-.07.98.29,1.04.8,0,.03,0,.06,0,.09.02.28-.13.54-.38.66-.29.13-.59.22-.88.34-.27.08-.54.19-.8.32-.63.37-1.05,1.01-1.15,1.74-.04.28-.07.57-.06.86,0,1.54,0,3.08,0,4.62,0,.11,0,.23,0,.34-.03.38-.32.69-.7.73-.39.06-.77-.17-.91-.55-.04-.13-.06-.26-.06-.39,0-2.86,0-5.73,0-8.59,0-.09,0-.17.02-.26.09-.45.53-.74.98-.65.36.07.63.37.66.73.01.18,0,.36,0,.55v.34s.04.01.06.02h0Z"/>
  <path id="Trazado_3863" data-name="Trazado 3863" class="cls-6" d="M52.13,31.66c.21-.27.37-.49.55-.7.26-.32.58-.59.94-.79.28-.16.59-.23.91-.21.49.02.86.43.84.92,0,.04,0,.07-.01.11-.02.19-.13.37-.3.47-.2.11-.41.2-.62.28-.14.05-.29.09-.44.12-1.09.28-1.85,1.25-1.86,2.38-.03.62-.01,1.24-.01,1.87v3.19c0,.16,0,.33-.03.49-.04.39-.38.68-.78.66-.41.03-.77-.26-.84-.66-.01-.1-.02-.21-.02-.32v-8.5c0-.07,0-.13,0-.2.02-.45.41-.8.86-.78.38.02.7.31.77.68.03.25.02.52.04.77,0,.05,0,.11.02.23h0Z"/>
  <path id="Trazado_3864" data-name="Trazado 3864" class="cls-6" d="M76,49.73v4.14c0,.11,0,.21,0,.32-.03.46-.42.8-.88.78-.36-.02-.67-.27-.75-.62-.03-.12-.04-.24-.04-.37v-8.47c0-.14.02-.29.05-.43.09-.39.46-.65.86-.61.4.02.72.34.76.73,0,.1,0,.21,0,.32v4.22h0Z"/>
  <path id="Trazado_3865" data-name="Trazado 3865" class="cls-4" d="M5.76,59.87c.09-.29.18-.58.27-.87.14-.45.27-.9.43-1.34.06-.26.31-.44.58-.42.29-.03.56.16.61.45.21.63.4,1.26.6,1.89.03.1.08.2.14.28.12-.44.23-.88.35-1.33.09-.32.16-.65.26-.97.05-.23.27-.38.5-.33.01,0,.02,0,.03,0,.2.02.35.19.33.39,0,0,0,0,0,0,0,.12-.03.25-.07.36-.24.87-.49,1.73-.74,2.59-.02.08-.05.16-.08.24-.11.31-.44.47-.75.36-.17-.06-.3-.19-.36-.35-.18-.52-.33-1.04-.5-1.56l-.29-.92c-.04.06-.07.13-.1.2-.21.65-.41,1.3-.62,1.94-.04.12-.08.24-.12.35-.07.24-.3.39-.55.37-.25.02-.48-.14-.54-.38-.05-.13-.09-.27-.13-.41-.23-.79-.45-1.58-.68-2.37-.04-.13-.07-.26-.09-.39-.04-.2.08-.39.28-.43,0,0,0,0,0,0,.2-.08.42.01.52.2.06.14.11.29.15.44.16.6.31,1.2.47,1.81.01.05.03.11.05.16h.05s0,.01,0,.01Z"/>
  <path id="Trazado_3866" data-name="Trazado 3866" class="cls-4" d="M56.55,59.57v.83c0,.15,0,.31-.02.46-.05.25-.29.42-.54.37-.2-.04-.35-.2-.38-.4,0-.08,0-.15,0-.23v-2.64c0-.08,0-.15,0-.23,0-.21.16-.39.37-.41.06,0,.11-.01.17-.01.59,0,1.19-.02,1.78,0,.26.01.51.07.75.17.47.21.7.75.52,1.23-.09.26-.29.46-.54.56-.13.06-.26.1-.42.16.06.06.11.1.15.14.35.29.63.64.84,1.05.13.25.12.37,0,.5-.18.14-.42.16-.62.04-.09-.07-.17-.15-.24-.24-.19-.26-.37-.53-.57-.8-.05-.08-.11-.15-.17-.23-.27-.31-.69-.44-1.08-.33h-.01ZM56.57,57.92v1.01c.3,0,.57,0,.84,0,.18,0,.36-.02.54-.06.22-.03.37-.23.36-.45-.01-.22-.17-.4-.38-.45-.45-.07-.9-.09-1.36-.05h0Z"/>
  <path id="Trazado_3867" data-name="Trazado 3867" class="cls-4" d="M78.42,60.8c-.81.53-1.59.48-2.06-.08-.45-.59-.45-1.41,0-2,.58-.54,1.48-.56,2.08-.04.03-.07.06-.14.09-.2.09-.14.25-.22.42-.19.16.02.29.14.31.3.02.09.02.19.02.29v2.07c0,.08,0,.15,0,.23,0,.51-.37.94-.87,1.04-.51.14-1.05.14-1.56-.02-.21-.07-.4-.18-.57-.32-.15-.11-.18-.31-.08-.46,0,0,0,0,0,0,.12-.15.33-.18.49-.08.08.05.16.11.22.18.33.29.8.36,1.2.17.13-.06.23-.18.26-.33.03-.17.03-.34.05-.56h0ZM76.9,59.67v.21c0,.4.31.74.72.75,0,0,.01,0,.02,0,.41.01.76-.3.79-.72.01-.2-.01-.4-.08-.58-.13-.32-.47-.51-.81-.44-.32.04-.58.29-.62.62,0,.05-.01.11-.02.16h0Z"/>
  <path id="Trazado_3868" data-name="Trazado 3868" class="cls-4" d="M24.73,58.72c0,.36-.02.73,0,1.09.04.54.29.76.83.78.12,0,.25,0,.37,0,.32-.02.58-.26.63-.57.03-.16.05-.32.05-.48,0-.54,0-1.07,0-1.61,0-.09,0-.17,0-.26,0-.23.18-.41.41-.41,0,0,.01,0,.02,0,.23-.04.44.12.47.34,0,0,0,0,0,.01.02.09.02.19.02.29,0,.55,0,1.09,0,1.64,0,.16-.02.33-.04.49-.04.48-.35.9-.8,1.07-.1.04-.19.08-.3.1-.53.11-1.07.1-1.59-.03-.57-.11-.99-.59-1.02-1.17-.02-.16-.03-.32-.03-.49,0-.53,0-1.05,0-1.58,0-.1,0-.19.02-.29.02-.23.22-.4.45-.38.01,0,.02,0,.04,0,.22-.01.41.15.42.37,0,.01,0,.03,0,.04.01.35,0,.71,0,1.06h.03,0Z"/>
  <path id="Trazado_3869" data-name="Trazado 3869" class="cls-4" d="M20.52,60.86c-.85.53-1.57.5-2.06-.05-.46-.58-.5-1.39-.08-2.01.45-.58,1.24-.64,2.13-.16.02-.07.03-.14.03-.22,0-.27,0-.54.02-.8-.01-.2.14-.37.34-.38,0,0,0,0,.01,0,.2-.04.39.08.43.28,0,.03,0,.06,0,.09.01.17,0,.34,0,.52v2.5c0,.08,0,.15,0,.23,0,.18-.12.34-.3.37-.18.05-.38-.04-.46-.21-.03-.05-.04-.1-.07-.17h0ZM20.5,59.77c0-.11-.02-.22-.05-.33-.08-.33-.37-.56-.71-.57-.34-.02-.64.2-.73.53-.08.24-.08.5,0,.73.09.34.42.55.77.51.34,0,.63-.25.69-.58.02-.09.02-.19.04-.3h0Z"/>
  <path id="Trazado_3870" data-name="Trazado 3870" class="cls-4" d="M69.3,59.39c.26.36.5.68.74,1.01.07.09.14.19.2.28.11.14.09.35-.04.47-.14.12-.35.13-.51.02-.11-.1-.2-.2-.29-.32-.19-.26-.37-.53-.56-.8-.03-.04-.07-.09-.12-.14-.12.08-.23.18-.34.28-.05.06-.07.13-.08.2-.01.14,0,.29,0,.43,0,.23-.17.41-.4.42,0,0-.01,0-.02,0-.25,0-.4-.12-.43-.39,0-.09-.01-.17,0-.26v-2.64c0-.13,0-.27.03-.4.03-.19.2-.32.39-.3.2-.02.38.12.42.32.02.09.02.19.02.29v1.5c.09-.07.16-.1.21-.15.28-.25.56-.5.83-.75.11-.11.26-.17.42-.15.24.04.44.27.2.52-.1.1-.21.2-.32.29-.1.09-.21.17-.33.27h0Z"/>
  <path id="Trazado_3871" data-name="Trazado 3871" class="cls-4" d="M61.93,59.37c0-.36-.08-.49-.36-.53-.36-.1-.75.04-.97.34-.03.05-.07.09-.11.13-.13.1-.3.1-.43,0-.12-.08-.17-.22-.12-.35.05-.19.18-.35.36-.42.24-.1.48-.17.73-.22.38-.06.77-.04,1.14.07.33.06.58.34.62.68.03.31.04.63.04.94-.01.25.02.5.1.73.08.14.04.32-.09.41-.15.11-.36.11-.51,0-.1-.09-.2-.18-.29-.27-.09.04-.19.09-.27.14-.35.2-.75.27-1.14.21-.19-.03-.37-.1-.53-.2-.33-.2-.44-.63-.24-.96.06-.11.16-.2.27-.26.18-.1.38-.17.59-.21.4-.09.8-.16,1.22-.24h0ZM61.9,59.84c-.34.07-.68.14-1.01.22-.15.02-.26.15-.26.3,0,.16.11.3.26.34.33.11.7.01.94-.25.14-.17.17-.41.07-.61h0Z"/>
  <path id="Trazado_3872" data-name="Trazado 3872" class="cls-4" d="M37.89,59.97c-.02.41.31.76.72.78.06,0,.13,0,.19-.02.2-.06.39-.14.57-.25.1-.05.18-.14.28-.2.13-.08.29-.06.4.05.09.11.08.27-.02.37-.1.13-.22.24-.36.32-.61.33-1.34.33-1.96.02-.7-.4-.93-1.29-.53-1.99.19-.32.49-.56.85-.67.41-.13.86-.12,1.27.03.4.12.71.44.83.84.13.45-.03.69-.5.71s-.94,0-1.41,0h-.33,0ZM37.9,59.5c.46.06.93.05,1.4-.02,0-.35-.27-.65-.62-.66-.02,0-.03,0-.05,0-.37-.03-.69.25-.72.63,0,.02,0,.03,0,.05h0Z"/>
  <path id="Trazado_3873" data-name="Trazado 3873" class="cls-4" d="M51.92,60.4c.23-.56.43-1.06.63-1.55.04-.12.09-.23.15-.34.09-.19.32-.26.51-.17,0,0,0,0,0,0,.18.09.23.22.16.46,0,.03-.02.05-.03.08-.42.94-.83,1.89-1.26,2.83-.22.48-.63.66-1.34.6-.1,0-.19-.03-.28-.06-.14-.04-.22-.17-.21-.31.02-.13.14-.22.27-.22.11,0,.23,0,.34,0,.31-.01.54-.27.53-.58,0-.07-.02-.13-.04-.19-.28-.62-.56-1.24-.84-1.85-.04-.09-.08-.17-.11-.26-.1-.16-.04-.38.13-.47,0,0,.02-.01.03-.02.19-.12.43-.06.55.13,0,0,0,0,0,0,.05.09.1.18.14.28.18.44.35.87.52,1.31.03.09.07.17.14.32h0Z"/>
  <path id="Trazado_3874" data-name="Trazado 3874" class="cls-4" d="M11.68,61.26c-.19-.03-.38-.04-.56-.09-.77-.19-1.24-.97-1.05-1.74.13-.51.52-.91,1.02-1.05.46-.14.96-.12,1.4.07.54.2.89.73.86,1.3.03.57-.3,1.11-.83,1.32-.26.12-.55.18-.84.18h0ZM12.5,59.79c-.02-.13-.04-.26-.07-.39-.14-.41-.58-.63-.99-.49-.23.08-.41.26-.49.49-.08.26-.08.53.01.79.13.36.5.57.87.49.42-.08.7-.46.67-.88h0Z"/>
  <path id="Trazado_3875" data-name="Trazado 3875" class="cls-4" d="M73.27,58.72c.23-.22.53-.37.85-.41.27-.04.54.01.78.13.3.13.49.42.5.75.02.21.01.42.01.63,0,.33,0,.65,0,.98.02.22-.13.42-.35.44-.02,0-.04,0-.06,0-.21.02-.4-.13-.42-.34,0,0,0,0,0,0-.02-.14-.02-.29-.02-.43,0-.34,0-.67-.01-1.01-.02-.37-.15-.54-.44-.57-.33-.05-.64.14-.75.45-.04.15-.06.3-.06.45,0,.34,0,.67,0,1.01.02.21-.13.41-.34.44-.22.06-.44-.08-.5-.29,0-.03-.01-.05-.01-.08-.01-.1-.02-.21-.01-.32v-1.6c0-.09,0-.17,0-.26,0-.19.14-.35.33-.37.19-.03.37.07.44.25.02.04.03.09.06.16h0Z"/>
  <path id="Trazado_3876" data-name="Trazado 3876" class="cls-4" d="M29.27,58.7c.22-.2.49-.34.79-.38.27-.04.54,0,.78.11.31.11.51.4.53.73.02.55.03,1.11.02,1.66.02.21-.13.4-.34.43-.03,0-.06,0-.09,0-.26,0-.41-.16-.42-.45,0-.37,0-.75,0-1.12,0-.15-.02-.3-.05-.45-.04-.17-.18-.31-.36-.32-.37-.08-.73.16-.81.53,0,.02,0,.05-.01.07-.02.33-.02.67-.02,1,0,.13,0,.25-.02.37-.03.23-.24.39-.47.37-.2-.03-.35-.19-.37-.39-.02-.34,0-.69,0-1.03s0-.69,0-1.03c0-.3.1-.43.32-.47.21-.04.36.06.48.31.02.03.04.05.06.08h0Z"/>
  <path id="Trazado_3877" data-name="Trazado 3877" class="cls-4" d="M64.46,58.68c.23-.2.51-.33.8-.37.29-.04.58,0,.83.14.28.13.46.4.47.71.02.55.02,1.11,0,1.66.02.21-.12.39-.33.41-.03,0-.05,0-.08,0-.21.02-.41-.13-.43-.35,0-.03,0-.06,0-.08,0-.37,0-.75,0-1.12,0-.16-.03-.32-.06-.48-.03-.15-.16-.27-.31-.3-.36-.1-.73.1-.84.46-.01.04-.02.07-.02.11-.03.35-.02.71-.03,1.06,0,.12,0,.25-.02.37-.03.21-.22.36-.43.33,0,0,0,0-.01,0-.2,0-.37-.14-.39-.34,0-.04,0-.08,0-.11,0-.68,0-1.36,0-2.04,0-.26.09-.38.3-.43.2-.05.41.06.48.26.02.03.04.06.07.11h0Z"/>
  <path id="Trazado_3878" data-name="Trazado 3878" class="cls-4" d="M44.65,61.23c-.35.04-.7-.03-1-.2-.15-.1-.28-.22-.38-.37-.09-.13-.06-.32.07-.41.14-.1.34-.1.48.01.07.06.12.15.19.22.27.27.68.36,1.03.21.11-.05.21-.12.21-.25,0-.12-.08-.22-.2-.26-.15-.05-.31-.1-.46-.14-.21-.06-.43-.11-.64-.18-.09-.03-.18-.06-.26-.11-.34-.13-.51-.5-.39-.84.06-.17.19-.31.36-.38.21-.11.44-.18.68-.21.37-.06.75-.01,1.1.14.14.06.27.15.37.25.12.1.16.28.07.42-.1.13-.28.19-.44.12-.11-.05-.22-.12-.3-.21-.2-.21-.51-.29-.79-.22-.12.02-.25.07-.27.22-.02.16.1.22.22.26.25.07.5.12.75.19.21.05.42.13.62.22.36.16.52.58.36.94-.06.13-.16.25-.28.32-.23.15-.5.24-.78.26-.1,0-.21,0-.32,0h0Z"/>
  <path id="Trazado_3879" data-name="Trazado 3879" class="cls-4" d="M81.33,61.23c-.33.03-.65-.03-.95-.17-.18-.08-.32-.21-.41-.38-.09-.14-.06-.33.08-.44.15-.1.34-.08.48.03.05.06.1.12.15.18.25.29.66.39,1.02.26.12-.05.23-.11.24-.26,0-.14-.1-.26-.24-.29-.22-.07-.44-.12-.66-.18-.22-.06-.44-.13-.65-.22-.34-.12-.52-.49-.4-.84.06-.17.19-.31.36-.38.21-.11.44-.18.68-.21.38-.06.77,0,1.12.15.14.07.28.17.38.29.09.09.12.23.05.35-.06.11-.18.18-.31.17-.17,0-.32-.08-.42-.21-.2-.22-.5-.31-.78-.24-.06,0-.11.03-.16.05-.18.1-.19.28,0,.38.1.05.21.09.32.12.26.07.52.12.78.19.14.04.27.1.39.17.35.17.49.59.32.94-.05.1-.12.19-.22.26-.24.18-.52.29-.82.31-.11,0-.23,0-.34,0h0Z"/>
  <path id="Trazado_3880" data-name="Trazado 3880" class="cls-4" d="M48.55,58.98c-.18-.1-.42-.08-.44-.32-.01-.27.25-.24.44-.35.02-.19.03-.38.03-.57.01-.23.21-.41.44-.4.08,0,.15.03.21.07.12.07.19.2.19.33v.59c.12.02.2.02.28.04.09,0,.17.03.24.07.07.05.12.14.13.23-.02.09-.08.16-.16.2-.15.05-.3.08-.45.1-.01.07-.02.13-.03.2,0,.36,0,.73,0,1.09s.07.42.42.4c.09,0,.17,0,.26,0,.11,0,.21.08.23.18.04.11-.01.22-.11.27-.13.07-.26.11-.4.14-.19.02-.38.02-.57,0-.36.01-.66-.27-.67-.63,0-.02,0-.04,0-.05-.02-.41-.02-.82-.03-1.23,0-.11,0-.23-.01-.34h0Z"/>
  <path id="Trazado_3881" data-name="Trazado 3881" class="cls-4" d="M35.17,60.25c.2-.47.4-.95.61-1.42.05-.12.1-.23.16-.34.1-.18.34-.25.52-.14,0,0,0,0,0,0,.16.06.24.25.17.41,0,.02-.02.04-.03.06-.32.71-.65,1.41-.98,2.11-.08.2-.28.33-.5.32-.22,0-.42-.12-.5-.32-.33-.69-.66-1.38-.97-2.08-.1-.15-.06-.36.09-.46.03-.02.05-.03.08-.04.18-.1.41-.04.52.15,0,.01.01.02.02.03.16.35.3.7.45,1.06.1.23.19.45.29.68h.07s0-.01,0-.01Z"/>
  <path id="Trazado_3882" data-name="Trazado 3882" class="cls-6" d="M75.16,40.99c.59,0,1.05.49,1.04,1.08,0,.59-.49,1.05-1.08,1.04h0c-.59,0-1.05-.49-1.04-1.08,0-.59.49-1.05,1.08-1.04Z"/>
  <path id="Trazado_3883" data-name="Trazado 3883" class="cls-4" d="M14.83,58.66c.26-.36.74-.47,1.13-.26.04.02.09.04.13.06.14.06.2.22.16.36-.06.15-.21.24-.37.22-.12-.02-.24-.05-.36-.08-.24-.07-.5.06-.57.31,0,0,0,.02,0,.03-.06.24-.09.49-.1.73-.02.28,0,.55-.03.83,0,.2-.16.37-.36.37-.21.05-.42-.08-.47-.29,0-.04-.01-.07,0-.11,0-.7,0-1.4,0-2.09-.03-.21.12-.41.33-.44.19-.04.33.04.46.25.01.02.03.04.07.1h0Z"/>
  <path id="Trazado_3884" data-name="Trazado 3884" class="cls-4" d="M41.69,58.62c.12-.1.26-.2.4-.27.29-.1.62-.06.87.12.14.06.2.23.14.37-.06.14-.2.22-.35.2-.11-.01-.22-.05-.34-.07-.25-.09-.53.04-.62.29-.01.04-.02.07-.03.11-.05.22-.07.45-.08.68-.01.25,0,.5-.01.74-.02.31-.17.45-.45.44-.26,0-.4-.16-.4-.45,0-.68,0-1.36,0-2.03-.02-.23.14-.43.37-.45.09,0,.18.01.26.06.09.08.16.16.22.26h0Z"/>
  <path id="Trazado_3885" data-name="Trazado 3885" class="cls-4" d="M17.46,59.26c0,.52,0,1.03,0,1.55.02.22-.14.42-.36.44-.04,0-.08,0-.12,0-.18,0-.33-.14-.35-.32-.01-.09-.02-.19-.01-.29v-2.78c0-.07,0-.13,0-.2-.01-.21.15-.39.36-.4.02,0,.04,0,.06,0,.21-.02.39.13.42.33,0,.02,0,.05,0,.07.01.54,0,1.07,0,1.61h0Z"/>
  <path id="Trazado_3886" data-name="Trazado 3886" class="cls-4" d="M47.62,59.76c0,.34,0,.69,0,1.03-.01.3-.16.44-.42.45-.21.02-.4-.13-.43-.34-.01-.08-.02-.15-.01-.23v-1.86c0-.33.16-.5.42-.51.28,0,.44.18.45.52,0,.32,0,.63,0,.95h0,0Z"/>
  <path id="Trazado_3887" data-name="Trazado 3887" class="cls-4" d="M33.03,59.76c0,.35,0,.71,0,1.06.01.22-.15.4-.37.42-.03,0-.05,0-.08,0-.19,0-.36-.12-.39-.31-.02-.1-.03-.21-.03-.31v-1.69c0-.09,0-.17.02-.26.03-.23.24-.39.47-.36.2.03.36.2.37.4.01.35,0,.71,0,1.06h0Z"/>
  <path id="Trazado_3888" data-name="Trazado 3888" class="cls-4" d="M71.63,59.78c0,.34,0,.69,0,1.03.02.21-.13.41-.35.43-.02,0-.03,0-.05,0-.21.03-.4-.12-.43-.33,0,0,0-.02,0-.03-.02-.09-.02-.19-.02-.29v-1.66c0-.1,0-.19.02-.29.04-.23.26-.38.49-.34.19.03.33.19.35.38.01.36,0,.73,0,1.09h0Z"/>
  <path id="Trazado_3889" data-name="Trazado 3889" class="cls-4" d="M47.21,57.26c.21,0,.39.15.41.36-.03.24-.24.4-.48.37-.2-.02-.35-.18-.37-.37.03-.22.22-.37.44-.36Z"/>
  <path id="Trazado_3890" data-name="Trazado 3890" class="cls-4" d="M71.22,57.26c.21-.01.39.15.41.36,0,0,0,.02,0,.03-.04.23-.26.39-.5.34-.18-.03-.32-.18-.35-.36.02-.22.22-.38.44-.37h0Z"/>
  <path id="Trazado_3891" data-name="Trazado 3891" class="cls-4" d="M32.64,57.26c.21,0,.39.16.39.37,0,0,0,0,0,0-.02.22-.22.38-.44.36,0,0,0,0,0,0-.21.01-.4-.15-.41-.37,0,0,0-.02,0-.02.03-.22.23-.37.45-.35h0Z"/>
  <g id="Grupo_1356" data-name="Grupo 1356">
    <g id="TqTyNW">
      <path id="Trazado_3892" data-name="Trazado 3892" class="cls-7" d="M28.01.25l.85.1c6.63.79,11.87,5.99,12.71,12.61.39,3.1-.24,6.23-1.81,8.94-.7,1.24-1.58,2.36-2.62,3.33-2.08,1.97-4.7,3.28-7.52,3.76-1.11.19-2.23.25-3.35.17-2.4-.15-4.73-.9-6.77-2.19-2.31-1.44-4.16-3.5-5.34-5.95-.72-1.47-1.17-3.05-1.35-4.67-.09-.7-.12-1.41-.1-2.12.12-3.28,1.35-6.43,3.49-8.92,1.16-1.36,2.56-2.49,4.14-3.33.88-.46,1.81-.85,2.76-1.14.99-.29,2.01-.47,3.04-.54.09,0,.17-.03.25-.04.54,0,1.08,0,1.62,0Z"/>
    </g>
    <g id="TqTyNW-2">
      <g id="Grupo_1355" data-name="Grupo 1355">
        <path id="Trazado_3893" data-name="Trazado 3893" class="cls-8" d="M41.7,14.75v.66c.01.1,0,.19-.03.28-.01.03-.01.06,0,.09,0,.28-.03.56-.07.83-.03.27-.07.53-.12.79-.06.32-.14.63-.22.95-.15.58-.33,1.16-.56,1.71-.19.47-.4.93-.64,1.38-.35.65-.74,1.28-1.18,1.87-.25.33-.51.65-.78.96-.34.39-.71.76-1.09,1.12-.21.2-.44.37-.66.56-.25.22-.52.42-.8.61-.34.23-.69.45-1.04.67-.11.06-.22.12-.33.17,0,0-.02,0-.02,0,0,0,0-.02,0-.02.05-.12.05-.29.16-.36.1-.06.1-.18.17-.25.07-.07.11-.16.12-.26,0-.07.11-.08.07-.16-.06.02-.13.03-.19.04-.06,0-.11.04-.11.1-.07.21-.23.38-.44.47-.15.07-.23.24-.19.4.02.05.06.1.09.14.02.03.02.07-.01.1,0,0,0,0,0,0-.03.02-.06.04-.1.06-.44.23-.9.43-1.37.6-.38.15-.78.27-1.17.38s-.8.2-1.2.29c-.31.06-.62.11-.93.15-.31.05-.63.08-.94.08-.12-.01-.25,0-.37.03-.06.01-.12.01-.17,0-.2,0-.4,0-.61,0-.12,0-.25,0-.37-.03-.14-.02-.29-.03-.43-.02-.15,0-.31,0-.46-.05-.04,0-.08-.01-.11,0-.12,0-.25-.02-.37-.05-.12-.03-.25,0-.37-.06-.24-.03-.47-.07-.7-.12-.3-.06-.59-.14-.89-.22-1.19-.33-2.33-.82-3.4-1.45-.28-.17-.56-.34-.83-.52-.43-.29-.84-.61-1.23-.94-.45-.38-.86-.8-1.27-1.22-.36-.38-.69-.78-.99-1.2-.06-.08-.12-.15-.17-.23-.06-.08-.07-.18-.04-.27.06-.25.15-.49.23-.73.02-.06.04-.1,0-.16-.01-.02-.01-.03,0-.05.04-.1.06-.21.05-.31,0-.03.02-.05.04-.07.08-.04.08-.1.05-.17-.03-.08-.06-.16-.09-.24-.02-.06-.04-.04-.06,0-.03.04-.06.07-.1.1-.02.02-.06.04-.06.05,0,.11-.09.16-.15.23-.06.09-.17.13-.28.12-.05,0-.09.02-.1.07,0,0,0,0,0,0,0,.04-.02.07-.04.1-.05.06-.08.13-.07.21,0,.02-.02.03-.02.04,0,0-.02-.01-.02-.02-.05-.08-.11-.16-.15-.24-.1-.19-.19-.37-.29-.56-.07-.12-.1-.25-.09-.38,0-.1-.01-.19-.06-.28-.09-.16-.13-.34-.11-.53.02-.08,0-.16-.03-.22-.11-.15-.04-.31.01-.46.06-.14.13-.28.2-.41.01-.02.03-.05.05-.06.16-.09.23-.26.32-.39.12-.15.25-.29.39-.42.17-.05.23-.22.33-.35.07-.09.13-.19.18-.29.14-.25.24-.52.3-.8.01-.06.04-.12.05-.19s0-.09-.08-.08c-.11,0-.23.01-.34.02-.06,0-.12,0-.16.04-.04.03-.08.06-.12.07-.09.03-.18.05-.28.06-.06,0-.12-.02-.14-.08-.02-.03-.04-.07-.05-.1-.02-.06.05-.12-.01-.19-.04-.05-.08-.11-.11-.16-.04-.05-.08-.09-.12-.12-.05-.04-.11-.08-.16-.12-.07-.05-.13-.11-.19-.18-.08-.07-.12-.18-.12-.28,0-.14-.06-.27-.17-.35-.08-.07-.13-.17-.13-.27,0-.13-.06-.26-.06-.39,0-.05-.04-.09-.08-.11-.11-.03-.17-.14-.14-.25,0-.08-.02-.15-.07-.21-.11-.13-.17-.3-.17-.48,0-.03,0-.06.01-.08.02-.06.09-.09.15-.07,0,0,0,0,0,0,.11.06.19.16.23.28.07.16.18.3.24.45.02.02.04.04.06.05.11.07.17.19.16.32,0,.16.06.31.18.4.12.1.2.23.24.38.04.12.1.23.16.33.04.08.06.16.06.25,0,.09,0,.17,0,.26,0,.07.02.13.06.19.01.02.04.05.06.05.08,0,.18.05.23-.06.02-.02.04-.04.07-.04.16-.03.31-.1.44-.2.1-.07.21-.13.33-.16.11-.01.19-.09.21-.2.02-.05.07-.08.12-.08.15-.01.3-.09.39-.21.02-.02.04-.04.06-.06.08-.06.15-.11.23-.17s.05-.18.11-.26c.08-.09.15-.17.23-.26s.07-.12,0-.23c-.06-.11-.16-.19-.29-.21-.04-.01-.07-.03-.1-.05-.05-.01-.08-.06-.08-.11,0-.11,0-.21,0-.32,0-.03-.02-.03-.04-.02-.03.02-.06.05-.08.08-.03.05-.04.11-.07.15s-.12,0-.14.08c-.01.04-.05.06-.09.06-.11,0-.21,0-.32,0-.04,0-.07-.04-.06-.08,0,0,0,0,0,0,0-.05.01-.09.03-.14,0-.04.04-.07,0-.1-.04-.03-.1-.02-.12.02,0,0,0,0,0,0-.02.03-.04.08-.07.02-.09-.22-.2-.43-.34-.62-.02-.03-.04-.07-.05-.1-.01-.04,0-.08.03-.1.21-.15.3-.13.43.1.02.03.04.07.05.1.04.12.13.21.25.26.05.02.1.06.13.1.03.03.04.09.1.08.07.01.13,0,.2-.03.03-.02.06-.05.09-.07.05-.03.11-.02.14.03,0,0,0,0,0,0,.04.07.06.14.06.22,0,.03.02.06.06.07,0,0,.01,0,.02,0,.2-.03.37.07.57.06.18,0,.37,0,.55,0,.06,0,.12,0,.14.07.24.17.44.4.57.67.04.08.12.09.19.12.08.03.16.06.23.1.07.04.11.11.11.19-.01.21.04.42.14.6.13.3.21.61.36.9.06.21.12.42.2.62.02.05.07.07.12.06,0,0,.01,0,.02,0,.08-.06.15-.11.23-.18,0,0,0-.03,0-.05-.02-.04-.04-.1,0-.14.08-.07.1-.19.05-.28-.01-.02,0-.08.03-.11.07-.11.09-.23.08-.36,0-.04,0-.08,0-.11.05-.15.04-.34.27-.35.04,0,.07-.02.1-.05.08-.06.19-.06.27-.02.05.02.11.03.17.03.08,0,.17,0,.25.04.05.02.11.03.17.02h.72c.1,0,.19,0,.28.04.08.03.18.01.24-.05.06-.06.09-.05.15,0,.05.04.09.1.1.17.01.09.04.19.07.28.08.2.12.42.1.64,0,.09-.02.17-.05.25-.03.06-.02.14.04.19.2.19.33.45.36.73.02.12.07.24.15.33.07.07.14.13.22.18,0,0,.02,0,.03,0,.02,0,.04-.01.05-.02.02-.1.02-.21,0-.31-.04-.26-.16-.5-.35-.67-.09-.06-.15-.15-.18-.25-.02-.1-.12-.17-.11-.29-.06-.09-.06-.2,0-.3.05-.1.07-.22.07-.33,0-.04.05-.07.08-.05.09.08.22.12.3.22.02.03.06.06.07.09.01.11.08.2.17.25.08.06.14.11.14.22,0,.03.03.05.06.05,0,0,.02,0,.03-.01.05-.04.1-.09.15-.14s.08-.1.13-.11c.19-.07.23-.25.31-.4.03-.07.03-.15.01-.23-.04-.21-.05-.44-.27-.57-.09-.11-.16-.23-.19-.37-.02-.09,0-.18.08-.23.04-.03.08-.08.13-.11.03-.01.06-.01.08,0,.04,0,.02.04.01.07-.01.07-.02.13-.02.2,0,.08.07.14.15.13.03,0,.06-.02.09-.04.07-.06.14-.12.1-.22-.04-.11,0-.2,0-.3,0-.04.03-.07.06-.07,0,0,0,0,.01,0,.13,0,.27-.04.37-.13.09-.07.2-.1.32-.11.11,0,.16-.1.25-.14.08-.04.13-.11.15-.2.02-.11.12-.17.21-.23.04-.02.07-.06.08-.11,0-.05.04-.11.05-.16.03-.1.08-.19.15-.27.09-.08.13-.21.09-.33-.01-.04-.01-.08,0-.11.04-.08.04-.16,0-.24-.01-.08-.05-.16-.09-.23-.05-.08-.06-.19-.03-.28.03-.15.08-.29.12-.44.03-.07.07-.13.12-.19.03-.04.01-.07-.02-.1-.06-.05-.08-.14-.03-.21.05-.08.09-.17.13-.25.04-.08.13-.11.21-.08,0,0,.02,0,.03.02.11.06.15.19.1.3-.02.04-.02.07.04.08s.1,0,.14,0c.06,0,.11.06.11.12,0,.01,0,.03,0,.04-.01.05-.03.11-.03.17,0,.07,0,.13-.03.2-.03.05,0,.09.03.12.04.04.11.05.16.02.07-.06.14-.13.21-.2.02-.03.04-.06.04-.1,0-.06,0-.12,0-.17,0-.07-.02-.14-.07-.18-.06-.06-.11-.13-.14-.21-.04-.08-.02-.18.04-.24.11-.1.2-.24.24-.38,0-.03.02-.05.05-.07.08-.06.16-.13.25-.19.02-.01.05-.01.08,0,.06.05.15.05.22,0,.04-.01.07-.02.11-.02.08,0,.15-.06.15-.14.03-.12.09-.23.19-.31.04-.03.06-.07.1-.1.13-.12.22-.27.28-.43.03-.07.04-.16.09-.21.07-.09.11-.2.09-.32.02-.18.07-.35.15-.52,0-.02.02-.03.04-.03.02,0,.07,0,.07.01.03.06.06.12.08.18.02.09-.01.19.04.28,0,.03,0,.06-.01.08-.03.05-.04.11-.03.17,0,.02.02.03.02.04.02,0,.04-.02.05-.03s.03-.05.04-.07.05-.07.08-.08.06.03.09.05h.02s.02-.02.02-.03c0,0,0-.02,0-.03-.11-.21-.17-.45-.15-.69,0-.09,0-.17-.05-.25-.03-.05-.05-.05-.08-.02-.05.05-.1.08-.18.03s-.14-.09-.22-.14-.08-.04-.15.01c-.03.03-.06.05-.09.08-.02.01-.05.02-.08.01-.06-.02-.12-.06-.17-.11-.03-.07-.1-.12-.18-.12-.02,0-.05-.03-.06-.05-.04-.05-.03-.11.01-.15,0,0,0,0,0,0,.04-.02.08-.04.13-.06.14-.04.25-.14.32-.27.03-.06.08-.11.14-.14.16-.1.31-.23.43-.38.07-.09.19-.14.3-.13.14,0,.29,0,.44,0,.11,0,.23,0,.34-.04.15-.03.31-.01.45.06,0,.05-.01.11.08.1.06,0,.13,0,.2-.01.06-.01.11-.03.16-.05.04-.02.02-.04,0-.07-.04-.09-.02-.2.06-.26.06-.06.12-.12.18-.18.05-.05.09-.11.16-.11.1-.02.19,0,.28.03.06.03.11.06.11.15,0,.03.04.03.06.01.04-.03.07-.07.11-.1.03-.03.08-.04.11,0,0,0,0,0,.01.01.02.02.03.05.05.07.05.06.07.07.14.05.12-.03.24-.07.35-.12.09-.04.19-.05.28-.04.04,0,.07.02.1.04.09.05.1.06.16-.01s.16-.08.19-.17c.2-.04.31-.26.52-.28.07-.01.13-.05.18-.09.06-.08.17-.09.25-.02,0,0,0,0,0,0,.03.01.05.03.08.03.04.02.05-.02.05-.04.01-.07,0-.14-.05-.19-.07-.05-.11-.13-.12-.22,0-.05-.06-.09-.13-.1-.04,0-.08,0-.11-.02-.02-.02-.03-.04-.02-.07.03-.07.1-.1.17-.08.05.02.11.04.16.05.13.01.25,0,.31-.15.01-.03.05-.05.08-.07,0,0,0-.02,0-.03-.01,0-.03-.01-.05,0-.04.01-.08.03-.1,0-.02-.03.02-.1.06-.11.04-.01.09-.02.14-.01.03,0,.05.02.06.05.01.04,0,.1.02.14.02.06.08.09.14.08.03-.01.05-.02.08-.03.08-.02.16,0,.21.06.02.03.06.05.08.08.06.07.15.1.23.09.06,0,.11-.02.12-.09,0-.06.04-.11.1-.13.07-.03.13-.09.22-.06.05.01.09.04.12.07.19.19.38.38.57.57.03.03.05.06.08.09.03.05.08.11.03.18-.01.04-.02.07-.01.11,0,.06,0,.11.08.14.06.02.12.05.18.08.01.01.02.03.01.05,0,.01-.03.03-.04.03-.02,0-.04,0-.05,0-.02,0-.03,0-.05,0,0,.02,0,.04,0,.05.09.09.23.11.35.04.04-.02.07,0,.09.04.05.08.07.18.07.28,0,.05.03.08.1.04.05-.03.09-.03.12.01.09.12.18.25.26.37.03.04.02.09-.02.12,0,0,0,0-.01,0-.06.04-.14.07-.2.11-.02.01-.02.05-.03.08,0,0,0,.02,0,.03s.03.02.04.02c.08-.05.16-.1.25-.14s.1-.04.14.02c.3.43.58.88.83,1.35.13.25.26.51.39.77.25.54.47,1.09.65,1.66.18.54.32,1.08.42,1.64.06.36.13.71.17,1.07.03.24.02.48.06.72.04.35.05.71.04,1.06h-.02ZM27.02,16.17s0-.05,0-.05c-.09-.04-.18-.09-.26-.14,0,0-.04,0-.05.02,0,.02,0,.06,0,.08.07.09.18.13.3.12-.02.02-.04.04-.06.06-.05.08-.04.11.01.17.03.02.05.05.07.08.04.06.09.1.16.12.02,0,.03.01.05,0,.11-.05.16-.18.11-.29,0,0,0,0,0,0-.01-.01-.03-.02-.05-.02-.02,0-.04.01-.05.02-.02.02-.04.04-.07.05s-.07.01-.07,0c-.02-.03-.03-.07-.02-.1.03-.08.16-.13.07-.25.03-.04.06-.08.08-.12.03-.04.02-.1-.02-.12,0,0-.02-.01-.03-.01-.06-.03-.12-.05-.19-.06-.14-.01-.15-.13-.2-.22,0-.02,0-.05.02-.08.03-.04.06-.07.1-.11.04-.04.05-.11.03-.16-.01-.1-.07-.18-.16-.22-.08-.03-.12-.02-.12.05,0,.11-.03.23-.07.33,0,.04-.04.07-.04.1-.03.08,0,.18.09.22.03.02.08.03.08.08,0,.09.07.11.12.14s.11.03.16.05c.05.03.08.09.06.15-.02.03-.04.07-.06.09h0ZM31.94,24.09s0-.08,0-.1c-.05-.11-.07-.24-.05-.36,0-.12-.04-.23-.12-.31-.06-.07-.13-.14-.2-.2-.05-.04-.08-.11-.08-.18,0-.05-.03-.08-.07-.11-.04-.02-.07-.06-.09-.1-.06-.22-.21-.39-.42-.47-.07-.02-.11-.09-.1-.16.01-.15-.02-.31-.1-.44-.02-.03,0-.08-.02-.11-.04-.12-.08-.23-.22-.27-.04,0-.07-.04-.07-.08-.02-.13-.06-.26-.12-.38,0-.01-.02-.02-.03-.04-.02.02-.05.03-.06.06-.01.05-.02.09-.02.14,0,.1,0,.21-.02.31-.03.09-.04.19-.04.28,0,.15-.09.28-.23.33-.05.01-.1,0-.12-.05,0-.03,0-.06,0-.09,0-.04-.01-.08-.06-.05-.1.05-.22.02-.28-.07-.06-.07-.13-.13-.21-.19-.05-.03-.08-.08-.08-.14,0-.11.04-.21.1-.29.03-.06-.03-.15-.1-.14-.1.02-.21,0-.3-.05-.03-.02-.08-.02-.11,0-.06.05-.11.11-.2.05-.01,0-.06.03-.09.06-.13.12-.23.26-.12.45,0,0,0,.02,0,.03,0,.02-.01.05-.02.05-.02,0-.06,0-.07-.01-.02-.05-.06-.07-.11-.07-.09,0-.17-.04-.2-.13-.03-.05-.08-.06-.13-.04,0,0-.01,0-.02.01-.09.1-.2.18-.31.25-.04.02-.05.06-.04.1.01.04.03.06,0,.1s-.06.1-.09.14c-.02.02-.04.05-.06.05s-.05-.03-.07-.04c-.05-.03-.07-.03-.07.02,0,.08-.03.15-.09.19-.05.05-.04.14-.11.2-.06.06-.13.11-.22.13-.08.01-.17.04-.24.09-.06.05-.13.07-.21.07-.05,0-.09.01-.13.04-.11.08-.18.2-.31.26-.02,0-.02.05-.03.08-.04.07-.07.15-.09.24.02.08.06.16.1.23.02.02.03.05.03.08,0,.06.03.14-.06.17-.03.01-.03.04-.02.07.02.06.04.13.07.19.08.16.13.34.16.52.03.19.05.37.08.56,0,.03,0,.06,0,.09,0,.03-.02.05-.04.07-.07.09-.07.09,0,.13.03.02.07.04.1.05.07.04.15.07.24.08.08-.01.16-.06.21-.12.1-.11.24-.16.39-.13h.17c.08.01.16-.03.19-.11.05-.11.15-.18.26-.2.06-.02.13-.04.19-.04.06,0,.11,0,.17-.02.13-.07.27-.1.41-.1.03,0,.06-.01.08-.03.03-.02.08-.01.1.02,0,0,0,0,0,0,.04.08.13.13.21.12.1,0,.19.06.23.14.06.09.12.19.19.29.02.03.07.04.1.02,0,0,0,0,0,0,0,0,.02,0,.02-.02.03-.02.06-.06.09-.07.06-.02.07.04.1.08.02.02.05.02.08.03s.06.03.06.05c0,.11.08.17.15.24.06.05.1.12.09.2-.01.09.03.18.1.23.12.11.28.17.45.15.05,0,.09-.03.12-.06.03-.03.07-.03.1,0,.03.02.07.03.1.05.12.08.12.08.23-.02.05-.04.11-.08.17-.11.1-.08.18-.18.24-.29.05-.15.1-.31.17-.45.12-.26.23-.52.31-.8.04-.12.06-.24.08-.34h-.01ZM25.03,18.16s-.07.03-.07.07c0,.08,0,.15,0,.23,0,.04.01.07.04.1.06.06.09.15.08.24,0,.06,0,.12,0,.17.03.07.12.03.18.06.09.06.21.06.3,0,.03,0,.06,0,.08.01.05.02.1.06.14.1.07.08.17.05.23-.04.04-.07.05-.15.04-.22-.01-.08.02-.16.08-.21.07-.05.11-.14.1-.23-.01-.08.03-.16.11-.18.05-.02.04-.05.01-.08s-.1-.09-.11-.13c0-.16-.09-.34.09-.47.02-.01.03-.05.04-.08.02-.03.02-.07-.01-.1,0,0,0,0,0,0-.06-.05-.12-.09-.18-.14s-.12-.05-.14.01c-.09.14-.19.26-.32.37-.1.13-.24.23-.39.29-.03.02-.06.05-.07.08-.05.11-.08.14-.22.13h0ZM31.13,20.41l.08-.02s0-.05-.02-.07c-.09-.11-.18-.22-.27-.34-.03-.04-.05-.08-.06-.13-.02-.04,0-.07.04-.09s.04-.06,0-.08c-.02,0-.03-.02-.05-.02-.1,0-.19-.07-.19-.17,0,0,0,0,0,0,0-.04-.05-.1-.08-.1-.09-.02-.18-.07-.24-.14-.04-.03-.08-.04-.13-.05-.05-.01-.13,0-.16-.03-.14-.09-.3-.17-.46-.22-.15-.08-.25-.04-.37.1-.06.06-.12.13-.18.18-.02.02-.06.02-.08,0,0,0,0-.01-.01-.02,0,0,0-.02,0-.03-.02-.08-.1-.12-.17-.1,0,0-.02,0-.03,0-.08.03-.1.05-.09.14,0,.04.02.08.06.08.2.01.39.05.58.12.08.02.16.07.2.15.03.05.05.1.08.15.07.12.11.27.25.34.02,0,.03.05.04.07.05.1.17.13.27.08,0,0,.02,0,.03-.02.06-.03.11-.07.16-.11.08-.07.19-.1.29-.09.07,0,.14.03.16.1.06.1.13.19.22.26.04.03.09.05.13.06h0ZM32.18,7.05c-.01.13,0,.26.06.39.05.1.07.2.06.31,0,.08.03.15.08.21,0,.01.06.01.07,0,.03-.02.05-.05.07-.09,0-.05.01-.09,0-.14,0-.04.02-.07.06-.09.03-.01.06-.04.1-.05.04-.01.06-.05.06-.09,0-.04,0-.08,0-.12,0-.04.02-.07.06-.09.04-.02.09-.04.13-.06.03-.02.04-.06.03-.09,0,0,0,0,0,0-.01-.02-.03-.06-.02-.08.05-.08.03-.19.11-.26.04-.03.05-.09.02-.13-.02-.03-.02-.08-.04-.11-.07-.1-.06-.23,0-.32.04-.06.06-.12.04-.19,0-.04-.03-.07-.05-.1-.04-.04-.07,0-.09.03-.08.07-.16.14-.22.23-.04.1-.13.17-.23.18-.03,0-.06.04-.09.07-.16.15-.25.37-.23.6h0ZM22.76,17.46s-.04.02-.05.03c0,.02,0,.04,0,.05.06.09.14.16.23.21.08.03.14.11.15.2,0,.07.06.13.12.14.07.02.11.08.11.15,0,.08.03.15.1.2.11.08.18.2.2.34.01.04.03.07.04.1.04.18.15.33.3.44.09.07.18.14.26.22.02.02.04.04.07.02.02-.02.05-.04.05-.06.01-.08.01-.15.01-.23,0-.07.02-.13.07-.18.02-.02.04-.04.06-.06.01-.02.01-.05,0-.07-.02-.04-.04-.09-.07-.12-.02-.04-.07-.05-.11-.02-.02,0-.04.03-.05.02-.07-.05-.14-.1-.2-.15-.06-.06-.04-.16-.08-.24-.04-.09-.17-.08-.22-.17-.03-.06-.07-.11-.11-.16-.06-.12-.17-.21-.3-.24-.05,0-.09-.06-.13-.11-.03-.04-.05-.08-.07-.12-.03-.06-.06-.11-.15-.1-.07,0-.13,0-.19-.04-.02-.01-.05-.01-.08-.01h0ZM29.92,10.64s0-.08,0-.12c-.02-.06-.05-.12-.08-.18-.02-.02-.05-.03-.08-.02-.03,0-.05.02-.07.04,0,.02-.01.04,0,.05,0,.11-.01.21-.05.31.03.14-.09.2-.15.29-.02.02-.01.05-.03.08-.03.07-.05.09-.13.08-.03,0-.06,0-.08-.02-.08-.04-.07.02-.08.06-.02.08-.14.1-.12.21-.06.14-.17,0-.25.04-.1.03-.2.07-.29.11-.17.12-.33.26-.47.42-.02.02-.04.04-.05.07.03.02.06.04.08.06s.06.05.03.09c-.04.07-.03.16.04.21.04.03.06.07.03.12-.02.03-.02.06.02.06s.09-.01.1-.03c.01-.06.02-.11.02-.17,0-.05,0-.11.03-.13.05-.05.07-.16.14-.17.13,0,.09-.14.16-.17.02-.01.06,0,.08-.02.04-.01.04-.06,0-.09-.01-.01-.04-.02-.05-.03-.01-.02-.01-.05,0-.07.01-.02.05-.03.07-.04.05-.03.11-.06.16-.02.03.03.02.09.04.13,0,0,0,.02,0,.03s.04.02.04.02c.05-.05.09-.1.13-.15.02-.03.06-.05.09-.03,0,0,0,0,0,0,.03.02.07.03.11.03.12,0,.23.03.32.09.03.02.07.03.1.05.02,0,.03,0,.05,0,0-.03,0-.06-.02-.08-.04-.03-.08-.04-.12-.06-.04-.02-.08-.05-.11-.08,0-.02,0-.04,0-.05,0-.01.03-.03.04-.02.05,0,.1.04.13-.05.02-.05.04-.11.04-.16,0-.1.02-.19.05-.28.03-.09.06-.18.09-.27.02-.05.03-.11.03-.13h0ZM26.58,19.48c.06,0,.11-.04.09-.08-.04-.08-.06-.16-.04-.25,0-.05.02-.05.08-.03.09.03.17.1.21.19.03.05.05.1.12.11.03,0,.03-.05,0-.17-.02-.07-.05-.14-.08-.21-.05-.09-.04-.19,0-.27.01-.03,0-.07-.04-.08-.01,0-.03,0-.04,0-.09.02-.18.08-.25-.03,0,0-.04,0-.04,0-.03.05-.05.1-.06.16-.02.08-.03.16-.04.25.07.12.01.25.04.36,0,.03.05.04.06.05h0ZM35.35,25.78c0-.08,0-.1-.08-.08-.05.02-.12.01-.16-.03-.04-.05-.08-.11-.12-.16-.02-.03-.05-.05-.08-.08,0,0-.03,0-.05,0,0,0-.02.02-.01.02,0,.03.01.06.02.08.04.1.03.21-.02.3-.05.07-.05.07-.01.14.04.07.06.14.07.22,0,.06.03.11.06.16,0,0,.03.01.04,0,.08-.04.12-.12.12-.21-.02-.1.03-.2.13-.22.06-.02.11-.09.1-.16h0ZM30.47,9.8s-.02-.04-.03-.04c-.16-.04-.3-.12-.41-.23-.02,0-.03,0-.04.01-.01.02-.02.03-.02.05-.02.13-.11.24-.23.3-.03.01-.05.05-.08.08-.04.06-.02.14.03.18.04.04.1.04.11-.02.01-.08.04-.12.12-.12.14,0,.28-.03.39-.11.05-.03.1-.05.15-.08,0,0,0-.01.01-.02h0ZM27.55,16.91c0-.07,0-.14-.01-.21-.01-.02-.03-.04-.06-.05-.03,0-.06,0-.08.02-.01,0-.02.03-.03.05-.05.11-.16.17-.28.17-.03,0-.07.03-.1.04-.05.01-.08.06-.08.11,0,.07,0,.13,0,.2,0,0,0,.01.02.02,0,0,.02-.01.02-.02,0-.13.11-.2.19-.27.03-.03.05,0,.07.02.05.05.04.11.04.16,0,.05,0,.1.04.13.02.02.04.03.07.04.03,0,.05-.02.05-.05.01-.05,0-.13.04-.16.06-.05.09-.13.08-.2h0ZM25.36,19.9q-.04-.12-.15-.12c-.18.03-.36,0-.52-.1-.02,0-.04-.01-.05-.01-.06,0-.13-.02-.19.03-.02.02.03.08.13.12.06.04.12.06.19.07.12,0,.24.04.35.09.07.02.15.03.22.03.04,0,.05-.02.03-.08,0,0,0-.02-.01-.03h0ZM30.76,26.72s-.05,0-.05,0c-.01.02-.02.05-.01.07.05.12.09.24.11.37,0,.03.06.05.09.02.05-.04.1-.09.14-.14.07-.08.1-.18.1-.29,0-.04-.04-.08-.08-.06-.09.06-.21.06-.3,0h0ZM20.33,16.92c0,.15-.01.25.05.35.03.04.05.07.11.07.05,0,.09-.03.11-.08.04-.08.04-.17,0-.24-.05-.08-.09-.16-.12-.25,0-.01-.03-.04-.04-.03-.02,0-.06.02-.06.04-.01.05-.03.1-.03.15h0ZM28.82,18.88s0-.05,0-.06c-.09-.15-.24-.15-.39-.16-.03,0-.06.03-.09.06,0,0,0,.05,0,.05.09.03.17.08.25.13.05.03.1.05.16.05.03,0,.06-.04.08-.06h0ZM26.85,13.69s-.03-.03-.05-.03c-.08.01-.14.07-.16.14-.02.09-.04.18-.07.27,0,.03,0,.06.02.08.02.02.04.04.06.05.01-.01.02-.03.03-.04.05-.15.11-.3.16-.45,0,0,0-.02,0-.03h0ZM27.53,20.15s0-.02,0-.02c-.04-.04-.08-.08-.12-.11,0,0-.03,0-.05.01.04.09-.05.13-.07.19-.01.03-.01.06,0,.08.03.05.06,0,.09,0,.05-.03.09-.06.13-.1.01-.01.02-.03.03-.04h0ZM30.1,8.92h0s0,.06,0,.09c0,.02.02.04.04.06l.11-.07c-.03-.07-.06-.14-.09-.21,0,0-.01-.01-.02-.01-.01,0-.03.02-.03.03,0,.04,0,.08,0,.11h0ZM27.84,18.24s0,.07.02.11c0,0,.03.02.04.02.02,0,.03-.01.04-.03,0-.03.02-.07,0-.08-.06-.07-.03-.14,0-.21,0,0-.01-.03-.02-.04,0,0-.02,0-.02.01-.06.05-.05.12-.05.21h0ZM25.24,15.33s0,.06,0,.09c0,.02.02.05.04.06.03,0,.05,0,.07-.02.06-.05.05-.08,0-.13-.03-.02-.05-.05-.07-.08s-.03-.02-.04.01c0,.02,0,.05,0,.07h0ZM34.77,25.25c0-.09,0-.17-.09-.21,0,0-.02,0-.03,0,0,0-.02.01-.02.02.02.07.04.14.07.21,0,.01.03.02.04.03,0-.01.02-.03.03-.04h0ZM22.58,17.27s-.03-.07-.04-.11c0-.01-.03-.02-.05-.03,0,0-.01.01-.01.02,0,.06,0,.13,0,.19,0,.01.03.03.04.03.02,0,.05-.02.06-.04,0-.01,0-.04,0-.08h0ZM26.55,20.12h.2s.02,0,.02-.02c0,0-.02-.03-.02-.03h-.29s-.02,0-.02.02c0,0,.02.03.03.03.03,0,.06,0,.09,0h0Z"/>
        <path id="Trazado_3894" data-name="Trazado 3894" class="cls-10" d="M27.19.25c.27,0,.54,0,.81,0,.16-.02.33,0,.48.04.02,0,.04,0,.06,0,.31.02.63.05.94.11.44.07.88.15,1.32.26.39.09.77.23,1.15.35.74.24,1.45.55,2.13.93.64.35,1.26.74,1.84,1.19.26.2.51.41.76.61.01.01.02.03.03.05-.02,0-.03.02-.05.02-.02,0-.04,0-.06,0-.05,0-.09.03-.11.07-.03.04-.08.03-.12,0-.03-.05-.05-.1-.05-.16,0-.04-.02-.07-.07-.08-.07,0-.13-.04-.17-.1-.08-.09-.17-.15-.28-.19-.23-.09-.46-.18-.69-.26-.05-.02-.11-.03-.17-.03-.13,0-.27,0-.4,0-.1.01-.19,0-.28-.05-.03,0-.06,0-.08,0-.02,0-.03.03-.03.04.01.03.03.07.05.1.06.09.03.17-.07.19-.07.02-.14,0-.19-.04-.11-.1-.25-.15-.4-.12-.03,0-.06,0-.09,0-.17-.04-.35.03-.45.17,0,0-.01.01-.02.02-.13.11-.23.08-.29-.1,0-.03-.01-.05-.02-.08-.02-.05-.02-.12-.06-.15-.06-.05-.13-.07-.21-.08-.1-.02-.21-.01-.31,0-.08.02-.17.03-.25.04-.1.01-.19-.02-.25-.1-.04-.04-.09-.07-.15-.08-.13-.03-.25-.09-.35-.18-.09-.1-.22-.08-.34-.08-.03,0-.06.01-.08,0-.05-.04-.11-.07-.18-.09-.18-.11-.41-.11-.6-.01-.05.02-.09.02-.14.02-.05,0-.06.04-.06.08v.03c0,.06.02.12-.04.16-.06.05-.14.08-.21.07-.05,0-.11-.03-.17-.03-.09,0-.19-.01-.29-.02-.11.09-.22.03-.32-.02-.02,0-.03-.02-.05-.03-.05-.03-.11-.01-.14.04,0,0,0,0,0,.01-.03.06-.06.12-.1.18-.04.06-.12.07-.18.03-.08-.07-.16-.15-.24-.23-.09-.09-.17-.19-.32-.16,0,0-.02,0-.03-.01-.05-.02-.06-.07-.02-.1.06-.04.06-.09.05-.15,0-.02-.02-.06-.04-.07-.16-.05-.33-.09-.49-.12-.02,0-.07.02-.07.03-.01.12-.11.13-.19.17-.08.04-.17.04-.25.01-.07-.03-.15-.04-.22-.05-.03,0-.06,0-.08-.02-.03-.03-.05-.09-.11-.08-.15.02-.27-.08-.42-.06-.08.02-.17.04-.24.08-.05.02-.06,0-.07-.05v-.06c.01-.09-.03-.18-.12-.21-.05-.02-.07-.08-.05-.14,0-.01.01-.02.02-.03.01-.02.03-.03.04-.04.13-.04.1-.14.09-.24,0-.03-.02-.05-.04-.06-.13-.09-.28-.13-.43-.12-.13,0-.27.01-.4,0-.07.01-.13-.02-.17-.08-.04-.07-.12-.03-.19-.04s-.08-.02-.05-.12c.01-.04,0-.07-.05-.09,0,0,0,0,0,0-.04-.02-.09-.02-.14-.01-.1.03-.2.07-.3.1-.05.02-.1.06-.12.11-.08.13-.09.13-.25.08-.04-.01-.08,0-.09.04,0,.03,0,.06-.02.08-.03.03-.07.08-.11.09-.11.02-.23.02-.34-.02-.08-.04-.17-.04-.25,0-.04.02-.09.02-.14.04-.19.08-.4.13-.6.15-.16.03-.3.11-.42.23-.04.03-.05.08-.04.13,0,.03.04.07.03.08-.03.03-.06.05-.09.06-.05.02-.11.02-.17.02-.14,0-.29,0-.44,0-.08,0-.15.02-.22.06-.02.01-.04.04-.04.06,0,.09,0,.17,0,.26,0,.04-.04.08-.08.06-.21-.11-.39,0-.57.08,0,0-.02.02-.02.02,0,.02.02.04.03.05.08.05.17.09.25.14.01,0,.02.03.02.05-.02,0-.04.02-.05.02-.11-.03-.22-.05-.34-.06-.07,0-.11-.07-.11-.15,0-.04-.03-.07-.07-.07,0,0,0,0,0,0-.06,0-.11.03-.14.08,0,.04-.01.07-.01.11,0,.07.04.13.04.19s-.03.12-.04.19c0,.04.01.07.04.1.05.05.11.08.15.12.03.03,0,.05-.02.06-.04.01-.07.06-.05.11,0,0,0,0,0,.01.05.06.05.16-.02.21,0,0-.01,0-.02.01,0,0-.02.02-.01.02,0,.19-.18.21-.28.3-.03.02-.09.01-.14.02-.02,0-.05-.01-.05-.02,0-.02,0-.07.02-.07.08-.03.1-.11.13-.18.02-.03,0-.09.03-.11.12-.11.1-.2,0-.32-.05-.1-.05-.21,0-.31.02-.04.03-.09.04-.14.01-.08-.01-.15-.06-.21-.06-.07-.06-.09.01-.13.28-.18.55-.35.82-.52.36-.22.74-.41,1.12-.59.41-.19.82-.37,1.25-.52.3-.11.6-.2.9-.3.04-.01.11-.04.14-.03.12.08.23.02.33-.02.12-.04.24-.06.37-.05.06.01.12,0,.16-.03.03-.03.05-.05,0-.08,0,0-.01-.02-.02-.04h.03c.3-.06.6-.12.9-.18.2-.04.4-.05.6-.07.13,0,.27-.01.4-.05.06-.01.11-.02.17,0h.98v.02ZM30.04,1.69h.1c.09,0,.17-.05.21-.12.02-.02.01-.04-.02-.04-.03,0-.06,0-.09,0-.11.02-.21-.02-.29-.09-.03-.03-.07-.02-.1,0,0,0,0,0,0,0-.04.07-.13.09-.2.05,0,0-.02-.01-.03-.02-.08-.06-.18-.08-.27-.06-.07,0-.12.06-.13.12-.02.06,0,.13.07.16.1.06.22.08.33.04.13-.04.27-.05.41-.04h0Z"/>
        <path id="Trazado_3895" data-name="Trazado 3895" class="cls-15" d="M13.39,11.56c.01.15-.02.3-.09.43-.05.09-.08.2-.08.3,0,.06-.03.11-.09.14-.05.02-.1.05-.16.06-.04,0-.08-.02-.08-.06,0,0,0,0,0,0,0-.04,0-.08,0-.11.05-.28.11-.56.17-.84,0-.04.02-.07.04-.11.02-.07.09-.11.15-.09,0,0,0,0,0,0,.07,0,.13.06.14.12,0,.06,0,.12,0,.16h0Z"/>
        <path id="Trazado_3896" data-name="Trazado 3896" class="cls-14" d="M18.48,3.64s-.02.06-.06.07c-.02,0-.03,0-.04-.01-.06-.03-.12-.06-.18-.09s-.12-.03-.15-.1c.05-.04.1-.09.15-.13.03-.02.06-.04.1-.05.02,0,.04,0,.05.01.09.08.13.19.13.3h0Z"/>
        <path id="Trazado_3897" data-name="Trazado 3897" class="cls-13" d="M12.76,14.24c0,.05,0,.11-.01.17,0,0,0,.01-.02.02,0,0-.01-.01-.01-.02v-.31s0-.02.01-.02c0,0,.01.01.02.02,0,.05,0,.09.01.14Z"/>
        <path id="Trazado_3898" data-name="Trazado 3898" class="cls-12" d="M12.75,15.31s0,.03,0,.08c0,0,0,.01-.02.02,0,0-.01-.01-.01-.02,0-.08,0-.15,0-.22,0-.02,0-.04.02-.05.01.01.02.03.02.05,0,.03,0,.06,0,.14h0Z"/>
      </g>
    </g>
  </g>
  <path id="Trazado_3899" data-name="Trazado 3899" class="cls-11" d="M28.04,48.16c-.06,1.13,0,2.28,0,3.42s-.07,2.37.02,3.55c1.02.1,2.05.11,3.08.04,1,0,2.02.06,3.01-.03,0-1.71,0-3.39,0-5.08,0-.08,0-.15,0-.23,0-3.08,0-6.17,0-9.25,0-.13,0-.27,0-.4v-9.61c0-.22.03-.44.04-.66,0-.14.05-.29-.05-.41-1.63-.01-3.24-.1-4.53,1.07-1.42,1.28-1.56,2.98-1.56,4.77,0,4.27-.1,8.56.01,12.83h0Z"/>
  <path id="Trazado_3900" data-name="Trazado 3900" class="cls-1" d="M34.12,29.49c.03.68-.61.42-1.14.49-.77.1-1.5.4-2.11.88-1.09.87-1.73,2.17-1.75,3.57,0,1.69,0,3.37,0,5.06h-.06c0,1.86.11,3.76,0,5.62-.04.77-.11,1.53-.12,2.32,0,.8-.13.75-.92.75-.06,1.13,0,2.28,0,3.42s-.07,2.37.02,3.55c1.02.1,2.05.11,3.08.04,1,0,2.02.06,3.01-.03,0-1.71,0-3.39,0-5.08,0-.08,0-.15,0-.23,0-3.08,0-6.17,0-9.25h0c0-.13,0-.27,0-.4v-9.61c0-.22.03-.44.04-.66,0-.14.05-.29-.05-.41h0Z"/>
  <path id="Trazado_3901" data-name="Trazado 3901" class="cls-9" d="M1.52,28.67c-.1,1.37-.12,2.75-.05,4.13v4.18c0,2.78.02,5.54.12,8.31.07.84.3,1.64.4,2.48.02.28.06.56.12.84.1.33.43.81.4,1.16-.19.12-.39.04-.58.07-1.05-1.84-1.32-3.97-1.5-6.04,0-5.18.21-10.41,0-15.58.25-1.29,1-2.42,2.09-3.16,1.25-.9,2.52-.9,4-.91.04.15.03.3-.02.44-1.21.04-2.37.48-3.29,1.26-.78.67-1.64,1.75-1.67,2.83h0Z"/>
  <path id="Trazado_3902" data-name="Trazado 3902" class="cls-16" d="M19.99,38.9c0,2.42.12,4.82-.46,7.18-.79,1.64-1.73,2.93-3.51,3.56-.8.24-1.64.35-2.47.31-.27,0-2.32-.12-2.18-.48,2.33.52,4.74-.35,6.21-2.23,1.52-2.08,1.32-4.78,1.32-7.22v-4.07c0-1.24-.14-2.57.29-3.76.33-1,1.05-1.83,1.99-2.31,1.18-.56,2.55-.41,3.82-.41.02.46.02.46-.45.45-.48-.02-.96.02-1.43.11-1.09.24-2.03.95-2.54,1.94-.39.7-.59,1.49-.58,2.28,0,1.54,0,3.08,0,4.63Z"/>
  <path id="Trazado_3903" data-name="Trazado 3903" class="cls-2" d="M29.08,39.48c0,1.86.11,3.76,0,5.62-.04.77-.11,1.53-.12,2.32,0,.8-.13.75-.92.75-.11-4.27,0-8.55-.01-12.83,0-1.8.14-3.49,1.56-4.77,1.3-1.17,2.9-1.08,4.53-1.07.03.68-.61.42-1.14.49-.77.1-1.5.4-2.11.88-1.09.87-1.73,2.17-1.75,3.57-.03.13-.04.26-.05.39,0,1.56,0,3.11,0,4.67h0Z"/>
  <path id="Trazado_3904" data-name="Trazado 3904" class="cls-3" d="M29.08,39.47v-4.67c0-.13.03-.26.05-.39,0,1.69,0,3.37,0,5.06h-.06,0Z"/>
  <path id="Trazado_3905" data-name="Trazado 3905" class="cls-5" d="M25.05,41.3v-11.49c0-.11-.03-.22-.06-.33.02.46.02.46-.45.45-.48-.02-.96.02-1.43.11-1.09.24-2.03.95-2.54,1.94-.39.7-.59,1.49-.58,2.28,0,1.54,0,3.08,0,4.63,0,2.42.12,4.82-.46,7.18h0c-.79,1.64-1.73,2.93-3.51,3.56-.8.24-1.64.35-2.47.31-.27,0-2.32-.12-2.18-.48-1.84-.41-3.38-1.64-4.2-3.33-.02-.06-.04-.13-.06-.19-.35-.85-.52-1.76-.51-2.68,0-.11,0-.21,0-.32v-18.04c0-.17,0-.35,0-.52-.02-.09-.04-.18-.08-.27.04.15.03.3-.02.44-1.21.04-2.37.48-3.29,1.26-.78.67-1.64,1.75-1.67,2.83-.1,1.37-.12,2.75-.05,4.13v4.18c0,2.78.02,5.54.12,8.31.07.84.3,1.64.4,2.48.02.28.06.56.12.84.1.33.43.81.4,1.16-.19.12-.39.04-.58.07,2.21,4.64,7.7,6.04,12.43,5.63,2.42-.13,4.74-.98,6.68-2.45,1.8-1.51,3.03-3.59,3.5-5.89.04-.11.07-.21.1-.32.24-1.1.36-2.22.36-3.35.03-.12.04-.24.05-.36,0-.59,0-1.19,0-1.78h0ZM19.53,46.45s0,.02,0,.03c0-.01,0-.02,0-.04h0Z"/>
</svg>