<?xml version="1.0" encoding="UTF-8"?>
<svg id="Capa_1" data-name="Capa 1" xmlns="http://www.w3.org/2000/svg" version="1.1" viewBox="0 0 255.8 60">
  <defs>
    <style>
      .cls-1 {
        fill: #000;
        stroke-width: 0px;
      }
    </style>
  </defs>
  <path id="Trazado_3961" data-name="Trazado 3961" class="cls-1" d="M120.7,9.9c.3,2.4,1.6,3.3,4.1,3.3s3.6-.5,3.6-2.4c0-3.7-8.9-1.4-8.9-6.3s2.5-3.9,5-3.9,5.1,1.2,5.1,4.1h-1.6c-.2-2-1.6-2.5-3.5-2.5s-3.2.4-3.2,2.1.7,1.5,1.7,1.8c.6.2,3.3.9,3.9,1,1.8.5,3.3,1.6,3.3,3.5,0,2.9-2.8,4.1-5.5,4.1s-5.6-1.7-5.6-4.9h1.6,0Z"/>
  <path id="Trazado_3962" data-name="Trazado 3962" class="cls-1" d="M138,.6c2.7-.3,5.2,1.7,5.6,4.4h-1.8c-.4-1.8-2.1-3.1-3.9-2.9-3.4,0-4.4,2.8-4.4,5.6s1.5,5.6,4.7,5.6,3-1.1,3.5-3.1h1.8c0,2.6-2.3,4.7-5,4.6-.2,0-.3,0-.4,0-4.3,0-6.4-3.1-6.4-7s1.9-7.2,6.3-7.2h0Z"/>
  <path id="Trazado_3963" data-name="Trazado 3963" class="cls-1" d="M148.2.9v13.5h-1.9V.9h1.9Z"/>
  <path id="Trazado_3964" data-name="Trazado 3964" class="cls-1" d="M155.3,1l4.1,11.7,4-11.7h2.6v13.5h-1.6V3.3l-4,11h-1.9l-4.1-11v11.2h-1.6V1h2.6Z"/>
  <path id="Trazado_3965" data-name="Trazado 3965" class="cls-1" d="M174.1.8h2.3l4.9,13.5h-1.9l-1.4-4h-5.6l-1.5,4h-1.8l5-13.5h0ZM172.9,8.7h4.6l-2.2-6.1-2.4,6.1Z"/>
  <path id="Trazado_3966" data-name="Trazado 3966" class="cls-1" d="M188.8.7c2.8-.1,5.8,1.4,6.1,4.3h-1.8c-.6-1.8-2.4-3-4.3-2.8-3.3,0-4.9,2.5-4.9,5.5s1.4,5.7,4.8,5.7,4.4-1.7,4.4-4.5h-4.2v-1.5h5.9v7h-1.6v-1.5c-1.3,1.2-3,1.9-4.8,2-4.1,0-6.4-3.2-6.4-7s2.3-7.1,6.7-7.1h0Z"/>
  <path id="Trazado_3967" data-name="Trazado 3967" class="cls-1" d="M204.7.8c4.4,0,6.8,3.1,6.8,7.2s-2.5,7-6.8,7-6.9-3.1-6.9-7.1,2.4-7.1,6.8-7.1h0ZM204.7,13.4c3.3,0,4.9-2.5,4.9-5.4s-1.4-5.6-4.9-5.6-4.8,2.6-4.8,5.5,1.5,5.5,4.8,5.5h0Z"/>
  <path id="Trazado_3968" data-name="Trazado 3968" class="cls-1" d="M121.9,22.8v13.5h-1.8v-13.5h1.8Z"/>
  <path id="Trazado_3969" data-name="Trazado 3969" class="cls-1" d="M128.4,22.9l6.9,10.4v-10.4h1.9v13.5h-2.1l-6.7-10.3h-.1c0,0,0,10.3,0,10.3h-1.9v-13.5h2.1Z"/>
  <path id="Trazado_3970" data-name="Trazado 3970" class="cls-1" d="M234.1,22.9l6.9,10.4v-10.4h1.9v13.5h-2.1l-6.7-10.3h-.1c0,0,0,10.3,0,10.3h-1.9v-13.5h2.1Z"/>
  <path id="Trazado_3971" data-name="Trazado 3971" class="cls-1" d="M140.4,31.8c.3,2.4,1.5,3.3,4,3.3s3.5-.5,3.5-2.4c0-3.7-8.7-1.4-8.7-6.3s2.5-3.9,5-3.9,5,1.2,5,4.1h-1.6c-.2-2-1.6-2.5-3.5-2.5s-3.1.4-3.1,2.1.7,1.5,1.6,1.8c.6.2,3.3.9,3.8,1,1.7.5,3.3,1.6,3.3,3.5,0,2.9-2.8,4.1-5.4,4.1s-5.5-1.7-5.5-4.9h1.5Z"/>
  <path id="Trazado_3972" data-name="Trazado 3972" class="cls-1" d="M246.5,31.8c.3,2.4,1.5,3.3,4,3.3s3.5-.5,3.5-2.4c0-3.7-8.7-1.4-8.7-6.3s2.5-3.9,5-3.9,5,1.2,5,4.1h-1.6c-.2-2-1.6-2.5-3.5-2.5s-3.1.4-3.1,2.1.7,1.5,1.6,1.8c.6.2,3.3.9,3.8,1,1.7.5,3.3,1.6,3.3,3.5,0,2.9-2.8,4.1-5.4,4.1s-5.5-1.7-5.5-4.9h1.5Z"/>
  <path id="Trazado_3973" data-name="Trazado 3973" class="cls-1" d="M151.4,24.3v-1.6h10.9v1.6h-4.5v11.9h-1.8v-11.9h-4.5Z"/>
  <path id="Trazado_3974" data-name="Trazado 3974" class="cls-1" d="M196.3,24.3v-1.6h10.9v1.6h-4.5v11.9h-1.8v-11.9h-4.5Z"/>
  <path id="Trazado_3975" data-name="Trazado 3975" class="cls-1" d="M166.6,22.8v13.5h-1.8v-13.5h1.8Z"/>
  <path id="Trazado_3976" data-name="Trazado 3976" class="cls-1" d="M212.2,22.8v13.5h-1.8v-13.5h1.8Z"/>
  <path id="Trazado_3977" data-name="Trazado 3977" class="cls-1" d="M169.5,24.3v-1.6h10.9v1.6h-4.5v11.9h-1.8v-11.9h-4.5Z"/>
  <path id="Trazado_3978" data-name="Trazado 3978" class="cls-1" d="M184.4,22.7v10.1c.2,1.7,2,2.4,3.5,2.3,1.5,0,3.2-.6,3.4-2.3v-10.1h1.9v10c-.2,2.7-3,4.2-5.5,4-2.5,0-4.9-1.4-5.3-3.9v-10.1h1.9Z"/>
  <path id="Trazado_3979" data-name="Trazado 3979" class="cls-1" d="M222.1,22.7c4.3,0,6.7,3.1,6.7,7.2s-2.5,7-6.7,7-6.7-3.1-6.7-7.1,2.4-7.1,6.7-7.1h0ZM222.1,35.3c3.3,0,4.8-2.5,4.8-5.4s-1.4-5.6-4.8-5.6-4.7,2.6-4.7,5.5,1.5,5.5,4.7,5.5h0Z"/>
  <path id="Trazado_3980" data-name="Trazado 3980" class="cls-1" d="M126.9,45.5c1.9,0,3.4,1.6,3.4,3.4,0,0,0,0,0,.1,0,1.4-.8,2.7-2,3.4,1,.4,1.7,1.4,1.9,2.4v4.2c0,0-1.6,0-1.6,0v-3.9c0-1-1.4-1.9-2.2-1.9h-4.6v5.8h-1.9v-13.5h7.1ZM121.7,51.6h4.3c1.3,0,2.4-1,2.4-2.3,0,0,0,0,0,0,0-1.2-.8-2.1-2-2.2,0,0-.1,0-.2,0h-4.5v4.6Z"/>
  <path id="Trazado_3981" data-name="Trazado 3981" class="cls-1" d="M136.6,45.5h2.3l4.9,13.5h-1.9l-1.4-4h-5.5l-1.5,4h-1.8l4.9-13.5h0ZM135.4,53.4h4.5l-2.1-6.1-2.4,6.1h0Z"/>
  <path id="Trazado_3982" data-name="Trazado 3982" class="cls-1" d="M148,45.6l6.9,10.4v-10.4h1.9v13.5h-2.1l-6.7-10.3h-.1c0,0,0,10.3,0,10.3h-1.9v-13.5h2.1Z"/>
  <path id="Trazado_3983" data-name="Trazado 3983" class="cls-1" d="M163.2,45.5v6.7l6.9-6.7h2.3l-5.7,5.8,5.7,7.7h-2.1l-4.9-6.6-2.2,2.2v4.4h-1.8v-13.5h1.8Z"/>
  <path id="Trazado_3984" data-name="Trazado 3984" class="cls-1" d="M177.5,45.5v13.5h-1.8v-13.5h1.8Z"/>
  <path id="Trazado_3985" data-name="Trazado 3985" class="cls-1" d="M183,45.6l6.9,10.4v-10.4h1.9v13.5h-2.1l-6.7-10.3h-.1c0,0,0,10.3,0,10.3h-1.9v-13.5h2.1Z"/>
  <path id="Trazado_3986" data-name="Trazado 3986" class="cls-1" d="M201.2,45.4c2.7-.1,5.7,1.4,6,4.3h-1.7c-.6-1.8-2.3-3-4.2-2.8-3.3,0-4.8,2.5-4.8,5.5s1.4,5.7,4.7,5.7,4.3-1.7,4.3-4.5h-4.1v-1.5h5.8v7h-1.6v-1.5c-1.3,1.2-3,1.9-4.7,2-4.1,0-6.3-3.2-6.3-7s2.3-7.1,6.6-7.1h0Z"/>
  <path id="Trazado_3987" data-name="Trazado 3987" class="cls-1" d="M210.8,54.6c.3,2.4,1.5,3.3,4,3.3s3.5-.5,3.5-2.4c0-3.7-8.7-1.4-8.7-6.3s2.5-3.9,5-3.9,5,1.2,5,4.1h-1.6c-.2-2-1.6-2.5-3.5-2.5s-3.1.4-3.1,2.1.7,1.5,1.6,1.8c.6.2,3.3.9,3.8,1,1.7.5,3.3,1.6,3.3,3.5,0,2.9-2.8,4.1-5.4,4.1s-5.5-1.7-5.5-4.9h1.5,0Z"/>
  <rect id="Rectángulo_1591" data-name="Rectángulo 1591" class="cls-1" x="17.2" y="42.7" width="72" height="4.1"/>
  <rect id="Rectángulo_1592" data-name="Rectángulo 1592" class="cls-1" x="8.7" y="49.2" width="89.1" height="4.1"/>
  <rect id="Rectángulo_1593" data-name="Rectángulo 1593" class="cls-1" y="55.7" width="106.5" height="4.1"/>
  <rect id="Rectángulo_1594" data-name="Rectángulo 1594" class="cls-1" x="17.2" y=".3" width="72" height="4.1"/>
  <rect id="Rectángulo_1595" data-name="Rectángulo 1595" class="cls-1" x="25.6" y="6.7" width="4.1" height="33.7"/>
  <rect id="Rectángulo_1596" data-name="Rectángulo 1596" class="cls-1" x="42.7" y="6.7" width="4.1" height="33.7"/>
  <rect id="Rectángulo_1597" data-name="Rectángulo 1597" class="cls-1" x="59.9" y="6.7" width="4.1" height="33.7"/>
  <rect id="Rectángulo_1598" data-name="Rectángulo 1598" class="cls-1" x="77" y="6.7" width="4.1" height="33.7"/>
</svg>