<?xml version="1.0" encoding="utf-8"?>
<!-- Generator: Adobe Illustrator 28.1.0, SVG Export Plug-In . SVG Version: 6.00 Build 0)  -->
<svg version="1.1" id="Capa_1" xmlns="http://www.w3.org/2000/svg" xmlns:xlink="http://www.w3.org/1999/xlink" x="0px" y="0px"
	 viewBox="0 0 14.5 15.4" style="enable-background:new 0 0 14.5 15.4;" xml:space="preserve">
<style type="text/css">
	.st0{fill:#3D8BBA;}
</style>
<g id="Trazado_3731">
	<g>
		<path class="st0" d="M14.1,7.6c0,0.3-0.1,0.5-0.3,0.7l-6,6c-0.2,0.2-0.5,0.3-0.7,0.3s-0.5-0.1-0.7-0.3c-0.4-0.4-0.4-1,0-1.4
			l5.3-5.3L6.4,2.3C6,1.9,6,1.3,6.4,0.9l0.4,0.4L6.4,0.9c0.2-0.2,0.4-0.3,0.7-0.3s0.5,0.1,0.7,0.3l6,6C14,7.1,14.1,7.4,14.1,7.6z
			 M7.1,13.6l6-6l0,0L7.1,13.6z M7.1,1.6l3,3L7.1,1.6L7.1,1.6z"/>
	</g>
</g>
<g id="Trazado_3731_00000003104314996296248040000006301838184970788536_">
	<g>
		<path class="st0" d="M8.6,7.6c0,0.3-0.1,0.5-0.3,0.7l-6,6c-0.2,0.2-0.5,0.3-0.7,0.3s-0.5-0.1-0.7-0.3c-0.4-0.4-0.4-1,0-1.4
			l5.3-5.3L0.9,2.3c-0.4-0.4-0.4-1,0-1.4l0.4,0.4L0.9,0.9c0.2-0.2,0.4-0.3,0.7-0.3s0.5,0.1,0.7,0.3l6,6C8.5,7.1,8.6,7.4,8.6,7.6z
			 M1.6,13.6l6-6l0,0L1.6,13.6z M1.6,1.6l3,3L1.6,1.6L1.6,1.6z"/>
	</g>
</g>
</svg>
