<?xml version="1.0" encoding="utf-8"?>
<!-- Generator: Adobe Illustrator 28.1.0, SVG Export Plug-In . SVG Version: 6.00 Build 0)  -->
<svg version="1.1" id="Capa_1" xmlns="http://www.w3.org/2000/svg" xmlns:xlink="http://www.w3.org/1999/xlink" x="0px" y="0px"
	 viewBox="0 0 14.5 15.4" style="enable-background:new 0 0 14.5 15.4;" xml:space="preserve">
<style type="text/css">
	.st0{fill:#FFFFFF;}
</style>
<g id="Trazado_3731">
	<g>
		<path class="st0" d="M0.6,7.6c0-0.3,0.1-0.5,0.3-0.7l6-6c0.2-0.2,0.5-0.3,0.7-0.3s0.5,0.1,0.7,0.3c0.4,0.4,0.4,1,0,1.4L3,7.6
			l5.3,5.3c0.4,0.4,0.4,1,0,1.4l-0.4-0.4l0.4,0.4c-0.2,0.2-0.4,0.3-0.7,0.3c-0.3,0-0.5-0.1-0.7-0.3l-6-6C0.7,8.1,0.6,7.8,0.6,7.6z
			 M7.6,1.6l-6,6l0,0L7.6,1.6z M7.6,13.6l-3-3L7.6,13.6L7.6,13.6z"/>
	</g>
</g>
<g id="Trazado_3731_00000003104314996296248040000006301838184970788536_">
	<g>
		<path class="st0" d="M6.1,7.6c0-0.3,0.1-0.5,0.3-0.7l6-6c0.2-0.2,0.5-0.3,0.7-0.3s0.5,0.1,0.7,0.3c0.4,0.4,0.4,1,0,1.4L8.5,7.6
			l5.3,5.3c0.4,0.4,0.4,1,0,1.4l-0.4-0.4l0.4,0.4c-0.2,0.2-0.4,0.3-0.7,0.3s-0.5-0.1-0.7-0.3l-6-6C6.2,8.1,6.1,7.8,6.1,7.6z
			 M13.1,1.6l-6,6l0,0L13.1,1.6z M13.1,13.6l-3-3L13.1,13.6L13.1,13.6z"/>
	</g>
</g>
</svg>
