<?xml version="1.0" encoding="UTF-8"?>
<svg id="Capa_1" data-name="Capa 1" xmlns="http://www.w3.org/2000/svg" version="1.1" viewBox="0 0 196.7 60">
  <defs>
    <style>
      .cls-1 {
        fill: #1860aa;
      }

      .cls-1, .cls-2, .cls-3, .cls-4 {
        stroke-width: 0px;
      }

      .cls-2 {
        fill: #fff;
      }

      .cls-3 {
        fill: #e30427;
      }

      .cls-4 {
        fill: #b70e80;
      }
    </style>
  </defs>
  <g id="Grupo_1360" data-name="Grupo 1360">
    <rect id="Rectángulo_1588" data-name="Rectángulo 1588" class="cls-3" x="73" y=".2" width="123.7" height="18.5"/>
    <rect id="Rectángulo_1589" data-name="Rectángulo 1589" class="cls-4" x="73" y="20.8" width="104.6" height="18.5"/>
    <rect id="Rectángulo_1590" data-name="Rectángulo 1590" class="cls-1" x="73" y="41.5" width="85.4" height="18.5"/>
    <g id="Grupo_1357" data-name="Grupo 1357">
      <path id="Trazado_3906" data-name="Trazado 3906" class="cls-2" d="M77.1,15.9l-2.4-13.8h1.4l1.4,8.2c.2,1.1.3,2.1.4,3.2,0-1.1.2-2.2.5-3.3l1.8-8.2h1.2l1.8,8.2c.2,1.1.4,2.2.5,3.3,0-1.1.2-2.2.4-3.2l1.4-8.2h1.4l-2.4,13.8h-1.4l-2.1-9.9c-.1-.6-.2-1.2-.2-1.9,0,1-.2,1.7-.3,2.2l-2,9.6h-1.4,0Z"/>
      <path id="Trazado_3907" data-name="Trazado 3907" class="cls-2" d="M88.3,9c0-4.8,1.4-7.2,4.1-7.2s4.1,2.4,4.1,7.2-1.4,7.2-4.1,7.2-4.1-2.4-4.1-7.2ZM89.9,8.7c0,4.2.7,6.2,2.5,6.2s2.5-1.9,2.5-5.9-.7-5.9-2.5-5.9-2.5,1.8-2.5,5.6h0Z"/>
      <path id="Trazado_3908" data-name="Trazado 3908" class="cls-2" d="M98.9,2.1h2.7c3.2,0,4.8,1.2,4.8,3.6.1,1.5-.9,2.9-2.4,3.3l2.4,6.9h-1.7l-2.3-6.6c-.5,0-1.1,0-1.6,0h-.6v6.5h-1.5V2.1ZM101.8,8.1c2.1,0,3.1-.8,3.1-2.4s-1-2.4-3.1-2.4h-1.3v4.8h1.3Z"/>
      <path id="Trazado_3909" data-name="Trazado 3909" class="cls-2" d="M108.9,2.1h1.6v12.5h4.7v1.3h-6.3V2.1h0Z"/>
      <path id="Trazado_3910" data-name="Trazado 3910" class="cls-2" d="M117.1,2.1h2.8c3.5,0,5,2.1,5,6.9s-1.4,6.9-5,6.9h-2.8V2.1ZM118.6,14.6c.3,0,.6,0,.8,0,3,0,3.8-1.6,3.8-5.7s-.8-5.7-3.8-5.7-.6,0-.8,0v11.3Z"/>
    </g>
    <g id="Grupo_1358" data-name="Grupo 1358">
      <path id="Trazado_3911" data-name="Trazado 3911" class="cls-2" d="M75.7,23h1.5v8.9c0,2.7.2,4,2.2,4s2.2-1.3,2.2-4v-8.9h1.5v9c0,1.8,0,3.1-.8,3.9-.8.8-1.9,1.2-3,1.2-1.1,0-2.2-.4-3-1.2-.7-.9-.8-2.1-.8-3.9v-9h0Z"/>
      <path id="Trazado_3912" data-name="Trazado 3912" class="cls-2" d="M87.4,24.1v12.8h-1.3v-13.8h2.2l3.1,7.8c.4,1.1.8,2.3,1.2,3.4,0-1-.1-2-.1-3v-8.3h1.3v13.8h-1.5l-3.8-9.6c-.5-1.2-.8-2.2-1.1-3.2h0Z"/>
      <path id="Trazado_3913" data-name="Trazado 3913" class="cls-2" d="M96.8,23h1.5v13.8h-1.5v-13.8Z"/>
      <path id="Trazado_3914" data-name="Trazado 3914" class="cls-2" d="M100.1,23h1.5l2.2,9.4c.1.5.2,1.2.4,2.2.1-.7.3-1.4.5-2.2l2.2-9.4h1.5l-3.4,13.8h-1.4l-3.4-13.8Z"/>
      <path id="Trazado_3915" data-name="Trazado 3915" class="cls-2" d="M110,23h6.7v1.3h-5.2v4.8h3.8v1.3h-3.8v5.2h5.4v1.3h-6.9v-13.8Z"/>
      <path id="Trazado_3916" data-name="Trazado 3916" class="cls-2" d="M118.9,23h2.7c3.2,0,4.8,1.2,4.8,3.6.1,1.5-.9,2.9-2.4,3.3l2.4,6.9h-1.7l-2.3-6.6c-.5,0-1.1,0-1.6,0h-.6v6.5h-1.5v-13.8h0ZM121.7,29.1c2.1,0,3.1-.8,3.1-2.4s-1-2.4-3.1-2.4h-1.3v4.8h1.3Z"/>
      <path id="Trazado_3917" data-name="Trazado 3917" class="cls-2" d="M129.7,33.2c0,1.8.8,2.7,2.4,2.7,1.2,0,2.2-.9,2.2-2,0,0,0-.2,0-.3,0-1.5-1.1-2.4-2.9-3.6-1.8-1.3-2.9-2.2-2.9-4.1,0-1.7,1.4-3.1,3.2-3.1,0,0,.1,0,.2,0,2.2,0,3.6,1.4,3.7,3.7h-1.4c-.1-1.7-.8-2.6-2.2-2.6-1,0-1.9.6-2,1.7,0,0,0,.2,0,.3,0,.6.3,1.2.7,1.6.9.8,1.8,1.4,2.8,2.1,1.6,1.2,2.4,2.3,2.4,3.9.1,1.9-1.3,3.5-3.3,3.6-.1,0-.3,0-.4,0-2.4,0-3.8-1.4-3.8-3.9h1.5Z"/>
      <path id="Trazado_3918" data-name="Trazado 3918" class="cls-2" d="M138.1,23h1.5v13.8h-1.5v-13.8Z"/>
      <path id="Trazado_3919" data-name="Trazado 3919" class="cls-2" d="M144.4,24.2h-3v-1.2h7.5v1.2h-3v12.7h-1.5v-12.7h0Z"/>
      <path id="Trazado_3920" data-name="Trazado 3920" class="cls-2" d="M152.5,30.9l-3.4-7.9h1.6l2.6,6.3,2.5-6.3h1.6l-3.3,7.9v6h-1.6v-6h0Z"/>
    </g>
    <g id="Grupo_1359" data-name="Grupo 1359">
      <path id="Trazado_3921" data-name="Trazado 3921" class="cls-2" d="M75.7,44.3h2.7c3.2,0,4.8,1.2,4.8,3.6.1,1.5-.9,2.9-2.4,3.3l2.4,6.9h-1.7l-2.3-6.6c-.5,0-1.1,0-1.6,0h-.6v6.5h-1.5v-13.8ZM78.6,50.3c2.1,0,3.1-.8,3.1-2.4s-1-2.4-3.1-2.4h-1.3v4.8h1.3Z"/>
      <path id="Trazado_3922" data-name="Trazado 3922" class="cls-2" d="M87.8,44.3h2.1l3.3,13.8h-1.6l-.9-4.1h-3.8l-.9,4.1h-1.5l3.3-13.8h0ZM90.4,52.7l-1.6-7.2-1.6,7.2h3.1Z"/>
      <path id="Trazado_3923" data-name="Trazado 3923" class="cls-2" d="M96.3,45.4v12.8h-1.3v-13.8h2.2l3.1,7.8c.4,1.1.8,2.3,1.2,3.4,0-1-.1-2-.1-3v-8.3h1.3v13.8h-1.5l-3.8-9.6c-.5-1.2-.8-2.2-1.1-3.2h0Z"/>
      <path id="Trazado_3924" data-name="Trazado 3924" class="cls-2" d="M105.6,44.3h1.6v7.4l4.4-7.4h1.5l-3,4.9,3.5,9h-1.7l-2.8-7.5-2,3.3v4.2h-1.5v-13.8Z"/>
      <path id="Trazado_3925" data-name="Trazado 3925" class="cls-2" d="M115.1,44.3h1.5v13.8h-1.5v-13.8Z"/>
      <path id="Trazado_3926" data-name="Trazado 3926" class="cls-2" d="M121,45.4v12.8h-1.3v-13.8h2.2l3.1,7.8c.4,1.1.8,2.3,1.2,3.4,0-1-.1-2-.1-3v-8.3h1.3v13.8h-1.5l-3.8-9.6c-.5-1.2-.8-2.2-1.1-3.2h0Z"/>
      <path id="Trazado_3927" data-name="Trazado 3927" class="cls-2" d="M136.7,57.3c-.7.7-1.6,1.1-2.6,1.1-2.8,0-4.3-2.3-4.3-7,0-5,1.3-7.4,4.3-7.4s3.7,1.6,3.7,4.3h-1.5c0-2-.9-3.1-2.2-3.1-2,0-2.7,2-2.7,6.1s.8,5.8,2.8,5.8,2.2-.9,2.2-2.6v-1.6h-2.2v-1.2h3.6v6.5h-1.1l-.2-.8h0Z"/>
      <path id="Trazado_3928" data-name="Trazado 3928" class="cls-2" d="M141.3,54.5c0,1.8.8,2.7,2.4,2.7,1.2,0,2.2-.9,2.2-2,0,0,0-.2,0-.3,0-1.5-1.1-2.4-2.9-3.6-1.8-1.3-2.9-2.2-2.9-4.1,0-1.7,1.4-3.1,3.2-3.1,0,0,.1,0,.2,0,2.2,0,3.6,1.4,3.7,3.8h-1.4c-.1-1.7-.8-2.6-2.2-2.6-1,0-1.9.6-2,1.7,0,0,0,.2,0,.3,0,.6.3,1.2.7,1.6.9.8,1.8,1.4,2.8,2.1,1.6,1.2,2.4,2.3,2.4,3.9.1,1.9-1.3,3.5-3.3,3.6-.1,0-.3,0-.4,0-2.4,0-3.8-1.4-3.8-3.9h1.5Z"/>
    </g>
  </g>
  <path id="Trazado_3929" data-name="Trazado 3929" class="cls-3" d="M17.1,59.8H6.4V8.2H0V0h23.5v8.1h-6.5v51.6h0Z"/>
  <path id="Trazado_3930" data-name="Trazado 3930" class="cls-4" d="M35.8,30.8v29h-10.1V0c0,0,10.1,0,10.1,0v22.6h2.7V0h10.1v59.7h-10.1v-29h-2.7,0Z"/>
  <path id="Trazado_3931" data-name="Trazado 3931" class="cls-1" d="M71.1,8.2h-9.6v15.3h8v7.3h-8v20h9.6v9h-20V0h20v8.1Z"/>
</svg>