<?xml version="1.0" encoding="utf-8"?>
<!-- Generator: Adobe Illustrator 27.9.2, SVG Export Plug-In . SVG Version: 6.00 Build 0)  -->
<svg version="1.1" id="Layer_1" xmlns="http://www.w3.org/2000/svg" xmlns:xlink="http://www.w3.org/1999/xlink" x="0px" y="0px"
	 viewBox="0 0 114.2 94.1" style="enable-background:new 0 0 114.2 94.1;" xml:space="preserve">
<style type="text/css">
	.st0{fill:#FFFFFF;}
</style>
<g id="Grupo_1122" transform="translate(0 0)">
	<g>
		<g id="Grupo_1121" transform="translate(0 0)">
			<path id="Trazado_3255" class="st0" d="M69.1,40.4l0.6-0.1c2.8,5.6,5.5,11.2,8.3,16.8c1.3,2.6,3.3,3.3,5.5,2.2s2.8-3.1,1.5-5.7
				C80.8,44.7,76.4,35.8,72,27c-0.7-1.7-2.4-2.7-4.2-2.6c-7,0.1-13.9-0.1-20.9,0.1c-1.6,0.1-3,1-3.9,2.3c-4.6,8.9-9,17.8-13.4,26.8
				c-1.3,2.6-0.7,4.6,1.6,5.7c2.2,1.1,4.1,0.4,5.5-2.3c2.4-4.7,4.7-9.5,7.1-14.2c0.4-0.9,0.9-1.8,1.4-2.6l0.5,0.2v3.2
				c0,14.6,0,29.2,0,43.9c0,3.3,1.4,5.1,3.9,5.2c2.6,0.1,4.2-1.8,4.2-5.2c0-6.4,0-12.8,0-19.1c0-1,0.1-2.1,0.2-3h7.2v3.4
				c0,6.3-0.1,12.6,0.1,18.8c0,1.5,0.6,3,1.6,4.1c1.2,0.8,2.6,1,3.9,0.4c1.3-1,2.2-2.5,2.3-4.2c0.2-12.2,0.1-24.3,0.1-36.5
				L69.1,40.4L69.1,40.4z"/>
			<path id="Trazado_3256" class="st0" d="M57.5,20.6c5.4-0.1,9.8-4.5,9.7-9.9S62.7,0.9,57.3,1c-5.4,0.1-9.7,4.4-9.7,9.8v0.3
				C47.7,16.4,52.1,20.7,57.5,20.6"/>
			<path id="Trazado_3257" class="st0" d="M68.9,40.6l0.6-0.1c2.8,5.6,5.5,11.2,8.3,16.8c1.3,2.6,3.3,3.3,5.5,2.2s2.8-3.1,1.5-5.7
				c-4.3-8.9-8.8-17.7-13.1-26.6c-0.7-1.7-2.4-2.7-4.2-2.6c-7,0.1-13.9-0.1-20.9,0.1c-1.6,0.1-3,1-3.9,2.3
				c-4.6,8.9-9,17.8-13.4,26.8c-1.3,2.6-0.7,4.6,1.6,5.7c2.2,1.1,4.1,0.4,5.5-2.3c2.4-4.7,4.7-9.5,7.1-14.2c0.4-0.9,0.9-1.8,1.4-2.6
				l0.5,0.2v3.2c0,14.6,0,29.2,0,43.9c0,3.3,1.4,5.1,3.9,5.2c2.6,0.1,4.2-1.8,4.2-5.2c0-6.4,0-12.8,0-19.1c0-1,0.1-2.1,0.2-3h7.2V69
				c0,6.3-0.1,12.6,0.1,18.8c0,1.5,0.6,3,1.6,4.1c1.2,0.8,2.6,1,3.9,0.4c1.3-1,2.2-2.5,2.3-4.2C69,76,68.9,63.9,68.9,51.7V40.6
				L68.9,40.6z M76.6,61c0,9.6,0,19,0,28.4c-0.1,1.8,1.2,3.3,3,3.5c0.2,0,0.4,0,0.6,0c1.8,0.2,3.3-1.1,3.5-2.9c0-0.2,0-0.4,0-0.6
				c0-4.4,0-8.8,0-13.2v-8h6.9v20.9c0,2.4,1.2,3.8,3.5,3.8s3.5-1.4,3.6-3.8c0-0.7,0-1.4,0-2.1V45.4c0.8,0.6,1.4,1.4,1.8,2.3
				c2.1,4.3,4.3,8.6,6.4,12.9c1.1,2.2,2.8,3,5.1,1.9c2.1-1.1,2.5-2.9,1.4-5c-4-8.1-7.9-16.2-12.1-24.2c-0.6-1.2-1.7-2-3-2.3
				C90.7,30.9,83.9,31,76.7,31 M37.5,31c-7.1,0-13.8-0.1-20.4,0.1c-1.1,0.1-2.2,0.7-2.8,1.7c-4.3,8.4-8.6,17-12.7,25.5
				c-0.9,1.9-0.1,3.5,1.7,4.4c1.5,1,3.5,0.5,4.4-0.9l0,0c0.1-0.1,0.1-0.2,0.2-0.3c0.9-1.5,1.6-3.1,2.4-4.7c1.9-3.8,3.8-7.6,5.7-11.4
				l0.6,0.2v1.7c0,13.8,0,27.7,0,41.5c0,2.8,1.4,4.4,3.7,4.2c2.5-0.2,3.5-1.8,3.4-4.2c-0.1-4.2,0-8.4,0-12.7v-7.8h6.9v3.3
				c0,5.8,0,11.6,0,17.4c0,2.5,1.1,4,3.6,4s3.6-1.7,3.5-4.1c0-3.3,0-6.7,0-27.7 M57.2,20.8c5.4-0.1,9.8-4.5,9.7-9.9
				c-0.1-5.4-4.5-9.8-9.9-9.7c-5.4,0.1-9.7,4.4-9.7,9.8v0.3C47.4,16.6,51.9,20.9,57.2,20.8 M27.2,9.9c-4.8-0.1-8.8,3.6-8.9,8.4
				c0,0,0,0,0,0v0.4c0,4.9,3.9,8.9,8.8,8.9c4.9,0,8.9-3.9,8.9-8.8c0.1-4.8-3.7-8.8-8.5-9c0,0,0,0,0,0L27.2,9.9 M96.1,18.7
				c0-4.9-4-8.8-8.9-8.7c-4.9,0-8.8,4-8.7,8.9c0,4.9,4,8.8,8.9,8.7c4.8,0,8.7-3.9,8.7-8.7V18.7"/>
		</g>
	</g>
</g>
</svg>
