<?xml version="1.0" encoding="UTF-8"?>
<svg id="Capa_1" data-name="Capa 1" xmlns="http://www.w3.org/2000/svg" viewBox="0 0 22 22">
  <defs>
    <style>
      .cls-1 {
        fill: #fff;
      }
    </style>
  </defs>
  <g id="rfzjva">
    <g>
      <path class="cls-1" d="M12.97,.36c0,.08,0,.14,0,.21,0,1.55,0,3.1,0,4.65,0,.2,0,.21,.2,.21,2.56,0,5.13,0,7.69,0,.22,0,.42,.04,.58,.21,.13,.14,.18,.3,.18,.48,0,.4,0,.8,0,1.2,0,2.91,0,5.82,0,8.72,0,.5-.25,.75-.75,.75-2.36,0-4.71,0-7.07,0-.27,0-.55,0-.85,0v4.85c-.33-.06-.63-.11-.93-.16-2.16-.37-4.31-.74-6.47-1.12-1.68-.29-3.36-.58-5.04-.87-.16-.03-.15-.12-.15-.23,0-4.81,0-9.61,0-14.42,0-.71,0-1.43,0-2.14,0-.13,.04-.19,.17-.22C3.61,1.97,6.67,1.44,9.73,.91c1.02-.18,2.05-.35,3.07-.53,.04,0,.09-.01,.16-.02Zm7.97,7.13c-.07,.06-.11,.08-.14,.11-.33,.31-.67,.63-1,.94-1.2,1.13-2.4,2.26-3.6,3.39-.32,.3-.58,.31-.9,.01-.72-.65-1.44-1.31-2.15-1.97-.05-.04-.1-.08-.17-.14,0,.1,0,.17,0,.23,0,1.93,0,3.86,0,5.79q0,.21,.21,.21c2.52,0,5.03,0,7.55,0,.21,0,.21,0,.21-.22,0-2.72,0-5.44,0-8.16v-.2Zm-11.34,3.29c-.02-.25-.03-.5-.05-.75-.09-.86-.37-1.64-.95-2.29-.4-.45-.89-.78-1.5-.86-1.47-.17-2.57,.39-3.22,1.58-.53,.97-.66,2.02-.56,3.11,.05,.53,.13,1.05,.38,1.53,.57,1.11,1.45,1.75,2.72,1.76,1.21,0,2.06-.62,2.63-1.65,.41-.76,.55-1.58,.55-2.44Zm7.33-4.65c-1.26,0-2.53,0-3.79,0-.14,0-.18,.04-.17,.18,0,.82,0,1.64,0,2.47,0,.1,.03,.17,.1,.24,.81,.75,1.61,1.5,2.42,2.26q.24,.22,.48,0c1.59-1.5,3.17-3,4.76-4.5,.13-.12,.2-.24,.18-.43-.02-.2,0-.21-.21-.21-1.26,0-2.52,0-3.78,0Z"/>
      <path class="cls-1" d="M7.91,10.96c.03,.58-.05,1.15-.33,1.66-.1,.19-.25,.36-.41,.5-.52,.46-1.55,.34-2.02-.42-.23-.38-.39-.79-.4-1.23-.02-.49,0-.98,.06-1.46,.05-.45,.25-.86,.58-1.19,.56-.57,1.7-.69,2.23,.41,.2,.42,.27,.86,.3,1.31,0,.14,0,.28,0,.42Z"/>
    </g>
  </g>
</svg>