<?xml version="1.0" encoding="utf-8"?>
<!-- Generator: Adobe Illustrator 28.3.0, SVG Export Plug-In . SVG Version: 6.00 Build 0)  -->
<svg version="1.1" id="Capa_1" xmlns="http://www.w3.org/2000/svg" xmlns:xlink="http://www.w3.org/1999/xlink" x="0px" y="0px"
	 viewBox="0 0 14.2 8.1" style="enable-background:new 0 0 14.2 8.1;" xml:space="preserve">
<style type="text/css">
	.st0{fill:#3D8BBA;}
</style>
<g id="Trazado_3731">
	<g>
		<path class="st0" d="M7.1,8.1C6.8,8.1,6.6,8,6.4,7.8l-6-6C0.2,1.6,0.1,1.3,0.1,1.1s0.1-0.5,0.3-0.7c0.4-0.4,1-0.4,1.4,0l5.3,5.3
			l5.3-5.3c0.4-0.4,1-0.4,1.4,0l-0.4,0.4l0.4-0.4c0.2,0.2,0.3,0.4,0.3,0.7c0,0.3-0.1,0.5-0.3,0.7l-6,6C7.6,8,7.3,8.1,7.1,8.1z
			 M1.1,1.1l6,6l0,0L1.1,1.1z M13.1,1.1l-3,3L13.1,1.1L13.1,1.1z"/>
	</g>
</g>
</svg>
