<?xml version="1.0" encoding="UTF-8"?>
<svg id="Capa_1" data-name="Capa 1" xmlns="http://www.w3.org/2000/svg" version="1.1" viewBox="0 0 49.2 65.4">
  <defs>
    <style>
      .cls-1 {
        fill: none;
        stroke: #fff;
        stroke-width: 5px;
      }

      .cls-2 {
        fill: #fff;
      }

      .cls-2, .cls-3 {
        stroke-width: 0px;
      }

      .cls-3 {
        fill: #3d8bba;
        fill-rule: evenodd;
      }
    </style>
  </defs>
  <g id="award-fill">
    <path id="Trazado_4389" data-name="Trazado 4389" class="cls-1" d="M24.7,4.8l6,3.1,6.7,1,3,6.1,4.8,4.8-1.1,6.7,1.1,6.7-4.8,4.8-3,6.1-6.7,1-6,3.1-6-3.1-6.7-1-3-6.1-4.8-4.8,1.1-6.7-1.1-6.7,4.8-4.8,3-6.1,6.7-1,6-3.1Z"/>
    <path id="Trazado_4390" data-name="Trazado 4390" class="cls-2" d="M10.3,47.4v15.2l14.4-3.6,14.4,3.6v-15.2l-7.3,1.1-7.1,3.7-7.1-3.7-7.3-1.1Z"/>
  </g>
  <g id="Grupo_1508" data-name="Grupo 1508">
    <g id="award-fill-2" data-name="award-fill">
      <path id="Trazado_4391" data-name="Trazado 4391" class="cls-2" d="M24.7,2.2l6.7,3.5,7.5,1.1,3.4,6.8,5.4,5.3-1.2,7.5,1.2,7.5-5.4,5.3-3.4,6.8-7.5,1.1-6.7,3.5-6.7-3.5-7.5-1.1-3.4-6.8-5.4-5.3,1.2-7.5-1.2-7.5,5.4-5.3,3.4-6.8,7.5-1.1,6.7-3.5Z"/>
    </g>
    <path id="arrow-right-short" class="cls-3" d="M14.6,28c0-.7.6-1.3,1.2-1.3h14.5l-5.4-5.4c-.5-.5-.5-1.3,0-1.8.5-.5,1.3-.5,1.8,0,0,0,0,0,0,0l7.5,7.5c.5.5.5,1.3,0,1.8,0,0,0,0,0,0l-7.5,7.5c-.5.5-1.3.5-1.8,0-.5-.5-.5-1.2,0-1.7l5.4-5.4h-14.5c-.7,0-1.2-.6-1.2-1.2Z"/>
  </g>
</svg>