<?xml version="1.0" encoding="utf-8"?>
<!-- Generator: Adobe Illustrator 28.3.0, SVG Export Plug-In . SVG Version: 6.00 Build 0)  -->
<svg version="1.1" id="Capa_1" xmlns="http://www.w3.org/2000/svg" xmlns:xlink="http://www.w3.org/1999/xlink" x="0px" y="0px"
	 viewBox="0 0 14.2 8.1" style="enable-background:new 0 0 14.2 8.1;" xml:space="preserve">
<style type="text/css">
	.st0{fill:#FFFFFF;}
</style>
<g id="Trazado_3731">
	<g>
		<path class="st0" d="M7.1,0.1c0.3,0,0.5,0.1,0.7,0.3l6,6c0.2,0.2,0.3,0.4,0.3,0.7S14,7.6,13.8,7.8c-0.4,0.4-1,0.4-1.4,0L7.1,2.5
			L1.8,7.8c-0.4,0.4-1,0.4-1.4,0l0.4-0.4L0.4,7.8C0.2,7.6,0.1,7.3,0.1,7.1c0-0.3,0.1-0.5,0.3-0.7l6-6C6.6,0.2,6.8,0.1,7.1,0.1z
			 M13.1,7.1l-6-6l0,0L13.1,7.1z M1.1,7.1l3-3L1.1,7.1L1.1,7.1z"/>
	</g>
</g>
</svg>
