<?xml version="1.0" encoding="utf-8"?>
<!-- Generator: Adobe Illustrator 28.1.0, SVG Export Plug-In . SVG Version: 6.00 Build 0)  -->
<svg version="1.1" xmlns="http://www.w3.org/2000/svg" xmlns:xlink="http://www.w3.org/1999/xlink" x="0px" y="0px"
	 viewBox="0 0 410 460" style="enable-background:new 0 0 410 460;" xml:space="preserve">
<style type="text/css">
	.st0{opacity:0.6;fill:url(#SVGID_1_);}
	.st1{fill:none;}
	.st2{fill:#223265;}
	.st3{fill:#3D8BBA;}
	.st4{fill:#FFFFFF;}
</style>
<g id="Capa_2">
</g>
<g id="Capa_1">
	
		<radialGradient id="SVGID_1_" cx="205" cy="-499.1016" r="202.3024" gradientTransform="matrix(1 0 0 -0.3287 0 223.0453)" gradientUnits="userSpaceOnUse">
		<stop  offset="0" style="stop-color:#000000"/>
		<stop  offset="1" style="stop-color:#000000;stop-opacity:0"/>
	</radialGradient>
	<ellipse class="st0" cx="205" cy="387.1" rx="204.9" ry="70.5"/>
	<g id="Grupo_1490">
		<g>
			<g>
				<g>
					<rect x="30.1" y="413.4" class="st1" width="360.6" height="42.4"/>
					<g id="Grupo_61">
						<g id="Grupo_60">
							<g>
								<g>
									<g>
										<rect x="30.1" y="413.4" class="st1" width="360.6" height="42.4"/>
										<g id="Grupo_59">
											<g id="Grupo_58">
												<g id="Grupo_57">
													<g>
														<g>
															<g>
																<rect x="30.1" y="413.4" class="st1" width="360.6" height="42.4"/>
																<g id="Grupo_56">
																	<g id="Grupo_55">
																		<g>
																			<g>
																				<g>
																					<path class="st1" d="M30.1,413.4c1.8,23.5,81.9,42.4,180.3,42.4s178.5-18.9,180.3-42.4H30.1z"/>
																					<g id="Grupo_54">
																						<g id="Grupo_53">
																							<g id="Grupo_52">
																							</g>
																						</g>
																					</g>
																				</g>
																			</g>
																		</g>
																	</g>
																</g>
															</g>
														</g>
													</g>
												</g>
											</g>
										</g>
									</g>
								</g>
							</g>
						</g>
					</g>
				</g>
			</g>
		</g>
		<path id="Rectángulo_1799" class="st2" d="M28.9,342.9h351c8.3,0,15,6.7,15,15v43.5c0,8.3-6.7,15-15,15h-351c-8.3,0-15-6.7-15-15
			v-43.5C13.9,349.7,20.6,342.9,28.9,342.9z"/>
		<path id="Rectángulo_1710" class="st3" d="M35.4,6h338c8.3,0,15,6.7,15,15v373c0,8.3-6.7,15-15,15h-338c-8.3,0-15-6.7-15-15V21
			C20.4,12.8,27.1,6,35.4,6z"/>
		<path id="question-circle-fill" class="st3" d="M366.4,52.4c0,4.4-3.6,8-8,8s-8-3.6-8-8s3.6-8,8-8S366.4,48,366.4,52.4z
			 M355.9,50.5h0.8c0.1,0,0.2-0.1,0.3-0.2c0.1-0.7,0.7-1.2,1.3-1.1c0.6-0.1,1.2,0.4,1.3,1c0,0.1,0,0.1,0,0.2c0,0.6-0.4,0.9-1,1.4
			c-0.7,0.4-1.2,1.2-1.2,2V54c0,0.1,0.1,0.2,0.2,0.2h0.8c0.1,0,0.2-0.1,0.2-0.2v-0.1c0-0.7,0.3-0.9,1-1.5c0.8-0.4,1.2-1.2,1.2-2.1
			c0-1.5-1.3-2.2-2.7-2.2c-1.4-0.2-2.6,0.8-2.7,2.2v0.1C355.6,50.4,355.7,50.5,355.9,50.5L355.9,50.5L355.9,50.5L355.9,50.5z
			 M358.2,56.9c0.5,0,1-0.3,1-0.8s-0.3-1-0.8-1c-0.1,0-0.1,0-0.2,0c-0.5,0-1,0.3-1,0.9s0.4,1,0.9,1
			C358.2,56.9,358.2,56.9,358.2,56.9L358.2,56.9z"/>
	</g>
	<g>
		<path class="st4" d="M66.3,125.9c-0.5,0.6-1.3,1.1-2.2,1.5s-2,0.5-3.2,0.5c-1.2,0-2.3-0.3-3.2-0.8s-1.6-1.3-2.1-2.3
			s-0.8-2.2-0.8-3.6v-1c0-1.4,0.2-2.6,0.7-3.7s1.2-1.8,2.1-2.4s2-0.8,3.2-0.8c1.7,0,3,0.4,4,1.2s1.5,2,1.7,3.5h-2.9
			c-0.1-0.8-0.4-1.4-0.9-1.8s-1.1-0.6-1.8-0.6c-1,0-1.8,0.4-2.3,1.1s-0.8,1.9-0.8,3.3v0.9c0,1.5,0.3,2.6,0.8,3.4s1.4,1.1,2.5,1.1
			c1.1,0,1.9-0.2,2.4-0.7v-2.5h-2.7v-2.2h5.6V125.9z"/>
		<path class="st4" d="M73.3,127.9c-1.5,0-2.8-0.5-3.8-1.4s-1.5-2.2-1.5-3.8v-0.3c0-1.1,0.2-2,0.6-2.8s1-1.5,1.7-1.9
			s1.6-0.7,2.6-0.7c1.4,0,2.6,0.5,3.4,1.4s1.2,2.2,1.2,3.9v1.2h-6.7c0.1,0.7,0.4,1.2,0.8,1.7s1,0.6,1.7,0.6c1.1,0,1.9-0.4,2.5-1.2
			l1.4,1.6c-0.4,0.6-1,1.1-1.7,1.4S74.2,127.9,73.3,127.9z M73,119.2c-0.6,0-1,0.2-1.4,0.6s-0.6,0.9-0.7,1.6h3.9v-0.2
			c0-0.6-0.2-1.1-0.5-1.5S73.6,119.2,73,119.2z"/>
		<path class="st4" d="M85,124.7c0-0.3-0.2-0.6-0.5-0.8s-0.9-0.4-1.6-0.5c-2.5-0.5-3.8-1.6-3.8-3.2c0-0.9,0.4-1.7,1.2-2.3
			s1.8-0.9,3.1-0.9c1.3,0,2.4,0.3,3.2,0.9s1.2,1.5,1.2,2.5h-2.8c0-0.4-0.1-0.7-0.4-1s-0.7-0.4-1.2-0.4c-0.5,0-0.8,0.1-1.1,0.3
			s-0.4,0.5-0.4,0.8c0,0.3,0.1,0.6,0.4,0.8s0.8,0.4,1.5,0.5s1.3,0.3,1.8,0.5c1.5,0.5,2.2,1.5,2.2,2.8c0,1-0.4,1.7-1.2,2.3
			s-1.9,0.9-3.2,0.9c-0.9,0-1.7-0.2-2.4-0.5s-1.2-0.7-1.6-1.3s-0.6-1.1-0.6-1.8h2.7c0,0.5,0.2,0.9,0.6,1.2s0.8,0.4,1.4,0.4
			c0.5,0,0.9-0.1,1.2-0.3S85,125.1,85,124.7z"/>
		<path class="st4" d="M92.9,114.5v2.6h1.8v2.1h-1.8v5.3c0,0.4,0.1,0.7,0.2,0.8s0.4,0.3,0.9,0.3c0.3,0,0.6,0,0.8-0.1v2.1
			c-0.6,0.2-1.1,0.3-1.7,0.3c-2,0-3-1-3-3v-5.7h-1.5v-2.1h1.5v-2.6H92.9z"/>
		<path class="st4" d="M96.3,114.4c0-0.4,0.1-0.8,0.4-1s0.7-0.4,1.2-0.4c0.5,0,0.9,0.1,1.2,0.4s0.4,0.6,0.4,1c0,0.4-0.1,0.8-0.4,1.1
			s-0.7,0.4-1.1,0.4s-0.9-0.1-1.1-0.4S96.3,114.8,96.3,114.4z M99.3,127.7h-2.8v-10.6h2.8V127.7z"/>
		<path class="st4" d="M101.2,122.3c0-1,0.2-2,0.6-2.8s1-1.5,1.7-1.9s1.6-0.7,2.6-0.7c1.4,0,2.6,0.4,3.5,1.3s1.4,2.1,1.5,3.6l0,0.7
			c0,1.6-0.5,2.9-1.4,3.9s-2.1,1.5-3.6,1.5s-2.7-0.5-3.6-1.5s-1.4-2.3-1.4-4V122.3z M104,122.5c0,1,0.2,1.8,0.6,2.3
			c0.4,0.5,0.9,0.8,1.6,0.8c0.7,0,1.2-0.3,1.6-0.8c0.4-0.5,0.6-1.4,0.6-2.5c0-1-0.2-1.7-0.6-2.3c-0.4-0.5-0.9-0.8-1.6-0.8
			c-0.7,0-1.2,0.3-1.6,0.8C104.2,120.5,104,121.4,104,122.5z M106.7,112.7h3.1l-2.7,3h-2.3L106.7,112.7z"/>
		<path class="st4" d="M115.5,117.1l0.1,1.2c0.8-0.9,1.8-1.4,3-1.4c1.1,0,2,0.3,2.5,1s0.8,1.6,0.8,2.9v6.8h-2.8v-6.8
			c0-0.6-0.1-1-0.4-1.3s-0.7-0.4-1.3-0.4c-0.8,0-1.4,0.3-1.8,1v7.5h-2.8v-10.6H115.5z"/>
		<path class="st4" d="M128.6,122.3c0-1.6,0.4-3,1.1-3.9s1.7-1.5,3-1.5c1,0,1.9,0.4,2.5,1.2v-5.4h2.8v15h-2.5l-0.1-1.1
			c-0.7,0.9-1.6,1.3-2.7,1.3c-1.2,0-2.2-0.5-3-1.5S128.6,124.1,128.6,122.3z M131.5,122.5c0,1,0.2,1.8,0.5,2.3
			c0.3,0.5,0.8,0.8,1.5,0.8c0.9,0,1.5-0.4,1.8-1.1v-4.2c-0.4-0.7-1-1.1-1.8-1.1C132.2,119.2,131.5,120.3,131.5,122.5z"/>
		<path class="st4" d="M145.2,127.9c-1.5,0-2.8-0.5-3.8-1.4s-1.5-2.2-1.5-3.8v-0.3c0-1.1,0.2-2,0.6-2.8s1-1.5,1.7-1.9
			s1.6-0.7,2.6-0.7c1.4,0,2.6,0.5,3.4,1.4s1.2,2.2,1.2,3.9v1.2h-6.7c0.1,0.7,0.4,1.2,0.8,1.7s1,0.6,1.7,0.6c1.1,0,1.9-0.4,2.5-1.2
			l1.4,1.6c-0.4,0.6-1,1.1-1.7,1.4S146.1,127.9,145.2,127.9z M144.9,119.2c-0.6,0-1,0.2-1.4,0.6s-0.6,0.9-0.7,1.6h3.9v-0.2
			c0-0.6-0.2-1.1-0.5-1.5S145.5,119.2,144.9,119.2z"/>
		<path class="st4" d="M154.1,127.7h-2.8v-15h2.8V127.7z"/>
		<path class="st4" d="M167.6,127.7c-0.1-0.3-0.2-0.6-0.3-0.9c-0.7,0.8-1.6,1.1-2.7,1.1c-1,0-1.9-0.3-2.6-0.9s-1-1.4-1-2.3
			c0-1.1,0.4-2,1.2-2.6s2-0.9,3.6-0.9h1.3v-0.6c0-0.5-0.1-0.9-0.4-1.2s-0.6-0.4-1.2-0.4c-0.5,0-0.8,0.1-1.1,0.3s-0.4,0.5-0.4,0.9
			h-2.8c0-0.6,0.2-1.2,0.6-1.7s0.9-0.9,1.6-1.2s1.5-0.4,2.3-0.4c1.3,0,2.3,0.3,3.1,1s1.1,1.6,1.1,2.8v4.6c0,1,0.1,1.8,0.4,2.3v0.2
			H167.6z M165.2,125.7c0.4,0,0.8-0.1,1.2-0.3s0.6-0.4,0.8-0.7v-1.8h-1.1c-1.4,0-2.2,0.5-2.3,1.5l0,0.2c0,0.4,0.1,0.6,0.4,0.9
			S164.8,125.7,165.2,125.7z"/>
		<path class="st4" d="M181.7,122.5c0,1.6-0.4,2.9-1.1,3.9s-1.7,1.5-3,1.5c-1.1,0-1.9-0.4-2.6-1.1v5h-2.8v-14.6h2.6l0.1,1
			c0.7-0.8,1.6-1.2,2.7-1.2c1.3,0,2.3,0.5,3,1.4s1.1,2.3,1.1,4V122.5z M178.9,122.3c0-1-0.2-1.7-0.5-2.3s-0.9-0.8-1.5-0.8
			c-0.9,0-1.5,0.3-1.8,1v4.3c0.3,0.7,1,1,1.8,1C178.2,125.6,178.9,124.5,178.9,122.3z"/>
		<path class="st4" d="M189.4,119.7c-0.4-0.1-0.7-0.1-1-0.1c-1.1,0-1.8,0.4-2.1,1.1v6.9h-2.8v-10.6h2.7l0.1,1.3
			c0.6-1,1.4-1.5,2.4-1.5c0.3,0,0.6,0,0.9,0.1L189.4,119.7z"/>
		<path class="st4" d="M195.4,127.9c-1.5,0-2.8-0.5-3.8-1.4s-1.5-2.2-1.5-3.8v-0.3c0-1.1,0.2-2,0.6-2.8s1-1.5,1.7-1.9
			s1.6-0.7,2.6-0.7c1.4,0,2.6,0.5,3.4,1.4s1.2,2.2,1.2,3.9v1.2H193c0.1,0.7,0.4,1.2,0.8,1.7s1,0.6,1.7,0.6c1.1,0,1.9-0.4,2.5-1.2
			l1.4,1.6c-0.4,0.6-1,1.1-1.7,1.4S196.3,127.9,195.4,127.9z M195.1,119.2c-0.6,0-1,0.2-1.4,0.6s-0.6,0.9-0.7,1.6h3.9v-0.2
			c0-0.6-0.2-1.1-0.5-1.5S195.7,119.2,195.1,119.2z"/>
		<path class="st4" d="M204,117.1l0.1,1.2c0.8-0.9,1.8-1.4,3-1.4c1.1,0,2,0.3,2.5,1s0.8,1.6,0.8,2.9v6.8h-2.8v-6.8
			c0-0.6-0.1-1-0.4-1.3c-0.3-0.3-0.7-0.4-1.3-0.4c-0.8,0-1.4,0.3-1.8,1v7.5h-2.8v-10.6H204z"/>
		<path class="st4" d="M212.1,122.3c0-1.6,0.4-3,1.1-3.9c0.7-1,1.7-1.5,3-1.5c1,0,1.9,0.4,2.5,1.2v-5.4h2.8v15h-2.5l-0.1-1.1
			c-0.7,0.9-1.6,1.3-2.7,1.3c-1.2,0-2.2-0.5-3-1.5S212.1,124.1,212.1,122.3z M214.9,122.5c0,1,0.2,1.8,0.5,2.3
			c0.3,0.5,0.8,0.8,1.5,0.8c0.9,0,1.5-0.4,1.8-1.1v-4.2c-0.4-0.7-1-1.1-1.8-1.1C215.6,119.2,214.9,120.3,214.9,122.5z"/>
		<path class="st4" d="M223.8,114.4c0-0.4,0.1-0.8,0.4-1s0.7-0.4,1.2-0.4c0.5,0,0.9,0.1,1.2,0.4s0.4,0.6,0.4,1
			c0,0.4-0.1,0.8-0.4,1.1s-0.7,0.4-1.1,0.4s-0.9-0.1-1.1-0.4S223.8,114.8,223.8,114.4z M226.8,127.7H224v-10.6h2.8V127.7z"/>
		<path class="st4" d="M232.4,125.4h5.2v2.3h-8.8v-1.7l5-6.6h-4.8v-2.3h8.5v1.7L232.4,125.4z"/>
		<path class="st4" d="M245.4,127.7c-0.1-0.3-0.2-0.6-0.3-0.9c-0.7,0.8-1.6,1.1-2.7,1.1c-1,0-1.9-0.3-2.6-0.9s-1-1.4-1-2.3
			c0-1.1,0.4-2,1.2-2.6s2-0.9,3.6-0.9h1.3v-0.6c0-0.5-0.1-0.9-0.4-1.2s-0.6-0.4-1.2-0.4c-0.5,0-0.8,0.1-1.1,0.3s-0.4,0.5-0.4,0.9
			h-2.8c0-0.6,0.2-1.2,0.6-1.7s0.9-0.9,1.6-1.2s1.5-0.4,2.3-0.4c1.3,0,2.3,0.3,3.1,1s1.1,1.6,1.1,2.8v4.6c0,1,0.1,1.8,0.4,2.3v0.2
			H245.4z M243.1,125.7c0.4,0,0.8-0.1,1.2-0.3s0.6-0.4,0.8-0.7v-1.8H244c-1.4,0-2.2,0.5-2.3,1.5l0,0.2c0,0.4,0.1,0.6,0.4,0.9
			S242.7,125.7,243.1,125.7z"/>
		<path class="st4" d="M253,117.1v11.1c0,1.2-0.3,2.1-0.9,2.7s-1.5,1-2.7,1c-0.5,0-1-0.1-1.4-0.2v-2.2c0.3,0.1,0.6,0.1,0.9,0.1
			c0.9,0,1.3-0.5,1.3-1.4v-11.2H253z M250,114.4c0-0.4,0.1-0.8,0.4-1s0.7-0.4,1.2-0.4s0.9,0.1,1.2,0.4s0.4,0.6,0.4,1
			c0,0.4-0.1,0.8-0.4,1.1s-0.7,0.4-1.1,0.4s-0.9-0.1-1.1-0.4S250,114.8,250,114.4z"/>
		<path class="st4" d="M260.1,127.9c-1.5,0-2.8-0.5-3.8-1.4s-1.5-2.2-1.5-3.8v-0.3c0-1.1,0.2-2,0.6-2.8s1-1.5,1.7-1.9
			s1.6-0.7,2.6-0.7c1.4,0,2.6,0.5,3.4,1.4s1.2,2.2,1.2,3.9v1.2h-6.7c0.1,0.7,0.4,1.2,0.8,1.7s1,0.6,1.7,0.6c1.1,0,1.9-0.4,2.5-1.2
			l1.4,1.6c-0.4,0.6-1,1.1-1.7,1.4S261,127.9,260.1,127.9z M259.8,119.2c-0.6,0-1,0.2-1.4,0.6s-0.6,0.9-0.7,1.6h3.9v-0.2
			c0-0.6-0.2-1.1-0.5-1.5S260.4,119.2,259.8,119.2z"/>
		<path class="st4" d="M266.2,118.3c0-0.4,0.2-0.8,0.5-1.1s0.7-0.4,1.1-0.4c0.5,0,0.8,0.1,1.1,0.4s0.5,0.6,0.5,1.1
			c0,0.4-0.1,0.8-0.4,1.1s-0.7,0.4-1.2,0.4c-0.5,0-0.8-0.1-1.1-0.4S266.2,118.7,266.2,118.3z M266.2,126.3c0-0.4,0.2-0.8,0.5-1.1
			s0.7-0.4,1.1-0.4c0.5,0,0.8,0.1,1.1,0.4s0.5,0.6,0.5,1.1c0,0.4-0.1,0.8-0.4,1.1s-0.7,0.4-1.2,0.4c-0.5,0-0.8-0.1-1.1-0.4
			S266.2,126.7,266.2,126.3z"/>
		<path class="st4" d="M59.6,169.3c-1.6-0.5-2.8-1-3.5-1.7s-1.1-1.5-1.1-2.5c0-1.1,0.4-2,1.3-2.8s2.1-1.1,3.5-1.1
			c1,0,1.8,0.2,2.6,0.6s1.4,0.9,1.8,1.6s0.6,1.4,0.6,2.2h-1.9c0-0.9-0.3-1.5-0.8-2c-0.5-0.5-1.3-0.7-2.3-0.7c-0.9,0-1.6,0.2-2.2,0.6
			c-0.5,0.4-0.8,1-0.8,1.7c0,0.6,0.2,1.1,0.7,1.5c0.5,0.4,1.3,0.8,2.5,1.1s2.1,0.7,2.8,1.1s1.2,0.9,1.5,1.4s0.5,1.2,0.5,1.9
			c0,1.2-0.4,2.1-1.3,2.8s-2.1,1-3.6,1c-1,0-1.9-0.2-2.7-0.6s-1.5-0.9-2-1.5s-0.7-1.4-0.7-2.2h1.9c0,0.9,0.3,1.5,1,2
			s1.5,0.7,2.5,0.7c1,0,1.7-0.2,2.3-0.6s0.8-1,0.8-1.7s-0.2-1.2-0.7-1.6S60.9,169.7,59.6,169.3z"/>
		<path class="st4" d="M66.5,170.3c0-1,0.2-2,0.6-2.8s1-1.5,1.7-1.9s1.6-0.7,2.5-0.7c1.4,0,2.6,0.5,3.5,1.5s1.3,2.3,1.3,4v0.1
			c0,1-0.2,2-0.6,2.8s-1,1.5-1.7,1.9s-1.6,0.7-2.5,0.7c-1.4,0-2.6-0.5-3.5-1.5s-1.3-2.3-1.3-4V170.3z M68.3,170.5
			c0,1.2,0.3,2.1,0.8,2.8s1.3,1.1,2.2,1.1c0.9,0,1.6-0.4,2.2-1.1s0.8-1.7,0.8-3c0-1.2-0.3-2.1-0.8-2.8s-1.3-1.1-2.2-1.1
			c-0.9,0-1.6,0.4-2.2,1.1S68.3,169.2,68.3,170.5z"/>
		<path class="st4" d="M80.1,165.1l0.1,1.3c0.8-1,1.9-1.5,3.2-1.5c2.2,0,3.4,1.3,3.4,3.8v7h-1.8v-7c0-0.8-0.2-1.3-0.5-1.7
			s-0.9-0.5-1.6-0.5c-0.6,0-1.1,0.2-1.5,0.5s-0.8,0.7-1,1.2v7.5h-1.8v-10.6H80.1z"/>
		<path class="st4" d="M98.6,175.7h-1.8v-15h1.8V175.7z"/>
		<path class="st4" d="M101,170.3c0-1,0.2-2,0.6-2.8s1-1.5,1.7-1.9s1.6-0.7,2.5-0.7c1.4,0,2.6,0.5,3.5,1.5s1.3,2.3,1.3,4v0.1
			c0,1-0.2,2-0.6,2.8s-1,1.5-1.7,1.9s-1.6,0.7-2.5,0.7c-1.4,0-2.6-0.5-3.5-1.5s-1.3-2.3-1.3-4V170.3z M102.9,170.5
			c0,1.2,0.3,2.1,0.8,2.8s1.3,1.1,2.2,1.1c0.9,0,1.6-0.4,2.2-1.1s0.8-1.7,0.8-3c0-1.2-0.3-2.1-0.8-2.8s-1.3-1.1-2.2-1.1
			c-0.9,0-1.6,0.4-2.2,1.1S102.9,169.2,102.9,170.5z"/>
		<path class="st4" d="M119.1,172.9c0-0.5-0.2-0.9-0.6-1.1s-1-0.5-1.9-0.7s-1.6-0.4-2.2-0.7s-0.9-0.6-1.2-1s-0.4-0.8-0.4-1.3
			c0-0.9,0.4-1.6,1.1-2.2s1.7-0.9,2.8-0.9c1.2,0,2.2,0.3,2.9,0.9s1.1,1.4,1.1,2.4H119c0-0.5-0.2-0.9-0.6-1.3s-0.9-0.5-1.6-0.5
			c-0.7,0-1.2,0.1-1.5,0.4s-0.6,0.7-0.6,1.1c0,0.4,0.2,0.8,0.5,1s1,0.4,1.9,0.6s1.6,0.4,2.2,0.7s1,0.6,1.2,1s0.4,0.9,0.4,1.4
			c0,0.9-0.4,1.7-1.1,2.3s-1.7,0.9-2.9,0.9c-0.8,0-1.6-0.1-2.2-0.4s-1.2-0.7-1.5-1.3s-0.6-1.1-0.6-1.7h1.8c0,0.6,0.3,1.1,0.7,1.4
			s1,0.5,1.8,0.5c0.7,0,1.2-0.1,1.6-0.4S119.1,173.3,119.1,172.9z"/>
		<path class="st4" d="M134.7,174.4c0.6,0,1.2-0.2,1.7-0.6s0.7-0.9,0.8-1.5h1.7c0,0.6-0.2,1.2-0.6,1.7s-0.9,1-1.5,1.3
			s-1.3,0.5-2,0.5c-1.4,0-2.6-0.5-3.4-1.4s-1.3-2.3-1.3-3.9v-0.3c0-1,0.2-1.9,0.6-2.7s0.9-1.4,1.6-1.9s1.5-0.7,2.5-0.7
			c1.2,0,2.2,0.4,3,1.1s1.2,1.6,1.3,2.8h-1.7c-0.1-0.7-0.3-1.2-0.8-1.7s-1-0.7-1.7-0.7c-0.9,0-1.6,0.3-2.1,1s-0.8,1.6-0.8,2.9v0.3
			c0,1.2,0.3,2.2,0.8,2.8S133.8,174.4,134.7,174.4z"/>
		<path class="st4" d="M140.5,170.3c0-1,0.2-2,0.6-2.8s1-1.5,1.7-1.9s1.6-0.7,2.5-0.7c1.4,0,2.6,0.5,3.5,1.5s1.3,2.3,1.3,4v0.1
			c0,1-0.2,2-0.6,2.8s-1,1.5-1.7,1.9s-1.6,0.7-2.5,0.7c-1.4,0-2.6-0.5-3.5-1.5s-1.3-2.3-1.3-4V170.3z M142.3,170.5
			c0,1.2,0.3,2.1,0.8,2.8s1.3,1.1,2.2,1.1c0.9,0,1.6-0.4,2.2-1.1s0.8-1.7,0.8-3c0-1.2-0.3-2.1-0.8-2.8s-1.3-1.1-2.2-1.1
			c-0.9,0-1.6,0.4-2.2,1.1S142.3,169.2,142.3,170.5z"/>
		<path class="st4" d="M154.1,165.1l0.1,1.3c0.8-1,1.9-1.5,3.2-1.5c2.2,0,3.4,1.3,3.4,3.8v7h-1.8v-7c0-0.8-0.2-1.3-0.5-1.7
			s-0.9-0.5-1.6-0.5c-0.6,0-1.1,0.2-1.5,0.5s-0.8,0.7-1,1.2v7.5h-1.8v-10.6H154.1z"/>
		<path class="st4" d="M165.8,162.5v2.6h2v1.4h-2v6.6c0,0.4,0.1,0.7,0.3,1c0.2,0.2,0.5,0.3,0.9,0.3c0.2,0,0.5,0,0.9-0.1v1.5
			c-0.5,0.1-0.9,0.2-1.4,0.2c-0.8,0-1.4-0.2-1.8-0.7s-0.6-1.2-0.6-2.1v-6.6h-1.9v-1.4h1.9v-2.6H165.8z"/>
		<path class="st4" d="M175,166.7c-0.3,0-0.6-0.1-0.9-0.1c-1.2,0-2,0.5-2.4,1.5v7.5h-1.8v-10.6h1.8l0,1.2c0.6-0.9,1.4-1.4,2.5-1.4
			c0.4,0,0.6,0,0.8,0.1V166.7z"/>
		<path class="st4" d="M176,170.3c0-1,0.2-2,0.6-2.8s1-1.5,1.7-1.9s1.6-0.7,2.5-0.7c1.4,0,2.6,0.5,3.5,1.5s1.3,2.3,1.3,4v0.1
			c0,1-0.2,2-0.6,2.8s-1,1.5-1.7,1.9s-1.6,0.7-2.5,0.7c-1.4,0-2.6-0.5-3.5-1.5s-1.3-2.3-1.3-4V170.3z M177.8,170.5
			c0,1.2,0.3,2.1,0.8,2.8s1.3,1.1,2.2,1.1c0.9,0,1.6-0.4,2.2-1.1s0.8-1.7,0.8-3c0-1.2-0.3-2.1-0.8-2.8s-1.3-1.1-2.2-1.1
			c-0.9,0-1.6,0.4-2.2,1.1S177.8,169.2,177.8,170.5z"/>
		<path class="st4" d="M189.9,175.7h-1.8v-15h1.8V175.7z"/>
		<path class="st4" d="M197.1,175.9c-1.4,0-2.6-0.5-3.5-1.4s-1.3-2.2-1.3-3.8v-0.3c0-1,0.2-2,0.6-2.8s1-1.5,1.7-1.9s1.5-0.7,2.3-0.7
			c1.4,0,2.4,0.5,3.2,1.4s1.1,2.2,1.1,3.9v0.8h-7.2c0,1,0.3,1.9,0.9,2.5s1.3,1,2.2,1c0.6,0,1.2-0.1,1.6-0.4s0.8-0.6,1.2-1l1.1,0.9
			C200.2,175.2,198.9,175.9,197.1,175.9z M196.9,166.4c-0.7,0-1.3,0.3-1.8,0.8s-0.8,1.3-0.9,2.2h5.3v-0.1c-0.1-0.9-0.3-1.6-0.7-2.1
			S197.7,166.4,196.9,166.4z"/>
		<path class="st4" d="M209.5,172.9c0-0.5-0.2-0.9-0.6-1.1c-0.4-0.3-1-0.5-1.9-0.7c-0.9-0.2-1.6-0.4-2.2-0.7s-0.9-0.6-1.2-1
			s-0.4-0.8-0.4-1.3c0-0.9,0.4-1.6,1.1-2.2s1.7-0.9,2.8-0.9c1.2,0,2.2,0.3,2.9,0.9c0.7,0.6,1.1,1.4,1.1,2.4h-1.8
			c0-0.5-0.2-0.9-0.6-1.3s-0.9-0.5-1.6-0.5c-0.7,0-1.2,0.1-1.5,0.4s-0.6,0.7-0.6,1.1c0,0.4,0.2,0.8,0.5,1s1,0.4,1.9,0.6
			c0.9,0.2,1.6,0.4,2.2,0.7c0.6,0.3,1,0.6,1.2,1c0.3,0.4,0.4,0.9,0.4,1.4c0,0.9-0.4,1.7-1.1,2.3c-0.8,0.6-1.7,0.9-2.9,0.9
			c-0.8,0-1.6-0.1-2.2-0.4s-1.2-0.7-1.5-1.3s-0.6-1.1-0.6-1.7h1.8c0,0.6,0.3,1.1,0.7,1.4s1,0.5,1.8,0.5c0.7,0,1.2-0.1,1.6-0.4
			C209.3,173.7,209.5,173.3,209.5,172.9z"/>
		<path class="st4" d="M220.5,170.3c0-1.6,0.4-2.9,1.2-3.9s1.8-1.5,3-1.5c1.2,0,2.2,0.4,2.9,1.3v-5.5h1.8v15h-1.7l-0.1-1.1
			c-0.7,0.9-1.7,1.3-3,1.3c-1.2,0-2.2-0.5-3-1.5s-1.2-2.3-1.2-3.9V170.3z M222.3,170.5c0,1.2,0.2,2.1,0.7,2.8s1.2,1,2.1,1
			c1.1,0,2-0.5,2.5-1.5v-4.9c-0.5-1-1.4-1.5-2.5-1.5c-0.9,0-1.6,0.3-2.1,1S222.3,169.2,222.3,170.5z"/>
		<path class="st4" d="M236.6,175.9c-1.4,0-2.6-0.5-3.5-1.4s-1.3-2.2-1.3-3.8v-0.3c0-1,0.2-2,0.6-2.8s1-1.5,1.7-1.9s1.5-0.7,2.3-0.7
			c1.4,0,2.4,0.5,3.2,1.4s1.1,2.2,1.1,3.9v0.8h-7.2c0,1,0.3,1.9,0.9,2.5s1.3,1,2.2,1c0.6,0,1.2-0.1,1.6-0.4s0.8-0.6,1.2-1l1.1,0.9
			C239.7,175.2,238.3,175.9,236.6,175.9z M236.4,166.4c-0.7,0-1.3,0.3-1.8,0.8s-0.8,1.3-0.9,2.2h5.3v-0.1c-0.1-0.9-0.3-1.6-0.7-2.1
			S237.1,166.4,236.4,166.4z"/>
		<path class="st4" d="M252,175.7h-1.8v-15h1.8V175.7z"/>
		<path class="st4" d="M259.3,175.9c-1.4,0-2.6-0.5-3.5-1.4s-1.3-2.2-1.3-3.8v-0.3c0-1,0.2-2,0.6-2.8s1-1.5,1.7-1.9s1.5-0.7,2.3-0.7
			c1.4,0,2.4,0.5,3.2,1.4s1.1,2.2,1.1,3.9v0.8h-7.2c0,1,0.3,1.9,0.9,2.5s1.3,1,2.2,1c0.6,0,1.2-0.1,1.6-0.4s0.8-0.6,1.2-1l1.1,0.9
			C262.4,175.2,261,175.9,259.3,175.9z M259.1,166.4c-0.7,0-1.3,0.3-1.8,0.8s-0.8,1.3-0.9,2.2h5.3v-0.1c-0.1-0.9-0.3-1.6-0.7-2.1
			S259.8,166.4,259.1,166.4z"/>
		<path class="st4" d="M269.7,174.4c0.6,0,1.2-0.2,1.7-0.6s0.7-0.9,0.8-1.5h1.7c0,0.6-0.2,1.2-0.6,1.7s-0.9,1-1.5,1.3
			s-1.3,0.5-2,0.5c-1.4,0-2.6-0.5-3.4-1.4s-1.3-2.3-1.3-3.9v-0.3c0-1,0.2-1.9,0.6-2.7s0.9-1.4,1.6-1.9s1.5-0.7,2.5-0.7
			c1.2,0,2.2,0.4,3,1.1s1.2,1.6,1.3,2.8h-1.7c-0.1-0.7-0.3-1.2-0.8-1.7s-1-0.7-1.7-0.7c-0.9,0-1.6,0.3-2.1,1s-0.8,1.6-0.8,2.9v0.3
			c0,1.2,0.3,2.2,0.8,2.8S268.8,174.4,269.7,174.4z"/>
		<path class="st4" d="M278.4,162.5v2.6h2v1.4h-2v6.6c0,0.4,0.1,0.7,0.3,1c0.2,0.2,0.5,0.3,0.9,0.3c0.2,0,0.5,0,0.9-0.1v1.5
			c-0.5,0.1-0.9,0.2-1.4,0.2c-0.8,0-1.4-0.2-1.8-0.7s-0.6-1.2-0.6-2.1v-6.6h-1.9v-1.4h1.9v-2.6H278.4z"/>
		<path class="st4" d="M289,174.6c-0.7,0.8-1.7,1.2-3.1,1.2c-1.1,0-2-0.3-2.6-1s-0.9-1.6-0.9-2.9v-6.9h1.8v6.8c0,1.6,0.7,2.4,2,2.4
			c1.4,0,2.3-0.5,2.8-1.5v-7.7h1.8v10.6h-1.7L289,174.6z"/>
		<path class="st4" d="M298.6,166.7c-0.3,0-0.6-0.1-0.9-0.1c-1.2,0-2,0.5-2.4,1.5v7.5h-1.8v-10.6h1.8l0,1.2c0.6-0.9,1.4-1.4,2.5-1.4
			c0.4,0,0.6,0,0.8,0.1V166.7z"/>
		<path class="st4" d="M306.4,175.7c-0.1-0.2-0.2-0.6-0.3-1.1c-0.8,0.9-1.8,1.3-3,1.3c-1,0-1.9-0.3-2.6-0.9s-1-1.3-1-2.2
			c0-1.1,0.4-2,1.3-2.6s2-0.9,3.5-0.9h1.8v-0.8c0-0.6-0.2-1.1-0.6-1.5s-0.9-0.6-1.7-0.6c-0.6,0-1.2,0.2-1.6,0.5s-0.7,0.7-0.7,1.2
			h-1.8c0-0.5,0.2-1,0.6-1.5s0.9-0.9,1.5-1.2s1.3-0.4,2.1-0.4c1.2,0,2.2,0.3,2.9,0.9s1,1.4,1.1,2.5v4.9c0,1,0.1,1.7,0.4,2.3v0.2
			H306.4z M303.4,174.3c0.6,0,1.1-0.1,1.6-0.4s0.9-0.7,1.1-1.1v-2.2h-1.4c-2.2,0-3.3,0.6-3.3,1.9c0,0.6,0.2,1,0.6,1.3
			S302.8,174.3,303.4,174.3z"/>
		<path class="st4" d="M310.7,178.5l-1-0.7c0.6-0.9,0.9-1.7,1-2.6v-1.6h1.8v1.4c0,0.7-0.2,1.3-0.5,2S311.2,178.1,310.7,178.5z"/>
		<path class="st4" d="M324.4,162.5v2.6h2v1.4h-2v6.6c0,0.4,0.1,0.7,0.3,1c0.2,0.2,0.5,0.3,0.9,0.3c0.2,0,0.5,0,0.9-0.1v1.5
			c-0.5,0.1-0.9,0.2-1.4,0.2c-0.8,0-1.4-0.2-1.8-0.7s-0.6-1.2-0.6-2.1v-6.6h-1.9v-1.4h1.9v-2.6H324.4z"/>
		<path class="st4" d="M335,175.7c-0.1-0.2-0.2-0.6-0.3-1.1c-0.8,0.9-1.8,1.3-3,1.3c-1,0-1.9-0.3-2.6-0.9s-1-1.3-1-2.2
			c0-1.1,0.4-2,1.3-2.6s2-0.9,3.5-0.9h1.8v-0.8c0-0.6-0.2-1.1-0.6-1.5s-0.9-0.6-1.7-0.6c-0.6,0-1.2,0.2-1.6,0.5s-0.7,0.7-0.7,1.2
			h-1.8c0-0.5,0.2-1,0.6-1.5s0.9-0.9,1.5-1.2s1.3-0.4,2.1-0.4c1.2,0,2.2,0.3,2.9,0.9s1,1.4,1.1,2.5v4.9c0,1,0.1,1.7,0.4,2.3v0.2H335
			z M332,174.3c0.6,0,1.1-0.1,1.6-0.4s0.9-0.7,1.1-1.1v-2.2h-1.4c-2.2,0-3.3,0.6-3.3,1.9c0,0.6,0.2,1,0.6,1.3S331.4,174.3,332,174.3
			z"/>
		<path class="st4" d="M341.3,175.7h-1.8v-15h1.8V175.7z"/>
		<path class="st4" d="M346.2,175.7h-1.8v-15h1.8V175.7z"/>
		<path class="st4" d="M353.5,175.9c-1.4,0-2.6-0.5-3.5-1.4s-1.3-2.2-1.3-3.8v-0.3c0-1,0.2-2,0.6-2.8s1-1.5,1.7-1.9s1.5-0.7,2.3-0.7
			c1.4,0,2.4,0.5,3.2,1.4s1.1,2.2,1.1,3.9v0.8h-7.2c0,1,0.3,1.9,0.9,2.5s1.3,1,2.2,1c0.6,0,1.2-0.1,1.6-0.4s0.8-0.6,1.2-1l1.1,0.9
			C356.5,175.2,355.2,175.9,353.5,175.9z M353.2,166.4c-0.7,0-1.3,0.3-1.8,0.8s-0.8,1.3-0.9,2.2h5.3v-0.1c-0.1-0.9-0.3-1.6-0.7-2.1
			S354,166.4,353.2,166.4z"/>
		<path class="st4" d="M363.4,170.4h-4.8v-1.5h4.8V170.4z"/>
		<path class="st4" d="M60.2,190.7c-0.3,0-0.6-0.1-0.9-0.1c-1.2,0-2,0.5-2.4,1.5v7.5h-1.8v-10.6h1.8l0,1.2c0.6-0.9,1.4-1.4,2.5-1.4
			c0.4,0,0.6,0,0.8,0.1V190.7z"/>
		<path class="st4" d="M66.1,199.9c-1.4,0-2.6-0.5-3.5-1.4s-1.3-2.2-1.3-3.8v-0.3c0-1,0.2-2,0.6-2.8s1-1.5,1.7-1.9s1.5-0.7,2.3-0.7
			c1.4,0,2.4,0.5,3.2,1.4s1.1,2.2,1.1,3.9v0.8H63c0,1,0.3,1.9,0.9,2.5s1.3,1,2.2,1c0.6,0,1.2-0.1,1.6-0.4s0.8-0.6,1.2-1l1.1,0.9
			C69.2,199.2,67.8,199.9,66.1,199.9z M65.8,190.4c-0.7,0-1.3,0.3-1.8,0.8s-0.8,1.3-0.9,2.2h5.3v-0.1c-0.1-0.9-0.3-1.6-0.7-2.1
			S66.6,190.4,65.8,190.4z"/>
		<path class="st4" d="M78.4,196.9c0-0.5-0.2-0.9-0.6-1.1s-1-0.5-1.9-0.7s-1.6-0.4-2.2-0.7s-0.9-0.6-1.2-1s-0.4-0.8-0.4-1.3
			c0-0.9,0.4-1.6,1.1-2.2s1.7-0.9,2.8-0.9c1.2,0,2.2,0.3,2.9,0.9s1.1,1.4,1.1,2.4h-1.8c0-0.5-0.2-0.9-0.6-1.3s-0.9-0.5-1.6-0.5
			c-0.7,0-1.2,0.1-1.5,0.4s-0.6,0.7-0.6,1.1c0,0.4,0.2,0.8,0.5,1s1,0.4,1.9,0.6s1.6,0.4,2.2,0.7s1,0.6,1.2,1s0.4,0.9,0.4,1.4
			c0,0.9-0.4,1.7-1.1,2.3s-1.7,0.9-2.9,0.9c-0.8,0-1.6-0.1-2.2-0.4s-1.2-0.7-1.5-1.3s-0.6-1.1-0.6-1.7h1.8c0,0.6,0.3,1.1,0.7,1.4
			s1,0.5,1.8,0.5c0.7,0,1.2-0.1,1.6-0.4S78.4,197.3,78.4,196.9z"/>
		<path class="st4" d="M82.5,202.5l-1-0.7c0.6-0.9,0.9-1.7,1-2.6v-1.6h1.8v1.4c0,0.7-0.2,1.3-0.5,2S83,202.1,82.5,202.5z"/>
		<path class="st4" d="M95.9,186.5v2.6h2v1.4h-2v6.6c0,0.4,0.1,0.7,0.3,1c0.2,0.2,0.5,0.3,0.9,0.3c0.2,0,0.5,0,0.9-0.1v1.5
			c-0.5,0.1-0.9,0.2-1.4,0.2c-0.8,0-1.4-0.2-1.8-0.7s-0.6-1.2-0.6-2.1v-6.6h-1.9v-1.4h1.9v-2.6H95.9z"/>
		<path class="st4" d="M106.5,199.7c-0.1-0.2-0.2-0.6-0.3-1.1c-0.8,0.9-1.8,1.3-3,1.3c-1,0-1.9-0.3-2.6-0.9s-1-1.3-1-2.2
			c0-1.1,0.4-2,1.3-2.6s2-0.9,3.5-0.9h1.8v-0.8c0-0.6-0.2-1.1-0.6-1.5s-0.9-0.6-1.7-0.6c-0.6,0-1.2,0.2-1.6,0.5s-0.7,0.7-0.7,1.2
			h-1.8c0-0.5,0.2-1,0.6-1.5s0.9-0.9,1.5-1.2s1.3-0.4,2.1-0.4c1.2,0,2.2,0.3,2.9,0.9s1,1.4,1.1,2.5v4.9c0,1,0.1,1.7,0.4,2.3v0.2
			H106.5z M103.5,198.3c0.6,0,1.1-0.1,1.6-0.4s0.9-0.7,1.1-1.1v-2.2h-1.4c-2.2,0-3.3,0.6-3.3,1.9c0,0.6,0.2,1,0.6,1.3
			S102.9,198.3,103.5,198.3z"/>
		<path class="st4" d="M116,190.7c-0.3,0-0.6-0.1-0.9-0.1c-1.2,0-2,0.5-2.4,1.5v7.5h-1.8v-10.6h1.8l0,1.2c0.6-0.9,1.4-1.4,2.5-1.4
			c0.4,0,0.6,0,0.8,0.1V190.7z"/>
		<path class="st4" d="M121.8,199.9c-1.4,0-2.6-0.5-3.5-1.4s-1.3-2.2-1.3-3.8v-0.3c0-1,0.2-2,0.6-2.8s1-1.5,1.7-1.9s1.5-0.7,2.3-0.7
			c1.4,0,2.4,0.5,3.2,1.4s1.1,2.2,1.1,3.9v0.8h-7.2c0,1,0.3,1.9,0.9,2.5s1.3,1,2.2,1c0.6,0,1.2-0.1,1.6-0.4s0.8-0.6,1.2-1l1.1,0.9
			C124.9,199.2,123.6,199.9,121.8,199.9z M121.6,190.4c-0.7,0-1.3,0.3-1.8,0.8s-0.8,1.3-0.9,2.2h5.3v-0.1c-0.1-0.9-0.3-1.6-0.7-2.1
			S122.4,190.4,121.6,190.4z"/>
		<path class="st4" d="M134.6,199.7c-0.1-0.2-0.2-0.6-0.3-1.1c-0.8,0.9-1.8,1.3-3,1.3c-1,0-1.9-0.3-2.6-0.9s-1-1.3-1-2.2
			c0-1.1,0.4-2,1.3-2.6s2-0.9,3.5-0.9h1.8v-0.8c0-0.6-0.2-1.1-0.6-1.5s-0.9-0.6-1.7-0.6c-0.6,0-1.2,0.2-1.6,0.5s-0.7,0.7-0.7,1.2
			H128c0-0.5,0.2-1,0.6-1.5s0.9-0.9,1.5-1.2s1.3-0.4,2.1-0.4c1.2,0,2.2,0.3,2.9,0.9s1,1.4,1.1,2.5v4.9c0,1,0.1,1.7,0.4,2.3v0.2
			H134.6z M131.6,198.3c0.6,0,1.1-0.1,1.6-0.4s0.9-0.7,1.1-1.1v-2.2h-1.4c-2.2,0-3.3,0.6-3.3,1.9c0,0.6,0.2,1,0.6,1.3
			S131,198.3,131.6,198.3z"/>
		<path class="st4" d="M145.1,196.9c0-0.5-0.2-0.9-0.6-1.1s-1-0.5-1.9-0.7s-1.6-0.4-2.2-0.7s-0.9-0.6-1.2-1s-0.4-0.8-0.4-1.3
			c0-0.9,0.4-1.6,1.1-2.2s1.7-0.9,2.8-0.9c1.2,0,2.2,0.3,2.9,0.9s1.1,1.4,1.1,2.4H145c0-0.5-0.2-0.9-0.6-1.3s-0.9-0.5-1.6-0.5
			c-0.7,0-1.2,0.1-1.5,0.4s-0.6,0.7-0.6,1.1c0,0.4,0.2,0.8,0.5,1s1,0.4,1.9,0.6s1.6,0.4,2.2,0.7s1,0.6,1.2,1s0.4,0.9,0.4,1.4
			c0,0.9-0.4,1.7-1.1,2.3s-1.7,0.9-2.9,0.9c-0.8,0-1.6-0.1-2.2-0.4s-1.2-0.7-1.5-1.3s-0.6-1.1-0.6-1.7h1.8c0,0.6,0.3,1.1,0.7,1.4
			s1,0.5,1.8,0.5c0.7,0,1.2-0.1,1.6-0.4S145.1,197.3,145.1,196.9z"/>
		<path class="st4" d="M159.6,197l2.5-7.9h1.9l-4.2,12.2c-0.7,1.8-1.7,2.6-3.1,2.6l-0.3,0l-0.7-0.1v-1.5l0.5,0
			c0.6,0,1.1-0.1,1.4-0.4s0.6-0.7,0.8-1.4l0.4-1.1l-3.8-10.4h2L159.6,197z"/>
		<path class="st4" d="M181.5,194.5c0,1.6-0.4,2.9-1.1,3.9s-1.7,1.5-3,1.5c-1.3,0-2.3-0.4-3-1.2v5.1h-1.8v-14.6h1.7l0.1,1.2
			c0.7-0.9,1.8-1.4,3.1-1.4c1.3,0,2.3,0.5,3,1.4s1.1,2.3,1.1,4V194.5z M179.7,194.3c0-1.2-0.3-2.1-0.8-2.8s-1.2-1-2.1-1
			c-1.1,0-1.9,0.5-2.5,1.5v5c0.5,1,1.4,1.4,2.5,1.4c0.9,0,1.6-0.3,2.1-1S179.7,195.7,179.7,194.3z"/>
		<path class="st4" d="M188.9,190.7c-0.3,0-0.6-0.1-0.9-0.1c-1.2,0-2,0.5-2.4,1.5v7.5h-1.8v-10.6h1.8l0,1.2c0.6-0.9,1.4-1.4,2.5-1.4
			c0.4,0,0.6,0,0.8,0.1V190.7z"/>
		<path class="st4" d="M197.1,198.6c-0.7,0.8-1.7,1.2-3.1,1.2c-1.1,0-2-0.3-2.6-1s-0.9-1.6-0.9-2.9v-6.9h1.8v6.8
			c0,1.6,0.7,2.4,2,2.4c1.4,0,2.3-0.5,2.8-1.5v-7.7h1.8v10.6h-1.7L197.1,198.6z"/>
		<path class="st4" d="M206,199.9c-1.4,0-2.6-0.5-3.5-1.4s-1.3-2.2-1.3-3.8v-0.3c0-1,0.2-2,0.6-2.8s1-1.5,1.7-1.9s1.5-0.7,2.3-0.7
			c1.4,0,2.4,0.5,3.2,1.4s1.1,2.2,1.1,3.9v0.8h-7.2c0,1,0.3,1.9,0.9,2.5s1.3,1,2.2,1c0.6,0,1.2-0.1,1.6-0.4c0.4-0.3,0.8-0.6,1.2-1
			l1.1,0.9C209.1,199.2,207.7,199.9,206,199.9z M205.8,190.4c-0.7,0-1.3,0.3-1.8,0.8s-0.8,1.3-0.9,2.2h5.3v-0.1
			c-0.1-0.9-0.3-1.6-0.7-2.1C207.1,190.6,206.5,190.4,205.8,190.4z"/>
		<path class="st4" d="M221.1,194.5c0,1.6-0.4,2.9-1.1,3.9s-1.7,1.5-3,1.5c-1.3,0-2.4-0.5-3.1-1.4l-0.1,1.2h-1.7v-15h1.8v5.6
			c0.7-0.9,1.7-1.4,3-1.4c1.3,0,2.3,0.5,3,1.5s1.1,2.3,1.1,4V194.5z M219.3,194.3c0-1.2-0.2-2.2-0.7-2.9c-0.5-0.7-1.2-1-2.1-1
			c-1.2,0-2,0.6-2.6,1.7v4.6c0.6,1.1,1.4,1.7,2.6,1.7c0.9,0,1.5-0.3,2-1C219.1,196.7,219.3,195.6,219.3,194.3z"/>
		<path class="st4" d="M229.9,199.7c-0.1-0.2-0.2-0.6-0.3-1.1c-0.8,0.9-1.8,1.3-3,1.3c-1,0-1.9-0.3-2.6-0.9s-1-1.3-1-2.2
			c0-1.1,0.4-2,1.3-2.6s2-0.9,3.5-0.9h1.8v-0.8c0-0.6-0.2-1.1-0.6-1.5s-0.9-0.6-1.7-0.6c-0.6,0-1.2,0.2-1.6,0.5s-0.7,0.7-0.7,1.2
			h-1.8c0-0.5,0.2-1,0.6-1.5s0.9-0.9,1.5-1.2s1.3-0.4,2.1-0.4c1.2,0,2.2,0.3,2.9,0.9s1,1.4,1.1,2.5v4.9c0,1,0.1,1.7,0.4,2.3v0.2
			H229.9z M226.9,198.3c0.6,0,1.1-0.1,1.6-0.4s0.9-0.7,1.1-1.1v-2.2h-1.4c-2.2,0-3.3,0.6-3.3,1.9c0,0.6,0.2,1,0.6,1.3
			S226.3,198.3,226.9,198.3z"/>
		<path class="st4" d="M240.4,196.9c0-0.5-0.2-0.9-0.6-1.1s-1-0.5-1.9-0.7s-1.6-0.4-2.2-0.7s-0.9-0.6-1.2-1s-0.4-0.8-0.4-1.3
			c0-0.9,0.4-1.6,1.1-2.2s1.7-0.9,2.8-0.9c1.2,0,2.2,0.3,2.9,0.9s1.1,1.4,1.1,2.4h-1.8c0-0.5-0.2-0.9-0.6-1.3s-0.9-0.5-1.6-0.5
			c-0.7,0-1.2,0.1-1.5,0.4s-0.6,0.7-0.6,1.1c0,0.4,0.2,0.8,0.5,1s1,0.4,1.9,0.6s1.6,0.4,2.2,0.7s1,0.6,1.2,1s0.4,0.9,0.4,1.4
			c0,0.9-0.4,1.7-1.1,2.3s-1.7,0.9-2.9,0.9c-0.8,0-1.6-0.1-2.2-0.4s-1.2-0.7-1.5-1.3s-0.6-1.1-0.6-1.7h1.8c0,0.6,0.3,1.1,0.7,1.4
			s1,0.5,1.8,0.5c0.7,0,1.2-0.1,1.6-0.4S240.4,197.3,240.4,196.9z"/>
		<path class="st4" d="M251.1,194.3c0-1.6,0.4-2.9,1.2-3.9s1.8-1.5,3-1.5c1.2,0,2.2,0.4,2.9,1.3v-5.5h1.8v15h-1.7l-0.1-1.1
			c-0.7,0.9-1.7,1.3-3,1.3c-1.2,0-2.2-0.5-3-1.5s-1.2-2.3-1.2-3.9V194.3z M252.9,194.5c0,1.2,0.2,2.1,0.7,2.8s1.2,1,2.1,1
			c1.1,0,2-0.5,2.5-1.5v-4.9c-0.5-1-1.4-1.5-2.5-1.5c-0.9,0-1.6,0.3-2.1,1S252.9,193.2,252.9,194.5z"/>
		<path class="st4" d="M267.2,199.9c-1.4,0-2.6-0.5-3.5-1.4s-1.3-2.2-1.3-3.8v-0.3c0-1,0.2-2,0.6-2.8s1-1.5,1.7-1.9s1.5-0.7,2.3-0.7
			c1.4,0,2.4,0.5,3.2,1.4s1.1,2.2,1.1,3.9v0.8h-7.2c0,1,0.3,1.9,0.9,2.5s1.3,1,2.2,1c0.6,0,1.2-0.1,1.6-0.4s0.8-0.6,1.2-1l1.1,0.9
			C270.3,199.2,269,199.9,267.2,199.9z M267,190.4c-0.7,0-1.3,0.3-1.8,0.8s-0.8,1.3-0.9,2.2h5.3v-0.1c-0.1-0.9-0.3-1.6-0.7-2.1
			S267.7,190.4,267,190.4z"/>
		<path class="st4" d="M286.5,196.9c0-0.5-0.2-0.9-0.6-1.1s-1-0.5-1.9-0.7s-1.6-0.4-2.2-0.7s-0.9-0.6-1.2-1s-0.4-0.8-0.4-1.3
			c0-0.9,0.4-1.6,1.1-2.2s1.7-0.9,2.8-0.9c1.2,0,2.2,0.3,2.9,0.9s1.1,1.4,1.1,2.4h-1.8c0-0.5-0.2-0.9-0.6-1.3s-0.9-0.5-1.6-0.5
			c-0.7,0-1.2,0.1-1.5,0.4s-0.6,0.7-0.6,1.1c0,0.4,0.2,0.8,0.5,1s1,0.4,1.9,0.6s1.6,0.4,2.2,0.7s1,0.6,1.2,1s0.4,0.9,0.4,1.4
			c0,0.9-0.4,1.7-1.1,2.3s-1.7,0.9-2.9,0.9c-0.8,0-1.6-0.1-2.2-0.4s-1.2-0.7-1.5-1.3s-0.6-1.1-0.6-1.7h1.8c0,0.6,0.3,1.1,0.7,1.4
			s1,0.5,1.8,0.5c0.7,0,1.2-0.1,1.6-0.4S286.5,197.3,286.5,196.9z"/>
		<path class="st4" d="M297.2,199.7c-0.1-0.2-0.2-0.6-0.3-1.1c-0.8,0.9-1.8,1.3-3,1.3c-1,0-1.9-0.3-2.6-0.9s-1-1.3-1-2.2
			c0-1.1,0.4-2,1.3-2.6s2-0.9,3.5-0.9h1.8v-0.8c0-0.6-0.2-1.1-0.6-1.5s-0.9-0.6-1.7-0.6c-0.6,0-1.2,0.2-1.6,0.5s-0.7,0.7-0.7,1.2
			h-1.8c0-0.5,0.2-1,0.6-1.5s0.9-0.9,1.5-1.2s1.3-0.4,2.1-0.4c1.2,0,2.2,0.3,2.9,0.9s1,1.4,1.1,2.5v4.9c0,1,0.1,1.7,0.4,2.3v0.2
			H297.2z M294.2,198.3c0.6,0,1.1-0.1,1.6-0.4s0.9-0.7,1.1-1.1v-2.2h-1.4c-2.2,0-3.3,0.6-3.3,1.9c0,0.6,0.2,1,0.6,1.3
			S293.6,198.3,294.2,198.3z"/>
		<path class="st4" d="M303.5,199.7h-1.8v-15h1.8V199.7z"/>
		<path class="st4" d="M306.4,186.3c0-0.3,0.1-0.5,0.3-0.7s0.4-0.3,0.8-0.3s0.6,0.1,0.8,0.3s0.3,0.4,0.3,0.7s-0.1,0.5-0.3,0.7
			s-0.4,0.3-0.8,0.3s-0.6-0.1-0.8-0.3S306.4,186.6,306.4,186.3z M308.4,199.7h-1.8v-10.6h1.8V199.7z"/>
		<path class="st4" d="M310.8,194.3c0-1.6,0.4-2.9,1.2-3.9s1.8-1.5,3-1.5c1.2,0,2.2,0.4,2.9,1.3v-5.5h1.8v15h-1.7l-0.1-1.1
			c-0.7,0.9-1.7,1.3-3,1.3c-1.2,0-2.2-0.5-3-1.5s-1.2-2.3-1.2-3.9V194.3z M312.6,194.5c0,1.2,0.2,2.1,0.7,2.8s1.2,1,2.1,1
			c1.1,0,2-0.5,2.5-1.5v-4.9c-0.5-1-1.4-1.5-2.5-1.5c-0.9,0-1.6,0.3-2.1,1S312.6,193.2,312.6,194.5z"/>
		<path class="st4" d="M329.1,199.7c-0.1-0.2-0.2-0.6-0.3-1.1c-0.8,0.9-1.8,1.3-3,1.3c-1,0-1.9-0.3-2.6-0.9s-1-1.3-1-2.2
			c0-1.1,0.4-2,1.3-2.6s2-0.9,3.5-0.9h1.8v-0.8c0-0.6-0.2-1.1-0.6-1.5s-0.9-0.6-1.7-0.6c-0.6,0-1.2,0.2-1.6,0.5s-0.7,0.7-0.7,1.2
			h-1.8c0-0.5,0.2-1,0.6-1.5s0.9-0.9,1.5-1.2s1.3-0.4,2.1-0.4c1.2,0,2.2,0.3,2.9,0.9s1,1.4,1.1,2.5v4.9c0,1,0.1,1.7,0.4,2.3v0.2
			H329.1z M326.1,198.3c0.6,0,1.1-0.1,1.6-0.4s0.9-0.7,1.1-1.1v-2.2h-1.4c-2.2,0-3.3,0.6-3.3,1.9c0,0.6,0.2,1,0.6,1.3
			S325.5,198.3,326.1,198.3z"/>
		<path class="st4" d="M333.3,202.5l-1-0.7c0.6-0.9,0.9-1.7,1-2.6v-1.6h1.8v1.4c0,0.7-0.2,1.3-0.5,2S333.8,202.1,333.3,202.5z"/>
		<path class="st4" d="M348.7,199.9c-1.4,0-2.6-0.5-3.5-1.4s-1.3-2.2-1.3-3.8v-0.3c0-1,0.2-2,0.6-2.8s1-1.5,1.7-1.9s1.5-0.7,2.3-0.7
			c1.4,0,2.4,0.5,3.2,1.4s1.1,2.2,1.1,3.9v0.8h-7.2c0,1,0.3,1.9,0.9,2.5s1.3,1,2.2,1c0.6,0,1.2-0.1,1.6-0.4s0.8-0.6,1.2-1l1.1,0.9
			C351.8,199.2,350.4,199.9,348.7,199.9z M348.4,190.4c-0.7,0-1.3,0.3-1.8,0.8s-0.8,1.3-0.9,2.2h5.3v-0.1c-0.1-0.9-0.3-1.6-0.7-2.1
			S349.2,190.4,348.4,190.4z"/>
		<path class="st4" d="M361,196.9c0-0.5-0.2-0.9-0.6-1.1s-1-0.5-1.9-0.7s-1.6-0.4-2.2-0.7s-0.9-0.6-1.2-1s-0.4-0.8-0.4-1.3
			c0-0.9,0.4-1.6,1.1-2.2s1.7-0.9,2.8-0.9c1.2,0,2.2,0.3,2.9,0.9s1.1,1.4,1.1,2.4h-1.8c0-0.5-0.2-0.9-0.6-1.3s-0.9-0.5-1.6-0.5
			c-0.7,0-1.2,0.1-1.5,0.4s-0.6,0.7-0.6,1.1c0,0.4,0.2,0.8,0.5,1s1,0.4,1.9,0.6s1.6,0.4,2.2,0.7s1,0.6,1.2,1s0.4,0.9,0.4,1.4
			c0,0.9-0.4,1.7-1.1,2.3s-1.7,0.9-2.9,0.9c-0.8,0-1.6-0.1-2.2-0.4s-1.2-0.7-1.5-1.3s-0.6-1.1-0.6-1.7h1.8c0,0.6,0.3,1.1,0.7,1.4
			s1,0.5,1.8,0.5c0.7,0,1.2-0.1,1.6-0.4S361,197.3,361,196.9z"/>
		<path class="st4" d="M54.7,218.3c0-1.6,0.4-2.9,1.2-3.9s1.8-1.5,3-1.5c1.2,0,2.2,0.4,2.9,1.3v-5.5h1.8v15h-1.7l-0.1-1.1
			c-0.7,0.9-1.7,1.3-3,1.3c-1.2,0-2.2-0.5-3-1.5s-1.2-2.3-1.2-3.9V218.3z M56.5,218.5c0,1.2,0.2,2.1,0.7,2.8s1.2,1,2.1,1
			c1.1,0,2-0.5,2.5-1.5v-4.9c-0.5-1-1.4-1.5-2.5-1.5c-0.9,0-1.6,0.3-2.1,1S56.5,217.2,56.5,218.5z"/>
		<path class="st4" d="M70.8,223.9c-1.4,0-2.6-0.5-3.5-1.4s-1.3-2.2-1.3-3.8v-0.3c0-1,0.2-2,0.6-2.8s1-1.5,1.7-1.9s1.5-0.7,2.3-0.7
			c1.4,0,2.4,0.5,3.2,1.4s1.1,2.2,1.1,3.9v0.8h-7.2c0,1,0.3,1.9,0.9,2.5s1.3,1,2.2,1c0.6,0,1.2-0.1,1.6-0.4s0.8-0.6,1.2-1l1.1,0.9
			C73.9,223.2,72.5,223.9,70.8,223.9z M70.5,214.4c-0.7,0-1.3,0.3-1.8,0.8s-0.8,1.3-0.9,2.2h5.3v-0.1c-0.1-0.9-0.3-1.6-0.7-2.1
			S71.3,214.4,70.5,214.4z"/>
		<path class="st4" d="M81.2,222.4c0.6,0,1.2-0.2,1.7-0.6s0.7-0.9,0.8-1.5h1.7c0,0.6-0.2,1.2-0.6,1.7s-0.9,1-1.5,1.3s-1.3,0.5-2,0.5
			c-1.4,0-2.6-0.5-3.4-1.4s-1.3-2.3-1.3-3.9v-0.3c0-1,0.2-1.9,0.6-2.7s0.9-1.4,1.6-1.9s1.5-0.7,2.5-0.7c1.2,0,2.2,0.4,3,1.1
			s1.2,1.6,1.3,2.8h-1.7c-0.1-0.7-0.3-1.2-0.8-1.7s-1-0.7-1.7-0.7c-0.9,0-1.6,0.3-2.1,1s-0.8,1.6-0.8,2.9v0.3c0,1.2,0.3,2.2,0.8,2.8
			S80.3,222.4,81.2,222.4z"/>
		<path class="st4" d="M87.5,210.3c0-0.3,0.1-0.5,0.3-0.7s0.4-0.3,0.8-0.3s0.6,0.1,0.8,0.3s0.3,0.4,0.3,0.7s-0.1,0.5-0.3,0.7
			s-0.4,0.3-0.8,0.3s-0.6-0.1-0.8-0.3S87.5,210.6,87.5,210.3z M89.4,223.7h-1.8v-10.6h1.8V223.7z"/>
		<path class="st4" d="M97.4,214.7c-0.3,0-0.6-0.1-0.9-0.1c-1.2,0-2,0.5-2.4,1.5v7.5h-1.8v-10.6h1.8l0,1.2c0.6-0.9,1.4-1.4,2.5-1.4
			c0.4,0,0.6,0,0.8,0.1V214.7z"/>
		<path class="st4" d="M97.8,226.5l-1-0.7c0.6-0.9,0.9-1.7,1-2.6v-1.6h1.8v1.4c0,0.7-0.2,1.3-0.5,2S98.3,226.1,97.8,226.5z"/>
		<path class="st4" d="M119.5,220.9c0-0.5-0.2-0.9-0.6-1.1s-1-0.5-1.9-0.7s-1.6-0.4-2.2-0.7s-0.9-0.6-1.2-1s-0.4-0.8-0.4-1.3
			c0-0.9,0.4-1.6,1.1-2.2s1.7-0.9,2.8-0.9c1.2,0,2.2,0.3,2.9,0.9s1.1,1.4,1.1,2.4h-1.8c0-0.5-0.2-0.9-0.6-1.3s-0.9-0.5-1.6-0.5
			c-0.7,0-1.2,0.1-1.5,0.4s-0.6,0.7-0.6,1.1c0,0.4,0.2,0.8,0.5,1s1,0.4,1.9,0.6s1.6,0.4,2.2,0.7s1,0.6,1.2,1s0.4,0.9,0.4,1.4
			c0,0.9-0.4,1.7-1.1,2.3s-1.7,0.9-2.9,0.9c-0.8,0-1.6-0.1-2.2-0.4s-1.2-0.7-1.5-1.3s-0.6-1.1-0.6-1.7h1.8c0,0.6,0.3,1.1,0.7,1.4
			s1,0.5,1.8,0.5c0.7,0,1.2-0.1,1.6-0.4S119.5,221.3,119.5,220.9z"/>
		<path class="st4" d="M128,223.9c-1.4,0-2.6-0.5-3.5-1.4s-1.3-2.2-1.3-3.8v-0.3c0-1,0.2-2,0.6-2.8s1-1.5,1.7-1.9s1.5-0.7,2.3-0.7
			c1.4,0,2.4,0.5,3.2,1.4s1.1,2.2,1.1,3.9v0.8H125c0,1,0.3,1.9,0.9,2.5s1.3,1,2.2,1c0.6,0,1.2-0.1,1.6-0.4s0.8-0.6,1.2-1l1.1,0.9
			C131.1,223.2,129.8,223.9,128,223.9z M127.8,214.4c-0.7,0-1.3,0.3-1.8,0.8s-0.8,1.3-0.9,2.2h5.3v-0.1c-0.1-0.9-0.3-1.6-0.7-2.1
			S128.6,214.4,127.8,214.4z"/>
		<path class="st4" d="M150.2,223.9c-1.4,0-2.6-0.5-3.5-1.4s-1.3-2.2-1.3-3.8v-0.3c0-1,0.2-2,0.6-2.8s1-1.5,1.7-1.9s1.5-0.7,2.3-0.7
			c1.4,0,2.4,0.5,3.2,1.4s1.1,2.2,1.1,3.9v0.8h-7.2c0,1,0.3,1.9,0.9,2.5s1.3,1,2.2,1c0.6,0,1.2-0.1,1.6-0.4s0.8-0.6,1.2-1l1.1,0.9
			C153.2,223.2,151.9,223.9,150.2,223.9z M149.9,214.4c-0.7,0-1.3,0.3-1.8,0.8s-0.8,1.3-0.9,2.2h5.3v-0.1c-0.1-0.9-0.3-1.6-0.7-2.1
			S150.7,214.4,149.9,214.4z"/>
		<path class="st4" d="M159.7,221.2l2.6-8.1h1.8l-3.8,10.6H159l-3.8-10.6h1.8L159.7,221.2z"/>
		<path class="st4" d="M172.3,223.7c-0.1-0.2-0.2-0.6-0.3-1.1c-0.8,0.9-1.8,1.3-3,1.3c-1,0-1.9-0.3-2.6-0.9s-1-1.3-1-2.2
			c0-1.1,0.4-2,1.3-2.6c0.8-0.6,2-0.9,3.5-0.9h1.8v-0.8c0-0.6-0.2-1.1-0.6-1.5s-0.9-0.6-1.7-0.6c-0.6,0-1.2,0.2-1.6,0.5
			s-0.7,0.7-0.7,1.2h-1.8c0-0.5,0.2-1,0.6-1.5s0.9-0.9,1.5-1.2s1.3-0.4,2.1-0.4c1.2,0,2.2,0.3,2.9,0.9s1,1.4,1.1,2.5v4.9
			c0,1,0.1,1.7,0.4,2.3v0.2H172.3z M169.3,222.3c0.6,0,1.1-0.1,1.6-0.4s0.9-0.7,1.1-1.1v-2.2h-1.4c-2.2,0-3.3,0.6-3.3,1.9
			c0,0.6,0.2,1,0.6,1.3S168.7,222.3,169.3,222.3z"/>
		<path class="st4" d="M178.6,223.7h-1.8v-15h1.8V223.7z"/>
		<path class="st4" d="M188,222.6c-0.7,0.8-1.7,1.2-3.1,1.2c-1.1,0-2-0.3-2.6-1s-0.9-1.6-0.9-2.9v-6.9h1.8v6.8c0,1.6,0.7,2.4,2,2.4
			c1.4,0,2.3-0.5,2.8-1.5v-7.7h1.8v10.6h-1.7L188,222.6z M186.6,208.7h2.2l-2.6,2.9l-1.5,0L186.6,208.7z"/>
		<path class="st4" d="M199.1,223.7c-0.1-0.2-0.2-0.6-0.3-1.1c-0.8,0.9-1.8,1.3-3,1.3c-1,0-1.9-0.3-2.6-0.9s-1-1.3-1-2.2
			c0-1.1,0.4-2,1.3-2.6c0.8-0.6,2-0.9,3.5-0.9h1.8v-0.8c0-0.6-0.2-1.1-0.6-1.5s-0.9-0.6-1.7-0.6c-0.6,0-1.2,0.2-1.6,0.5
			s-0.7,0.7-0.7,1.2h-1.8c0-0.5,0.2-1,0.6-1.5s0.9-0.9,1.5-1.2s1.3-0.4,2.1-0.4c1.2,0,2.2,0.3,2.9,0.9s1,1.4,1.1,2.5v4.9
			c0,1,0.1,1.7,0.4,2.3v0.2H199.1z M196.1,222.3c0.6,0,1.1-0.1,1.6-0.4s0.9-0.7,1.1-1.1v-2.2h-1.4c-2.2,0-3.3,0.6-3.3,1.9
			c0,0.6,0.2,1,0.6,1.3S195.5,222.3,196.1,222.3z"/>
		<path class="st4" d="M205.1,213.1l0.1,1.3c0.8-1,1.9-1.5,3.2-1.5c2.2,0,3.4,1.3,3.4,3.8v7h-1.8v-7c0-0.8-0.2-1.3-0.5-1.7
			s-0.9-0.5-1.6-0.5c-0.6,0-1.1,0.2-1.5,0.5c-0.4,0.3-0.8,0.7-1,1.2v7.5h-1.8v-10.6H205.1z"/>
		<path class="st4" d="M227.9,223.7h-1.8v-15h1.8V223.7z"/>
		<path class="st4" d="M237.4,223.7c-0.1-0.2-0.2-0.6-0.3-1.1c-0.8,0.9-1.8,1.3-3,1.3c-1,0-1.9-0.3-2.6-0.9s-1-1.3-1-2.2
			c0-1.1,0.4-2,1.3-2.6c0.8-0.6,2-0.9,3.5-0.9h1.8v-0.8c0-0.6-0.2-1.1-0.6-1.5s-0.9-0.6-1.7-0.6c-0.6,0-1.2,0.2-1.6,0.5
			s-0.7,0.7-0.7,1.2h-1.8c0-0.5,0.2-1,0.6-1.5s0.9-0.9,1.5-1.2s1.3-0.4,2.1-0.4c1.2,0,2.2,0.3,2.9,0.9s1,1.4,1.1,2.5v4.9
			c0,1,0.1,1.7,0.4,2.3v0.2H237.4z M234.4,222.3c0.6,0,1.1-0.1,1.6-0.4s0.9-0.7,1.1-1.1v-2.2h-1.4c-2.2,0-3.3,0.6-3.3,1.9
			c0,0.6,0.2,1,0.6,1.3S233.8,222.3,234.4,222.3z"/>
		<path class="st4" d="M247.9,220.9c0-0.5-0.2-0.9-0.6-1.1s-1-0.5-1.9-0.7s-1.6-0.4-2.2-0.7s-0.9-0.6-1.2-1s-0.4-0.8-0.4-1.3
			c0-0.9,0.4-1.6,1.1-2.2s1.7-0.9,2.8-0.9c1.2,0,2.2,0.3,2.9,0.9s1.1,1.4,1.1,2.4h-1.8c0-0.5-0.2-0.9-0.6-1.3s-0.9-0.5-1.6-0.5
			c-0.7,0-1.2,0.1-1.5,0.4s-0.6,0.7-0.6,1.1c0,0.4,0.2,0.8,0.5,1s1,0.4,1.9,0.6s1.6,0.4,2.2,0.7s1,0.6,1.2,1s0.4,0.9,0.4,1.4
			c0,0.9-0.4,1.7-1.1,2.3s-1.7,0.9-2.9,0.9c-0.8,0-1.6-0.1-2.2-0.4s-1.2-0.7-1.5-1.3s-0.6-1.1-0.6-1.7h1.8c0,0.6,0.3,1.1,0.7,1.4
			s1,0.5,1.8,0.5c0.7,0,1.2-0.1,1.6-0.4S247.9,221.3,247.9,220.9z"/>
		<path class="st4" d="M270.1,223.7c-0.1-0.2-0.2-0.6-0.3-1.1c-0.8,0.9-1.8,1.3-3,1.3c-1,0-1.9-0.3-2.6-0.9s-1-1.3-1-2.2
			c0-1.1,0.4-2,1.3-2.6c0.8-0.6,2-0.9,3.5-0.9h1.8v-0.8c0-0.6-0.2-1.1-0.6-1.5s-0.9-0.6-1.7-0.6c-0.6,0-1.2,0.2-1.6,0.5
			s-0.7,0.7-0.7,1.2h-1.8c0-0.5,0.2-1,0.6-1.5s0.9-0.9,1.5-1.2s1.3-0.4,2.1-0.4c1.2,0,2.2,0.3,2.9,0.9s1,1.4,1.1,2.5v4.9
			c0,1,0.1,1.7,0.4,2.3v0.2H270.1z M267.1,222.3c0.6,0,1.1-0.1,1.6-0.4s0.9-0.7,1.1-1.1v-2.2h-1.4c-2.2,0-3.3,0.6-3.3,1.9
			c0,0.6,0.2,1,0.6,1.3S266.5,222.3,267.1,222.3z"/>
		<path class="st4" d="M278.7,222.4c0.6,0,1.2-0.2,1.7-0.6s0.7-0.9,0.8-1.5h1.7c0,0.6-0.2,1.2-0.6,1.7s-0.9,1-1.5,1.3
			s-1.3,0.5-2,0.5c-1.4,0-2.6-0.5-3.4-1.4s-1.3-2.3-1.3-3.9v-0.3c0-1,0.2-1.9,0.6-2.7s0.9-1.4,1.6-1.9s1.5-0.7,2.5-0.7
			c1.2,0,2.2,0.4,3,1.1s1.2,1.6,1.3,2.8h-1.7c-0.1-0.7-0.3-1.2-0.8-1.7s-1-0.7-1.7-0.7c-0.9,0-1.6,0.3-2.1,1s-0.8,1.6-0.8,2.9v0.3
			c0,1.2,0.3,2.2,0.8,2.8S277.7,222.4,278.7,222.4z"/>
		<path class="st4" d="M287.4,210.5v2.6h2v1.4h-2v6.6c0,0.4,0.1,0.7,0.3,1s0.5,0.3,0.9,0.3c0.2,0,0.5,0,0.9-0.1v1.5
			c-0.5,0.1-0.9,0.2-1.4,0.2c-0.8,0-1.4-0.2-1.8-0.7s-0.6-1.2-0.6-2.1v-6.6h-1.9v-1.4h1.9v-2.6H287.4z"/>
		<path class="st4" d="M291.4,210.3c0-0.3,0.1-0.5,0.3-0.7s0.4-0.3,0.8-0.3s0.6,0.1,0.8,0.3s0.3,0.4,0.3,0.7s-0.1,0.5-0.3,0.7
			s-0.4,0.3-0.8,0.3s-0.6-0.1-0.8-0.3S291.4,210.6,291.4,210.3z M293.4,223.7h-1.8v-10.6h1.8V223.7z"/>
		<path class="st4" d="M299.8,221.2l2.6-8.1h1.8l-3.8,10.6h-1.4l-3.8-10.6h1.8L299.8,221.2z"/>
		<path class="st4" d="M306,210.3c0-0.3,0.1-0.5,0.3-0.7s0.4-0.3,0.8-0.3s0.6,0.1,0.8,0.3s0.3,0.4,0.3,0.7s-0.1,0.5-0.3,0.7
			s-0.4,0.3-0.8,0.3s-0.6-0.1-0.8-0.3S306,210.6,306,210.3z M307.9,223.7h-1.8v-10.6h1.8V223.7z"/>
		<path class="st4" d="M310.4,218.3c0-1.6,0.4-2.9,1.2-3.9s1.8-1.5,3-1.5c1.2,0,2.2,0.4,2.9,1.3v-5.5h1.8v15h-1.7l-0.1-1.1
			c-0.7,0.9-1.7,1.3-3,1.3c-1.2,0-2.2-0.5-3-1.5s-1.2-2.3-1.2-3.9V218.3z M312.2,218.5c0,1.2,0.2,2.1,0.7,2.8s1.2,1,2.1,1
			c1.1,0,2-0.5,2.5-1.5v-4.9c-0.5-1-1.4-1.5-2.5-1.5c-0.9,0-1.6,0.3-2.1,1S312.2,217.2,312.2,218.5z"/>
		<path class="st4" d="M328.6,223.7c-0.1-0.2-0.2-0.6-0.3-1.1c-0.8,0.9-1.8,1.3-3,1.3c-1,0-1.9-0.3-2.6-0.9s-1-1.3-1-2.2
			c0-1.1,0.4-2,1.3-2.6c0.8-0.6,2-0.9,3.5-0.9h1.8v-0.8c0-0.6-0.2-1.1-0.6-1.5s-0.9-0.6-1.7-0.6c-0.6,0-1.2,0.2-1.6,0.5
			s-0.7,0.7-0.7,1.2H322c0-0.5,0.2-1,0.6-1.5s0.9-0.9,1.5-1.2s1.3-0.4,2.1-0.4c1.2,0,2.2,0.3,2.9,0.9s1,1.4,1.1,2.5v4.9
			c0,1,0.1,1.7,0.4,2.3v0.2H328.6z M325.6,222.3c0.6,0,1.1-0.1,1.6-0.4s0.9-0.7,1.1-1.1v-2.2h-1.4c-2.2,0-3.3,0.6-3.3,1.9
			c0,0.6,0.2,1,0.6,1.3S325,222.3,325.6,222.3z"/>
		<path class="st4" d="M332.6,218.3c0-1.6,0.4-2.9,1.2-3.9s1.8-1.5,3-1.5c1.2,0,2.2,0.4,2.9,1.3v-5.5h1.8v15h-1.7l-0.1-1.1
			c-0.7,0.9-1.7,1.3-3,1.3c-1.2,0-2.2-0.5-3-1.5s-1.2-2.3-1.2-3.9V218.3z M334.4,218.5c0,1.2,0.2,2.1,0.7,2.8s1.2,1,2.1,1
			c1.1,0,2-0.5,2.5-1.5v-4.9c-0.5-1-1.4-1.5-2.5-1.5c-0.9,0-1.6,0.3-2.1,1S334.4,217.2,334.4,218.5z"/>
		<path class="st4" d="M348.7,223.9c-1.4,0-2.6-0.5-3.5-1.4s-1.3-2.2-1.3-3.8v-0.3c0-1,0.2-2,0.6-2.8s1-1.5,1.7-1.9s1.5-0.7,2.3-0.7
			c1.4,0,2.4,0.5,3.2,1.4s1.1,2.2,1.1,3.9v0.8h-7.2c0,1,0.3,1.9,0.9,2.5s1.3,1,2.2,1c0.6,0,1.2-0.1,1.6-0.4s0.8-0.6,1.2-1l1.1,0.9
			C351.8,223.2,350.4,223.9,348.7,223.9z M348.4,214.4c-0.7,0-1.3,0.3-1.8,0.8s-0.8,1.3-0.9,2.2h5.3v-0.1c-0.1-0.9-0.3-1.6-0.7-2.1
			S349.2,214.4,348.4,214.4z"/>
		<path class="st4" d="M361,220.9c0-0.5-0.2-0.9-0.6-1.1s-1-0.5-1.9-0.7s-1.6-0.4-2.2-0.7s-0.9-0.6-1.2-1s-0.4-0.8-0.4-1.3
			c0-0.9,0.4-1.6,1.1-2.2s1.7-0.9,2.8-0.9c1.2,0,2.2,0.3,2.9,0.9s1.1,1.4,1.1,2.4h-1.8c0-0.5-0.2-0.9-0.6-1.3s-0.9-0.5-1.6-0.5
			c-0.7,0-1.2,0.1-1.5,0.4s-0.6,0.7-0.6,1.1c0,0.4,0.2,0.8,0.5,1s1,0.4,1.9,0.6s1.6,0.4,2.2,0.7s1,0.6,1.2,1s0.4,0.9,0.4,1.4
			c0,0.9-0.4,1.7-1.1,2.3s-1.7,0.9-2.9,0.9c-0.8,0-1.6-0.1-2.2-0.4s-1.2-0.7-1.5-1.3s-0.6-1.1-0.6-1.7h1.8c0,0.6,0.3,1.1,0.7,1.4
			s1,0.5,1.8,0.5c0.7,0,1.2-0.1,1.6-0.4S361,221.3,361,220.9z"/>
		<path class="st4" d="M61.6,247.7c-0.1-0.2-0.2-0.6-0.3-1.1c-0.8,0.9-1.8,1.3-3,1.3c-1,0-1.9-0.3-2.6-0.9s-1-1.3-1-2.2
			c0-1.1,0.4-2,1.3-2.6s2-0.9,3.5-0.9h1.8v-0.8c0-0.6-0.2-1.1-0.6-1.5s-0.9-0.6-1.7-0.6c-0.6,0-1.2,0.2-1.6,0.5s-0.7,0.7-0.7,1.2H55
			c0-0.5,0.2-1,0.6-1.5s0.9-0.9,1.5-1.2s1.3-0.4,2.1-0.4c1.2,0,2.2,0.3,2.9,0.9s1,1.4,1.1,2.5v4.9c0,1,0.1,1.7,0.4,2.3v0.2H61.6z
			 M58.6,246.3c0.6,0,1.1-0.1,1.6-0.4s0.9-0.7,1.1-1.1v-2.2h-1.4c-2.2,0-3.3,0.6-3.3,1.9c0,0.6,0.2,1,0.6,1.3S58,246.3,58.6,246.3z"
			/>
		<path class="st4" d="M72.1,244.9c0-0.5-0.2-0.9-0.6-1.1s-1-0.5-1.9-0.7s-1.6-0.4-2.2-0.7s-0.9-0.6-1.2-1s-0.4-0.8-0.4-1.3
			c0-0.9,0.4-1.6,1.1-2.2s1.7-0.9,2.8-0.9c1.2,0,2.2,0.3,2.9,0.9s1.1,1.4,1.1,2.4H72c0-0.5-0.2-0.9-0.6-1.3s-0.9-0.5-1.6-0.5
			c-0.7,0-1.2,0.1-1.5,0.4s-0.6,0.7-0.6,1.1c0,0.4,0.2,0.8,0.5,1s1,0.4,1.9,0.6s1.6,0.4,2.2,0.7s1,0.6,1.2,1s0.4,0.9,0.4,1.4
			c0,0.9-0.4,1.7-1.1,2.3s-1.7,0.9-2.9,0.9c-0.8,0-1.6-0.1-2.2-0.4s-1.2-0.7-1.5-1.3s-0.6-1.1-0.6-1.7h1.8c0,0.6,0.3,1.1,0.7,1.4
			s1,0.5,1.8,0.5c0.7,0,1.2-0.1,1.6-0.4S72.1,245.3,72.1,244.9z"/>
		<path class="st4" d="M76.3,234.3c0-0.3,0.1-0.5,0.3-0.7s0.4-0.3,0.8-0.3s0.6,0.1,0.8,0.3s0.3,0.4,0.3,0.7s-0.1,0.5-0.3,0.7
			s-0.4,0.3-0.8,0.3s-0.6-0.1-0.8-0.3S76.3,234.6,76.3,234.3z M78.3,247.7h-1.8v-10.6h1.8V247.7z"/>
		<path class="st4" d="M87.3,244.9c0-0.5-0.2-0.9-0.6-1.1s-1-0.5-1.9-0.7s-1.6-0.4-2.2-0.7s-0.9-0.6-1.2-1s-0.4-0.8-0.4-1.3
			c0-0.9,0.4-1.6,1.1-2.2s1.7-0.9,2.8-0.9c1.2,0,2.2,0.3,2.9,0.9s1.1,1.4,1.1,2.4h-1.8c0-0.5-0.2-0.9-0.6-1.3s-0.9-0.5-1.6-0.5
			c-0.7,0-1.2,0.1-1.5,0.4s-0.6,0.7-0.6,1.1c0,0.4,0.2,0.8,0.5,1s1,0.4,1.9,0.6s1.6,0.4,2.2,0.7s1,0.6,1.2,1s0.4,0.9,0.4,1.4
			c0,0.9-0.4,1.7-1.1,2.3s-1.7,0.9-2.9,0.9c-0.8,0-1.6-0.1-2.2-0.4s-1.2-0.7-1.5-1.3s-0.6-1.1-0.6-1.7h1.8c0,0.6,0.3,1.1,0.7,1.4
			s1,0.5,1.8,0.5c0.7,0,1.2-0.1,1.6-0.4S87.3,245.3,87.3,244.9z"/>
		<path class="st4" d="M93.9,234.5v2.6h2v1.4h-2v6.6c0,0.4,0.1,0.7,0.3,1s0.5,0.3,0.9,0.3c0.2,0,0.5,0,0.9-0.1v1.5
			c-0.5,0.1-0.9,0.2-1.4,0.2c-0.8,0-1.4-0.2-1.8-0.7s-0.6-1.2-0.6-2.1v-6.6h-1.9v-1.4h1.9v-2.6H93.9z"/>
		<path class="st4" d="M98,234.3c0-0.3,0.1-0.5,0.3-0.7s0.4-0.3,0.8-0.3s0.6,0.1,0.8,0.3s0.3,0.4,0.3,0.7s-0.1,0.5-0.3,0.7
			s-0.4,0.3-0.8,0.3s-0.6-0.1-0.8-0.3S98,234.6,98,234.3z M100,247.7h-1.8v-10.6h1.8V247.7z"/>
		<path class="st4" d="M102.4,242.3c0-1.6,0.4-2.9,1.2-3.9s1.8-1.5,3-1.5c1.2,0,2.2,0.4,2.9,1.3v-5.5h1.8v15h-1.7l-0.1-1.1
			c-0.7,0.9-1.7,1.3-3,1.3c-1.2,0-2.2-0.5-3-1.5s-1.2-2.3-1.2-3.9V242.3z M104.2,242.5c0,1.2,0.2,2.1,0.7,2.8s1.2,1,2.1,1
			c1.1,0,2-0.5,2.5-1.5v-4.9c-0.5-1-1.4-1.5-2.5-1.5c-0.9,0-1.6,0.3-2.1,1S104.2,241.2,104.2,242.5z"/>
		<path class="st4" d="M120.7,247.7c-0.1-0.2-0.2-0.6-0.3-1.1c-0.8,0.9-1.8,1.3-3,1.3c-1,0-1.9-0.3-2.6-0.9s-1-1.3-1-2.2
			c0-1.1,0.4-2,1.3-2.6s2-0.9,3.5-0.9h1.8v-0.8c0-0.6-0.2-1.1-0.6-1.5s-0.9-0.6-1.7-0.6c-0.6,0-1.2,0.2-1.6,0.5s-0.7,0.7-0.7,1.2
			H114c0-0.5,0.2-1,0.6-1.5s0.9-0.9,1.5-1.2s1.3-0.4,2.1-0.4c1.2,0,2.2,0.3,2.9,0.9s1,1.4,1.1,2.5v4.9c0,1,0.1,1.7,0.4,2.3v0.2
			H120.7z M117.7,246.3c0.6,0,1.1-0.1,1.6-0.4s0.9-0.7,1.1-1.1v-2.2H119c-2.2,0-3.3,0.6-3.3,1.9c0,0.6,0.2,1,0.6,1.3
			S117.1,246.3,117.7,246.3z"/>
		<path class="st4" d="M131.2,244.9c0-0.5-0.2-0.9-0.6-1.1s-1-0.5-1.9-0.7s-1.6-0.4-2.2-0.7s-0.9-0.6-1.2-1s-0.4-0.8-0.4-1.3
			c0-0.9,0.4-1.6,1.1-2.2s1.7-0.9,2.8-0.9c1.2,0,2.2,0.3,2.9,0.9s1.1,1.4,1.1,2.4h-1.8c0-0.5-0.2-0.9-0.6-1.3s-0.9-0.5-1.6-0.5
			c-0.7,0-1.2,0.1-1.5,0.4s-0.6,0.7-0.6,1.1c0,0.4,0.2,0.8,0.5,1s1,0.4,1.9,0.6s1.6,0.4,2.2,0.7s1,0.6,1.2,1s0.4,0.9,0.4,1.4
			c0,0.9-0.4,1.7-1.1,2.3s-1.7,0.9-2.9,0.9c-0.8,0-1.6-0.1-2.2-0.4s-1.2-0.7-1.5-1.3s-0.6-1.1-0.6-1.7h1.8c0,0.6,0.3,1.1,0.7,1.4
			s1,0.5,1.8,0.5c0.7,0,1.2-0.1,1.6-0.4S131.2,245.3,131.2,244.9z"/>
		<path class="st4" d="M150.2,242.5c0,1.6-0.4,2.9-1.1,3.9s-1.7,1.5-3,1.5c-1.3,0-2.3-0.4-3-1.2v5.1h-1.8v-14.6h1.7l0.1,1.2
			c0.7-0.9,1.8-1.4,3.1-1.4c1.3,0,2.3,0.5,3,1.4s1.1,2.3,1.1,4V242.5z M148.4,242.3c0-1.2-0.3-2.1-0.8-2.8s-1.2-1-2.1-1
			c-1.1,0-1.9,0.5-2.5,1.5v5c0.5,1,1.4,1.4,2.5,1.4c0.9,0,1.6-0.3,2.1-1S148.4,243.7,148.4,242.3z"/>
		<path class="st4" d="M152,242.3c0-1,0.2-2,0.6-2.8s1-1.5,1.7-1.9s1.6-0.7,2.5-0.7c1.4,0,2.6,0.5,3.5,1.5s1.3,2.3,1.3,4v0.1
			c0,1-0.2,2-0.6,2.8s-1,1.5-1.7,1.9s-1.6,0.7-2.5,0.7c-1.4,0-2.6-0.5-3.5-1.5s-1.3-2.3-1.3-4V242.3z M153.8,242.5
			c0,1.2,0.3,2.1,0.8,2.8s1.3,1.1,2.2,1.1c0.9,0,1.6-0.4,2.2-1.1s0.8-1.7,0.8-3c0-1.2-0.3-2.1-0.8-2.8s-1.3-1.1-2.2-1.1
			c-0.9,0-1.6,0.4-2.2,1.1S153.8,241.2,153.8,242.5z"/>
		<path class="st4" d="M169,238.7c-0.3,0-0.6-0.1-0.9-0.1c-1.2,0-2,0.5-2.4,1.5v7.5h-1.8v-10.6h1.8l0,1.2c0.6-0.9,1.4-1.4,2.5-1.4
			c0.4,0,0.6,0,0.8,0.1V238.7z"/>
		<path class="st4" d="M181,247.9c-1.4,0-2.6-0.5-3.5-1.4s-1.3-2.2-1.3-3.8v-0.3c0-1,0.2-2,0.6-2.8s1-1.5,1.7-1.9s1.5-0.7,2.3-0.7
			c1.4,0,2.4,0.5,3.2,1.4s1.1,2.2,1.1,3.9v0.8H178c0,1,0.3,1.9,0.9,2.5s1.3,1,2.2,1c0.6,0,1.2-0.1,1.6-0.4s0.8-0.6,1.2-1l1.1,0.9
			C184.1,247.2,182.8,247.9,181,247.9z M180.8,238.4c-0.7,0-1.3,0.3-1.8,0.8s-0.8,1.3-0.9,2.2h5.3v-0.1c-0.1-0.9-0.3-1.6-0.7-2.1
			S181.5,238.4,180.8,238.4z"/>
		<path class="st4" d="M189.2,247.7h-1.8v-15h1.8V247.7z"/>
		<path class="st4" d="M207,242.5c0,1.6-0.4,2.9-1.1,3.9s-1.7,1.5-3,1.5c-1.3,0-2.3-0.4-3-1.2v5.1H198v-14.6h1.7l0.1,1.2
			c0.7-0.9,1.8-1.4,3.1-1.4c1.3,0,2.3,0.5,3,1.4s1.1,2.3,1.1,4V242.5z M205.2,242.3c0-1.2-0.3-2.1-0.8-2.8s-1.2-1-2.1-1
			c-1.1,0-1.9,0.5-2.5,1.5v5c0.5,1,1.4,1.4,2.5,1.4c0.9,0,1.6-0.3,2.1-1S205.2,243.7,205.2,242.3z"/>
		<path class="st4" d="M214.4,238.7c-0.3,0-0.6-0.1-0.9-0.1c-1.2,0-2,0.5-2.4,1.5v7.5h-1.8v-10.6h1.8l0,1.2c0.6-0.9,1.4-1.4,2.5-1.4
			c0.4,0,0.6,0,0.8,0.1V238.7z"/>
		<path class="st4" d="M215.3,242.3c0-1,0.2-2,0.6-2.8c0.4-0.8,1-1.5,1.7-1.9c0.7-0.4,1.6-0.7,2.5-0.7c1.4,0,2.6,0.5,3.5,1.5
			s1.3,2.3,1.3,4v0.1c0,1-0.2,2-0.6,2.8s-1,1.5-1.7,1.9s-1.6,0.7-2.5,0.7c-1.4,0-2.6-0.5-3.5-1.5s-1.3-2.3-1.3-4V242.3z
			 M217.2,242.5c0,1.2,0.3,2.1,0.8,2.8c0.5,0.7,1.3,1.1,2.2,1.1c0.9,0,1.6-0.4,2.2-1.1s0.8-1.7,0.8-3c0-1.2-0.3-2.1-0.8-2.8
			s-1.3-1.1-2.2-1.1c-0.9,0-1.6,0.4-2.2,1.1S217.2,241.2,217.2,242.5z"/>
		<path class="st4" d="M228.1,247.7v-9.2h-1.7v-1.4h1.7V236c0-1.1,0.3-2,0.9-2.6s1.5-0.9,2.6-0.9c0.4,0,0.8,0.1,1.2,0.2l-0.1,1.5
			c-0.3-0.1-0.6-0.1-1-0.1c-0.6,0-1,0.2-1.4,0.5s-0.5,0.8-0.5,1.5v1.1h2.3v1.4h-2.3v9.2H228.1z"/>
		<path class="st4" d="M238.3,247.9c-1.4,0-2.6-0.5-3.5-1.4s-1.3-2.2-1.3-3.8v-0.3c0-1,0.2-2,0.6-2.8s1-1.5,1.7-1.9s1.5-0.7,2.3-0.7
			c1.4,0,2.4,0.5,3.2,1.4s1.1,2.2,1.1,3.9v0.8h-7.2c0,1,0.3,1.9,0.9,2.5s1.3,1,2.2,1c0.6,0,1.2-0.1,1.6-0.4s0.8-0.6,1.2-1l1.1,0.9
			C241.4,247.2,240.1,247.9,238.3,247.9z M238.1,238.4c-0.7,0-1.3,0.3-1.8,0.8s-0.8,1.3-0.9,2.2h5.3v-0.1c-0.1-0.9-0.3-1.6-0.7-2.1
			S238.9,238.4,238.1,238.4z"/>
		<path class="st4" d="M250.7,244.9c0-0.5-0.2-0.9-0.6-1.1s-1-0.5-1.9-0.7s-1.6-0.4-2.2-0.7s-0.9-0.6-1.2-1s-0.4-0.8-0.4-1.3
			c0-0.9,0.4-1.6,1.1-2.2s1.7-0.9,2.8-0.9c1.2,0,2.2,0.3,2.9,0.9s1.1,1.4,1.1,2.4h-1.8c0-0.5-0.2-0.9-0.6-1.3s-0.9-0.5-1.6-0.5
			c-0.7,0-1.2,0.1-1.5,0.4s-0.6,0.7-0.6,1.1c0,0.4,0.2,0.8,0.5,1s1,0.4,1.9,0.6s1.6,0.4,2.2,0.7s1,0.6,1.2,1s0.4,0.9,0.4,1.4
			c0,0.9-0.4,1.7-1.1,2.3s-1.7,0.9-2.9,0.9c-0.8,0-1.6-0.1-2.2-0.4s-1.2-0.7-1.5-1.3s-0.6-1.1-0.6-1.7h1.8c0,0.6,0.3,1.1,0.7,1.4
			s1,0.5,1.8,0.5c0.7,0,1.2-0.1,1.6-0.4S250.7,245.3,250.7,244.9z"/>
		<path class="st4" d="M254.4,242.3c0-1,0.2-2,0.6-2.8s1-1.5,1.7-1.9s1.6-0.7,2.5-0.7c1.4,0,2.6,0.5,3.5,1.5s1.3,2.3,1.3,4v0.1
			c0,1-0.2,2-0.6,2.8s-1,1.5-1.7,1.9s-1.6,0.7-2.5,0.7c-1.4,0-2.6-0.5-3.5-1.5s-1.3-2.3-1.3-4V242.3z M256.2,242.5
			c0,1.2,0.3,2.1,0.8,2.8s1.3,1.1,2.2,1.1c0.9,0,1.6-0.4,2.2-1.1s0.8-1.7,0.8-3c0-1.2-0.3-2.1-0.8-2.8s-1.3-1.1-2.2-1.1
			c-0.9,0-1.6,0.4-2.2,1.1S256.2,241.2,256.2,242.5z"/>
		<path class="st4" d="M271.4,238.7c-0.3,0-0.6-0.1-0.9-0.1c-1.2,0-2,0.5-2.4,1.5v7.5h-1.8v-10.6h1.8l0,1.2c0.6-0.9,1.4-1.4,2.5-1.4
			c0.4,0,0.6,0,0.8,0.1V238.7z"/>
		<path class="st4" d="M271.8,250.5l-1-0.7c0.6-0.9,0.9-1.7,1-2.6v-1.6h1.8v1.4c0,0.7-0.2,1.3-0.5,2S272.2,250.1,271.8,250.5z"/>
		<path class="st4" d="M286.1,247.9c-1.4,0-2.6-0.5-3.5-1.4s-1.3-2.2-1.3-3.8v-0.3c0-1,0.2-2,0.6-2.8s1-1.5,1.7-1.9s1.5-0.7,2.3-0.7
			c1.4,0,2.4,0.5,3.2,1.4s1.1,2.2,1.1,3.9v0.8h-7.2c0,1,0.3,1.9,0.9,2.5s1.3,1,2.2,1c0.6,0,1.2-0.1,1.6-0.4s0.8-0.6,1.2-1l1.1,0.9
			C289.2,247.2,287.9,247.9,286.1,247.9z M285.9,238.4c-0.7,0-1.3,0.3-1.8,0.8s-0.8,1.3-0.9,2.2h5.3v-0.1c-0.1-0.9-0.3-1.6-0.7-2.1
			S286.6,238.4,285.9,238.4z"/>
		<path class="st4" d="M294.3,247.7h-1.8v-15h1.8V247.7z"/>
		<path class="st4" d="M305.6,234.5v2.6h2v1.4h-2v6.6c0,0.4,0.1,0.7,0.3,1s0.5,0.3,0.9,0.3c0.2,0,0.5,0,0.9-0.1v1.5
			c-0.5,0.1-0.9,0.2-1.4,0.2c-0.8,0-1.4-0.2-1.8-0.7s-0.6-1.2-0.6-2.1v-6.6h-1.9v-1.4h1.9v-2.6H305.6z"/>
		<path class="st4" d="M314.8,238.7c-0.3,0-0.6-0.1-0.9-0.1c-1.2,0-2,0.5-2.4,1.5v7.5h-1.8v-10.6h1.8l0,1.2c0.6-0.9,1.4-1.4,2.5-1.4
			c0.4,0,0.6,0,0.8,0.1V238.7z"/>
		<path class="st4" d="M322.5,247.7c-0.1-0.2-0.2-0.6-0.3-1.1c-0.8,0.9-1.8,1.3-3,1.3c-1,0-1.9-0.3-2.6-0.9s-1-1.3-1-2.2
			c0-1.1,0.4-2,1.3-2.6s2-0.9,3.5-0.9h1.8v-0.8c0-0.6-0.2-1.1-0.6-1.5s-0.9-0.6-1.7-0.6c-0.6,0-1.2,0.2-1.6,0.5s-0.7,0.7-0.7,1.2
			h-1.8c0-0.5,0.2-1,0.6-1.5s0.9-0.9,1.5-1.2s1.3-0.4,2.1-0.4c1.2,0,2.2,0.3,2.9,0.9s1,1.4,1.1,2.5v4.9c0,1,0.1,1.7,0.4,2.3v0.2
			H322.5z M319.5,246.3c0.6,0,1.1-0.1,1.6-0.4s0.9-0.7,1.1-1.1v-2.2h-1.4c-2.2,0-3.3,0.6-3.3,1.9c0,0.6,0.2,1,0.6,1.3
			S319,246.3,319.5,246.3z"/>
		<path class="st4" d="M335.8,242.5c0,1.6-0.4,2.9-1.1,3.9s-1.7,1.5-3,1.5c-1.3,0-2.4-0.5-3.1-1.4l-0.1,1.2h-1.7v-15h1.8v5.6
			c0.7-0.9,1.7-1.4,3-1.4s2.3,0.5,3,1.5s1.1,2.3,1.1,4V242.5z M334,242.3c0-1.2-0.2-2.2-0.7-2.9s-1.2-1-2.1-1c-1.2,0-2,0.6-2.6,1.7
			v4.6c0.6,1.1,1.4,1.7,2.6,1.7c0.9,0,1.5-0.3,2-1S334,243.6,334,242.3z"/>
		<path class="st4" d="M344.6,247.7c-0.1-0.2-0.2-0.6-0.3-1.1c-0.8,0.9-1.8,1.3-3,1.3c-1,0-1.9-0.3-2.6-0.9s-1-1.3-1-2.2
			c0-1.1,0.4-2,1.3-2.6s2-0.9,3.5-0.9h1.8v-0.8c0-0.6-0.2-1.1-0.6-1.5s-0.9-0.6-1.7-0.6c-0.6,0-1.2,0.2-1.6,0.5s-0.7,0.7-0.7,1.2
			H338c0-0.5,0.2-1,0.6-1.5s0.9-0.9,1.5-1.2s1.3-0.4,2.1-0.4c1.2,0,2.2,0.3,2.9,0.9s1,1.4,1.1,2.5v4.9c0,1,0.1,1.7,0.4,2.3v0.2
			H344.6z M341.6,246.3c0.6,0,1.1-0.1,1.6-0.4s0.9-0.7,1.1-1.1v-2.2h-1.4c-2.2,0-3.3,0.6-3.3,1.9c0,0.6,0.2,1,0.6,1.3
			S341.1,246.3,341.6,246.3z"/>
		<path class="st4" d="M350.9,237.1v11.8c0,2-0.9,3-2.8,3c-0.4,0-0.8-0.1-1.1-0.2v-1.4c0.2,0.1,0.5,0.1,0.8,0.1
			c0.4,0,0.7-0.1,0.9-0.3c0.2-0.2,0.3-0.6,0.3-1.1v-11.8H350.9z M348.9,234.3c0-0.3,0.1-0.5,0.3-0.7s0.4-0.3,0.8-0.3
			c0.4,0,0.6,0.1,0.8,0.3s0.3,0.4,0.3,0.7s-0.1,0.5-0.3,0.7s-0.4,0.3-0.8,0.3s-0.6-0.1-0.8-0.3S348.9,234.6,348.9,234.3z"/>
		<path class="st4" d="M353.3,242.3c0-1,0.2-2,0.6-2.8s1-1.5,1.7-1.9s1.6-0.7,2.5-0.7c1.4,0,2.6,0.5,3.5,1.5s1.3,2.3,1.3,4v0.1
			c0,1-0.2,2-0.6,2.8s-1,1.5-1.7,1.9s-1.6,0.7-2.5,0.7c-1.4,0-2.6-0.5-3.5-1.5s-1.3-2.3-1.3-4V242.3z M355.1,242.5
			c0,1.2,0.3,2.1,0.8,2.8s1.3,1.1,2.2,1.1c0.9,0,1.6-0.4,2.2-1.1s0.8-1.7,0.8-3c0-1.2-0.3-2.1-0.8-2.8s-1.3-1.1-2.2-1.1
			c-0.9,0-1.6,0.4-2.2,1.1S355.1,241.2,355.1,242.5z"/>
		<path class="st4" d="M61.6,271.7c-0.1-0.2-0.2-0.6-0.3-1.1c-0.8,0.9-1.8,1.3-3,1.3c-1,0-1.9-0.3-2.6-0.9s-1-1.3-1-2.2
			c0-1.1,0.4-2,1.3-2.6s2-0.9,3.5-0.9h1.8v-0.8c0-0.6-0.2-1.1-0.6-1.5s-0.9-0.6-1.7-0.6c-0.6,0-1.2,0.2-1.6,0.5s-0.7,0.7-0.7,1.2H55
			c0-0.5,0.2-1,0.6-1.5s0.9-0.9,1.5-1.2s1.3-0.4,2.1-0.4c1.2,0,2.2,0.3,2.9,0.9s1,1.4,1.1,2.5v4.9c0,1,0.1,1.7,0.4,2.3v0.2H61.6z
			 M58.6,270.3c0.6,0,1.1-0.1,1.6-0.4s0.9-0.7,1.1-1.1v-2.2h-1.4c-2.2,0-3.3,0.6-3.3,1.9c0,0.6,0.2,1,0.6,1.3S58,270.3,58.6,270.3z"
			/>
		<path class="st4" d="M72.5,270.6c-0.7,0.8-1.7,1.2-3.1,1.2c-1.1,0-2-0.3-2.6-1s-0.9-1.6-0.9-2.9v-6.9h1.8v6.8c0,1.6,0.7,2.4,2,2.4
			c1.4,0,2.3-0.5,2.8-1.5v-7.7h1.8v10.6h-1.7L72.5,270.6z"/>
		<path class="st4" d="M79.5,258.5v2.6h2v1.4h-2v6.6c0,0.4,0.1,0.7,0.3,1s0.5,0.3,0.9,0.3c0.2,0,0.5,0,0.9-0.1v1.5
			c-0.5,0.1-0.9,0.2-1.4,0.2c-0.8,0-1.4-0.2-1.8-0.7s-0.6-1.2-0.6-2.1v-6.6h-1.9v-1.4h1.9v-2.6H79.5z"/>
		<path class="st4" d="M82.9,266.3c0-1,0.2-2,0.6-2.8s1-1.5,1.7-1.9s1.6-0.7,2.5-0.7c1.4,0,2.6,0.5,3.5,1.5s1.3,2.3,1.3,4v0.1
			c0,1-0.2,2-0.6,2.8s-1,1.5-1.7,1.9s-1.6,0.7-2.5,0.7c-1.4,0-2.6-0.5-3.5-1.5s-1.3-2.3-1.3-4V266.3z M84.7,266.5
			c0,1.2,0.3,2.1,0.8,2.8s1.3,1.1,2.2,1.1c0.9,0,1.6-0.4,2.2-1.1s0.8-1.7,0.8-3c0-1.2-0.3-2.1-0.8-2.8s-1.3-1.1-2.2-1.1
			c-0.9,0-1.6,0.4-2.2,1.1S84.7,265.2,84.7,266.5z M88.5,256.7h2.2l-2.6,2.9l-1.5,0L88.5,256.7z"/>
		<path class="st4" d="M96.5,261.1l0.1,1.3c0.8-1,1.9-1.5,3.2-1.5c2.2,0,3.4,1.3,3.4,3.8v7h-1.8v-7c0-0.8-0.2-1.3-0.5-1.7
			s-0.9-0.5-1.6-0.5c-0.6,0-1.1,0.2-1.5,0.5s-0.8,0.7-1,1.2v7.5h-1.8v-10.6H96.5z"/>
		<path class="st4" d="M105.3,266.3c0-1,0.2-2,0.6-2.8s1-1.5,1.7-1.9s1.6-0.7,2.5-0.7c1.4,0,2.6,0.5,3.5,1.5s1.3,2.3,1.3,4v0.1
			c0,1-0.2,2-0.6,2.8s-1,1.5-1.7,1.9s-1.6,0.7-2.5,0.7c-1.4,0-2.6-0.5-3.5-1.5s-1.3-2.3-1.3-4V266.3z M107.1,266.5
			c0,1.2,0.3,2.1,0.8,2.8s1.3,1.1,2.2,1.1c0.9,0,1.6-0.4,2.2-1.1s0.8-1.7,0.8-3c0-1.2-0.3-2.1-0.8-2.8s-1.3-1.1-2.2-1.1
			c-0.9,0-1.6,0.4-2.2,1.1S107.1,265.2,107.1,266.5z"/>
		<path class="st4" d="M118.9,261.1l0,1.2c0.8-0.9,1.8-1.4,3.1-1.4c1.5,0,2.5,0.6,3,1.7c0.4-0.5,0.8-0.9,1.4-1.2s1.2-0.5,2-0.5
			c2.3,0,3.5,1.2,3.5,3.7v7.1h-1.8v-7c0-0.8-0.2-1.3-0.5-1.7s-0.9-0.6-1.7-0.6c-0.7,0-1.2,0.2-1.7,0.6s-0.7,0.9-0.8,1.6v7h-1.8v-6.9
			c0-1.5-0.8-2.3-2.3-2.3c-1.2,0-2,0.5-2.4,1.5v7.7h-1.8v-10.6H118.9z"/>
		<path class="st4" d="M134.2,266.3c0-1,0.2-2,0.6-2.8s1-1.5,1.7-1.9s1.6-0.7,2.5-0.7c1.4,0,2.6,0.5,3.5,1.5s1.3,2.3,1.3,4v0.1
			c0,1-0.2,2-0.6,2.8s-1,1.5-1.7,1.9s-1.6,0.7-2.5,0.7c-1.4,0-2.6-0.5-3.5-1.5s-1.3-2.3-1.3-4V266.3z M136.1,266.5
			c0,1.2,0.3,2.1,0.8,2.8s1.3,1.1,2.2,1.1c0.9,0,1.6-0.4,2.2-1.1s0.8-1.7,0.8-3c0-1.2-0.3-2.1-0.8-2.8s-1.3-1.1-2.2-1.1
			c-0.9,0-1.6,0.4-2.2,1.1S136.1,265.2,136.1,266.5z"/>
		<path class="st4" d="M153.8,266.3c0-1.6,0.4-2.9,1.2-3.9s1.8-1.5,3-1.5c1.2,0,2.2,0.4,2.9,1.3v-5.5h1.8v15h-1.7l-0.1-1.1
			c-0.7,0.9-1.7,1.3-3,1.3c-1.2,0-2.2-0.5-3-1.5s-1.2-2.3-1.2-3.9V266.3z M155.6,266.5c0,1.2,0.2,2.1,0.7,2.8s1.2,1,2.1,1
			c1.1,0,2-0.5,2.5-1.5v-4.9c-0.5-1-1.4-1.5-2.5-1.5c-0.9,0-1.6,0.3-2.1,1S155.6,265.2,155.6,266.5z"/>
		<path class="st4" d="M169.9,271.9c-1.4,0-2.6-0.5-3.5-1.4s-1.3-2.2-1.3-3.8v-0.3c0-1,0.2-2,0.6-2.8s1-1.5,1.7-1.9s1.5-0.7,2.3-0.7
			c1.4,0,2.4,0.5,3.2,1.4s1.1,2.2,1.1,3.9v0.8h-7.2c0,1,0.3,1.9,0.9,2.5s1.3,1,2.2,1c0.6,0,1.2-0.1,1.6-0.4s0.8-0.6,1.2-1l1.1,0.9
			C173,271.2,171.7,271.9,169.9,271.9z M169.7,262.4c-0.7,0-1.3,0.3-1.8,0.8s-0.8,1.3-0.9,2.2h5.3v-0.1c-0.1-0.9-0.3-1.6-0.7-2.1
			S170.4,262.4,169.7,262.4z"/>
		<path class="st4" d="M178.1,271.7h-1.8v-15h1.8V271.7z"/>
		<path class="st4" d="M193.5,271.9c-1.4,0-2.6-0.5-3.5-1.4s-1.3-2.2-1.3-3.8v-0.3c0-1,0.2-2,0.6-2.8s1-1.5,1.7-1.9s1.5-0.7,2.3-0.7
			c1.4,0,2.4,0.5,3.2,1.4s1.1,2.2,1.1,3.9v0.8h-7.2c0,1,0.3,1.9,0.9,2.5s1.3,1,2.2,1c0.6,0,1.2-0.1,1.6-0.4s0.8-0.6,1.2-1l1.1,0.9
			C196.6,271.2,195.2,271.9,193.5,271.9z M193.2,262.4c-0.7,0-1.3,0.3-1.8,0.8s-0.8,1.3-0.9,2.2h5.3v-0.1c-0.1-0.9-0.3-1.6-0.7-2.1
			S194,262.4,193.2,262.4z"/>
		<path class="st4" d="M205.8,268.9c0-0.5-0.2-0.9-0.6-1.1s-1-0.5-1.9-0.7s-1.6-0.4-2.2-0.7s-0.9-0.6-1.2-1s-0.4-0.8-0.4-1.3
			c0-0.9,0.4-1.6,1.1-2.2s1.7-0.9,2.8-0.9c1.2,0,2.2,0.3,2.9,0.9c0.7,0.6,1.1,1.4,1.1,2.4h-1.8c0-0.5-0.2-0.9-0.6-1.3
			s-0.9-0.5-1.6-0.5c-0.7,0-1.2,0.1-1.5,0.4s-0.6,0.7-0.6,1.1c0,0.4,0.2,0.8,0.5,1s1,0.4,1.9,0.6s1.6,0.4,2.2,0.7
			c0.6,0.3,1,0.6,1.2,1c0.3,0.4,0.4,0.9,0.4,1.4c0,0.9-0.4,1.7-1.1,2.3c-0.8,0.6-1.7,0.9-2.9,0.9c-0.8,0-1.6-0.1-2.2-0.4
			s-1.2-0.7-1.5-1.3s-0.6-1.1-0.6-1.7h1.8c0,0.6,0.3,1.1,0.7,1.4s1,0.5,1.8,0.5c0.7,0,1.2-0.1,1.6-0.4S205.8,269.3,205.8,268.9z"/>
		<path class="st4" d="M212.4,258.5v2.6h2v1.4h-2v6.6c0,0.4,0.1,0.7,0.3,1s0.5,0.3,0.9,0.3c0.2,0,0.5,0,0.9-0.1v1.5
			c-0.5,0.1-0.9,0.2-1.4,0.2c-0.8,0-1.4-0.2-1.8-0.7s-0.6-1.2-0.6-2.1v-6.6h-1.9v-1.4h1.9v-2.6H212.4z"/>
		<path class="st4" d="M223,270.6c-0.7,0.8-1.7,1.2-3.1,1.2c-1.1,0-2-0.3-2.6-1c-0.6-0.7-0.9-1.6-0.9-2.9v-6.9h1.8v6.8
			c0,1.6,0.7,2.4,2,2.4c1.4,0,2.3-0.5,2.8-1.5v-7.7h1.8v10.6h-1.7L223,270.6z"/>
		<path class="st4" d="M227.1,266.3c0-1.6,0.4-2.9,1.2-3.9s1.8-1.5,3-1.5c1.2,0,2.2,0.4,2.9,1.3v-5.5h1.8v15h-1.7l-0.1-1.1
			c-0.7,0.9-1.7,1.3-3,1.3c-1.2,0-2.2-0.5-3-1.5s-1.2-2.3-1.2-3.9V266.3z M228.9,266.5c0,1.2,0.2,2.1,0.7,2.8s1.2,1,2.1,1
			c1.1,0,2-0.5,2.5-1.5v-4.9c-0.5-1-1.4-1.5-2.5-1.5c-0.9,0-1.6,0.3-2.1,1S228.9,265.2,228.9,266.5z"/>
		<path class="st4" d="M238.8,258.3c0-0.3,0.1-0.5,0.3-0.7s0.4-0.3,0.8-0.3s0.6,0.1,0.8,0.3s0.3,0.4,0.3,0.7s-0.1,0.5-0.3,0.7
			s-0.4,0.3-0.8,0.3s-0.6-0.1-0.8-0.3S238.8,258.6,238.8,258.3z M240.8,271.7H239v-10.6h1.8V271.7z"/>
		<path class="st4" d="M250.2,271.7c-0.1-0.2-0.2-0.6-0.3-1.1c-0.8,0.9-1.8,1.3-3,1.3c-1,0-1.9-0.3-2.6-0.9s-1-1.3-1-2.2
			c0-1.1,0.4-2,1.3-2.6s2-0.9,3.5-0.9h1.8v-0.8c0-0.6-0.2-1.1-0.6-1.5s-0.9-0.6-1.7-0.6c-0.6,0-1.2,0.2-1.6,0.5s-0.7,0.7-0.7,1.2
			h-1.8c0-0.5,0.2-1,0.6-1.5s0.9-0.9,1.5-1.2s1.3-0.4,2.1-0.4c1.2,0,2.2,0.3,2.9,0.9s1,1.4,1.1,2.5v4.9c0,1,0.1,1.7,0.4,2.3v0.2
			H250.2z M247.2,270.3c0.6,0,1.1-0.1,1.6-0.4s0.9-0.7,1.1-1.1v-2.2h-1.4c-2.2,0-3.3,0.6-3.3,1.9c0,0.6,0.2,1,0.6,1.3
			S246.6,270.3,247.2,270.3z"/>
		<path class="st4" d="M256.3,261.1l0.1,1.3c0.8-1,1.9-1.5,3.2-1.5c2.2,0,3.4,1.3,3.4,3.8v7h-1.8v-7c0-0.8-0.2-1.3-0.5-1.7
			s-0.9-0.5-1.6-0.5c-0.6,0-1.1,0.2-1.5,0.5s-0.8,0.7-1,1.2v7.5h-1.8v-10.6H256.3z"/>
		<path class="st4" d="M268,258.5v2.6h2v1.4h-2v6.6c0,0.4,0.1,0.7,0.3,1s0.5,0.3,0.9,0.3c0.2,0,0.5,0,0.9-0.1v1.5
			c-0.5,0.1-0.9,0.2-1.4,0.2c-0.8,0-1.4-0.2-1.8-0.7s-0.6-1.2-0.6-2.1v-6.6h-1.9v-1.4h1.9v-2.6H268z"/>
		<path class="st4" d="M276.5,271.9c-1.4,0-2.6-0.5-3.5-1.4s-1.3-2.2-1.3-3.8v-0.3c0-1,0.2-2,0.6-2.8s1-1.5,1.7-1.9s1.5-0.7,2.3-0.7
			c1.4,0,2.4,0.5,3.2,1.4s1.1,2.2,1.1,3.9v0.8h-7.2c0,1,0.3,1.9,0.9,2.5s1.3,1,2.2,1c0.6,0,1.2-0.1,1.6-0.4s0.8-0.6,1.2-1l1.1,0.9
			C279.6,271.2,278.3,271.9,276.5,271.9z M276.3,262.4c-0.7,0-1.3,0.3-1.8,0.8s-0.8,1.3-0.9,2.2h5.3v-0.1c-0.1-0.9-0.3-1.6-0.7-2.1
			S277,262.4,276.3,262.4z"/>
		<path class="st4" d="M282.7,274.5l-1-0.7c0.6-0.9,0.9-1.7,1-2.6v-1.6h1.8v1.4c0,0.7-0.2,1.3-0.5,2S283.1,274.1,282.7,274.5z"/>
		<path class="st4" d="M298.2,269l2.5-7.9h1.9l-4.2,12.2c-0.7,1.8-1.7,2.6-3.1,2.6l-0.3,0l-0.7-0.1v-1.5l0.5,0
			c0.6,0,1.1-0.1,1.4-0.4s0.6-0.7,0.8-1.4l0.4-1.1l-3.8-10.4h2L298.2,269z"/>
		<path class="st4" d="M316.7,271.9c-1.4,0-2.6-0.5-3.5-1.4s-1.3-2.2-1.3-3.8v-0.3c0-1,0.2-2,0.6-2.8s1-1.5,1.7-1.9s1.5-0.7,2.3-0.7
			c1.4,0,2.4,0.5,3.2,1.4s1.1,2.2,1.1,3.9v0.8h-7.2c0,1,0.3,1.9,0.9,2.5s1.3,1,2.2,1c0.6,0,1.2-0.1,1.6-0.4s0.8-0.6,1.2-1l1.1,0.9
			C319.8,271.2,318.5,271.9,316.7,271.9z M316.5,262.4c-0.7,0-1.3,0.3-1.8,0.8s-0.8,1.3-0.9,2.2h5.3v-0.1c-0.1-0.9-0.3-1.6-0.7-2.1
			S317.2,262.4,316.5,262.4z"/>
		<path class="st4" d="M324.9,271.7h-1.8v-15h1.8V271.7z"/>
		<path class="st4" d="M338.3,258.5v2.6h2v1.4h-2v6.6c0,0.4,0.1,0.7,0.3,1s0.5,0.3,0.9,0.3c0.2,0,0.5,0,0.9-0.1v1.5
			c-0.5,0.1-0.9,0.2-1.4,0.2c-0.8,0-1.4-0.2-1.8-0.7s-0.6-1.2-0.6-2.1v-6.6h-1.9v-1.4h1.9v-2.6H338.3z"/>
		<path class="st4" d="M347.5,262.7c-0.3,0-0.6-0.1-0.9-0.1c-1.2,0-2,0.5-2.4,1.5v7.5h-1.8v-10.6h1.8l0,1.2c0.6-0.9,1.4-1.4,2.5-1.4
			c0.4,0,0.6,0,0.8,0.1V262.7z"/>
		<path class="st4" d="M355.3,271.7c-0.1-0.2-0.2-0.6-0.3-1.1c-0.8,0.9-1.8,1.3-3,1.3c-1,0-1.9-0.3-2.6-0.9s-1-1.3-1-2.2
			c0-1.1,0.4-2,1.3-2.6s2-0.9,3.5-0.9h1.8v-0.8c0-0.6-0.2-1.1-0.6-1.5s-0.9-0.6-1.7-0.6c-0.6,0-1.2,0.2-1.6,0.5s-0.7,0.7-0.7,1.2
			h-1.8c0-0.5,0.2-1,0.6-1.5s0.9-0.9,1.5-1.2s1.3-0.4,2.1-0.4c1.2,0,2.2,0.3,2.9,0.9s1,1.4,1.1,2.5v4.9c0,1,0.1,1.7,0.4,2.3v0.2
			H355.3z M352.3,270.3c0.6,0,1.1-0.1,1.6-0.4s0.9-0.7,1.1-1.1v-2.2h-1.4c-2.2,0-3.3,0.6-3.3,1.9c0,0.6,0.2,1,0.6,1.3
			S351.7,270.3,352.3,270.3z"/>
		<path class="st4" d="M363.4,266.4h-4.8v-1.5h4.8V266.4z"/>
		<path class="st4" d="M64,290.5c0,1.6-0.4,2.9-1.1,3.9s-1.7,1.5-3,1.5c-1.3,0-2.4-0.5-3.1-1.4l-0.1,1.2h-1.7v-15h1.8v5.6
			c0.7-0.9,1.7-1.4,3-1.4s2.3,0.5,3,1.5s1.1,2.3,1.1,4V290.5z M62.2,290.3c0-1.2-0.2-2.2-0.7-2.9s-1.2-1-2.1-1c-1.2,0-2,0.6-2.6,1.7
			v4.6c0.6,1.1,1.4,1.7,2.6,1.7c0.9,0,1.5-0.3,2-1S62.2,291.6,62.2,290.3z"/>
		<path class="st4" d="M72.8,295.7c-0.1-0.2-0.2-0.6-0.3-1.1c-0.8,0.9-1.8,1.3-3,1.3c-1,0-1.9-0.3-2.6-0.9s-1-1.3-1-2.2
			c0-1.1,0.4-2,1.3-2.6s2-0.9,3.5-0.9h1.8v-0.8c0-0.6-0.2-1.1-0.6-1.5s-0.9-0.6-1.7-0.6c-0.6,0-1.2,0.2-1.6,0.5s-0.7,0.7-0.7,1.2
			h-1.8c0-0.5,0.2-1,0.6-1.5s0.9-0.9,1.5-1.2s1.3-0.4,2.1-0.4c1.2,0,2.2,0.3,2.9,0.9s1,1.4,1.1,2.5v4.9c0,1,0.1,1.7,0.4,2.3v0.2
			H72.8z M69.8,294.3c0.6,0,1.1-0.1,1.6-0.4s0.9-0.7,1.1-1.1v-2.2h-1.4c-2.2,0-3.3,0.6-3.3,1.9c0,0.6,0.2,1,0.6,1.3
			S69.3,294.3,69.8,294.3z"/>
		<path class="st4" d="M79.1,285.1v11.8c0,2-0.9,3-2.8,3c-0.4,0-0.8-0.1-1.1-0.2v-1.4c0.2,0.1,0.5,0.1,0.8,0.1
			c0.4,0,0.7-0.1,0.9-0.3c0.2-0.2,0.3-0.6,0.3-1.1v-11.8H79.1z M77.1,282.3c0-0.3,0.1-0.5,0.3-0.7s0.4-0.3,0.8-0.3
			c0.4,0,0.6,0.1,0.8,0.3s0.3,0.4,0.3,0.7s-0.1,0.5-0.3,0.7s-0.4,0.3-0.8,0.3s-0.6-0.1-0.8-0.3S77.1,282.6,77.1,282.3z"/>
		<path class="st4" d="M81.5,290.3c0-1,0.2-2,0.6-2.8s1-1.5,1.7-1.9s1.6-0.7,2.5-0.7c1.4,0,2.6,0.5,3.5,1.5s1.3,2.3,1.3,4v0.1
			c0,1-0.2,2-0.6,2.8s-1,1.5-1.7,1.9s-1.6,0.7-2.5,0.7c-1.4,0-2.6-0.5-3.5-1.5s-1.3-2.3-1.3-4V290.3z M83.3,290.5
			c0,1.2,0.3,2.1,0.8,2.8s1.3,1.1,2.2,1.1c0.9,0,1.6-0.4,2.2-1.1s0.8-1.7,0.8-3c0-1.2-0.3-2.1-0.8-2.8s-1.3-1.1-2.2-1.1
			c-0.9,0-1.6,0.4-2.2,1.1S83.3,289.2,83.3,290.5z"/>
		<path class="st4" d="M102.6,294.4c0.6,0,1.2-0.2,1.7-0.6s0.7-0.9,0.8-1.5h1.7c0,0.6-0.2,1.2-0.6,1.7s-0.9,1-1.5,1.3
			s-1.3,0.5-2,0.5c-1.4,0-2.6-0.5-3.4-1.4s-1.3-2.3-1.3-3.9v-0.3c0-1,0.2-1.9,0.6-2.7s0.9-1.4,1.6-1.9s1.5-0.7,2.5-0.7
			c1.2,0,2.2,0.4,3,1.1s1.2,1.6,1.3,2.8h-1.7c-0.1-0.7-0.3-1.2-0.8-1.7s-1-0.7-1.7-0.7c-0.9,0-1.6,0.3-2.1,1s-0.8,1.6-0.8,2.9v0.3
			c0,1.2,0.3,2.2,0.8,2.8S101.6,294.4,102.6,294.4z"/>
		<path class="st4" d="M108.3,290.3c0-1,0.2-2,0.6-2.8s1-1.5,1.7-1.9s1.6-0.7,2.5-0.7c1.4,0,2.6,0.5,3.5,1.5s1.3,2.3,1.3,4v0.1
			c0,1-0.2,2-0.6,2.8s-1,1.5-1.7,1.9s-1.6,0.7-2.5,0.7c-1.4,0-2.6-0.5-3.5-1.5s-1.3-2.3-1.3-4V290.3z M110.1,290.5
			c0,1.2,0.3,2.1,0.8,2.8s1.3,1.1,2.2,1.1c0.9,0,1.6-0.4,2.2-1.1s0.8-1.7,0.8-3c0-1.2-0.3-2.1-0.8-2.8s-1.3-1.1-2.2-1.1
			c-0.9,0-1.6,0.4-2.2,1.1S110.1,289.2,110.1,290.5z"/>
		<path class="st4" d="M122.2,295.7h-1.8v-15h1.8V295.7z"/>
		<path class="st4" d="M131.6,295.7c-0.1-0.2-0.2-0.6-0.3-1.1c-0.8,0.9-1.8,1.3-3,1.3c-1,0-1.9-0.3-2.6-0.9s-1-1.3-1-2.2
			c0-1.1,0.4-2,1.3-2.6s2-0.9,3.5-0.9h1.8v-0.8c0-0.6-0.2-1.1-0.6-1.5s-0.9-0.6-1.7-0.6c-0.6,0-1.2,0.2-1.6,0.5s-0.7,0.7-0.7,1.2
			H125c0-0.5,0.2-1,0.6-1.5s0.9-0.9,1.5-1.2s1.3-0.4,2.1-0.4c1.2,0,2.2,0.3,2.9,0.9s1,1.4,1.1,2.5v4.9c0,1,0.1,1.7,0.4,2.3v0.2
			H131.6z M128.6,294.3c0.6,0,1.1-0.1,1.6-0.4s0.9-0.7,1.1-1.1v-2.2h-1.4c-2.2,0-3.3,0.6-3.3,1.9c0,0.6,0.2,1,0.6,1.3
			S128,294.3,128.6,294.3z"/>
		<path class="st4" d="M144.9,290.5c0,1.6-0.4,2.9-1.1,3.9s-1.7,1.5-3,1.5c-1.3,0-2.4-0.5-3.1-1.4l-0.1,1.2h-1.7v-15h1.8v5.6
			c0.7-0.9,1.7-1.4,3-1.4s2.3,0.5,3,1.5s1.1,2.3,1.1,4V290.5z M143.1,290.3c0-1.2-0.2-2.2-0.7-2.9s-1.2-1-2.1-1
			c-1.2,0-2,0.6-2.6,1.7v4.6c0.6,1.1,1.4,1.7,2.6,1.7c0.9,0,1.5-0.3,2-1S143.1,291.6,143.1,290.3z"/>
		<path class="st4" d="M146.7,290.3c0-1,0.2-2,0.6-2.8s1-1.5,1.7-1.9s1.6-0.7,2.5-0.7c1.4,0,2.6,0.5,3.5,1.5s1.3,2.3,1.3,4v0.1
			c0,1-0.2,2-0.6,2.8s-1,1.5-1.7,1.9s-1.6,0.7-2.5,0.7c-1.4,0-2.6-0.5-3.5-1.5s-1.3-2.3-1.3-4V290.3z M148.5,290.5
			c0,1.2,0.3,2.1,0.8,2.8s1.3,1.1,2.2,1.1c0.9,0,1.6-0.4,2.2-1.1s0.8-1.7,0.8-3c0-1.2-0.3-2.1-0.8-2.8s-1.3-1.1-2.2-1.1
			c-0.9,0-1.6,0.4-2.2,1.1S148.5,289.2,148.5,290.5z"/>
		<path class="st4" d="M163.7,286.7c-0.3,0-0.6-0.1-0.9-0.1c-1.2,0-2,0.5-2.4,1.5v7.5h-1.8v-10.6h1.8l0,1.2c0.6-0.9,1.4-1.4,2.5-1.4
			c0.4,0,0.6,0,0.8,0.1V286.7z"/>
		<path class="st4" d="M171.5,295.7c-0.1-0.2-0.2-0.6-0.3-1.1c-0.8,0.9-1.8,1.3-3,1.3c-1,0-1.9-0.3-2.6-0.9s-1-1.3-1-2.2
			c0-1.1,0.4-2,1.3-2.6s2-0.9,3.5-0.9h1.8v-0.8c0-0.6-0.2-1.1-0.6-1.5s-0.9-0.6-1.7-0.6c-0.6,0-1.2,0.2-1.6,0.5s-0.7,0.7-0.7,1.2
			h-1.8c0-0.5,0.2-1,0.6-1.5s0.9-0.9,1.5-1.2s1.3-0.4,2.1-0.4c1.2,0,2.2,0.3,2.9,0.9s1,1.4,1.1,2.5v4.9c0,1,0.1,1.7,0.4,2.3v0.2
			H171.5z M168.5,294.3c0.6,0,1.1-0.1,1.6-0.4s0.9-0.7,1.1-1.1v-2.2h-1.4c-2.2,0-3.3,0.6-3.3,1.9c0,0.6,0.2,1,0.6,1.3
			S167.9,294.3,168.5,294.3z"/>
		<path class="st4" d="M178.3,282.5v2.6h2v1.4h-2v6.6c0,0.4,0.1,0.7,0.3,1s0.5,0.3,0.9,0.3c0.2,0,0.5,0,0.9-0.1v1.5
			c-0.5,0.1-0.9,0.2-1.4,0.2c-0.8,0-1.4-0.2-1.8-0.7s-0.6-1.2-0.6-2.1v-6.6h-1.9v-1.4h1.9v-2.6H178.3z"/>
		<path class="st4" d="M182.4,282.3c0-0.3,0.1-0.5,0.3-0.7s0.4-0.3,0.8-0.3s0.6,0.1,0.8,0.3s0.3,0.4,0.3,0.7s-0.1,0.5-0.3,0.7
			s-0.4,0.3-0.8,0.3s-0.6-0.1-0.8-0.3S182.4,282.6,182.4,282.3z M184.3,295.7h-1.8v-10.6h1.8V295.7z"/>
		<path class="st4" d="M190.7,293.2l2.6-8.1h1.8l-3.8,10.6H190l-3.8-10.6h1.8L190.7,293.2z"/>
		<path class="st4" d="M196.3,290.3c0-1,0.2-2,0.6-2.8s1-1.5,1.7-1.9s1.6-0.7,2.5-0.7c1.4,0,2.6,0.5,3.5,1.5s1.3,2.3,1.3,4v0.1
			c0,1-0.2,2-0.6,2.8s-1,1.5-1.7,1.9s-1.6,0.7-2.5,0.7c-1.4,0-2.6-0.5-3.5-1.5s-1.3-2.3-1.3-4V290.3z M198.1,290.5
			c0,1.2,0.3,2.1,0.8,2.8s1.3,1.1,2.2,1.1c0.9,0,1.6-0.4,2.2-1.1s0.8-1.7,0.8-3c0-1.2-0.3-2.1-0.8-2.8s-1.3-1.1-2.2-1.1
			c-0.9,0-1.6,0.4-2.2,1.1S198.1,289.2,198.1,290.5z"/>
		<path class="st4" d="M208.2,294.7c0-0.3,0.1-0.6,0.3-0.8s0.5-0.3,0.8-0.3s0.7,0.1,0.8,0.3c0.2,0.2,0.3,0.5,0.3,0.8
			c0,0.3-0.1,0.5-0.3,0.8c-0.2,0.2-0.5,0.3-0.8,0.3s-0.6-0.1-0.8-0.3S208.2,295,208.2,294.7z"/>
	</g>
</g>
</svg>
