<?xml version="1.0" encoding="UTF-8"?>
<svg id="Capa_1" data-name="Capa 1" xmlns="http://www.w3.org/2000/svg" xmlns:xlink="http://www.w3.org/1999/xlink" version="1.1" viewBox="0 0 410 460">
  <defs>
    <style>
      .cls-1 {
        fill: none;
      }

      .cls-1, .cls-2, .cls-3, .cls-4, .cls-5, .cls-6, .cls-7, .cls-8 {
        stroke-width: 0px;
      }

      .cls-2 {
        fill: #3d8bba;
      }

      .cls-3 {
        fill: #213265;
      }

      .cls-4 {
        fill: #223265;
      }

      .cls-5 {
        fill: url(#Degradado_sin_nombre);
      }

      .cls-6 {
        fill: #f2f2f2;
      }

      .cls-9 {
        opacity: .6;
      }

      .cls-7 {
        fill: #707070;
      }

      .cls-10 {
        isolation: isolate;
      }

      .cls-8 {
        fill: #e5e5e5;
      }
    </style>
    <radialGradient id="Degradado_sin_nombre" data-name="Degradado sin nombre" cx="205" cy="2211" fx="205" fy="2211" r="202.2" gradientTransform="translate(0 -338.7) scale(1 .3)" gradientUnits="userSpaceOnUse">
      <stop offset="0" stop-color="#000"/>
      <stop offset="1" stop-color="#000" stop-opacity="0"/>
    </radialGradient>
    <clipPath id="clippath">
      <rect class="cls-1" x="27" y="412.9" width="360.6" height="42.4"/>
    </clipPath>
    <clipPath id="clippath-1">
      <rect class="cls-1" x="27" y="412.9" width="360.6" height="42.4"/>
    </clipPath>
    <clipPath id="clippath-2">
      <rect class="cls-1" x="27" y="412.9" width="360.6" height="42.4"/>
    </clipPath>
  </defs>
  <g id="Capa_1-2" data-name="Capa 1">
    <g id="Capa_2-3" data-name="Capa 2" class="cls-9">
      <ellipse class="cls-5" cx="205" cy="388" rx="204.9" ry="70.5"/>
    </g>
    <g>
      <g id="Grupo_1489" data-name="Grupo 1489">
        <g>
          <path id="Rectángulo_1800" data-name="Rectángulo 1800" class="cls-2" d="M27.6,342.4h351c8.3,0,15,6.7,15,15v43.5c0,8.3-6.7,15-15,15H27.6c-8.3,0-15-6.7-15-15v-43.5c0-8.3,6.7-15,15-15Z"/>
          <path id="Rectángulo_1709" data-name="Rectángulo 1709" class="cls-8" d="M34.6,5.5h338c8.3,0,15,6.7,15,15v373c0,8.3-6.7,15-15,15H34.6c-8.3,0-15-6.7-15-15V20.5c0-8.3,6.7-15,15-15Z"/>
          <g id="Logros_de_los_aprendizajes" data-name="Logros de los aprendizajes">
            <g class="cls-10">
              <path class="cls-2" d="M42.2,59h7.8v2.9h-11.5v-17.8h3.7v14.9Z"/>
              <path class="cls-2" d="M51.3,55.2c0-1.3.3-2.5.8-3.5s1.2-1.8,2.2-2.4c.9-.6,2-.8,3.3-.8s3.2.5,4.4,1.6c1.1,1.1,1.8,2.6,1.9,4.4v.9c0,2-.6,3.7-1.7,4.9-1.1,1.2-2.6,1.8-4.6,1.8s-3.4-.6-4.6-1.8c-1.1-1.2-1.7-2.9-1.7-5,0,0,0-.1,0-.1ZM54.8,55.4c0,1.3.2,2.2.7,2.9s1.1,1,2,1,1.5-.3,2-1,.7-1.7.7-3.1-.2-2.2-.7-2.9-1.2-1-2-1-1.5.3-2,1c-.5.7-.7,1.7-.7,3.1Z"/>
              <path class="cls-2" d="M65.4,55.2c0-2,.5-3.7,1.4-4.9,1-1.2,2.3-1.9,3.9-1.9s2.6.5,3.4,1.5v-1.2h3.3v12.8c0,1.2-.3,2.2-.8,3-.5.9-1.3,1.5-2.2,2-1,.4-2.1.7-3.3.7s-1.9-.2-2.8-.6-1.6-.9-2.1-1.5l1.6-2.1c.9,1,1.9,1.5,3.2,1.5s1.7-.2,2.2-.8c.5-.5.8-1.2.8-2.1v-.7c-.8.9-1.9,1.4-3.2,1.4s-2.9-.6-3.9-1.9c-1-1.2-1.5-2.9-1.5-4.9,0,0,0-.3,0-.3ZM69,55.5c0,1.2.2,2.1.7,2.8s1.1,1,2,1,1.8-.4,2.3-1.2v-5.6c-.5-.8-1.2-1.2-2.3-1.2s-1.5.3-2,1-.7,1.8-.7,3.2Z"/>
            </g>
            <g class="cls-10">
              <path class="cls-2" d="M87.6,52c-.5,0-.9,0-1.3,0-1.3,0-2.2.5-2.6,1.4v8.6h-3.5v-13.2h3.3v1.6c.8-1.2,1.8-1.8,3-1.8s.8,0,1.1.2v3.3Z"/>
            </g>
            <g class="cls-10">
              <path class="cls-2" d="M88.4,55.2c0-1.3.3-2.5.8-3.5s1.2-1.8,2.2-2.4c.9-.6,2-.8,3.3-.8s3.2.5,4.4,1.6c1.1,1.1,1.8,2.6,1.9,4.4v.9c0,2-.6,3.7-1.7,4.9s-2.6,1.8-4.6,1.8-3.4-.6-4.6-1.8c-1.1-1.2-1.7-2.9-1.7-5h0ZM91.9,55.4c0,1.3.2,2.2.7,2.9s1.1,1,2,1,1.5-.3,2-1,.7-1.7.7-3.1-.2-2.2-.7-2.9-1.2-1-2-1-1.5.3-2,1c-.5.7-.7,1.7-.7,3.1Z"/>
              <path class="cls-2" d="M110.2,58.2c0-.4-.2-.8-.6-1s-1.1-.5-2.1-.7c-3.1-.7-4.7-2-4.7-4s.5-2.2,1.5-2.9c1-.8,2.2-1.2,3.8-1.2s3,.4,4,1.2,1.5,1.8,1.5,3.1h-3.5c0-.5-.2-.9-.5-1.3-.3-.3-.8-.5-1.5-.5s-1.1,0-1.4.4c-.3.3-.5.6-.5,1s.2.7.6.9,1,.4,1.9.6,1.6.4,2.2.6c1.9.7,2.8,1.9,2.8,3.6s-.5,2.2-1.6,2.9c-1,.7-2.4,1.1-4,1.1s-2.1-.2-2.9-.6c-.9-.4-1.5-.9-2-1.6-.5-.7-.7-1.4-.7-2.2h3.3c0,.6.3,1.1.7,1.4.4.3,1,.5,1.7.5s1.2,0,1.5-.4c.3,0,.5-.4.5-.9Z"/>
              <path class="cls-2" d="M121.6,55.2c0-2.1.5-3.7,1.4-4.9s2.2-1.8,3.8-1.8,2.3.5,3.2,1.4v-6.7h3.5v18.8h-3.2l-.2-1.4c-.9,1.1-2,1.6-3.4,1.6s-2.8-.6-3.7-1.8c-1-1.3-1.4-3-1.4-5.2ZM125.1,55.5c0,1.2.2,2.2.6,2.8.4.7,1.1,1,1.9,1s1.9-.5,2.3-1.4v-5.2c-.4-.9-1.2-1.4-2.3-1.4-1.7,0-2.5,1.4-2.5,4.2Z"/>
              <path class="cls-2" d="M142.3,62.1c-1.9,0-3.5-.6-4.7-1.8s-1.8-2.8-1.8-4.7v-.3c0-1.3.3-2.5.8-3.6s1.2-1.9,2.2-2.4c.9-.6,2-.8,3.2-.8,1.8,0,3.2.6,4.3,1.7,1,1.1,1.6,2.8,1.6,4.8v1.4h-8.4c.1.9.5,1.6,1,2.1.6.5,1.3.8,2.2.8,1.4,0,2.4-.5,3.2-1.5l1.7,1.9c-.5.7-1.2,1.3-2.1,1.8s-2.1.6-3.2.6ZM141.9,51.3c-.7,0-1.3.2-1.7.7s-.7,1.2-.8,2h4.9v-.3c0-.8-.2-1.4-.6-1.8-.5-.4-1.1-.6-1.8-.6Z"/>
              <path class="cls-2" d="M159.7,61.9h-3.5v-18.8h3.5v18.8Z"/>
              <path class="cls-2" d="M162,55.2c0-1.3.3-2.5.8-3.5s1.2-1.8,2.2-2.4c.9-.6,2-.8,3.3-.8s3.2.5,4.4,1.6c1.1,1.1,1.8,2.6,1.9,4.4v.9c0,2-.6,3.7-1.7,4.9-1.1,1.2-2.6,1.8-4.6,1.8s-3.4-.6-4.6-1.8c-1.1-1.2-1.7-2.9-1.7-5h0ZM165.6,55.4c0,1.3.2,2.2.7,2.9s1.1,1,2,1,1.5-.3,2-1,.7-1.7.7-3.1-.2-2.2-.7-2.9-1.2-1-2-1-1.5.3-2,1c-.5.7-.7,1.7-.7,3.1Z"/>
              <path class="cls-2" d="M183.9,58.2c0-.4-.2-.8-.6-1-.4-.2-1.1-.5-2.1-.7-3.1-.7-4.7-2-4.7-4s.5-2.2,1.5-2.9c1-.8,2.2-1.2,3.8-1.2s3,.4,4,1.2,1.5,1.8,1.5,3.1h-3.5c0-.5-.2-.9-.5-1.3-.3-.3-.8-.5-1.5-.5s-1.1,0-1.4.4c-.3.3-.5.6-.5,1s.2.7.6.9c.4.2,1,.4,1.9.6s1.6.4,2.2.6c1.9.7,2.8,1.9,2.8,3.6s-.5,2.2-1.6,2.9c-1,.7-2.4,1.1-4,1.1s-2.1-.2-2.9-.6c-.9-.4-1.5-.9-2-1.6-.5-.7-.7-1.4-.7-2.2h3.3c0,.6.3,1.1.7,1.4.4.3,1,.5,1.7.5s1.2,0,1.5-.4c.3,0,.5-.4.5-.9Z"/>
              <path class="cls-2" d="M203.4,61.9c-.2-.3-.3-.7-.4-1.2-.9,1-2,1.4-3.3,1.4s-2.4-.4-3.2-1.1c-.9-.7-1.3-1.7-1.3-2.8s.5-2.5,1.6-3.2c1-.7,2.5-1.1,4.5-1.1h1.6v-.8c0-.6-.2-1.1-.5-1.5s-.8-.5-1.5-.5-1.1,0-1.4.4c-.3.3-.5.7-.5,1.2h-3.5c0-.8.2-1.5.7-2.1.5-.7,1.1-1.2,2-1.5.9-.4,1.8-.6,2.9-.6,1.6,0,2.9.4,3.9,1.2s1.4,2,1.4,3.4v5.7c0,1.3.2,2.2.5,2.8v.2h-3.5ZM200.5,59.4c.5,0,1,0,1.4-.3s.8-.5,1-.9v-2.3h-1.3c-1.8,0-2.7.6-2.8,1.8v.2c0,.4.2.8.5,1.1.3.3.7.4,1.2.4Z"/>
              <path class="cls-2" d="M221.1,55.4c0,2-.5,3.7-1.4,4.9s-2.2,1.8-3.7,1.8-2.4-.5-3.2-1.4v6.3h-3.5v-18.3h3.3v1.3c1-1,2.1-1.5,3.4-1.5s2.9.6,3.8,1.8,1.4,2.9,1.4,5h0c0,.1-.1.1-.1.1ZM217.6,55.2c0-1.2-.2-2.2-.7-2.8-.4-.7-1.1-1-1.9-1s-1.9.4-2.3,1.3v5.3c.4.9,1.2,1.3,2.3,1.3,1.7,0,2.6-1.4,2.6-4.1Z"/>
              <path class="cls-2" d="M230.7,52c-.5,0-.9,0-1.3,0-1.3,0-2.2.5-2.6,1.4v8.6h-3.5v-13.2h3.3v1.6c.8-1.2,1.8-1.8,3-1.8s.8,0,1.1.2v3.3Z"/>
              <path class="cls-2" d="M238.2,62.1c-1.9,0-3.5-.6-4.7-1.8s-1.8-2.8-1.8-4.7v-.3c0-1.3.3-2.5.8-3.6s1.2-1.9,2.2-2.4c.9-.6,2-.8,3.2-.8,1.8,0,3.2.6,4.3,1.7,1,1.1,1.6,2.8,1.6,4.8v1.4h-8.4c.1.9.5,1.6,1,2.1.6.5,1.3.8,2.2.8,1.4,0,2.4-.5,3.2-1.5l1.7,1.9c-.5.7-1.2,1.3-2.1,1.8s-2.1.6-3.2.6ZM237.8,51.3c-.7,0-1.3.2-1.7.7s-.7,1.2-.8,2h4.9v-.3c0-.8-.2-1.4-.6-1.8-.4-.4-1-.6-1.8-.6Z"/>
              <path class="cls-2" d="M248.9,48.7v1.5c1-1.2,2.3-1.8,3.9-1.8s2.4.4,3.1,1.2c.7.8,1,2.1,1,3.7v8.5h-3.5v-8.4c0-.7-.2-1.3-.5-1.6s-.9-.5-1.6-.5c-1,0-1.7.4-2.2,1.3v9.3h-3.5v-13.2h3.3Z"/>
              <path class="cls-2" d="M259.1,55.2c0-2.1.5-3.7,1.4-4.9s2.2-1.8,3.8-1.8,2.3.5,3.2,1.4v-6.7h3.5v18.8h-3.2l-.2-1.4c-.9,1.1-2,1.6-3.4,1.6s-2.8-.6-3.7-1.8c-.9-1.3-1.4-3-1.4-5.2ZM262.6,55.5c0,1.2.2,2.2.6,2.8.4.7,1.1,1,1.9,1s1.9-.5,2.3-1.4v-5.2c-.4-.9-1.2-1.4-2.3-1.4-1.6,0-2.5,1.4-2.5,4.2Z"/>
              <path class="cls-2" d="M273.7,45.3c0-.5.2-1,.5-1.3.4-.3.8-.5,1.4-.5s1.1.2,1.4.5.5.8.5,1.3-.2,1-.5,1.3-.8.5-1.4.5-1.1-.2-1.4-.5c-.3-.3-.5-.8-.5-1.3ZM277.5,61.9h-3.5v-13.2h3.5v13.2Z"/>
              <path class="cls-2" d="M284.4,59.1h6.5v2.8h-11v-2.1l6.2-8.2h-6v-2.8h10.6v2.1l-6.3,8.2Z"/>
              <path class="cls-2" d="M300.8,61.9c-.2-.3-.3-.7-.4-1.2-.9,1-2,1.4-3.3,1.4s-2.4-.4-3.2-1.1c-.8-.7-1.3-1.7-1.3-2.8s.5-2.5,1.6-3.2c1-.7,2.5-1.1,4.5-1.1h1.6v-.8c0-.6-.2-1.1-.5-1.5s-.8-.5-1.5-.5-1.1,0-1.4.4c-.3.3-.5.7-.5,1.2h-3.5c0-.8.2-1.5.7-2.1.5-.7,1.1-1.2,2-1.5s1.8-.6,2.9-.6c1.6,0,2.9.4,3.9,1.2s1.4,2,1.4,3.4v5.7c0,1.3.2,2.2.5,2.8v.2h-3.5ZM297.8,59.4c.5,0,1,0,1.4-.3s.8-.5,1-.9v-2.3h-1.3c-1.8,0-2.7.6-2.8,1.8v.2c0,.4.2.8.5,1.1s.7.4,1.2.4Z"/>
              <path class="cls-2" d="M310.2,48.7v13.9c0,1.5-.4,2.6-1.2,3.4-.8.8-1.9,1.2-3.3,1.2s-1.2,0-1.7-.2v-2.8c.4,0,.8,0,1.1,0,1.1,0,1.6-.6,1.6-1.7v-14h3.5ZM306.4,45.3c0-.5.2-1,.5-1.3.4-.3.8-.5,1.4-.5s1.1.2,1.4.5c.4.3.5.8.5,1.3s-.2,1-.5,1.3-.8.5-1.4.5-1.1-.2-1.4-.5-.5-.8-.5-1.3Z"/>
              <path class="cls-2" d="M319.1,62.1c-1.9,0-3.5-.6-4.7-1.8s-1.8-2.8-1.8-4.7v-.3c0-1.3.3-2.5.8-3.6s1.2-1.9,2.2-2.4c.9-.6,2-.8,3.2-.8,1.8,0,3.2.6,4.3,1.7,1,1.1,1.6,2.8,1.6,4.8v1.4h-8.4c.1.9.5,1.6,1,2.1.6.5,1.3.8,2.2.8,1.4,0,2.4-.5,3.2-1.5l1.7,1.9c-.5.7-1.2,1.3-2.1,1.8s-2.1.6-3.2.6ZM318.7,51.3c-.7,0-1.3.2-1.7.7-.4.5-.7,1.2-.8,2h4.9v-.3c0-.8-.2-1.4-.6-1.8-.5-.4-1.1-.6-1.8-.6Z"/>
              <path class="cls-2" d="M333.7,58.2c0-.4-.2-.8-.6-1s-1.1-.5-2.1-.7c-3.1-.7-4.7-2-4.7-4s.5-2.2,1.5-2.9c1-.8,2.2-1.2,3.8-1.2s3,.4,4,1.2,1.5,1.8,1.5,3.1h-3.5c0-.5-.2-.9-.5-1.3-.3-.3-.8-.5-1.5-.5s-1.1,0-1.4.4c-.3.3-.5.6-.5,1s.2.7.6.9,1,.4,1.9.6,1.6.4,2.2.6c1.9.7,2.8,1.9,2.8,3.6s-.5,2.2-1.6,2.9c-1,.7-2.4,1.1-4,1.1s-2.1-.2-2.9-.6c-.9-.4-1.5-.9-2-1.6-.5-.7-.7-1.4-.7-2.2h3.3c0,.6.3,1.1.7,1.4s1,.5,1.7.5,1.2,0,1.5-.4c.3,0,.5-.4.5-.9Z"/>
            </g>
          </g>
          <g id="Lección_General_Examen_Final" data-name="Lección General Examen Final">
            <g class="cls-10">
              <path class="cls-3" d="M42.3,181h7.8v2.9h-11.4v-17.8h3.7v14.9h-.1Z"/>
              <path class="cls-3" d="M58.1,184.1c-1.9,0-3.5-.6-4.7-1.8s-1.8-2.8-1.8-4.7v-.3c0-1.3.3-2.5.8-3.6s1.2-1.9,2.2-2.4c.9-.6,2-.8,3.2-.8,1.8,0,3.2.6,4.3,1.7,1,1.1,1.6,2.8,1.6,4.8v1.4h-8.4c0,.9.5,1.6,1,2.1.6.5,1.3.8,2.2.8,1.4,0,2.4-.5,3.2-1.5l1.7,1.9c-.5.7-1.2,1.3-2.1,1.8s-2.1.6-3.2.6ZM57.7,173.3c-.7,0-1.3.2-1.7.7s-.7,1.2-.8,2h4.8v-.3c0-.8-.2-1.4-.6-1.8-.4-.4-1-.6-1.7-.6Z"/>
              <path class="cls-3" d="M71,181.3c.7,0,1.2-.2,1.6-.5.4-.4.6-.8.6-1.4h3.3c0,.9-.3,1.7-.7,2.5-.5.7-1.1,1.3-2,1.7-.8.4-1.8.6-2.8.6-1.9,0-3.4-.6-4.5-1.8s-1.6-2.9-1.6-5v-.2c0-2,.5-3.7,1.6-4.9s2.6-1.8,4.5-1.8,3,.5,4,1.4,1.5,2.2,1.5,3.8h-3.3c0-.7-.2-1.2-.6-1.7-.4-.4-.9-.6-1.6-.6s-1.4.3-1.9.9c-.4.6-.6,1.6-.6,2.9v.4c0,1.4.2,2.3.6,2.9.4.5,1,.8,1.9.8Z"/>
              <path class="cls-3" d="M84,181.3c.7,0,1.2-.2,1.6-.5.4-.4.6-.8.6-1.4h3.3c0,.9-.3,1.7-.7,2.5-.5.7-1.1,1.3-2,1.7-.8.4-1.8.6-2.8.6-1.9,0-3.4-.6-4.5-1.8s-1.6-2.9-1.6-5v-.2c0-2,.5-3.7,1.6-4.9s2.6-1.8,4.5-1.8,3,.5,4,1.4,1.5,2.2,1.5,3.8h-3.3c0-.7-.2-1.2-.6-1.7-.4-.4-.9-.6-1.6-.6s-1.4.3-1.9.9c-.4.6-.6,1.6-.6,2.9v.4c0,1.4.2,2.3.6,2.9.4.5,1.1.8,1.9.8Z"/>
              <path class="cls-3" d="M91.5,167.3c0-.5.2-1,.5-1.3.4-.3.8-.5,1.4-.5s1.1.2,1.4.5c.4.3.5.8.5,1.3s-.2,1-.5,1.3c-.4.3-.8.5-1.4.5s-1.1-.2-1.4-.5-.5-.8-.5-1.3ZM95.3,183.9h-3.5v-13.2h3.5v13.2Z"/>
              <path class="cls-3" d="M97.6,177.2c0-1.3.3-2.5.8-3.5s1.2-1.8,2.2-2.4c.9-.6,2-.8,3.3-.8s3.2.5,4.4,1.6c1.1,1.1,1.8,2.6,1.9,4.4v.9c0,2-.6,3.7-1.7,4.9s-2.6,1.8-4.6,1.8-3.4-.6-4.6-1.8c-1.1-1.2-1.7-2.9-1.7-5.1h0ZM101.2,177.4c0,1.3.2,2.2.7,2.9s1.1,1,2,1,1.5-.3,2-1,.7-1.7.7-3.1-.2-2.2-.7-2.9-1.2-1-2-1-1.5.3-2,1c-.5.7-.7,1.7-.7,3.1ZM104.6,165.1h3.8l-3.4,3.8h-2.9l2.5-3.8Z"/>
              <path class="cls-3" d="M115.6,170.7v1.5c1-1.2,2.3-1.8,3.9-1.8s2.4.4,3.1,1.2,1,2.1,1,3.7v8.5h-3.5v-8.4c0-.7-.2-1.3-.5-1.6s-.9-.5-1.6-.5c-1,0-1.7.4-2.2,1.3v9.3h-3.5v-13.2h3.3Z"/>
              <path class="cls-3" d="M146.9,181.7c-.7.8-1.6,1.4-2.8,1.8-1.2.4-2.5.7-4,.7s-2.9-.3-4-1c-1.2-.7-2.1-1.6-2.7-2.9-.6-1.3-1-2.8-1-4.5v-1.2c0-1.8.3-3.3.9-4.6.6-1.3,1.5-2.3,2.6-3s2.4-1,4-1,3.8.5,4.9,1.5c1.2,1,1.9,2.5,2.1,4.4h-3.6c-.2-1-.5-1.8-1.1-2.2-.6-.5-1.3-.7-2.3-.7s-2.2.5-2.8,1.4c-.7.9-1,2.3-1,4.2v1.1c0,1.9.4,3.3,1.1,4.2s1.7,1.4,3.1,1.4,2.4-.3,2.9-.9v-3.1h-3.3v-2.7h7v7.1h0Z"/>
              <path class="cls-3" d="M155.7,184.1c-1.9,0-3.5-.6-4.7-1.8s-1.8-2.8-1.8-4.7v-.3c0-1.3.3-2.5.8-3.6s1.2-1.9,2.2-2.4c.9-.6,2-.8,3.2-.8,1.8,0,3.2.6,4.3,1.7,1,1.1,1.6,2.8,1.6,4.8v1.4h-8.4c.1.9.5,1.6,1,2.1.6.5,1.3.8,2.2.8,1.4,0,2.4-.5,3.2-1.5l1.7,1.9c-.5.7-1.2,1.3-2.1,1.8s-2.1.6-3.2.6ZM155.3,173.3c-.7,0-1.3.2-1.7.7s-.7,1.2-.8,2h4.9v-.3c0-.8-.2-1.4-.6-1.8-.5-.4-1.1-.6-1.8-.6Z"/>
              <path class="cls-3" d="M166.4,170.7v1.5c1-1.2,2.3-1.8,3.9-1.8s2.4.4,3.1,1.2c.7.8,1,2.1,1,3.7v8.5h-3.5v-8.4c0-.7-.2-1.3-.5-1.6s-.9-.5-1.6-.5c-1,0-1.7.4-2.2,1.3v9.3h-3.6v-13.2h3.4Z"/>
              <path class="cls-3" d="M183.2,184.1c-1.9,0-3.5-.6-4.7-1.8s-1.8-2.8-1.8-4.7v-.3c0-1.3.3-2.5.8-3.6s1.2-1.9,2.2-2.4c.9-.6,2-.8,3.2-.8,1.8,0,3.2.6,4.3,1.7,1,1.1,1.6,2.8,1.6,4.8v1.4h-8.4c.1.9.5,1.6,1,2.1.6.5,1.3.8,2.2.8,1.4,0,2.4-.5,3.2-1.5l1.7,1.9c-.5.7-1.2,1.3-2.1,1.8s-2.1.6-3.2.6ZM182.8,173.3c-.7,0-1.3.2-1.7.7s-.7,1.2-.8,2h4.9v-.3c0-.8-.2-1.4-.6-1.8-.5-.4-1.1-.6-1.8-.6Z"/>
            </g>
            <g class="cls-10">
              <path class="cls-3" d="M198,174c-.5-.1-.9-.1-1.3-.1-1.3,0-2.2.5-2.6,1.4v8.6h-3.5v-13.2h3.3v1.6c.8-1.2,1.8-1.8,3-1.8s.8.1,1.1.2v3.3Z"/>
            </g>
            <g class="cls-10">
              <path class="cls-3" d="M207,183.9c-.2-.3-.3-.7-.4-1.2-.9,1-2,1.4-3.3,1.4s-2.4-.4-3.2-1.1c-.9-.7-1.3-1.7-1.3-2.8s.5-2.5,1.6-3.2c1-.7,2.5-1.1,4.5-1.1h1.6v-.8c0-.6-.2-1.1-.5-1.5s-.8-.5-1.5-.5-1.1.1-1.4.4-.5.7-.5,1.2h-3.5c0-.8.2-1.5.7-2.1.5-.7,1.1-1.2,2-1.5.9-.4,1.8-.6,2.9-.6,1.6,0,2.9.4,3.9,1.2s1.4,2,1.4,3.4v5.7c0,1.3.2,2.2.5,2.8v.2h-3.5ZM204.1,181.4c.5,0,1-.1,1.4-.3s.8-.5,1-.9v-2.3h-1.3c-1.8,0-2.7.6-2.8,1.8v.2c0,.4.2.8.5,1.1s.7.4,1.2.4Z"/>
              <path class="cls-3" d="M216.5,183.9h-3.5v-18.8h3.5v18.8Z"/>
            </g>
            <g class="cls-10">
              <path class="cls-3" d="M49.4,211.2h-7v4.8h8.3v2.9h-12v-17.8h11.9v3h-8.2v4.2h7s0,2.9,0,2.9Z"/>
              <path class="cls-3" d="M57.5,209.6l2.2-3.9h3.8l-3.8,6.5,3.9,6.7h-3.8l-2.4-4.2-2.3,4.2h-3.8l3.9-6.7-3.7-6.5h3.8l2.2,3.9Z"/>
              <path class="cls-3" d="M72.9,218.9c-.2-.3-.3-.7-.4-1.2-.9,1-2,1.4-3.3,1.4s-2.4-.4-3.2-1.1c-.9-.7-1.3-1.7-1.3-2.8s.5-2.5,1.6-3.2c1-.7,2.5-1.1,4.5-1.1h1.6v-.8c0-.6-.2-1.1-.5-1.5s-.8-.5-1.5-.5-1.1.1-1.4.4c-.3.3-.5.7-.5,1.2h-3.5c0-.8.2-1.5.7-2.1.5-.7,1.1-1.2,2-1.5.9-.4,1.8-.6,2.9-.6,1.6,0,2.9.4,3.9,1.2s1.4,2,1.4,3.4v5.7c0,1.3.2,2.2.5,2.8v.2h-3.5ZM70,216.4c.5,0,1-.1,1.4-.3s.8-.5,1-.9v-2.3h-1.3c-1.8,0-2.7.6-2.8,1.8v.2c0,.4.2.8.5,1.1.2.3.6.4,1.2.4Z"/>
              <path class="cls-3" d="M81.9,205.7v1.5c1-1.1,2.3-1.7,3.9-1.7s2.9.7,3.5,2c.9-1.3,2.2-2,4-2s2.5.4,3.2,1.3c.7.8,1,2.1,1,3.8v8.4h-3.5v-8.4c0-.7,0-1.3-.4-1.6s-.8-.5-1.6-.5-1.8.5-2.2,1.5v9.1h-3.5v-8.4c0-.8-.2-1.3-.5-1.7-.3-.3-.8-.5-1.5-.5-1,0-1.7.4-2.2,1.2v9.3h-3.5v-13.2h3.3s0-.1,0-.1Z"/>
              <path class="cls-3" d="M106.4,219.1c-1.9,0-3.5-.6-4.7-1.8s-1.8-2.8-1.8-4.7v-.3c0-1.3.3-2.5.8-3.6s1.2-1.9,2.2-2.4c.9-.6,2-.8,3.2-.8,1.8,0,3.2.6,4.3,1.7,1,1.1,1.6,2.8,1.6,4.8v1.4h-8.4c0,.9.5,1.6,1,2.1.6.5,1.3.8,2.2.8,1.4,0,2.4-.5,3.2-1.5l1.7,1.9c-.5.7-1.2,1.3-2.1,1.8s-2.1.6-3.2.6ZM105.9,208.3c-.7,0-1.3.2-1.7.7-.4.5-.7,1.2-.8,2h4.9v-.3c0-.8-.2-1.4-.6-1.8-.4-.4-1-.6-1.8-.6Z"/>
              <path class="cls-3" d="M117,205.7v1.5c1-1.2,2.3-1.8,3.9-1.8s2.4.4,3.1,1.2,1,2.1,1,3.7v8.5h-3.5v-8.4c0-.7-.2-1.3-.5-1.6s-.9-.5-1.6-.5c-1,0-1.7.4-2.2,1.3v9.3h-3.5v-13.2h3.3Z"/>
              <path class="cls-3" d="M144.9,211.6h-7v7.3h-3.7v-17.8h11.6v3h-7.9v4.6h7v2.9h0Z"/>
              <path class="cls-3" d="M147.7,202.3c0-.5.2-1,.5-1.3.4-.3.8-.5,1.4-.5s1.1.2,1.4.5c.4.3.5.8.5,1.3s-.2,1-.5,1.3c-.4.3-.8.5-1.4.5s-1.1-.2-1.4-.5c-.3-.3-.5-.8-.5-1.3ZM151.4,218.9h-3.5v-13.2h3.5v13.2Z"/>
              <path class="cls-3" d="M157.6,205.7v1.5c1-1.2,2.3-1.8,3.9-1.8s2.4.4,3.1,1.2c.7.8,1,2.1,1,3.7v8.5h-3.5v-8.4c0-.7-.2-1.3-.5-1.6s-.9-.5-1.6-.5c-1,0-1.7.4-2.2,1.3v9.3h-3.5v-13.2h3.3Z"/>
              <path class="cls-3" d="M176,218.9c-.2-.3-.3-.7-.4-1.2-.9,1-2,1.4-3.3,1.4s-2.4-.4-3.2-1.1c-.9-.7-1.3-1.7-1.3-2.8s.5-2.5,1.6-3.2c1-.7,2.5-1.1,4.5-1.1h1.6v-.8c0-.6-.2-1.1-.5-1.5s-.8-.5-1.5-.5-1.1.1-1.4.4-.5.7-.5,1.2h-3.5c0-.8.2-1.5.7-2.1.5-.7,1.1-1.2,2-1.5.9-.4,1.8-.6,2.9-.6,1.6,0,2.9.4,3.9,1.2s1.4,2,1.4,3.4v5.7c0,1.3.2,2.2.5,2.8v.2h-3.5ZM173.1,216.4c.5,0,1-.1,1.4-.3s.8-.5,1-.9v-2.3h-1.3c-1.8,0-2.7.6-2.8,1.8v.2c0,.4.2.8.5,1.1.2.3.6.4,1.2.4Z"/>
              <path class="cls-3" d="M185.5,218.9h-3.5v-18.8h3.5v18.8Z"/>
            </g>
          </g>
          <g id="question-circle-fill">
            <path id="question-circle-fill-2" class="cls-2" d="M365.6,51.9c0,4.4-3.6,8-8,8s-8-3.6-8-8,3.6-8,8-8,8,3.6,8,8ZM355.1,49.9h.8c.1,0,.2,0,.3-.2.1-.7.7-1.2,1.3-1.1.6,0,1.2.4,1.3,1v.2c0,.6-.4.9-1,1.4-.7.4-1.2,1.2-1.2,2v.2c0,0,.1.2.2.2h.8c.1,0,.2,0,.2-.2h0c0-.8.3-1,1-1.6.8-.4,1.2-1.2,1.2-2.1,0-1.5-1.3-2.2-2.7-2.2-1.4-.2-2.6.8-2.7,2.2h0c.2,0,.3.2.5.2q-.1,0,0,0h0ZM357.4,56.4c.5,0,1-.3,1-.8s-.3-1-.8-1h-.2c-.5,0-1,.3-1,.9s.4,1,.9,1c0-.1.1-.1.1-.1h0Z"/>
          </g>
          <g class="cls-10">
            <path class="cls-3" d="M195.7,100.3l-13.7,31.6h-7.4l13.8-29.9h-17.7v-5.7h25.1v4s-.1,0-.1,0Z"/>
            <path class="cls-3" d="M224.1,117.2c0,4.9-1,8.7-3.1,11.3-2,2.6-5,3.9-8.9,3.9s-6.8-1.3-8.9-3.8c-2.1-2.6-3.1-6.2-3.1-11v-6.6c0-5,1-8.7,3.1-11.3,2.1-2.6,5-3.9,8.9-3.9s6.8,1.3,8.9,3.8c2.1,2.5,3.1,6.2,3.1,11v6.6ZM217.1,110c0-2.9-.4-5.1-1.2-6.4s-2.1-2-3.8-2-2.9.6-3.7,1.9-1.2,3.3-1.3,6v8.7c0,2.9.4,5.1,1.2,6.5s2.1,2.1,3.8,2.1,3-.7,3.7-2c.8-1.4,1.2-3.4,1.2-6.2v-8.6h.1Z"/>
            <path class="cls-3" d="M228.8,103.2c0-2.2.7-4,2.1-5.3,1.4-1.4,3.3-2,5.6-2s4.2.7,5.6,2c1.4,1.3,2.1,3.2,2.1,5.5v1.8c0,2.2-.7,4-2.1,5.3-1.4,1.3-3.3,2-5.6,2s-4.2-.7-5.6-2c-1.4-1.3-2.1-3.2-2.1-5.4v-1.9ZM233.5,105.1c0,1,.3,1.8.8,2.4.6.6,1.3.9,2.2.9s1.6-.3,2.2-.9c.5-.6.8-1.4.8-2.4v-1.8c0-1-.3-1.8-.8-2.4s-1.3-.9-2.2-.9-1.6.3-2.2.9c-.6.6-.8,1.4-.8,2.5v1.7ZM237.9,129.2l-3.4-1.9,17.4-27.8,3.4,1.9-17.4,27.8ZM245.8,123.2c0-2.2.7-4,2.1-5.3,1.4-1.3,3.3-2,5.6-2s4.2.7,5.6,2,2.1,3.2,2.1,5.5v1.8c0,2.2-.7,3.9-2.1,5.3-1.4,1.3-3.3,2-5.6,2s-4.2-.7-5.6-2c-1.4-1.4-2.1-3.1-2.1-5.4v-1.9h0ZM250.5,125.1c0,.9.3,1.7.9,2.3.6.6,1.3,1,2.2,1,2,0,3-1.1,3-3.3v-1.9c0-1-.3-1.8-.8-2.4-.6-.6-1.3-.9-2.2-.9s-1.6.3-2.2.9c-.6.6-.8,1.4-.8,2.4v1.9h0Z"/>
          </g>
          <path id="Rectángulo_1564" data-name="Rectángulo 1564" class="cls-6" d="M42.1,249.9h324.5c2.8,0,5,2.2,5,5v40c0,2.8-2.2,5-5,5H42.1c-2.8,0-5-2.2-5-5v-40c0-2.8,2.2-5,5-5Z"/>
          <g id="o_examen_de_mejoramiento" data-name="o examen de mejoramiento">
            <g class="cls-10">
              <path class="cls-4" d="M80.5,277.5c0-1,.2-2,.6-2.8s1-1.5,1.7-1.9,1.6-.7,2.6-.7,2.6.4,3.5,1.3,1.4,2.1,1.5,3.6v.7c0,1.6-.5,2.9-1.4,3.9s-2.1,1.5-3.6,1.5-2.7-.5-3.6-1.5-1.4-2.3-1.4-4h0c0-.1.1-.1.1-.1ZM83.3,277.7c0,1,.2,1.8.6,2.3s.9.8,1.6.8,1.2-.3,1.6-.8.6-1.4.6-2.5-.2-1.7-.6-2.3-.9-.8-1.6-.8-1.2.3-1.6.8-.6,1.4-.6,2.5Z"/>
              <path class="cls-4" d="M102.1,283.1c-1.5,0-2.8-.5-3.8-1.4s-1.5-2.2-1.5-3.8v-.3c0-1.1.2-2,.6-2.8s1-1.5,1.7-1.9,1.6-.7,2.6-.7,2.6.5,3.4,1.4,1.2,2.2,1.2,3.9v1.2h-6.7c0,.7.4,1.2.8,1.7s1,.6,1.7.6c1.1,0,1.9-.4,2.5-1.2l1.4,1.6c-.4.6-1,1.1-1.7,1.4s-1.3.3-2.2.3ZM101.8,274.4c-.6,0-1,.2-1.4.6-.3.4-.6.9-.7,1.6h3.9v-.2c0-.6-.2-1.1-.5-1.5-.3-.3-.7-.5-1.3-.5Z"/>
              <path class="cls-4" d="M112,275.5l1.8-3.2h3l-3,5.2,3.1,5.4h-3l-1.9-3.3-1.9,3.3h-3l3.1-5.4-3-5.2h3l1.8,3.2Z"/>
              <path class="cls-4" d="M124.3,282.9c0-.3-.2-.6-.3-.9-.7.8-1.6,1.1-2.7,1.1s-1.9-.3-2.6-.9-1-1.4-1-2.3.4-2,1.2-2.6,2-.9,3.6-.9h1.3v-.6c0-.5,0-.9-.4-1.2s-.6-.4-1.2-.4-.8.1-1.1.3-.4.5-.4.9h-2.7c0-.6.2-1.2.6-1.7s.9-.9,1.6-1.2,1.5-.4,2.3-.4c1.3,0,2.3.3,3.1,1s1.1,1.6,1.1,2.8v4.6c0,1,0,1.8.4,2.3v.2h-2.8ZM122,280.9c.4,0,.8-.1,1.2-.3s.6-.4.8-.7v-1.8h-1.1c-1.4,0-2.2.5-2.3,1.5v.2c0,.4,0,.6.4.9s.6.2,1,.2Z"/>
              <path class="cls-4" d="M131.6,272.3v1.2c.8-.9,1.9-1.4,3.1-1.4s2.3.5,2.8,1.6c.7-1.1,1.8-1.6,3.2-1.6s2,.3,2.6,1,.8,1.7.8,3v6.7h-2.8v-6.7c0-.6-.1-1-.4-1.3s-.6-.4-1.2-.4-1.4.4-1.8,1.2v7.3h-2.8v-6.7c0-.6-.1-1.1-.4-1.3s-.7-.4-1.2-.4c-.8,0-1.4.3-1.7,1v7.5h-2.8v-10.6h2.6Z"/>
              <path class="cls-4" d="M151.1,283.1c-1.5,0-2.8-.5-3.8-1.4s-1.5-2.2-1.5-3.8v-.3c0-1.1.2-2,.6-2.8s1-1.5,1.7-1.9,1.6-.7,2.6-.7,2.6.5,3.4,1.4,1.2,2.2,1.2,3.9v1.2h-6.7c.1.7.4,1.2.8,1.7s1,.6,1.7.6c1.1,0,1.9-.4,2.5-1.2l1.4,1.6c-.4.6-1,1.1-1.7,1.4s-1.3.3-2.2.3ZM150.8,274.4c-.6,0-1,.2-1.4.6-.3.4-.6.9-.7,1.6h3.9v-.2c0-.6-.2-1.1-.5-1.5-.3-.3-.7-.5-1.3-.5Z"/>
              <path class="cls-4" d="M159.6,272.3v1.2c.9-.9,1.9-1.4,3.1-1.4s2,.3,2.5,1,.8,1.6.8,2.9v6.8h-2.8v-6.8c0-.6-.1-1-.4-1.3s-.7-.4-1.3-.4-1.4.3-1.8,1v7.5h-2.7v-10.6h2.6Z"/>
              <path class="cls-4" d="M172.8,277.5c0-1.6.4-3,1.1-3.9s1.7-1.5,3-1.5,1.9.4,2.5,1.2v-5.4h2.8v15h-2.5v-1.1c-.8.9-1.7,1.3-2.8,1.3s-2.2-.5-3-1.5-1.1-2.3-1.1-4.1ZM175.6,277.7c0,1,.2,1.8.5,2.3s.8.8,1.5.8,1.5-.4,1.8-1.1v-4.2c-.4-.7-1-1.1-1.8-1.1-1.3,0-2,1.1-2,3.3Z"/>
              <path class="cls-4" d="M189.4,283.1c-1.5,0-2.8-.5-3.8-1.4s-1.5-2.2-1.5-3.8v-.3c0-1.1.2-2,.6-2.8s1-1.5,1.7-1.9,1.6-.7,2.6-.7,2.6.5,3.4,1.4,1.2,2.2,1.2,3.9v1.2h-6.6c.1.7.4,1.2.8,1.7s1,.6,1.7.6c1.1,0,1.9-.4,2.5-1.2l1.4,1.6c-.4.6-1,1.1-1.7,1.4s-1.5.3-2.3.3ZM189,274.4c-.6,0-1,.2-1.4.6-.3.4-.6.9-.7,1.6h3.9v-.2c0-.6-.2-1.1-.5-1.5-.2-.3-.7-.5-1.3-.5Z"/>
              <path class="cls-4" d="M202.9,272.3v1.2c.8-.9,1.9-1.4,3.1-1.4s2.3.5,2.8,1.6c.7-1.1,1.8-1.6,3.2-1.6s2,.3,2.6,1,.8,1.7.8,3v6.7h-2.8v-6.7c0-.6-.1-1-.4-1.3s-.6-.4-1.2-.4-1.4.4-1.8,1.2v7.3h-2.8v-6.7c0-.6-.1-1.1-.4-1.3-.2-.3-.7-.4-1.2-.4-.8,0-1.4.3-1.7,1v7.5h-2.8v-10.6h2.6,0Z"/>
              <path class="cls-4" d="M222.5,283.1c-1.5,0-2.8-.5-3.8-1.4-1-1-1.5-2.2-1.5-3.8v-.3c0-1.1.2-2,.6-2.8s1-1.5,1.7-1.9,1.6-.7,2.6-.7,2.6.5,3.4,1.4,1.2,2.2,1.2,3.9v1.2h-6.7c.1.7.4,1.2.8,1.7s1,.6,1.7.6c1.1,0,1.9-.4,2.5-1.2l1.4,1.6c-.4.6-1,1.1-1.7,1.4s-1.4.3-2.2.3ZM222.1,274.4c-.6,0-1,.2-1.4.6-.3.4-.6.9-.7,1.6h3.9v-.2c0-.6-.2-1.1-.5-1.5-.2-.3-.7-.5-1.3-.5Z"/>
              <path class="cls-4" d="M231.4,272.3v11.1c0,1.2-.3,2.1-.9,2.7-.6.6-1.5,1-2.7,1s-1-.1-1.4-.2v-2.2c.3.1.6.1.9.1.9,0,1.3-.5,1.3-1.4v-11.2h2.8,0ZM228.3,269.6c0-.4.1-.8.4-1s.7-.4,1.2-.4.9.1,1.2.4.4.6.4,1-.1.8-.4,1.1c-.3.3-.7.4-1.1.4s-.9-.1-1.1-.4c-.4-.3-.6-.7-.6-1.1Z"/>
              <path class="cls-4" d="M233.2,277.5c0-1,.2-2,.6-2.8.4-.8,1-1.5,1.7-1.9.8-.4,1.6-.7,2.6-.7s2.6.4,3.5,1.3,1.4,2.1,1.5,3.6v.7c0,1.6-.5,2.9-1.4,3.9s-2.1,1.5-3.6,1.5-2.7-.5-3.6-1.5-1.4-2.3-1.4-4h0ZM236,277.7c0,1,.2,1.8.6,2.3.4.5.9.8,1.6.8s1.2-.3,1.6-.8c.4-.5.6-1.4.6-2.5s-.2-1.7-.6-2.3c-.4-.5-.9-.8-1.6-.8s-1.2.3-1.6.8c-.4.6-.6,1.4-.6,2.5Z"/>
            </g>
            <g class="cls-10">
              <path class="cls-4" d="M250.9,275c-.4-.1-.7-.1-1-.1-1.1,0-1.8.4-2.1,1.1v6.9h-2.8v-10.6h2.7v1.3c.7-1,1.5-1.5,2.5-1.5s.6,0,.9.1l-.2,2.8Z"/>
            </g>
            <g class="cls-10">
              <path class="cls-4" d="M258,282.9c-.1-.3-.2-.6-.3-.9-.7.8-1.6,1.1-2.7,1.1s-1.9-.3-2.6-.9c-.7-.6-1-1.4-1-2.3s.4-2,1.2-2.6,2-.9,3.6-.9h1.3v-.6c0-.5-.1-.9-.4-1.2-.2-.3-.6-.4-1.2-.4s-.8.1-1.1.3c-.3.2-.4.5-.4.9h-2.8c0-.6.2-1.2.6-1.7.4-.5.9-.9,1.6-1.2.7-.3,1.5-.4,2.3-.4,1.3,0,2.3.3,3.1,1,.8.7,1.1,1.6,1.1,2.8v4.6c0,1,.1,1.8.4,2.3v.2h-2.7ZM255.7,280.9c.4,0,.8-.1,1.2-.3s.6-.4.8-.7v-1.8h-1.1c-1.4,0-2.2.5-2.3,1.5v.2c0,.4.1.6.4.9.2,0,.6.2,1,.2Z"/>
              <path class="cls-4" d="M265.3,272.3v1.2c.8-.9,1.9-1.4,3.1-1.4s2.3.5,2.8,1.6c.7-1.1,1.8-1.6,3.2-1.6s2,.3,2.6,1,.8,1.7.8,3v6.7h-2.8v-6.7c0-.6-.1-1-.4-1.3s-.6-.4-1.2-.4-1.4.4-1.8,1.2v7.3h-2.8v-6.7c0-.6-.1-1.1-.4-1.3-.2-.3-.7-.4-1.2-.4-.8,0-1.4.3-1.7,1v7.5h-2.8v-10.6h2.6,0Z"/>
              <path class="cls-4" d="M279.9,269.6c0-.4.1-.8.4-1s.7-.4,1.2-.4.9.1,1.2.4c.3.3.4.6.4,1s-.1.8-.4,1.1c-.3.3-.7.4-1.1.4s-.9-.1-1.1-.4c-.4-.3-.6-.7-.6-1.1ZM282.9,282.9h-2.8v-10.6h2.8v10.6Z"/>
              <path class="cls-4" d="M290.1,283.1c-1.5,0-2.8-.5-3.8-1.4-1-1-1.5-2.2-1.5-3.8v-.3c0-1.1.2-2,.6-2.8s1-1.5,1.7-1.9,1.6-.7,2.6-.7,2.6.5,3.4,1.4,1.2,2.2,1.2,3.9v1.2h-6.7c.1.7.4,1.2.8,1.7s1,.6,1.7.6c1.1,0,1.9-.4,2.5-1.2l1.4,1.6c-.4.6-1,1.1-1.7,1.4s-1.3.3-2.2.3ZM289.8,274.4c-.6,0-1,.2-1.4.6-.3.4-.6.9-.7,1.6h3.9v-.2c0-.6-.2-1.1-.5-1.5-.2-.3-.7-.5-1.3-.5Z"/>
              <path class="cls-4" d="M298.7,272.3v1.2c.9-.9,1.9-1.4,3.1-1.4s2,.3,2.5,1,.8,1.6.8,2.9v6.8h-2.8v-6.8c0-.6-.1-1-.4-1.3s-.7-.4-1.3-.4-1.4.3-1.8,1v7.5h-2.8v-10.6h2.7Z"/>
            </g>
            <g class="cls-10">
              <path class="cls-4" d="M310.7,269.7v2.6h1.8v2.1h-1.8v5.3c0,.4.1.7.2.8.2.2.4.3.9.3s.6,0,.8-.1v2.1c-.6.2-1.1.3-1.7.3-2,0-3-1-3-3v-5.7h-1.5v-2.1h1.5v-2.6h2.8Z"/>
            </g>
            <g class="cls-10">
              <path class="cls-4" d="M313.3,277.5c0-1,.2-2,.6-2.8s1-1.5,1.7-1.9c.8-.4,1.6-.7,2.6-.7s2.6.4,3.5,1.3,1.4,2.1,1.5,3.6v.7c0,1.6-.5,2.9-1.4,3.9s-2.1,1.5-3.6,1.5-2.7-.5-3.6-1.5-1.4-2.3-1.4-4h0ZM316.1,277.7c0,1,.2,1.8.6,2.3s.9.8,1.6.8,1.2-.3,1.6-.8.6-1.4.6-2.5-.2-1.7-.6-2.3c-.4-.5-.9-.8-1.6-.8s-1.2.3-1.6.8c-.4.6-.6,1.4-.6,2.5Z"/>
            </g>
          </g>
          <g id="Nota_final:_Nota_materia_acciones_afirmativas" data-name="Nota final: Nota materia acciones afirmativas">
            <g class="cls-10">
              <path class="cls-7" d="M49.9,352.9h-2.9l-5.7-9.4v9.4h-2.9v-14.2h2.9l5.7,9.4v-9.4h2.9v14.2Z"/>
              <path class="cls-7" d="M51.9,347.5c0-1,.2-2,.6-2.8s1-1.5,1.7-1.9,1.6-.7,2.6-.7,2.6.4,3.5,1.3,1.4,2.1,1.5,3.6v.7c0,1.6-.5,2.9-1.4,3.9s-2.1,1.5-3.6,1.5-2.7-.5-3.6-1.5-1.4-2.3-1.4-4h0c0-.1.1-.1.1-.1ZM54.7,347.7c0,1,.2,1.8.6,2.3s.9.8,1.6.8,1.2-.3,1.6-.8c.4-.5.6-1.4.6-2.5s-.2-1.7-.6-2.3-.9-.8-1.6-.8-1.2.3-1.6.8-.6,1.4-.6,2.5Z"/>
              <path class="cls-7" d="M67,339.7v2.6h1.8v2.1h-1.8v5.3c0,.4,0,.7.2.8s.4.3.9.3.6,0,.8-.1v2.1c-.6.2-1.1.3-1.7.3-2,0-3-1-3-3v-5.7h-1.5v-2.1h1.5v-2.6h2.8Z"/>
              <path class="cls-7" d="M76.5,352.9c0-.3-.2-.6-.3-.9-.7.8-1.6,1.1-2.7,1.1s-1.9-.3-2.6-.9-1-1.4-1-2.3.4-2,1.2-2.6,2-.9,3.6-.9h1.3v-.6c0-.5,0-.9-.4-1.2s-.6-.4-1.2-.4-.8.1-1.1.3-.4.5-.4.9h-2.8c0-.6.2-1.2.6-1.7s.9-.9,1.6-1.2,1.5-.4,2.3-.4c1.3,0,2.3.3,3.1,1s1.1,1.6,1.1,2.8v4.6c0,1,0,1.8.4,2.3v.2h-2.7ZM74.2,350.9c.4,0,.8-.1,1.2-.3s.6-.4.8-.7v-1.8h-1.2c-1.4,0-2.2.5-2.3,1.5v.2c0,.4,0,.6.4.9s.6.2,1.1.2Z"/>
              <path class="cls-7" d="M86.8,352.9v-8.5h-1.6v-2.1h1.6v-.9c0-1.2.3-2.1,1-2.8s1.6-1,2.9-1,.9.1,1.4.2v2.2c-.2-.1-.5-.1-.9-.1-1.1,0-1.6.5-1.6,1.5v.8h2.1v2.1h-2.1v8.5h-2.8Z"/>
              <path class="cls-7" d="M93.2,339.6c0-.4,0-.8.4-1s.7-.4,1.2-.4.9.1,1.2.4.4.6.4,1,0,.8-.4,1.1-.7.4-1.1.4-.9-.1-1.1-.4-.6-.7-.6-1.1ZM96.2,352.9h-2.8v-10.6h2.8v10.6Z"/>
              <path class="cls-7" d="M101.1,342.3v1.2c.9-.9,1.9-1.4,3.1-1.4s2,.3,2.5,1,.8,1.6.8,2.9v6.8h-2.8v-6.8c0-.6,0-1-.4-1.3s-.7-.4-1.3-.4-1.4.3-1.8,1v7.5h-2.8v-10.6h2.7Z"/>
              <path class="cls-7" d="M115.9,352.9c0-.3-.2-.6-.3-.9-.7.8-1.6,1.1-2.7,1.1s-1.9-.3-2.6-.9-1-1.4-1-2.3.4-2,1.2-2.6,2-.9,3.6-.9h1.3v-.6c0-.5,0-.9-.4-1.2s-.6-.4-1.2-.4-.8.1-1.1.3-.4.5-.4.9h-2.8c0-.6.2-1.2.6-1.7s.9-.9,1.6-1.2,1.5-.4,2.3-.4c1.3,0,2.3.3,3.1,1s1.1,1.6,1.1,2.8v4.6c0,1,0,1.8.4,2.3v.2h-2.7ZM113.5,350.9c.4,0,.8-.1,1.2-.3s.6-.4.8-.7v-1.8h-1.1c-1.4,0-2.2.5-2.3,1.5v.2c0,.4,0,.6.4.9s.6.2,1,.2Z"/>
              <path class="cls-7" d="M123.4,352.9h-2.8v-15h2.8v15Z"/>
              <path class="cls-7" d="M125.9,343.5c0-.4.2-.8.5-1.1s.7-.4,1.1-.4.8.1,1.1.4.5.6.5,1.1-.1.8-.4,1.1-.7.4-1.2.4-.8-.1-1.1-.4-.5-.6-.5-1.1ZM125.9,351.5c0-.4.2-.8.5-1.1s.7-.4,1.1-.4.8.1,1.1.4.5.6.5,1.1-.1.8-.4,1.1-.7.4-1.2.4-.8-.1-1.1-.4-.5-.6-.5-1.1Z"/>
            </g>
            <g class="cls-10">
              <path class="cls-7" d="M49.7,377.9h-1.9l-7.2-11v11h-1.9v-14.2h1.9l7.2,11v-11h1.9v14.2Z"/>
              <path class="cls-7" d="M52.2,372.5c0-1,.2-2,.6-2.8s1-1.5,1.7-1.9,1.6-.7,2.5-.7c1.4,0,2.6.5,3.5,1.5s1.3,2.3,1.3,4h0c0,1.1-.2,2.1-.6,2.9s-1,1.5-1.7,1.9-1.6.7-2.5.7c-1.4,0-2.6-.5-3.5-1.5s-1.3-2.3-1.3-4h0ZM54.1,372.7c0,1.2.3,2.1.8,2.8s1.3,1.1,2.2,1.1,1.6-.4,2.2-1.1.8-1.7.8-3-.3-2.1-.8-2.8-1.3-1.1-2.2-1.1-1.6.4-2.2,1.1-.8,1.7-.8,3Z"/>
              <path class="cls-7" d="M66.6,364.8v2.6h2v1.4h-2v6.6c0,.4,0,.7.3,1s.5.3.9.3.5,0,.9-.1v1.5c-.5.1-.9.2-1.4.2-.8,0-1.4-.2-1.8-.7s-.6-1.2-.6-2.1v-6.6h-1.9v-1.4h1.9v-2.6h1.7Z"/>
              <path class="cls-7" d="M77.2,377.9c0-.2-.2-.6-.3-1.1-.8.9-1.8,1.3-3,1.3s-1.9-.3-2.6-.9-1-1.3-1-2.2.4-2,1.3-2.6,2-.9,3.5-.9h1.8v-.8c0-.6-.2-1.1-.6-1.5s-.9-.6-1.7-.6-1.2.2-1.6.5-.7.7-.7,1.2h-1.8c0-.5.2-1,.6-1.5s.9-.9,1.5-1.2,1.3-.4,2.1-.4c1.2,0,2.2.3,2.9.9s1,1.4,1.1,2.5v4.9c0,1,0,1.7.4,2.3v.2h-1.9ZM74.2,376.5c.6,0,1.1-.1,1.6-.4s.9-.7,1.1-1.1v-2.2h-1.4c-2.2,0-3.3.6-3.3,1.9s.2,1,.6,1.3.8.5,1.4.5Z"/>
              <path class="cls-7" d="M88.2,367.3v1.2c.8-.9,1.8-1.4,3.1-1.4s2.5.6,3,1.7c.4-.5.8-.9,1.4-1.2s1.2-.5,2-.5c2.3,0,3.5,1.2,3.5,3.7v7.1h-1.8v-7c0-.8-.2-1.3-.5-1.7s-.9-.6-1.7-.6-1.2.2-1.7.6-.7.9-.8,1.6v7h-1.7v-6.8c0-1.5-.8-2.3-2.3-2.3s-2,.5-2.4,1.5v7.7h-1.8v-10.6h1.7Z"/>
              <path class="cls-7" d="M110.5,377.9c0-.2-.2-.6-.3-1.1-.8.9-1.8,1.3-3,1.3s-1.9-.3-2.6-.9-1-1.3-1-2.2.4-2,1.3-2.6,2-.9,3.5-.9h1.8v-.8c0-.6-.2-1.1-.6-1.5s-.9-.6-1.7-.6-1.2.2-1.6.5-.7.7-.7,1.2h-1.8c0-.5.2-1,.6-1.5s.9-.9,1.5-1.2,1.3-.4,2.1-.4c1.2,0,2.2.3,2.9.9s1,1.4,1.1,2.5v4.9c0,1,0,1.7.4,2.3v.2h-1.9ZM107.5,376.5c.6,0,1.1-.1,1.6-.4s.9-.7,1.1-1.1v-2.2h-1.4c-2.2,0-3.3.6-3.3,1.9s.2,1,.6,1.3.8.5,1.4.5Z"/>
              <path class="cls-7" d="M117.3,364.8v2.6h2v1.4h-2v6.6c0,.4,0,.7.3,1s.5.3.9.3.5,0,.9-.1v1.5c-.5.1-.9.2-1.4.2-.8,0-1.4-.2-1.8-.7s-.6-1.2-.6-2.1v-6.6h-1.9v-1.4h1.9v-2.6h1.7Z"/>
              <path class="cls-7" d="M125.8,378.1c-1.4,0-2.6-.5-3.5-1.4s-1.3-2.2-1.3-3.8v-.3c0-1,.2-2,.6-2.8s1-1.5,1.7-1.9,1.5-.7,2.3-.7c1.4,0,2.4.5,3.2,1.4s1.1,2.2,1.1,3.9v.8h-7.2c0,1,.3,1.9.9,2.5s1.3,1,2.2,1,1.2-.1,1.6-.4.8-.6,1.2-1l1.1.9c-.8,1.1-2.1,1.8-3.9,1.8ZM125.6,368.6c-.7,0-1.3.3-1.8.8s-.8,1.3-.9,2.2h5.3c-.1-1-.3-1.7-.7-2.2s-1.2-.8-1.9-.8Z"/>
              <path class="cls-7" d="M137.1,369c-.3,0-.6-.1-.9-.1-1.2,0-2,.5-2.4,1.5v7.5h-1.8v-10.6h1.8v1.2c.6-.9,1.4-1.4,2.5-1.4s.6,0,.8.1v1.8Z"/>
              <path class="cls-7" d="M138.8,364.5c0-.3.1-.5.3-.7s.4-.3.8-.3.6.1.8.3.3.4.3.7-.1.5-.3.7-.4.3-.8.3-.6-.1-.8-.3-.3-.4-.3-.7ZM140.8,377.9h-1.8v-10.6h1.8v10.6Z"/>
              <path class="cls-7" d="M150.2,377.9c-.1-.2-.2-.6-.3-1.1-.8.9-1.8,1.3-3,1.3s-1.9-.3-2.6-.9-1-1.3-1-2.2.4-2,1.3-2.6,2-.9,3.5-.9h1.8v-.8c0-.6-.2-1.1-.6-1.5s-.9-.6-1.7-.6-1.2.2-1.6.5-.7.7-.7,1.2h-1.8c0-.5.2-1,.6-1.5s.9-.9,1.5-1.2,1.3-.4,2.1-.4c1.2,0,2.2.3,2.9.9s1,1.4,1.1,2.5v4.9c0,1,.1,1.7.4,2.3v.2h-1.9ZM147.2,376.5c.6,0,1.1-.1,1.6-.4s.9-.7,1.1-1.1v-2.2h-1.4c-2.2,0-3.3.6-3.3,1.9s.2,1,.6,1.3.8.5,1.4.5Z"/>
              <path class="cls-7" d="M164.6,370.3h4v1.7h-4v4.5h-1.8v-4.5h-4v-1.7h4v-4.2h1.8v4.2Z"/>
              <path class="cls-7" d="M182.3,377.9c-.1-.2-.2-.6-.3-1.1-.8.9-1.8,1.3-3,1.3s-1.9-.3-2.6-.9-1-1.3-1-2.2.4-2,1.3-2.6,2-.9,3.5-.9h1.8v-.8c0-.6-.2-1.1-.6-1.5s-.9-.6-1.7-.6-1.2.2-1.6.5-.7.7-.7,1.2h-1.8c0-.5.2-1,.6-1.5s.9-.9,1.5-1.2,1.3-.4,2.1-.4c1.2,0,2.2.3,2.9.9s1,1.4,1.1,2.5v4.9c0,1,.1,1.7.4,2.3v.2h-1.9ZM179.3,376.5c.6,0,1.1-.1,1.6-.4s.9-.7,1.1-1.1v-2.2h-1.4c-2.2,0-3.3.6-3.3,1.9s.2,1,.6,1.3.8.5,1.4.5Z"/>
              <path class="cls-7" d="M190.9,376.6c.6,0,1.2-.2,1.7-.6s.7-.9.8-1.5h1.7c0,.6-.2,1.2-.6,1.7s-.9,1-1.5,1.3-1.3.5-2,.5c-1.4,0-2.6-.5-3.4-1.4s-1.3-2.3-1.3-3.9v-.3c0-1,.2-1.9.6-2.7s.9-1.4,1.6-1.9,1.5-.7,2.5-.7,2.2.4,3,1.1,1.2,1.6,1.3,2.8h-1.7c-.1-.7-.3-1.2-.8-1.7s-1-.7-1.7-.7-1.6.3-2.1,1-.8,1.6-.8,2.9v.3c0,1.2.3,2.2.8,2.8s.9,1,1.9,1Z"/>
              <path class="cls-7" d="M201.3,376.6c.6,0,1.2-.2,1.7-.6s.7-.9.8-1.5h1.7c0,.6-.2,1.2-.6,1.7s-.9,1-1.5,1.3-1.3.5-2,.5c-1.4,0-2.6-.5-3.4-1.4s-1.3-2.3-1.3-3.9v-.3c0-1,.2-1.9.6-2.7s.9-1.4,1.6-1.9,1.5-.7,2.5-.7,2.2.4,3,1.1,1.2,1.6,1.3,2.8h-1.7c-.1-.7-.3-1.2-.8-1.7s-1-.7-1.7-.7-1.6.3-2.1,1-.8,1.6-.8,2.9v.3c0,1.2.3,2.2.8,2.8s1,1,1.9,1Z"/>
              <path class="cls-7" d="M207.6,364.5c0-.3.1-.5.3-.7s.4-.3.8-.3.6.1.8.3c.2.2.3.4.3.7s-.1.5-.3.7-.4.3-.8.3-.6-.1-.8-.3c-.2-.1-.3-.4-.3-.7ZM209.5,377.9h-1.8v-10.6h1.8v10.6Z"/>
              <path class="cls-7" d="M212,372.5c0-1,.2-2,.6-2.8.4-.8,1-1.5,1.7-1.9s1.6-.7,2.5-.7c1.4,0,2.6.5,3.5,1.5s1.3,2.3,1.3,4h0c0,1.1-.2,2.1-.6,2.9-.4.8-1,1.5-1.7,1.9s-1.6.7-2.5.7c-1.4,0-2.6-.5-3.5-1.5s-1.3-2.3-1.3-4h0ZM213.8,372.7c0,1.2.3,2.1.8,2.8.5.7,1.3,1.1,2.2,1.1s1.6-.4,2.2-1.1c.5-.7.8-1.7.8-3s-.3-2.1-.8-2.8c-.5-.7-1.3-1.1-2.2-1.1s-1.6.4-2.2,1.1-.8,1.7-.8,3Z"/>
              <path class="cls-7" d="M225.5,367.3v1.3c.9-1,2-1.5,3.3-1.5,2.2,0,3.4,1.3,3.4,3.8v7h-1.8v-7c0-.8-.2-1.3-.5-1.7s-.9-.5-1.6-.5-1.1.2-1.5.5-.8.7-1,1.2v7.5h-1.8v-10.6h1.5Z"/>
              <path class="cls-7" d="M239.3,378.1c-1.4,0-2.6-.5-3.5-1.4s-1.3-2.2-1.3-3.8v-.3c0-1,.2-2,.6-2.8s1-1.5,1.7-1.9c.7-.5,1.5-.7,2.3-.7,1.4,0,2.4.5,3.2,1.4s1.1,2.2,1.1,3.9v.8h-7.2c0,1,.3,1.9.9,2.5.6.6,1.3,1,2.2,1s1.2-.1,1.6-.4c.4-.3.8-.6,1.2-1l1.1.9c-.8,1.1-2.2,1.8-3.9,1.8ZM239,368.6c-.7,0-1.3.3-1.8.8s-.8,1.3-.9,2.2h5.3c-.1-1-.3-1.7-.7-2.2-.5-.5-1.1-.8-1.9-.8Z"/>
              <path class="cls-7" d="M251.6,375.1c0-.5-.2-.9-.6-1.1-.4-.3-1-.5-1.9-.7s-1.6-.4-2.2-.7-.9-.6-1.2-1-.4-.8-.4-1.3c0-.9.4-1.6,1.1-2.2s1.7-.9,2.8-.9,2.2.3,2.9.9,1.1,1.4,1.1,2.4h-1.8c0-.5-.2-.9-.6-1.3s-.9-.5-1.6-.5-1.2.1-1.5.4-.6.7-.6,1.1.2.8.5,1,1,.4,1.9.6,1.6.4,2.2.7c.6.3,1,.6,1.2,1,.3.4.4.9.4,1.4,0,.9-.4,1.7-1.1,2.3-.8.6-1.7.9-2.9.9s-1.6-.1-2.2-.4c-.7-.3-1.2-.7-1.5-1.3-.4-.5-.6-1.1-.6-1.7h1.8c0,.6.3,1.1.7,1.4.5.4,1,.5,1.8.5s1.2-.1,1.6-.4c.5-.3.7-.6.7-1.1Z"/>
              <path class="cls-7" d="M267.3,377.9c-.1-.2-.2-.6-.3-1.1-.8.9-1.8,1.3-3,1.3s-1.9-.3-2.6-.9-1-1.3-1-2.2.4-2,1.3-2.6c.8-.6,2-.9,3.5-.9h1.8v-.8c0-.6-.2-1.1-.6-1.5s-.9-.6-1.7-.6-1.2.2-1.6.5-.7.7-.7,1.2h-1.8c0-.5.2-1,.6-1.5s.9-.9,1.5-1.2c.6-.3,1.3-.4,2.1-.4,1.2,0,2.2.3,2.9.9.7.6,1,1.4,1.1,2.5v4.9c0,1,.1,1.7.4,2.3v.2h-1.9ZM264.3,376.5c.6,0,1.1-.1,1.6-.4s.9-.7,1.1-1.1v-2.2h-1.4c-2.2,0-3.3.6-3.3,1.9s.2,1,.6,1.3c.3.4.8.5,1.4.5Z"/>
              <path class="cls-7" d="M272.5,377.9v-9.2h-1.7v-1.4h1.7v-1.1c0-1.1.3-2,.9-2.6s1.5-.9,2.6-.9.8.1,1.2.2v1.5c-.4-.1-.7-.1-1.1-.1-.6,0-1,.2-1.4.5-.3.3-.5.8-.5,1.5v1.1h2.3v1.4h-2.3v9.2h-1.7Z"/>
              <path class="cls-7" d="M278.6,364.5c0-.3.1-.5.3-.7.2-.2.4-.3.8-.3s.6.1.8.3.3.4.3.7-.1.5-.3.7c-.2.2-.4.3-.8.3s-.6-.1-.8-.3c-.2-.1-.3-.4-.3-.7ZM280.5,377.9h-1.8v-10.6h1.8v10.6Z"/>
              <path class="cls-7" d="M288.5,369c-.3,0-.6-.1-.9-.1-1.2,0-2,.5-2.4,1.5v7.5h-1.8v-10.6h1.8v1.2c.6-.9,1.4-1.4,2.5-1.4s.6,0,.8.1v1.8Z"/>
              <path class="cls-7" d="M291.9,367.3v1.2c.8-.9,1.8-1.4,3.1-1.4s2.5.6,3,1.7c.4-.5.8-.9,1.4-1.2.6-.3,1.2-.5,2-.5,2.3,0,3.5,1.2,3.5,3.7v7.1h-1.8v-7c0-.8-.2-1.3-.5-1.7-.3-.4-.9-.6-1.7-.6s-1.2.2-1.7.6c-.4.4-.7.9-.8,1.6v7h-1.8v-6.8c0-1.5-.8-2.3-2.3-2.3s-2,.5-2.4,1.5v7.7h-1.8v-10.6h1.8Z"/>
              <path class="cls-7" d="M314.2,377.9c-.1-.2-.2-.6-.3-1.1-.8.9-1.8,1.3-3,1.3s-1.9-.3-2.6-.9-1-1.3-1-2.2.4-2,1.3-2.6c.8-.6,2-.9,3.5-.9h1.8v-.8c0-.6-.2-1.1-.6-1.5s-.9-.6-1.7-.6-1.2.2-1.6.5-.7.7-.7,1.2h-1.8c0-.5.2-1,.6-1.5s.9-.9,1.5-1.2c.6-.3,1.3-.4,2.1-.4,1.2,0,2.2.3,2.9.9.7.6,1,1.4,1.1,2.5v4.9c0,1,.1,1.7.4,2.3v.2h-1.9ZM311.2,376.5c.6,0,1.1-.1,1.6-.4s.9-.7,1.1-1.1v-2.2h-1.4c-2.2,0-3.3.6-3.3,1.9s.2,1,.6,1.3c.4.4.8.5,1.4.5Z"/>
              <path class="cls-7" d="M321,364.8v2.6h2v1.4h-2v6.6c0,.4.1.7.3,1s.5.3.9.3.5,0,.9-.1v1.5c-.5.1-.9.2-1.4.2-.8,0-1.4-.2-1.8-.7s-.6-1.2-.6-2.1v-6.6h-1.9v-1.4h1.9v-2.6h1.7Z"/>
              <path class="cls-7" d="M325.1,364.5c0-.3.1-.5.3-.7.2-.2.4-.3.8-.3s.6.1.8.3.3.4.3.7-.1.5-.3.7c-.2.2-.4.3-.8.3s-.6-.1-.8-.3c-.2-.1-.3-.4-.3-.7ZM327.1,377.9h-1.8v-10.6h1.8v10.6Z"/>
            </g>
            <g class="cls-10">
              <path class="cls-7" d="M333.5,375.4l2.6-8.1h1.8l-3.8,10.6h-1.4l-3.8-10.6h1.8l2.8,8.1Z"/>
            </g>
            <g class="cls-10">
              <path class="cls-7" d="M346,377.9c-.1-.2-.2-.6-.3-1.1-.8.9-1.8,1.3-3,1.3s-1.9-.3-2.6-.9-1-1.3-1-2.2.4-2,1.3-2.6c.8-.6,2-.9,3.5-.9h1.8v-.8c0-.6-.2-1.1-.6-1.5s-.9-.6-1.7-.6-1.2.2-1.6.5-.7.7-.7,1.2h-1.8c0-.5.2-1,.6-1.5s.9-.9,1.5-1.2c.6-.3,1.3-.4,2.1-.4,1.2,0,2.2.3,2.9.9.7.6,1,1.4,1.1,2.5v4.9c0,1,.1,1.7.4,2.3v.2h-1.9ZM343,376.5c.6,0,1.1-.1,1.6-.4s.9-.7,1.1-1.1v-2.2h-1.4c-2.2,0-3.3.6-3.3,1.9s.2,1,.6,1.3c.4.4.8.5,1.4.5Z"/>
              <path class="cls-7" d="M356.5,375.1c0-.5-.2-.9-.6-1.1-.4-.3-1-.5-1.9-.7s-1.6-.4-2.2-.7-.9-.6-1.2-1c-.3-.4-.4-.8-.4-1.3,0-.9.4-1.6,1.1-2.2s1.7-.9,2.8-.9,2.2.3,2.9.9c.7.6,1.1,1.4,1.1,2.4h-1.8c0-.5-.2-.9-.6-1.3s-.9-.5-1.6-.5-1.2.1-1.5.4-.6.7-.6,1.1.2.8.5,1,1,.4,1.9.6,1.6.4,2.2.7c.6.3,1,.6,1.2,1,.3.4.4.9.4,1.4,0,.9-.4,1.7-1.1,2.3-.8.6-1.7.9-2.9.9s-1.6-.1-2.2-.4c-.7-.3-1.2-.7-1.5-1.3-.4-.5-.6-1.1-.6-1.7h1.8c0,.6.3,1.1.7,1.4.5.4,1,.5,1.8.5s1.2-.1,1.6-.4c.5-.3.7-.6.7-1.1Z"/>
            </g>
          </g>
          <path id="question-circle-fill-3" class="cls-3" d="M357.6,276.9c0,4.4-3.6,8-8,8s-8-3.6-8-8,3.6-8,8-8,8,3.6,8,8ZM347.1,274.9h.8c.1,0,.2-.1.3-.2.1-.7.7-1.2,1.3-1.1.6-.1,1.2.4,1.3,1v.2c0,.6-.4.9-1,1.4-.7.4-1.2,1.2-1.2,2v.2c0,.1.1.2.2.2h.8c.1,0,.2-.1.2-.2h0c0-.8.3-1,1-1.6.8-.4,1.2-1.2,1.2-2.1,0-1.5-1.3-2.2-2.7-2.2-1.4-.2-2.6.8-2.7,2.1h0c.2.2.3.3.5.3q-.1,0,0,0h0ZM349.4,281.4c.5,0,1-.3,1-.8s-.3-1-.8-1h-.2c-.5,0-1,.4-1,.9s.4,1,.9,1c0-.1.1-.1.1-.1h0Z"/>
        </g>
      </g>
      <rect class="cls-1" x="27" y="412.9" width="360.6" height="42.4"/>
    </g>
  </g>
  <g>
    <path class="cls-7" d="M333.5,183.9h-12.2v-2.4l5.7-6.1c.8-.9,1.4-1.6,1.8-2.3.4-.6.6-1.3.6-1.8s-.2-1.4-.6-1.9c-.4-.5-1-.7-1.7-.7s-1.4.3-1.9.8c-.5.5-.7,1.3-.7,2.2h-3.5c0-1.1.3-2.1.8-3,.5-.9,1.2-1.6,2.2-2.1.9-.5,2-.8,3.2-.8,1.8,0,3.3.4,4.3,1.3,1,.9,1.5,2.1,1.5,3.7s-.2,1.8-.7,2.7c-.5.9-1.2,2-2.3,3.2l-4,4.3h7.6v2.8Z"/>
    <path class="cls-7" d="M347.7,176.5c0,2.5-.5,4.3-1.5,5.6-1,1.3-2.5,2-4.5,2s-3.4-.6-4.4-1.9c-1-1.3-1.6-3.1-1.6-5.5v-3.3c0-2.5.5-4.4,1.5-5.7,1-1.3,2.5-1.9,4.4-1.9s3.4.6,4.4,1.9c1,1.3,1.5,3.1,1.6,5.5v3.3ZM344.1,172.9c0-1.5-.2-2.5-.6-3.2-.4-.7-1-1-1.9-1s-1.4.3-1.8,1c-.4.6-.6,1.6-.6,3v4.3c0,1.5.2,2.5.6,3.2s1,1.1,1.9,1.1,1.5-.3,1.9-1c.4-.7.6-1.7.6-3.1v-4.2Z"/>
    <path class="cls-7" d="M350,169.5c0-1.1.4-2,1.1-2.7.7-.7,1.6-1,2.8-1s2.1.3,2.8,1c.7.7,1.1,1.6,1.1,2.7v.9c0,1.1-.4,2-1.1,2.6-.7.7-1.6,1-2.8,1s-2.1-.3-2.8-1c-.7-.7-1.1-1.6-1.1-2.7v-.9ZM352.3,170.4c0,.5.1.9.4,1.2.3.3.6.4,1.1.4s.8-.2,1.1-.5c.3-.3.4-.7.4-1.2v-.9c0-.5-.1-.9-.4-1.2-.3-.3-.6-.5-1.1-.5s-.8.1-1.1.4c-.3.3-.4.7-.4,1.2v.9ZM354.6,182.5l-1.7-.9,8.7-13.9,1.7.9-8.7,13.9ZM358.5,179.5c0-1.1.4-2,1.1-2.7.7-.7,1.6-1,2.8-1s2.1.3,2.8,1c.7.7,1.1,1.6,1.1,2.7v.9c0,1.1-.3,2-1,2.6-.7.7-1.6,1-2.8,1s-2.1-.3-2.8-1c-.7-.7-1.1-1.6-1.1-2.7v-.9ZM360.8,180.4c0,.4.1.8.4,1.1s.7.5,1.1.5c1,0,1.5-.5,1.5-1.6v-.9c0-.5-.1-.9-.4-1.2-.3-.3-.6-.4-1.1-.4s-.8.1-1.1.4c-.3.3-.4.7-.4,1.2v.9Z"/>
  </g>
  <g>
    <path class="cls-7" d="M321.9,209.8l1-9h10v2.9h-7.1l-.4,3.8c.8-.4,1.7-.7,2.7-.7,1.7,0,3,.5,4,1.6s1.4,2.5,1.4,4.4-.2,2.2-.7,3.1c-.5.9-1.2,1.6-2.1,2.1-.9.5-2,.8-3.2.8s-2.1-.2-3-.7c-.9-.4-1.6-1-2.2-1.8-.5-.8-.8-1.7-.8-2.7h3.5c0,.7.3,1.3.8,1.7.4.4,1,.6,1.7.6s1.4-.3,1.8-.9c.4-.6.6-1.4.6-2.4s-.2-1.8-.7-2.3-1.2-.8-2.1-.8-1.5.2-2,.7l-.3.3-2.8-.7Z"/>
    <path class="cls-7" d="M347.7,211.2c0,2.5-.5,4.3-1.5,5.6-1,1.3-2.5,2-4.5,2s-3.4-.6-4.4-1.9c-1-1.3-1.6-3.1-1.6-5.5v-3.3c0-2.5.5-4.4,1.5-5.7,1-1.3,2.5-1.9,4.4-1.9s3.4.6,4.4,1.9c1,1.3,1.5,3.1,1.6,5.5v3.3ZM344.1,207.6c0-1.5-.2-2.5-.6-3.2-.4-.7-1-1-1.9-1s-1.4.3-1.8,1c-.4.6-.6,1.6-.6,3v4.3c0,1.5.2,2.5.6,3.2s1,1.1,1.9,1.1,1.5-.3,1.9-1c.4-.7.6-1.7.6-3.1v-4.2Z"/>
    <path class="cls-7" d="M350,204.2c0-1.1.4-2,1.1-2.7.7-.7,1.6-1,2.8-1s2.1.3,2.8,1c.7.7,1.1,1.6,1.1,2.7v.9c0,1.1-.4,2-1.1,2.6-.7.7-1.6,1-2.8,1s-2.1-.3-2.8-1c-.7-.7-1.1-1.6-1.1-2.7v-.9ZM352.3,205.1c0,.5.1.9.4,1.2.3.3.6.4,1.1.4s.8-.2,1.1-.5c.3-.3.4-.7.4-1.2v-.9c0-.5-.1-.9-.4-1.2-.3-.3-.6-.5-1.1-.5s-.8.1-1.1.4c-.3.3-.4.7-.4,1.2v.9ZM354.6,217.2l-1.7-.9,8.7-13.9,1.7.9-8.7,13.9ZM358.5,214.2c0-1.1.4-2,1.1-2.7.7-.7,1.6-1,2.8-1s2.1.3,2.8,1c.7.7,1.1,1.6,1.1,2.7v.9c0,1.1-.3,2-1,2.6-.7.7-1.6,1-2.8,1s-2.1-.3-2.8-1c-.7-.7-1.1-1.6-1.1-2.7v-.9ZM360.8,215.1c0,.4.1.8.4,1.1s.7.5,1.1.5c1,0,1.5-.5,1.5-1.6v-.9c0-.5-.1-.9-.4-1.2-.3-.3-.6-.4-1.1-.4s-.8.1-1.1.4c-.3.3-.4.7-.4,1.2v.9Z"/>
  </g>
</svg>