<?xml version="1.0" encoding="utf-8"?>
<!-- Generator: Adobe Illustrator 28.1.0, SVG Export Plug-In . SVG Version: 6.00 Build 0)  -->
<svg version="1.1" xmlns="http://www.w3.org/2000/svg" xmlns:xlink="http://www.w3.org/1999/xlink" x="0px" y="0px"
	 viewBox="0 0 410 460" style="enable-background:new 0 0 410 460;" xml:space="preserve">
<style type="text/css">
	.st0{opacity:0.6;}
	.st1{fill:url(#SVGID_1_);}
	.st2{fill:none;}
	.st3{fill:#223265;}
	.st4{fill:#3D8BBA;}
	.st5{fill:#FFFFFF;}
</style>
<g id="Capa_2">
</g>
<g id="Capa_1">
	<g id="Capa_2_00000121272198586887349060000018186057602603038375_" class="st0">
		
			<radialGradient id="SVGID_1_" cx="205" cy="-499.9094" r="202.2486" gradientTransform="matrix(1 0 0 -0.3287 0 223.6798)" gradientUnits="userSpaceOnUse">
			<stop  offset="0" style="stop-color:#000000"/>
			<stop  offset="1" style="stop-color:#000000;stop-opacity:0"/>
		</radialGradient>
		<ellipse class="st1" cx="205" cy="388" rx="204.9" ry="70.5"/>
	</g>
	<g id="Grupo_1489">
		<g>
			<g>
				<g>
					<g id="Grupo_61">
						<rect x="27" y="412.9" class="st2" width="360.6" height="42.4"/>
						<g id="Grupo_60">
							<g>
								<g>
									<g>
										<g id="Grupo_59">
											<rect x="27" y="412.9" class="st2" width="360.6" height="42.4"/>
											<g id="Grupo_58">
												<g id="Grupo_57">
													<g>
														<g>
															<g>
																<g id="Grupo_56">
																	<rect x="27" y="412.9" class="st2" width="360.6" height="42.4"/>
																	<g id="Grupo_55">
																		<g>
																			<g>
																				<g>
																					<g id="Grupo_54">
																						<path class="st2" d="M27,412.9c1.8,23.5,81.9,42.4,180.3,42.4s178.5-18.9,180.3-42.4H27z"/>
																						<g id="Grupo_53">
																							<g id="Grupo_52">
																							</g>
																						</g>
																					</g>
																				</g>
																			</g>
																		</g>
																	</g>
																</g>
															</g>
														</g>
													</g>
												</g>
											</g>
										</g>
									</g>
								</g>
							</g>
						</g>
					</g>
				</g>
			</g>
			<path id="Rectángulo_1800" class="st3" d="M27.6,342.4h351c8.3,0,15,6.7,15,15v43.5c0,8.3-6.7,15-15,15h-351
				c-8.3,0-15-6.7-15-15v-43.5C12.6,349.1,19.3,342.4,27.6,342.4z"/>
			<path id="Rectángulo_1709" class="st4" d="M34.6,5.5h338c8.3,0,15,6.7,15,15v373c0,8.3-6.7,15-15,15h-338c-8.3,0-15-6.7-15-15
				v-373C19.6,12.2,26.3,5.5,34.6,5.5z"/>
			<g id="question-circle-fill">
				<path id="question-circle-fill-2" class="st4" d="M365.6,51.9c0,4.4-3.6,8-8,8s-8-3.6-8-8s3.6-8,8-8S365.6,47.5,365.6,51.9z
					 M355.1,49.9h0.8c0.1,0,0.2-0.1,0.3-0.2c0.1-0.7,0.7-1.2,1.3-1.1c0.6-0.1,1.2,0.4,1.3,1c0,0.1,0,0.1,0,0.2c0,0.6-0.4,0.9-1,1.4
					c-0.7,0.4-1.2,1.2-1.2,2v0.2c0,0.1,0.1,0.2,0.2,0.2h0.8c0.1,0,0.2-0.1,0.2-0.2v-0.1c0-0.7,0.3-0.9,1-1.5
					c0.8-0.4,1.2-1.2,1.2-2.1c0-1.5-1.3-2.2-2.7-2.2c-1.4-0.2-2.6,0.8-2.7,2.2v0.1C354.8,49.8,354.9,49.9,355.1,49.9
					C355,49.9,355,49.9,355.1,49.9L355.1,49.9L355.1,49.9z M357.4,56.4c0.5,0,1-0.3,1-0.8s-0.3-1-0.8-1c-0.1,0-0.1,0-0.2,0
					c-0.5,0-1,0.3-1,0.9s0.4,1,0.9,1C357.3,56.4,357.4,56.4,357.4,56.4L357.4,56.4z"/>
			</g>
		</g>
	</g>
	<rect x="27" y="412.9" class="st2" width="360.6" height="42.4"/>
	<g>
		<path class="st5" d="M54.7,169.7h6.2v2.4h-9.2v-14.2h2.9V169.7z"/>
		<path class="st5" d="M62,166.6c0-1,0.2-2,0.6-2.8s1-1.5,1.7-1.9s1.6-0.7,2.6-0.7c1.4,0,2.6,0.4,3.5,1.3s1.4,2.1,1.5,3.6l0,0.7
			c0,1.6-0.5,2.9-1.4,3.9s-2.1,1.5-3.6,1.5s-2.7-0.5-3.6-1.5s-1.4-2.3-1.4-4V166.6z M64.8,166.8c0,1,0.2,1.8,0.6,2.3
			c0.4,0.5,0.9,0.8,1.6,0.8c0.7,0,1.2-0.3,1.6-0.8c0.4-0.5,0.6-1.4,0.6-2.5c0-1-0.2-1.7-0.6-2.3c-0.4-0.5-0.9-0.8-1.6-0.8
			c-0.7,0-1.2,0.3-1.6,0.8C65,164.9,64.8,165.7,64.8,166.8z"/>
		<path class="st5" d="M73.3,166.7c0-1.6,0.4-2.9,1.2-3.9s1.8-1.5,3.1-1.5c1.2,0,2.1,0.4,2.7,1.2l0.1-1H83v10.2
			c0,0.9-0.2,1.7-0.6,2.4s-1,1.2-1.8,1.6s-1.7,0.5-2.7,0.5c-0.8,0-1.5-0.2-2.3-0.5s-1.3-0.7-1.7-1.2l1.2-1.7
			c0.7,0.8,1.6,1.2,2.6,1.2c0.7,0,1.3-0.2,1.7-0.6s0.6-1,0.6-1.7v-0.6c-0.7,0.7-1.5,1.1-2.6,1.1c-1.3,0-2.3-0.5-3.1-1.5
			s-1.2-2.3-1.2-4V166.7z M76.2,166.9c0,1,0.2,1.7,0.6,2.3c0.4,0.5,0.9,0.8,1.6,0.8c0.9,0,1.5-0.3,1.8-1v-4.5c-0.4-0.6-1-1-1.8-1
			c-0.7,0-1.2,0.3-1.6,0.8S76.2,165.8,76.2,166.9z"/>
		<path class="st5" d="M91.1,164.1c-0.4-0.1-0.7-0.1-1-0.1c-1.1,0-1.8,0.4-2.1,1.1v6.9h-2.8v-10.6h2.7l0.1,1.3
			c0.6-1,1.4-1.5,2.4-1.5c0.3,0,0.6,0,0.9,0.1L91.1,164.1z"/>
		<path class="st5" d="M91.7,166.6c0-1,0.2-2,0.6-2.8s1-1.5,1.7-1.9s1.6-0.7,2.6-0.7c1.4,0,2.6,0.4,3.5,1.3s1.4,2.1,1.5,3.6l0,0.7
			c0,1.6-0.5,2.9-1.4,3.9s-2.1,1.5-3.6,1.5s-2.7-0.5-3.6-1.5s-1.4-2.3-1.4-4V166.6z M94.5,166.8c0,1,0.2,1.8,0.6,2.3
			c0.4,0.5,0.9,0.8,1.6,0.8c0.7,0,1.2-0.3,1.6-0.8c0.4-0.5,0.6-1.4,0.6-2.5c0-1-0.2-1.7-0.6-2.3c-0.4-0.5-0.9-0.8-1.6-0.8
			c-0.7,0-1.2,0.3-1.6,0.8C94.7,164.9,94.5,165.7,94.5,166.8z"/>
		<path class="st5" d="M109.1,169.1c0-0.3-0.2-0.6-0.5-0.8s-0.9-0.4-1.6-0.5c-2.5-0.5-3.8-1.6-3.8-3.2c0-0.9,0.4-1.7,1.2-2.3
			s1.8-0.9,3.1-0.9c1.3,0,2.4,0.3,3.2,0.9s1.2,1.5,1.2,2.5H109c0-0.4-0.1-0.7-0.4-1s-0.7-0.4-1.2-0.4c-0.5,0-0.8,0.1-1.1,0.3
			s-0.4,0.5-0.4,0.8c0,0.3,0.1,0.6,0.4,0.8s0.8,0.4,1.5,0.5s1.3,0.3,1.8,0.5c1.5,0.5,2.2,1.5,2.2,2.8c0,1-0.4,1.7-1.2,2.3
			s-1.9,0.9-3.2,0.9c-0.9,0-1.7-0.2-2.4-0.5s-1.2-0.7-1.6-1.3s-0.6-1.1-0.6-1.8h2.7c0,0.5,0.2,0.9,0.6,1.2s0.8,0.4,1.4,0.4
			c0.5,0,0.9-0.1,1.2-0.3S109.1,169.4,109.1,169.1z"/>
		<path class="st5" d="M118.2,166.7c0-1.6,0.4-3,1.1-3.9s1.7-1.5,3-1.5c1,0,1.9,0.4,2.5,1.2V157h2.8v15h-2.5l-0.1-1.1
			c-0.7,0.9-1.6,1.3-2.7,1.3c-1.2,0-2.2-0.5-3-1.5S118.2,168.4,118.2,166.7z M121.1,166.9c0,1,0.2,1.8,0.5,2.3
			c0.3,0.5,0.8,0.8,1.5,0.8c0.9,0,1.5-0.4,1.8-1.1v-4.2c-0.4-0.7-1-1.1-1.8-1.1C121.7,163.6,121.1,164.7,121.1,166.9z"/>
		<path class="st5" d="M134.8,172.2c-1.5,0-2.8-0.5-3.8-1.4s-1.5-2.2-1.5-3.8v-0.3c0-1.1,0.2-2,0.6-2.8s1-1.5,1.7-1.9
			s1.6-0.7,2.6-0.7c1.4,0,2.6,0.5,3.4,1.4s1.2,2.2,1.2,3.9v1.2h-6.7c0.1,0.7,0.4,1.2,0.8,1.7s1,0.6,1.7,0.6c1.1,0,1.9-0.4,2.5-1.2
			l1.4,1.6c-0.4,0.6-1,1.1-1.7,1.4S135.7,172.2,134.8,172.2z M134.5,163.5c-0.6,0-1,0.2-1.4,0.6s-0.6,0.9-0.7,1.6h3.9v-0.2
			c0-0.6-0.2-1.1-0.5-1.5S135.1,163.5,134.5,163.5z"/>
		<path class="st5" d="M148.7,172h-2.8v-15h2.8V172z"/>
		<path class="st5" d="M150.6,166.6c0-1,0.2-2,0.6-2.8s1-1.5,1.7-1.9s1.6-0.7,2.6-0.7c1.4,0,2.6,0.4,3.5,1.3s1.4,2.1,1.5,3.6l0,0.7
			c0,1.6-0.5,2.9-1.4,3.9s-2.1,1.5-3.6,1.5s-2.7-0.5-3.6-1.5s-1.4-2.3-1.4-4V166.6z M153.4,166.8c0,1,0.2,1.8,0.6,2.3
			c0.4,0.5,0.9,0.8,1.6,0.8c0.7,0,1.2-0.3,1.6-0.8c0.4-0.5,0.6-1.4,0.6-2.5c0-1-0.2-1.7-0.6-2.3c-0.4-0.5-0.9-0.8-1.6-0.8
			c-0.7,0-1.2,0.3-1.6,0.8C153.6,164.9,153.4,165.7,153.4,166.8z"/>
		<path class="st5" d="M168.1,169.1c0-0.3-0.2-0.6-0.5-0.8s-0.9-0.4-1.6-0.5c-2.5-0.5-3.8-1.6-3.8-3.2c0-0.9,0.4-1.7,1.2-2.3
			s1.8-0.9,3.1-0.9c1.3,0,2.4,0.3,3.2,0.9s1.2,1.5,1.2,2.5H168c0-0.4-0.1-0.7-0.4-1s-0.7-0.4-1.2-0.4c-0.5,0-0.8,0.1-1.1,0.3
			s-0.4,0.5-0.4,0.8c0,0.3,0.1,0.6,0.4,0.8s0.8,0.4,1.5,0.5s1.3,0.3,1.8,0.5c1.5,0.5,2.2,1.5,2.2,2.8c0,1-0.4,1.7-1.2,2.3
			s-1.9,0.9-3.2,0.9c-0.9,0-1.7-0.2-2.4-0.5s-1.2-0.7-1.6-1.3s-0.6-1.1-0.6-1.8h2.7c0,0.5,0.2,0.9,0.6,1.2s0.8,0.4,1.4,0.4
			c0.5,0,0.9-0.1,1.2-0.3S168.1,169.4,168.1,169.1z"/>
		<path class="st5" d="M183.7,172c-0.1-0.3-0.2-0.6-0.3-0.9c-0.7,0.8-1.6,1.1-2.7,1.1c-1,0-1.9-0.3-2.6-0.9s-1-1.4-1-2.3
			c0-1.1,0.4-2,1.2-2.6s2-0.9,3.6-0.9h1.3V165c0-0.5-0.1-0.9-0.4-1.2s-0.6-0.4-1.2-0.4c-0.5,0-0.8,0.1-1.1,0.3s-0.4,0.5-0.4,0.9
			h-2.8c0-0.6,0.2-1.2,0.6-1.7s0.9-0.9,1.6-1.2s1.5-0.4,2.3-0.4c1.3,0,2.3,0.3,3.1,1s1.1,1.6,1.1,2.8v4.6c0,1,0.1,1.8,0.4,2.3v0.2
			H183.7z M181.4,170.1c0.4,0,0.8-0.1,1.2-0.3s0.6-0.4,0.8-0.7v-1.8h-1.1c-1.4,0-2.2,0.5-2.3,1.5l0,0.2c0,0.4,0.1,0.6,0.4,0.9
			S181,170.1,181.4,170.1z"/>
		<path class="st5" d="M197.8,166.8c0,1.6-0.4,2.9-1.1,3.9s-1.7,1.5-3,1.5c-1.1,0-1.9-0.4-2.6-1.1v5h-2.8v-14.6h2.6l0.1,1
			c0.7-0.8,1.6-1.2,2.7-1.2c1.3,0,2.3,0.5,3,1.4s1.1,2.3,1.1,4V166.8z M195,166.6c0-1-0.2-1.7-0.5-2.3s-0.9-0.8-1.5-0.8
			c-0.9,0-1.5,0.3-1.8,1v4.3c0.3,0.7,1,1,1.8,1C194.3,169.9,195,168.8,195,166.6z"/>
		<path class="st5" d="M205.5,164.1c-0.4-0.1-0.7-0.1-1-0.1c-1.1,0-1.8,0.4-2.1,1.1v6.9h-2.8v-10.6h2.7l0.1,1.3
			c0.6-1,1.4-1.5,2.4-1.5c0.3,0,0.6,0,0.9,0.1L205.5,164.1z"/>
		<path class="st5" d="M211.6,172.2c-1.5,0-2.8-0.5-3.8-1.4c-1-1-1.5-2.2-1.5-3.8v-0.3c0-1.1,0.2-2,0.6-2.8s1-1.5,1.7-1.9
			s1.6-0.7,2.6-0.7c1.4,0,2.6,0.5,3.4,1.4c0.8,0.9,1.2,2.2,1.2,3.9v1.2h-6.7c0.1,0.7,0.4,1.2,0.8,1.7s1,0.6,1.7,0.6
			c1.1,0,1.9-0.4,2.5-1.2l1.4,1.6c-0.4,0.6-1,1.1-1.7,1.4S212.4,172.2,211.6,172.2z M211.2,163.5c-0.6,0-1,0.2-1.4,0.6
			c-0.3,0.4-0.6,0.9-0.7,1.6h3.9v-0.2c0-0.6-0.2-1.1-0.5-1.5C212.3,163.7,211.8,163.5,211.2,163.5z"/>
		<path class="st5" d="M220.1,161.5l0.1,1.2c0.8-0.9,1.8-1.4,3-1.4c1.1,0,2,0.3,2.5,1s0.8,1.6,0.8,2.9v6.8h-2.8v-6.8
			c0-0.6-0.1-1-0.4-1.3s-0.7-0.4-1.3-0.4c-0.8,0-1.4,0.3-1.8,1v7.5h-2.8v-10.6H220.1z"/>
		<path class="st5" d="M228.3,166.7c0-1.6,0.4-3,1.1-3.9s1.8-1.5,3-1.5c1,0,1.9,0.4,2.5,1.2V157h2.8v15h-2.5l-0.1-1.1
			c-0.7,0.9-1.6,1.3-2.7,1.3c-1.2,0-2.2-0.5-3-1.5S228.3,168.4,228.3,166.7z M231.1,166.9c0,1,0.2,1.8,0.5,2.3
			c0.3,0.5,0.8,0.8,1.5,0.8c0.9,0,1.5-0.4,1.8-1.1v-4.2c-0.4-0.7-1-1.1-1.8-1.1C231.8,163.6,231.1,164.7,231.1,166.9z"/>
		<path class="st5" d="M240,158.7c0-0.4,0.1-0.8,0.4-1s0.7-0.4,1.2-0.4c0.5,0,0.9,0.1,1.2,0.4s0.4,0.6,0.4,1c0,0.4-0.1,0.8-0.4,1.1
			s-0.7,0.4-1.1,0.4s-0.9-0.1-1.1-0.4S240,159.2,240,158.7z M243,172h-2.8v-10.6h2.8V172z"/>
		<path class="st5" d="M248.5,169.8h5.2v2.3h-8.8v-1.7l5-6.6h-4.8v-2.3h8.5v1.7L248.5,169.8z"/>
		<path class="st5" d="M261.6,172c-0.1-0.3-0.2-0.6-0.3-0.9c-0.7,0.8-1.6,1.1-2.7,1.1c-1,0-1.9-0.3-2.6-0.9s-1-1.4-1-2.3
			c0-1.1,0.4-2,1.2-2.6s2-0.9,3.6-0.9h1.3V165c0-0.5-0.1-0.9-0.4-1.2s-0.6-0.4-1.2-0.4c-0.5,0-0.8,0.1-1.1,0.3s-0.4,0.5-0.4,0.9
			h-2.8c0-0.6,0.2-1.2,0.6-1.7s0.9-0.9,1.6-1.2s1.5-0.4,2.3-0.4c1.3,0,2.3,0.3,3.1,1s1.1,1.6,1.1,2.8v4.6c0,1,0.1,1.8,0.4,2.3v0.2
			H261.6z M259.2,170.1c0.4,0,0.8-0.1,1.2-0.3s0.6-0.4,0.8-0.7v-1.8h-1.1c-1.4,0-2.2,0.5-2.3,1.5l0,0.2c0,0.4,0.1,0.6,0.4,0.9
			S258.8,170.1,259.2,170.1z"/>
		<path class="st5" d="M269.2,161.5v11.1c0,1.2-0.3,2.1-0.9,2.7s-1.5,1-2.7,1c-0.5,0-1-0.1-1.4-0.2v-2.2c0.3,0.1,0.6,0.1,0.9,0.1
			c0.9,0,1.3-0.5,1.3-1.4v-11.2H269.2z M266.1,158.7c0-0.4,0.1-0.8,0.4-1s0.7-0.4,1.2-0.4s0.9,0.1,1.2,0.4s0.4,0.6,0.4,1
			c0,0.4-0.1,0.8-0.4,1.1s-0.7,0.4-1.1,0.4s-0.9-0.1-1.1-0.4S266.1,159.2,266.1,158.7z"/>
		<path class="st5" d="M276.2,172.2c-1.5,0-2.8-0.5-3.8-1.4s-1.5-2.2-1.5-3.8v-0.3c0-1.1,0.2-2,0.6-2.8s1-1.5,1.7-1.9
			s1.6-0.7,2.6-0.7c1.4,0,2.6,0.5,3.4,1.4s1.2,2.2,1.2,3.9v1.2h-6.7c0.1,0.7,0.4,1.2,0.8,1.7s1,0.6,1.7,0.6c1.1,0,1.9-0.4,2.5-1.2
			l1.4,1.6c-0.4,0.6-1,1.1-1.7,1.4S277.1,172.2,276.2,172.2z M275.9,163.5c-0.6,0-1,0.2-1.4,0.6s-0.6,0.9-0.7,1.6h3.9v-0.2
			c0-0.6-0.2-1.1-0.5-1.5S276.5,163.5,275.9,163.5z"/>
		<path class="st5" d="M287.9,169.1c0-0.3-0.2-0.6-0.5-0.8s-0.9-0.4-1.6-0.5c-2.5-0.5-3.8-1.6-3.8-3.2c0-0.9,0.4-1.7,1.2-2.3
			s1.8-0.9,3.1-0.9c1.3,0,2.4,0.3,3.2,0.9s1.2,1.5,1.2,2.5h-2.8c0-0.4-0.1-0.7-0.4-1s-0.7-0.4-1.2-0.4c-0.5,0-0.8,0.1-1.1,0.3
			s-0.4,0.5-0.4,0.8c0,0.3,0.1,0.6,0.4,0.8s0.8,0.4,1.5,0.5s1.3,0.3,1.8,0.5c1.5,0.5,2.2,1.5,2.2,2.8c0,1-0.4,1.7-1.2,2.3
			s-1.9,0.9-3.2,0.9c-0.9,0-1.7-0.2-2.4-0.5s-1.2-0.7-1.6-1.3s-0.6-1.1-0.6-1.8h2.7c0,0.5,0.2,0.9,0.6,1.2s0.8,0.4,1.4,0.4
			c0.5,0,0.9-0.1,1.2-0.3S287.9,169.4,287.9,169.1z"/>
		<path class="st5" d="M292.6,162.6c0-0.4,0.2-0.8,0.5-1.1s0.7-0.4,1.1-0.4c0.5,0,0.8,0.1,1.1,0.4s0.5,0.6,0.5,1.1
			c0,0.4-0.1,0.8-0.4,1.1s-0.7,0.4-1.2,0.4c-0.5,0-0.8-0.1-1.1-0.4S292.6,163.1,292.6,162.6z M292.6,170.6c0-0.4,0.2-0.8,0.5-1.1
			s0.7-0.4,1.1-0.4c0.5,0,0.8,0.1,1.1,0.4s0.5,0.6,0.5,1.1c0,0.4-0.1,0.8-0.4,1.1s-0.7,0.4-1.2,0.4c-0.5,0-0.8-0.1-1.1-0.4
			S292.6,171.1,292.6,170.6z"/>
		<path class="st5" d="M56.4,213.7c-1.6-0.5-2.8-1-3.5-1.7s-1.1-1.5-1.1-2.5c0-1.1,0.4-2,1.3-2.8s2.1-1.1,3.5-1.1
			c1,0,1.8,0.2,2.6,0.6s1.4,0.9,1.8,1.6s0.6,1.4,0.6,2.2h-1.9c0-0.9-0.3-1.5-0.8-2c-0.5-0.5-1.3-0.7-2.3-0.7c-0.9,0-1.6,0.2-2.2,0.6
			c-0.5,0.4-0.8,1-0.8,1.7c0,0.6,0.2,1.1,0.7,1.5c0.5,0.4,1.3,0.8,2.5,1.1s2.1,0.7,2.8,1.1s1.2,0.9,1.5,1.4s0.5,1.2,0.5,1.9
			c0,1.2-0.4,2.1-1.3,2.8s-2.1,1-3.6,1c-1,0-1.9-0.2-2.7-0.6s-1.5-0.9-2-1.5s-0.7-1.4-0.7-2.2h1.9c0,0.9,0.3,1.5,1,2
			s1.5,0.7,2.5,0.7c1,0,1.7-0.2,2.3-0.6s0.8-1,0.8-1.7s-0.2-1.2-0.7-1.6S57.6,214.1,56.4,213.7z"/>
		<path class="st5" d="M63.3,214.6c0-1,0.2-2,0.6-2.8s1-1.5,1.7-1.9s1.6-0.7,2.5-0.7c1.4,0,2.6,0.5,3.5,1.5s1.3,2.3,1.3,4v0.1
			c0,1-0.2,2-0.6,2.8s-1,1.5-1.7,1.9s-1.6,0.7-2.5,0.7c-1.4,0-2.6-0.5-3.5-1.5s-1.3-2.3-1.3-4V214.6z M65.1,214.9
			c0,1.2,0.3,2.1,0.8,2.8s1.3,1.1,2.2,1.1c0.9,0,1.6-0.4,2.2-1.1s0.8-1.7,0.8-3c0-1.2-0.3-2.1-0.8-2.8s-1.3-1.1-2.2-1.1
			c-0.9,0-1.6,0.4-2.2,1.1S65.1,213.5,65.1,214.9z"/>
		<path class="st5" d="M76.9,209.5l0.1,1.3c0.8-1,1.9-1.5,3.2-1.5c2.2,0,3.4,1.3,3.4,3.8v7h-1.8v-7c0-0.8-0.2-1.3-0.5-1.7
			s-0.9-0.5-1.6-0.5c-0.6,0-1.1,0.2-1.5,0.5s-0.8,0.7-1,1.2v7.5h-1.8v-10.6H76.9z"/>
		<path class="st5" d="M94,220h-1.8v-15H94V220z"/>
		<path class="st5" d="M103.4,220c-0.1-0.2-0.2-0.6-0.3-1.1c-0.8,0.9-1.8,1.3-3,1.3c-1,0-1.9-0.3-2.6-0.9s-1-1.3-1-2.2
			c0-1.1,0.4-2,1.3-2.6s2-0.9,3.5-0.9h1.8v-0.8c0-0.6-0.2-1.1-0.6-1.5s-0.9-0.6-1.7-0.6c-0.6,0-1.2,0.2-1.6,0.5s-0.7,0.7-0.7,1.2
			h-1.8c0-0.5,0.2-1,0.6-1.5s0.9-0.9,1.5-1.2s1.3-0.4,2.1-0.4c1.2,0,2.2,0.3,2.9,0.9s1,1.4,1.1,2.5v4.9c0,1,0.1,1.7,0.4,2.3v0.2
			H103.4z M100.4,218.7c0.6,0,1.1-0.1,1.6-0.4s0.9-0.7,1.1-1.1v-2.2h-1.4c-2.2,0-3.3,0.6-3.3,1.9c0,0.6,0.2,1,0.6,1.3
			S99.9,218.7,100.4,218.7z"/>
		<path class="st5" d="M115.6,220h-1.8v-15h1.8V220z"/>
		<path class="st5" d="M122.9,220.2c-1.4,0-2.6-0.5-3.5-1.4s-1.3-2.2-1.3-3.8v-0.3c0-1,0.2-2,0.6-2.8s1-1.5,1.7-1.9s1.5-0.7,2.3-0.7
			c1.4,0,2.4,0.5,3.2,1.4s1.1,2.2,1.1,3.9v0.8h-7.2c0,1,0.3,1.9,0.9,2.5s1.3,1,2.2,1c0.6,0,1.2-0.1,1.6-0.4s0.8-0.6,1.2-1l1.1,0.9
			C126,219.5,124.7,220.2,122.9,220.2z M122.7,210.8c-0.7,0-1.3,0.3-1.8,0.8s-0.8,1.3-0.9,2.2h5.3v-0.1c-0.1-0.9-0.3-1.6-0.7-2.1
			S123.5,210.8,122.7,210.8z"/>
		<path class="st5" d="M133.4,218.7c0.6,0,1.2-0.2,1.7-0.6s0.7-0.9,0.8-1.5h1.7c0,0.6-0.2,1.2-0.6,1.7s-0.9,1-1.5,1.3
			s-1.3,0.5-2,0.5c-1.4,0-2.6-0.5-3.4-1.4s-1.3-2.3-1.3-3.9v-0.3c0-1,0.2-1.9,0.6-2.7s0.9-1.4,1.6-1.9s1.5-0.7,2.5-0.7
			c1.2,0,2.2,0.4,3,1.1s1.2,1.6,1.3,2.8h-1.7c-0.1-0.7-0.3-1.2-0.8-1.7s-1-0.7-1.7-0.7c-0.9,0-1.6,0.3-2.1,1s-0.8,1.6-0.8,2.9v0.3
			c0,1.2,0.3,2.2,0.8,2.8S132.4,218.7,133.4,218.7z"/>
		<path class="st5" d="M143.8,218.7c0.6,0,1.2-0.2,1.7-0.6s0.7-0.9,0.8-1.5h1.7c0,0.6-0.2,1.2-0.6,1.7s-0.9,1-1.5,1.3
			s-1.3,0.5-2,0.5c-1.4,0-2.6-0.5-3.4-1.4s-1.3-2.3-1.3-3.9v-0.3c0-1,0.2-1.9,0.6-2.7s0.9-1.4,1.6-1.9s1.5-0.7,2.5-0.7
			c1.2,0,2.2,0.4,3,1.1s1.2,1.6,1.3,2.8h-1.7c-0.1-0.7-0.3-1.2-0.8-1.7s-1-0.7-1.7-0.7c-0.9,0-1.6,0.3-2.1,1s-0.8,1.6-0.8,2.9v0.3
			c0,1.2,0.3,2.2,0.8,2.8S142.9,218.7,143.8,218.7z"/>
		<path class="st5" d="M150.1,206.7c0-0.3,0.1-0.5,0.3-0.7s0.4-0.3,0.8-0.3s0.6,0.1,0.8,0.3s0.3,0.4,0.3,0.7s-0.1,0.5-0.3,0.7
			s-0.4,0.3-0.8,0.3s-0.6-0.1-0.8-0.3S150.1,207,150.1,206.7z M152,220h-1.8v-10.6h1.8V220z"/>
		<path class="st5" d="M154.4,214.6c0-1,0.2-2,0.6-2.8s1-1.5,1.7-1.9s1.6-0.7,2.5-0.7c1.4,0,2.6,0.5,3.5,1.5s1.3,2.3,1.3,4v0.1
			c0,1-0.2,2-0.6,2.8s-1,1.5-1.7,1.9s-1.6,0.7-2.5,0.7c-1.4,0-2.6-0.5-3.5-1.5s-1.3-2.3-1.3-4V214.6z M156.3,214.9
			c0,1.2,0.3,2.1,0.8,2.8s1.3,1.1,2.2,1.1c0.9,0,1.6-0.4,2.2-1.1s0.8-1.7,0.8-3c0-1.2-0.3-2.1-0.8-2.8s-1.3-1.1-2.2-1.1
			c-0.9,0-1.6,0.4-2.2,1.1S156.3,213.5,156.3,214.9z M160.1,205h2.2l-2.6,2.9l-1.5,0L160.1,205z"/>
		<path class="st5" d="M168,209.5l0.1,1.3c0.8-1,1.9-1.5,3.2-1.5c2.2,0,3.4,1.3,3.4,3.8v7h-1.8v-7c0-0.8-0.2-1.3-0.5-1.7
			s-0.9-0.5-1.6-0.5c-0.6,0-1.1,0.2-1.5,0.5s-0.8,0.7-1,1.2v7.5h-1.8v-10.6H168z"/>
		<path class="st5" d="M182.8,214.7c0-1.6,0.4-3,1.1-3.9s1.8-1.5,3-1.5c1.3,0,2.3,0.5,3,1.4l0.1-1.2h1.7v10.3c0,1.4-0.4,2.4-1.2,3.2
			s-1.9,1.2-3.3,1.2c-0.8,0-1.5-0.2-2.2-0.5s-1.3-0.8-1.7-1.3l0.9-1.1c0.8,1,1.7,1.4,2.8,1.4c0.9,0,1.6-0.2,2.1-0.7s0.7-1.2,0.7-2.1
			V219c-0.7,0.8-1.7,1.2-3,1.2c-1.2,0-2.2-0.5-3-1.5S182.8,216.4,182.8,214.7z M184.6,214.9c0,1.2,0.2,2.1,0.7,2.8s1.2,1,2.1,1
			c1.1,0,2-0.5,2.5-1.6v-4.8c-0.6-1-1.4-1.5-2.5-1.5c-0.9,0-1.6,0.3-2.1,1S184.6,213.5,184.6,214.9z"/>
		<path class="st5" d="M198.8,220.2c-1.4,0-2.6-0.5-3.5-1.4s-1.3-2.2-1.3-3.8v-0.3c0-1,0.2-2,0.6-2.8s1-1.5,1.7-1.9s1.5-0.7,2.3-0.7
			c1.4,0,2.4,0.5,3.2,1.4s1.1,2.2,1.1,3.9v0.8h-7.2c0,1,0.3,1.9,0.9,2.5s1.3,1,2.2,1c0.6,0,1.2-0.1,1.6-0.4s0.8-0.6,1.2-1l1.1,0.9
			C201.9,219.5,200.6,220.2,198.8,220.2z M198.6,210.8c-0.7,0-1.3,0.3-1.8,0.8s-0.8,1.3-0.9,2.2h5.3v-0.1c-0.1-0.9-0.3-1.6-0.7-2.1
			S199.4,210.8,198.6,210.8z"/>
		<path class="st5" d="M206.8,209.5l0.1,1.3c0.8-1,1.9-1.5,3.2-1.5c2.2,0,3.4,1.3,3.4,3.8v7h-1.8v-7c0-0.8-0.2-1.3-0.5-1.7
			s-0.9-0.5-1.6-0.5c-0.6,0-1.1,0.2-1.5,0.5c-0.4,0.3-0.8,0.7-1,1.2v7.5h-1.8v-10.6H206.8z"/>
		<path class="st5" d="M220.5,220.2c-1.4,0-2.6-0.5-3.5-1.4s-1.3-2.2-1.3-3.8v-0.3c0-1,0.2-2,0.6-2.8s1-1.5,1.7-1.9
			c0.7-0.5,1.5-0.7,2.3-0.7c1.4,0,2.4,0.5,3.2,1.4s1.1,2.2,1.1,3.9v0.8h-7.2c0,1,0.3,1.9,0.9,2.5c0.6,0.6,1.3,1,2.2,1
			c0.6,0,1.2-0.1,1.6-0.4c0.4-0.3,0.8-0.6,1.2-1l1.1,0.9C223.6,219.5,222.2,220.2,220.5,220.2z M220.3,210.8c-0.7,0-1.3,0.3-1.8,0.8
			c-0.5,0.5-0.8,1.3-0.9,2.2h5.3v-0.1c-0.1-0.9-0.3-1.6-0.7-2.1C221.6,211,221,210.8,220.3,210.8z"/>
		<path class="st5" d="M231.8,211.1c-0.3,0-0.6-0.1-0.9-0.1c-1.2,0-2,0.5-2.4,1.5v7.5h-1.8v-10.6h1.8l0,1.2c0.6-0.9,1.4-1.4,2.5-1.4
			c0.4,0,0.6,0,0.8,0.1V211.1z"/>
		<path class="st5" d="M239.6,220c-0.1-0.2-0.2-0.6-0.3-1.1c-0.8,0.9-1.8,1.3-3,1.3c-1,0-1.9-0.3-2.6-0.9s-1-1.3-1-2.2
			c0-1.1,0.4-2,1.3-2.6s2-0.9,3.5-0.9h1.8v-0.8c0-0.6-0.2-1.1-0.6-1.5s-0.9-0.6-1.7-0.6c-0.6,0-1.2,0.2-1.6,0.5s-0.7,0.7-0.7,1.2
			H233c0-0.5,0.2-1,0.6-1.5s0.9-0.9,1.5-1.2s1.3-0.4,2.1-0.4c1.2,0,2.2,0.3,2.9,0.9s1,1.4,1.1,2.5v4.9c0,1,0.1,1.7,0.4,2.3v0.2
			H239.6z M236.6,218.7c0.6,0,1.1-0.1,1.6-0.4s0.9-0.7,1.1-1.1v-2.2h-1.4c-2.2,0-3.3,0.6-3.3,1.9c0,0.6,0.2,1,0.6,1.3
			S236,218.7,236.6,218.7z"/>
		<path class="st5" d="M245.9,220h-1.8v-15h1.8V220z"/>
		<path class="st5" d="M258.1,217.4l2.5-7.9h1.9l-4.2,12.2c-0.7,1.8-1.7,2.6-3.1,2.6l-0.3,0l-0.7-0.1v-1.5l0.5,0
			c0.6,0,1.1-0.1,1.4-0.4s0.6-0.7,0.8-1.4l0.4-1.1l-3.8-10.4h2L258.1,217.4z"/>
		<path class="st5" d="M274.4,220.2c-1.4,0-2.6-0.5-3.5-1.4s-1.3-2.2-1.3-3.8v-0.3c0-1,0.2-2,0.6-2.8s1-1.5,1.7-1.9s1.5-0.7,2.3-0.7
			c1.4,0,2.4,0.5,3.2,1.4s1.1,2.2,1.1,3.9v0.8h-7.2c0,1,0.3,1.9,0.9,2.5s1.3,1,2.2,1c0.6,0,1.2-0.1,1.6-0.4s0.8-0.6,1.2-1l1.1,0.9
			C277.5,219.5,276.2,220.2,274.4,220.2z M274.2,210.8c-0.7,0-1.3,0.3-1.8,0.8s-0.8,1.3-0.9,2.2h5.3v-0.1c-0.1-0.9-0.3-1.6-0.7-2.1
			S274.9,210.8,274.2,210.8z"/>
		<path class="st5" d="M282.6,220h-1.8v-15h1.8V220z"/>
		<path class="st5" d="M295.7,220.2c-1.4,0-2.6-0.5-3.5-1.4s-1.3-2.2-1.3-3.8v-0.3c0-1,0.2-2,0.6-2.8s1-1.5,1.7-1.9s1.5-0.7,2.3-0.7
			c1.4,0,2.4,0.5,3.2,1.4s1.1,2.2,1.1,3.9v0.8h-7.2c0,1,0.3,1.9,0.9,2.5s1.3,1,2.2,1c0.6,0,1.2-0.1,1.6-0.4s0.8-0.6,1.2-1l1.1,0.9
			C298.8,219.5,297.5,220.2,295.7,220.2z M295.5,210.8c-0.7,0-1.3,0.3-1.8,0.8s-0.8,1.3-0.9,2.2h5.3v-0.1c-0.1-0.9-0.3-1.6-0.7-2.1
			S296.3,210.8,295.5,210.8z"/>
		<path class="st5" d="M305.5,213.3l2.3-3.9h2.1l-3.5,5.2l3.6,5.3H308l-2.4-4l-2.4,4H301l3.6-5.3l-3.5-5.2h2.1L305.5,213.3z"/>
		<path class="st5" d="M318.4,220c-0.1-0.2-0.2-0.6-0.3-1.1c-0.8,0.9-1.8,1.3-3,1.3c-1,0-1.9-0.3-2.6-0.9s-1-1.3-1-2.2
			c0-1.1,0.4-2,1.3-2.6s2-0.9,3.5-0.9h1.8v-0.8c0-0.6-0.2-1.1-0.6-1.5s-0.9-0.6-1.7-0.6c-0.6,0-1.2,0.2-1.6,0.5s-0.7,0.7-0.7,1.2
			h-1.8c0-0.5,0.2-1,0.6-1.5s0.9-0.9,1.5-1.2s1.3-0.4,2.1-0.4c1.2,0,2.2,0.3,2.9,0.9s1,1.4,1.1,2.5v4.9c0,1,0.1,1.7,0.4,2.3v0.2
			H318.4z M315.4,218.7c0.6,0,1.1-0.1,1.6-0.4s0.9-0.7,1.1-1.1v-2.2h-1.4c-2.2,0-3.3,0.6-3.3,1.9c0,0.6,0.2,1,0.6,1.3
			S314.8,218.7,315.4,218.7z"/>
		<path class="st5" d="M324.4,209.5l0,1.2c0.8-0.9,1.8-1.4,3.1-1.4c1.5,0,2.5,0.6,3,1.7c0.4-0.5,0.8-0.9,1.4-1.2s1.2-0.5,2-0.5
			c2.3,0,3.5,1.2,3.5,3.7v7.1h-1.8v-7c0-0.8-0.2-1.3-0.5-1.7s-0.9-0.6-1.7-0.6c-0.7,0-1.2,0.2-1.7,0.6s-0.7,0.9-0.8,1.6v7h-1.8v-6.9
			c0-1.5-0.8-2.3-2.3-2.3c-1.2,0-2,0.5-2.4,1.5v7.7h-1.8v-10.6H324.4z"/>
		<path class="st5" d="M344.7,220.2c-1.4,0-2.6-0.5-3.5-1.4s-1.3-2.2-1.3-3.8v-0.3c0-1,0.2-2,0.6-2.8s1-1.5,1.7-1.9s1.5-0.7,2.3-0.7
			c1.4,0,2.4,0.5,3.2,1.4s1.1,2.2,1.1,3.9v0.8h-7.2c0,1,0.3,1.9,0.9,2.5s1.3,1,2.2,1c0.6,0,1.2-0.1,1.6-0.4s0.8-0.6,1.2-1l1.1,0.9
			C347.8,219.5,346.4,220.2,344.7,220.2z M344.4,210.8c-0.7,0-1.3,0.3-1.8,0.8s-0.8,1.3-0.9,2.2h5.3v-0.1c-0.1-0.9-0.3-1.6-0.7-2.1
			S345.2,210.8,344.4,210.8z"/>
		<path class="st5" d="M352.6,209.5l0.1,1.3c0.8-1,1.9-1.5,3.2-1.5c2.2,0,3.4,1.3,3.4,3.8v7h-1.8v-7c0-0.8-0.2-1.3-0.5-1.7
			s-0.9-0.5-1.6-0.5c-0.6,0-1.1,0.2-1.5,0.5s-0.8,0.7-1,1.2v7.5h-1.8v-10.6H352.6z"/>
		<path class="st5" d="M52.8,244v-9.2h-1.7v-1.4h1.7v-1.1c0-1.1,0.3-2,0.9-2.6s1.5-0.9,2.6-0.9c0.4,0,0.8,0.1,1.2,0.2l-0.1,1.5
			c-0.3-0.1-0.6-0.1-1-0.1c-0.6,0-1,0.2-1.4,0.5s-0.5,0.8-0.5,1.5v1.1h2.3v1.4h-2.3v9.2H52.8z"/>
		<path class="st5" d="M58.8,230.7c0-0.3,0.1-0.5,0.3-0.7s0.4-0.3,0.8-0.3s0.6,0.1,0.8,0.3s0.3,0.4,0.3,0.7s-0.1,0.5-0.3,0.7
			s-0.4,0.3-0.8,0.3s-0.6-0.1-0.8-0.3S58.8,231,58.8,230.7z M60.8,244H59v-10.6h1.8V244z"/>
		<path class="st5" d="M65.4,233.5l0.1,1.3c0.8-1,1.9-1.5,3.2-1.5c2.2,0,3.4,1.3,3.4,3.8v7h-1.8v-7c0-0.8-0.2-1.3-0.5-1.7
			c-0.3-0.4-0.9-0.5-1.6-0.5c-0.6,0-1.1,0.2-1.5,0.5s-0.8,0.7-1,1.2v7.5h-1.8v-10.6H65.4z"/>
		<path class="st5" d="M81.2,244c-0.1-0.2-0.2-0.6-0.3-1.1c-0.8,0.9-1.8,1.3-3,1.3c-1,0-1.9-0.3-2.6-0.9c-0.7-0.6-1-1.3-1-2.2
			c0-1.1,0.4-2,1.3-2.6c0.8-0.6,2-0.9,3.5-0.9H81v-0.8c0-0.6-0.2-1.1-0.6-1.5c-0.4-0.4-0.9-0.6-1.7-0.6c-0.6,0-1.2,0.2-1.6,0.5
			c-0.4,0.3-0.7,0.7-0.7,1.2h-1.8c0-0.5,0.2-1,0.6-1.5c0.4-0.5,0.9-0.9,1.5-1.2c0.6-0.3,1.3-0.4,2.1-0.4c1.2,0,2.2,0.3,2.9,0.9
			c0.7,0.6,1,1.4,1.1,2.5v4.9c0,1,0.1,1.7,0.4,2.3v0.2H81.2z M78.2,242.7c0.6,0,1.1-0.1,1.6-0.4s0.9-0.7,1.1-1.1v-2.2h-1.4
			c-2.2,0-3.3,0.6-3.3,1.9c0,0.6,0.2,1,0.6,1.3C77.2,242.5,77.6,242.7,78.2,242.7z"/>
		<path class="st5" d="M87.6,244h-1.8v-15h1.8V244z"/>
		<path class="st5" d="M90.4,246.9l-1-0.7c0.6-0.9,0.9-1.7,1-2.6v-1.6h1.8v1.4c0,0.7-0.2,1.3-0.5,2
			C91.3,245.9,90.9,246.5,90.4,246.9z"/>
		<path class="st5" d="M105.9,241.2c0-0.5-0.2-0.9-0.6-1.1c-0.4-0.3-1-0.5-1.9-0.7s-1.6-0.4-2.2-0.7s-0.9-0.6-1.2-1
			c-0.3-0.4-0.4-0.8-0.4-1.3c0-0.9,0.4-1.6,1.1-2.2c0.7-0.6,1.7-0.9,2.8-0.9c1.2,0,2.2,0.3,2.9,0.9c0.7,0.6,1.1,1.4,1.1,2.4h-1.8
			c0-0.5-0.2-0.9-0.6-1.3c-0.4-0.4-0.9-0.5-1.6-0.5c-0.7,0-1.2,0.1-1.5,0.4c-0.4,0.3-0.6,0.7-0.6,1.1c0,0.4,0.2,0.8,0.5,1
			c0.3,0.2,1,0.4,1.9,0.6c0.9,0.2,1.6,0.4,2.2,0.7c0.6,0.3,1,0.6,1.2,1c0.3,0.4,0.4,0.9,0.4,1.4c0,0.9-0.4,1.7-1.1,2.3
			c-0.8,0.6-1.7,0.9-2.9,0.9c-0.8,0-1.6-0.1-2.2-0.4c-0.7-0.3-1.2-0.7-1.5-1.3s-0.6-1.1-0.6-1.7h1.8c0,0.6,0.3,1.1,0.7,1.4
			c0.5,0.4,1,0.5,1.8,0.5c0.7,0,1.2-0.1,1.6-0.4C105.7,242.1,105.9,241.7,105.9,241.2z"/>
		<path class="st5" d="M114.4,244.2c-1.4,0-2.6-0.5-3.5-1.4c-0.9-0.9-1.3-2.2-1.3-3.8v-0.3c0-1,0.2-2,0.6-2.8c0.4-0.8,1-1.5,1.7-1.9
			c0.7-0.5,1.5-0.7,2.3-0.7c1.4,0,2.4,0.5,3.2,1.4c0.8,0.9,1.1,2.2,1.1,3.9v0.8h-7.2c0,1,0.3,1.9,0.9,2.5c0.6,0.6,1.3,1,2.2,1
			c0.6,0,1.2-0.1,1.6-0.4c0.4-0.3,0.8-0.6,1.2-1l1.1,0.9C117.5,243.5,116.2,244.2,114.4,244.2z M114.2,234.8c-0.7,0-1.3,0.3-1.8,0.8
			c-0.5,0.5-0.8,1.3-0.9,2.2h5.3v-0.1c-0.1-0.9-0.3-1.6-0.7-2.1C115.6,235,115,234.8,114.2,234.8z"/>
		<path class="st5" d="M130.4,244.2c-1.4,0-2.6-0.5-3.5-1.4c-0.9-0.9-1.3-2.2-1.3-3.8v-0.3c0-1,0.2-2,0.6-2.8c0.4-0.8,1-1.5,1.7-1.9
			c0.7-0.5,1.5-0.7,2.3-0.7c1.4,0,2.4,0.5,3.2,1.4c0.8,0.9,1.1,2.2,1.1,3.9v0.8h-7.2c0,1,0.3,1.9,0.9,2.5c0.6,0.6,1.3,1,2.2,1
			c0.6,0,1.2-0.1,1.6-0.4c0.4-0.3,0.8-0.6,1.2-1l1.1,0.9C133.5,243.5,132.2,244.2,130.4,244.2z M130.2,234.8c-0.7,0-1.3,0.3-1.8,0.8
			c-0.5,0.5-0.8,1.3-0.9,2.2h5.3v-0.1c-0.1-0.9-0.3-1.6-0.7-2.1C131.5,235,130.9,234.8,130.2,234.8z"/>
		<path class="st5" d="M140,241.6l2.6-8.1h1.8l-3.8,10.6h-1.4l-3.8-10.6h1.8L140,241.6z"/>
		<path class="st5" d="M152.6,244c-0.1-0.2-0.2-0.6-0.3-1.1c-0.8,0.9-1.8,1.3-3,1.3c-1,0-1.9-0.3-2.6-0.9c-0.7-0.6-1-1.3-1-2.2
			c0-1.1,0.4-2,1.3-2.6c0.8-0.6,2-0.9,3.5-0.9h1.8v-0.8c0-0.6-0.2-1.1-0.6-1.5c-0.4-0.4-0.9-0.6-1.7-0.6c-0.6,0-1.2,0.2-1.6,0.5
			c-0.4,0.3-0.7,0.7-0.7,1.2h-1.8c0-0.5,0.2-1,0.6-1.5c0.4-0.5,0.9-0.9,1.5-1.2c0.6-0.3,1.3-0.4,2.1-0.4c1.2,0,2.2,0.3,2.9,0.9
			c0.7,0.6,1,1.4,1.1,2.5v4.9c0,1,0.1,1.7,0.4,2.3v0.2H152.6z M149.6,242.7c0.6,0,1.1-0.1,1.6-0.4s0.9-0.7,1.1-1.1v-2.2h-1.4
			c-2.2,0-3.3,0.6-3.3,1.9c0,0.6,0.2,1,0.6,1.3C148.5,242.5,149,242.7,149.6,242.7z"/>
		<path class="st5" d="M158.9,244h-1.8v-15h1.8V244z"/>
		<path class="st5" d="M168.3,243c-0.7,0.8-1.7,1.2-3.1,1.2c-1.1,0-2-0.3-2.6-1s-0.9-1.6-0.9-2.9v-6.9h1.8v6.8c0,1.6,0.7,2.4,2,2.4
			c1.4,0,2.3-0.5,2.8-1.5v-7.7h1.8V244h-1.7L168.3,243z M166.8,229h2.2l-2.6,2.9l-1.5,0L166.8,229z"/>
		<path class="st5" d="M179.3,244c-0.1-0.2-0.2-0.6-0.3-1.1c-0.8,0.9-1.8,1.3-3,1.3c-1,0-1.9-0.3-2.6-0.9c-0.7-0.6-1-1.3-1-2.2
			c0-1.1,0.4-2,1.3-2.6c0.8-0.6,2-0.9,3.5-0.9h1.8v-0.8c0-0.6-0.2-1.1-0.6-1.5c-0.4-0.4-0.9-0.6-1.7-0.6c-0.6,0-1.2,0.2-1.6,0.5
			c-0.4,0.3-0.7,0.7-0.7,1.2h-1.8c0-0.5,0.2-1,0.6-1.5c0.4-0.5,0.9-0.9,1.5-1.2c0.6-0.3,1.3-0.4,2.1-0.4c1.2,0,2.2,0.3,2.9,0.9
			c0.7,0.6,1,1.4,1.1,2.5v4.9c0,1,0.1,1.7,0.4,2.3v0.2H179.3z M176.3,242.7c0.6,0,1.1-0.1,1.6-0.4s0.9-0.7,1.1-1.1v-2.2h-1.4
			c-2.2,0-3.3,0.6-3.3,1.9c0,0.6,0.2,1,0.6,1.3C175.2,242.5,175.7,242.7,176.3,242.7z"/>
		<path class="st5" d="M193.4,244.2c-1.4,0-2.6-0.5-3.5-1.4c-0.9-0.9-1.3-2.2-1.3-3.8v-0.3c0-1,0.2-2,0.6-2.8c0.4-0.8,1-1.5,1.7-1.9
			c0.7-0.5,1.5-0.7,2.3-0.7c1.4,0,2.4,0.5,3.2,1.4c0.8,0.9,1.1,2.2,1.1,3.9v0.8h-7.2c0,1,0.3,1.9,0.9,2.5c0.6,0.6,1.3,1,2.2,1
			c0.6,0,1.2-0.1,1.6-0.4c0.4-0.3,0.8-0.6,1.2-1l1.1,0.9C196.5,243.5,195.2,244.2,193.4,244.2z M193.2,234.8c-0.7,0-1.3,0.3-1.8,0.8
			c-0.5,0.5-0.8,1.3-0.9,2.2h5.3v-0.1c-0.1-0.9-0.3-1.6-0.7-2.1C194.6,235,194,234.8,193.2,234.8z"/>
		<path class="st5" d="M201.6,244h-1.8v-15h1.8V244z"/>
		<path class="st5" d="M212.3,230.9v2.6h2v1.4h-2v6.6c0,0.4,0.1,0.7,0.3,1s0.5,0.3,0.9,0.3c0.2,0,0.5,0,0.9-0.1v1.5
			c-0.5,0.1-0.9,0.2-1.4,0.2c-0.8,0-1.4-0.2-1.8-0.7s-0.6-1.2-0.6-2.1v-6.6h-1.9v-1.4h1.9v-2.6H212.3z"/>
		<path class="st5" d="M221.5,235.1c-0.3,0-0.6-0.1-0.9-0.1c-1.2,0-2,0.5-2.4,1.5v7.5h-1.8v-10.6h1.8l0,1.2c0.6-0.9,1.4-1.4,2.5-1.4
			c0.4,0,0.6,0,0.8,0.1V235.1z"/>
		<path class="st5" d="M229.3,244c-0.1-0.2-0.2-0.6-0.3-1.1c-0.8,0.9-1.8,1.3-3,1.3c-1,0-1.9-0.3-2.6-0.9c-0.7-0.6-1-1.3-1-2.2
			c0-1.1,0.4-2,1.3-2.6c0.8-0.6,2-0.9,3.5-0.9h1.8v-0.8c0-0.6-0.2-1.1-0.6-1.5c-0.4-0.4-0.9-0.6-1.7-0.6c-0.6,0-1.2,0.2-1.6,0.5
			c-0.4,0.3-0.7,0.7-0.7,1.2h-1.8c0-0.5,0.2-1,0.6-1.5c0.4-0.5,0.9-0.9,1.5-1.2c0.6-0.3,1.3-0.4,2.1-0.4c1.2,0,2.2,0.3,2.9,0.9
			c0.7,0.6,1,1.4,1.1,2.5v4.9c0,1,0.1,1.7,0.4,2.3v0.2H229.3z M226.3,242.7c0.6,0,1.1-0.1,1.6-0.4s0.9-0.7,1.1-1.1v-2.2h-1.4
			c-2.2,0-3.3,0.6-3.3,1.9c0,0.6,0.2,1,0.6,1.3C225.2,242.5,225.7,242.7,226.3,242.7z"/>
		<path class="st5" d="M242.6,238.9c0,1.6-0.4,2.9-1.1,3.9c-0.7,1-1.7,1.5-3,1.5c-1.3,0-2.4-0.5-3.1-1.4l-0.1,1.2h-1.7v-15h1.8v5.6
			c0.7-0.9,1.7-1.4,3-1.4s2.3,0.5,3,1.5c0.7,1,1.1,2.3,1.1,4V238.9z M240.8,238.7c0-1.2-0.2-2.2-0.7-2.9c-0.5-0.7-1.2-1-2.1-1
			c-1.2,0-2,0.6-2.6,1.7v4.6c0.6,1.1,1.4,1.7,2.6,1.7c0.9,0,1.5-0.3,2-1C240.5,241,240.8,240,240.8,238.7z"/>
		<path class="st5" d="M251.4,244c-0.1-0.2-0.2-0.6-0.3-1.1c-0.8,0.9-1.8,1.3-3,1.3c-1,0-1.9-0.3-2.6-0.9c-0.7-0.6-1-1.3-1-2.2
			c0-1.1,0.4-2,1.3-2.6c0.8-0.6,2-0.9,3.5-0.9h1.8v-0.8c0-0.6-0.2-1.1-0.6-1.5c-0.4-0.4-0.9-0.6-1.7-0.6c-0.6,0-1.2,0.2-1.6,0.5
			c-0.4,0.3-0.7,0.7-0.7,1.2h-1.8c0-0.5,0.2-1,0.6-1.5c0.4-0.5,0.9-0.9,1.5-1.2c0.6-0.3,1.3-0.4,2.1-0.4c1.2,0,2.2,0.3,2.9,0.9
			c0.7,0.6,1,1.4,1.1,2.5v4.9c0,1,0.1,1.7,0.4,2.3v0.2H251.4z M248.4,242.7c0.6,0,1.1-0.1,1.6-0.4s0.9-0.7,1.1-1.1v-2.2h-1.4
			c-2.2,0-3.3,0.6-3.3,1.9c0,0.6,0.2,1,0.6,1.3C247.3,242.5,247.8,242.7,248.4,242.7z"/>
		<path class="st5" d="M257.6,233.5v11.8c0,2-0.9,3-2.8,3c-0.4,0-0.8-0.1-1.1-0.2v-1.4c0.2,0.1,0.5,0.1,0.8,0.1
			c0.4,0,0.7-0.1,0.9-0.3c0.2-0.2,0.3-0.6,0.3-1.1v-11.8H257.6z M255.6,230.7c0-0.3,0.1-0.5,0.3-0.7s0.4-0.3,0.8-0.3
			c0.4,0,0.6,0.1,0.8,0.3s0.3,0.4,0.3,0.7s-0.1,0.5-0.3,0.7s-0.4,0.3-0.8,0.3s-0.6-0.1-0.8-0.3S255.6,231,255.6,230.7z"/>
		<path class="st5" d="M260,238.6c0-1,0.2-2,0.6-2.8c0.4-0.8,1-1.5,1.7-1.9s1.6-0.7,2.5-0.7c1.4,0,2.6,0.5,3.5,1.5s1.3,2.3,1.3,4
			v0.1c0,1-0.2,2-0.6,2.8c-0.4,0.8-1,1.5-1.7,1.9c-0.7,0.5-1.6,0.7-2.5,0.7c-1.4,0-2.6-0.5-3.5-1.5s-1.3-2.3-1.3-4V238.6z
			 M261.9,238.9c0,1.2,0.3,2.1,0.8,2.8c0.5,0.7,1.3,1.1,2.2,1.1c0.9,0,1.6-0.4,2.2-1.1c0.5-0.7,0.8-1.7,0.8-3c0-1.2-0.3-2.1-0.8-2.8
			c-0.5-0.7-1.3-1.1-2.2-1.1c-0.9,0-1.6,0.4-2.2,1.1C262.1,236.5,261.9,237.5,261.9,238.9z"/>
		<path class="st5" d="M277.3,230.7c0-0.3,0.1-0.5,0.3-0.7s0.4-0.3,0.8-0.3s0.6,0.1,0.8,0.3s0.3,0.4,0.3,0.7s-0.1,0.5-0.3,0.7
			s-0.4,0.3-0.8,0.3s-0.6-0.1-0.8-0.3S277.3,231,277.3,230.7z M279.3,244h-1.8v-10.6h1.8V244z"/>
		<path class="st5" d="M283.9,233.5l0.1,1.3c0.8-1,1.9-1.5,3.2-1.5c2.2,0,3.4,1.3,3.4,3.8v7h-1.8v-7c0-0.8-0.2-1.3-0.5-1.7
			c-0.3-0.4-0.9-0.5-1.6-0.5c-0.6,0-1.1,0.2-1.5,0.5s-0.8,0.7-1,1.2v7.5h-1.8v-10.6H283.9z"/>
		<path class="st5" d="M292.7,238.7c0-1.6,0.4-2.9,1.2-3.9s1.8-1.5,3-1.5c1.2,0,2.2,0.4,2.9,1.3V229h1.8v15H300l-0.1-1.1
			c-0.7,0.9-1.7,1.3-3,1.3c-1.2,0-2.2-0.5-3-1.5c-0.8-1-1.2-2.3-1.2-3.9V238.7z M294.6,238.9c0,1.2,0.2,2.1,0.7,2.8
			c0.5,0.7,1.2,1,2.1,1c1.1,0,2-0.5,2.5-1.5v-4.9c-0.5-1-1.4-1.5-2.5-1.5c-0.9,0-1.6,0.3-2.1,1S294.6,237.5,294.6,238.9z"/>
		<path class="st5" d="M304.5,230.7c0-0.3,0.1-0.5,0.3-0.7s0.4-0.3,0.8-0.3s0.6,0.1,0.8,0.3s0.3,0.4,0.3,0.7s-0.1,0.5-0.3,0.7
			s-0.4,0.3-0.8,0.3s-0.6-0.1-0.8-0.3S304.5,231,304.5,230.7z M306.4,244h-1.8v-10.6h1.8V244z"/>
		<path class="st5" d="M312.8,241.6l2.6-8.1h1.8l-3.8,10.6h-1.4l-3.8-10.6h1.8L312.8,241.6z"/>
		<path class="st5" d="M319,230.7c0-0.3,0.1-0.5,0.3-0.7s0.4-0.3,0.8-0.3s0.6,0.1,0.8,0.3s0.3,0.4,0.3,0.7s-0.1,0.5-0.3,0.7
			s-0.4,0.3-0.8,0.3s-0.6-0.1-0.8-0.3S319,231,319,230.7z M321,244h-1.8v-10.6h1.8V244z"/>
		<path class="st5" d="M323.4,238.7c0-1.6,0.4-2.9,1.2-3.9s1.8-1.5,3-1.5c1.2,0,2.2,0.4,2.9,1.3V229h1.8v15h-1.7l-0.1-1.1
			c-0.7,0.9-1.7,1.3-3,1.3c-1.2,0-2.2-0.5-3-1.5c-0.8-1-1.2-2.3-1.2-3.9V238.7z M325.2,238.9c0,1.2,0.2,2.1,0.7,2.8
			c0.5,0.7,1.2,1,2.1,1c1.1,0,2-0.5,2.5-1.5v-4.9c-0.5-1-1.4-1.5-2.5-1.5c-0.9,0-1.6,0.3-2.1,1S325.2,237.5,325.2,238.9z"/>
		<path class="st5" d="M341.7,243c-0.7,0.8-1.7,1.2-3.1,1.2c-1.1,0-2-0.3-2.6-1s-0.9-1.6-0.9-2.9v-6.9h1.8v6.8c0,1.6,0.7,2.4,2,2.4
			c1.4,0,2.3-0.5,2.8-1.5v-7.7h1.8V244h-1.7L341.7,243z"/>
		<path class="st5" d="M352.7,244c-0.1-0.2-0.2-0.6-0.3-1.1c-0.8,0.9-1.8,1.3-3,1.3c-1,0-1.9-0.3-2.6-0.9c-0.7-0.6-1-1.3-1-2.2
			c0-1.1,0.4-2,1.3-2.6c0.8-0.6,2-0.9,3.5-0.9h1.8v-0.8c0-0.6-0.2-1.1-0.6-1.5c-0.4-0.4-0.9-0.6-1.7-0.6c-0.6,0-1.2,0.2-1.6,0.5
			c-0.4,0.3-0.7,0.7-0.7,1.2h-1.8c0-0.5,0.2-1,0.6-1.5c0.4-0.5,0.9-0.9,1.5-1.2c0.6-0.3,1.3-0.4,2.1-0.4c1.2,0,2.2,0.3,2.9,0.9
			c0.7,0.6,1,1.4,1.1,2.5v4.9c0,1,0.1,1.7,0.4,2.3v0.2H352.7z M349.7,242.7c0.6,0,1.1-0.1,1.6-0.4s0.9-0.7,1.1-1.1v-2.2H351
			c-2.2,0-3.3,0.6-3.3,1.9c0,0.6,0.2,1,0.6,1.3C348.6,242.5,349.1,242.7,349.7,242.7z"/>
		<path class="st5" d="M359,244h-1.8v-15h1.8V244z"/>
		<path class="st5" d="M51.4,262.7c0-1.6,0.4-2.9,1.2-3.9s1.8-1.5,3-1.5c1.2,0,2.2,0.4,2.9,1.3V253h1.8v15h-1.7l-0.1-1.1
			c-0.7,0.9-1.7,1.3-3,1.3c-1.2,0-2.2-0.5-3-1.5s-1.2-2.3-1.2-3.9V262.7z M53.3,262.9c0,1.2,0.2,2.1,0.7,2.8s1.2,1,2.1,1
			c1.1,0,2-0.5,2.5-1.5v-4.9c-0.5-1-1.4-1.5-2.5-1.5c-0.9,0-1.6,0.3-2.1,1S53.3,261.5,53.3,262.9z"/>
		<path class="st5" d="M67.5,268.2c-1.4,0-2.6-0.5-3.5-1.4s-1.3-2.2-1.3-3.8v-0.3c0-1,0.2-2,0.6-2.8c0.4-0.8,1-1.5,1.7-1.9
			c0.7-0.5,1.5-0.7,2.3-0.7c1.4,0,2.4,0.5,3.2,1.4c0.8,0.9,1.1,2.2,1.1,3.9v0.8h-7.2c0,1,0.3,1.9,0.9,2.5s1.3,1,2.2,1
			c0.6,0,1.2-0.1,1.6-0.4s0.8-0.6,1.2-1l1.1,0.9C70.6,267.5,69.3,268.2,67.5,268.2z M67.3,258.8c-0.7,0-1.3,0.3-1.8,0.8
			c-0.5,0.5-0.8,1.3-0.9,2.2h5.3v-0.1c-0.1-0.9-0.3-1.6-0.7-2.1C68.7,259,68.1,258.8,67.3,258.8z"/>
		<path class="st5" d="M75.7,268h-1.8v-15h1.8V268z"/>
		<path class="st5" d="M87.9,268.2c-1.4,0-2.6-0.5-3.5-1.4s-1.3-2.2-1.3-3.8v-0.3c0-1,0.2-2,0.6-2.8c0.4-0.8,1-1.5,1.7-1.9
			c0.7-0.5,1.5-0.7,2.3-0.7c1.4,0,2.4,0.5,3.2,1.4c0.8,0.9,1.1,2.2,1.1,3.9v0.8h-7.2c0,1,0.3,1.9,0.9,2.5s1.3,1,2.2,1
			c0.6,0,1.2-0.1,1.6-0.4s0.8-0.6,1.2-1l1.1,0.9C91,267.5,89.7,268.2,87.9,268.2z M87.7,258.8c-0.7,0-1.3,0.3-1.8,0.8
			c-0.5,0.5-0.8,1.3-0.9,2.2h5.3v-0.1c-0.1-0.9-0.3-1.6-0.7-2.1C89.1,259,88.5,258.8,87.7,258.8z"/>
		<path class="st5" d="M100.3,265.2c0-0.5-0.2-0.9-0.6-1.1s-1-0.5-1.9-0.7s-1.6-0.4-2.2-0.7s-0.9-0.6-1.2-1
			c-0.3-0.4-0.4-0.8-0.4-1.3c0-0.9,0.4-1.6,1.1-2.2c0.7-0.6,1.7-0.9,2.8-0.9c1.2,0,2.2,0.3,2.9,0.9c0.7,0.6,1.1,1.4,1.1,2.4h-1.8
			c0-0.5-0.2-0.9-0.6-1.3c-0.4-0.4-0.9-0.5-1.6-0.5c-0.7,0-1.2,0.1-1.5,0.4c-0.4,0.3-0.6,0.7-0.6,1.1c0,0.4,0.2,0.8,0.5,1
			c0.3,0.2,1,0.4,1.9,0.6c0.9,0.2,1.6,0.4,2.2,0.7c0.6,0.3,1,0.6,1.2,1s0.4,0.9,0.4,1.4c0,0.9-0.4,1.7-1.1,2.3s-1.7,0.9-2.9,0.9
			c-0.8,0-1.6-0.1-2.2-0.4s-1.2-0.7-1.5-1.3s-0.6-1.1-0.6-1.7h1.8c0,0.6,0.3,1.1,0.7,1.4s1,0.5,1.8,0.5c0.7,0,1.2-0.1,1.6-0.4
			S100.3,265.7,100.3,265.2z"/>
		<path class="st5" d="M106.9,254.9v2.6h2v1.4h-2v6.6c0,0.4,0.1,0.7,0.3,1s0.5,0.3,0.9,0.3c0.2,0,0.5,0,0.9-0.1v1.5
			c-0.5,0.1-0.9,0.2-1.4,0.2c-0.8,0-1.4-0.2-1.8-0.7s-0.6-1.2-0.6-2.1v-6.6h-1.9v-1.4h1.9v-2.6H106.9z"/>
		<path class="st5" d="M117.5,267c-0.7,0.8-1.7,1.2-3.1,1.2c-1.1,0-2-0.3-2.6-1s-0.9-1.6-0.9-2.9v-6.9h1.8v6.8c0,1.6,0.7,2.4,2,2.4
			c1.4,0,2.3-0.5,2.8-1.5v-7.7h1.8V268h-1.7L117.5,267z"/>
		<path class="st5" d="M121.6,262.7c0-1.6,0.4-2.9,1.2-3.9s1.8-1.5,3-1.5c1.2,0,2.2,0.4,2.9,1.3V253h1.8v15h-1.7l-0.1-1.1
			c-0.7,0.9-1.7,1.3-3,1.3c-1.2,0-2.2-0.5-3-1.5s-1.2-2.3-1.2-3.9V262.7z M123.4,262.9c0,1.2,0.2,2.1,0.7,2.8s1.2,1,2.1,1
			c1.1,0,2-0.5,2.5-1.5v-4.9c-0.5-1-1.4-1.5-2.5-1.5c-0.9,0-1.6,0.3-2.1,1S123.4,261.5,123.4,262.9z"/>
		<path class="st5" d="M133.3,254.7c0-0.3,0.1-0.5,0.3-0.7c0.2-0.2,0.4-0.3,0.8-0.3s0.6,0.1,0.8,0.3c0.2,0.2,0.3,0.4,0.3,0.7
			s-0.1,0.5-0.3,0.7s-0.4,0.3-0.8,0.3s-0.6-0.1-0.8-0.3S133.3,255,133.3,254.7z M135.3,268h-1.8v-10.6h1.8V268z"/>
		<path class="st5" d="M144.7,268c-0.1-0.2-0.2-0.6-0.3-1.1c-0.8,0.9-1.8,1.3-3,1.3c-1,0-1.9-0.3-2.6-0.9s-1-1.3-1-2.2
			c0-1.1,0.4-2,1.3-2.6c0.8-0.6,2-0.9,3.5-0.9h1.8v-0.8c0-0.6-0.2-1.1-0.6-1.5c-0.4-0.4-0.9-0.6-1.7-0.6c-0.6,0-1.2,0.2-1.6,0.5
			c-0.4,0.3-0.7,0.7-0.7,1.2h-1.8c0-0.5,0.2-1,0.6-1.5c0.4-0.5,0.9-0.9,1.5-1.2c0.6-0.3,1.3-0.4,2.1-0.4c1.2,0,2.2,0.3,2.9,0.9
			c0.7,0.6,1,1.4,1.1,2.5v4.9c0,1,0.1,1.7,0.4,2.3v0.2H144.7z M141.7,266.7c0.6,0,1.1-0.1,1.6-0.4s0.9-0.7,1.1-1.1v-2.2H143
			c-2.2,0-3.3,0.6-3.3,1.9c0,0.6,0.2,1,0.6,1.3S141.1,266.7,141.7,266.7z"/>
		<path class="st5" d="M150.8,257.5l0.1,1.3c0.8-1,1.9-1.5,3.2-1.5c2.2,0,3.4,1.3,3.4,3.8v7h-1.8v-7c0-0.8-0.2-1.3-0.5-1.7
			c-0.3-0.4-0.9-0.5-1.6-0.5c-0.6,0-1.1,0.2-1.5,0.5s-0.8,0.7-1,1.2v7.5H149v-10.6H150.8z"/>
		<path class="st5" d="M162.5,254.9v2.6h2v1.4h-2v6.6c0,0.4,0.1,0.7,0.3,1s0.5,0.3,0.9,0.3c0.2,0,0.5,0,0.9-0.1v1.5
			c-0.5,0.1-0.9,0.2-1.4,0.2c-0.8,0-1.4-0.2-1.8-0.7s-0.6-1.2-0.6-2.1v-6.6h-1.9v-1.4h1.9v-2.6H162.5z"/>
		<path class="st5" d="M171,268.2c-1.4,0-2.6-0.5-3.5-1.4s-1.3-2.2-1.3-3.8v-0.3c0-1,0.2-2,0.6-2.8c0.4-0.8,1-1.5,1.7-1.9
			c0.7-0.5,1.5-0.7,2.3-0.7c1.4,0,2.4,0.5,3.2,1.4c0.8,0.9,1.1,2.2,1.1,3.9v0.8H168c0,1,0.3,1.9,0.9,2.5s1.3,1,2.2,1
			c0.6,0,1.2-0.1,1.6-0.4s0.8-0.6,1.2-1l1.1,0.9C174.1,267.5,172.8,268.2,171,268.2z M170.8,258.8c-0.7,0-1.3,0.3-1.8,0.8
			c-0.5,0.5-0.8,1.3-0.9,2.2h5.3v-0.1c-0.1-0.9-0.3-1.6-0.7-2.1C172.1,259,171.5,258.8,170.8,258.8z"/>
		<path class="st5" d="M177.2,267.1c0-0.3,0.1-0.6,0.3-0.8s0.5-0.3,0.8-0.3s0.7,0.1,0.8,0.3s0.3,0.5,0.3,0.8c0,0.3-0.1,0.5-0.3,0.8
			s-0.5,0.3-0.8,0.3s-0.6-0.1-0.8-0.3S177.2,267.4,177.2,267.1z"/>
	</g>
</g>
</svg>
