<?xml version="1.0" encoding="UTF-8"?>
<svg id="Capa_1" data-name="Capa 1" xmlns="http://www.w3.org/2000/svg" xmlns:xlink="http://www.w3.org/1999/xlink" version="1.1" viewBox="0 0 410 460">
  <defs>
    <style>
      .cls-1 {
        fill: none;
      }

      .cls-1, .cls-2, .cls-3, .cls-4, .cls-5 {
        stroke-width: 0px;
      }

      .cls-2 {
        fill: #3d8bba;
      }

      .cls-6 {
        fill: #707070;
        font-family: Roboto-Bold, Roboto;
        font-size: 25px;
        font-weight: 700;
      }

      .cls-3 {
        fill: url(#Degradado_sin_nombre);
        opacity: .6;
      }

      .cls-3, .cls-7 {
        isolation: isolate;
      }

      .cls-4 {
        fill: #213265;
      }

      .cls-5 {
        fill: #e5e5e5;
      }
    </style>
    <radialGradient id="Degradado_sin_nombre" data-name="Degradado sin nombre" cx="205" cy="2210.2" fx="205" fy="2210.2" r="202.3" gradientTransform="translate(0 -339.4) scale(1 .3)" gradientUnits="userSpaceOnUse">
      <stop offset="0" stop-color="#000"/>
      <stop offset="1" stop-color="#000" stop-opacity="0"/>
    </radialGradient>
    <clipPath id="clippath">
      <rect class="cls-1" x="30.1" y="413.4" width="360.6" height="42.4"/>
    </clipPath>
    <clipPath id="clippath-1">
      <rect class="cls-1" x="30.1" y="413.4" width="360.6" height="42.4"/>
    </clipPath>
    <clipPath id="clippath-2">
      <rect class="cls-1" x="30.1" y="413.4" width="360.6" height="42.4"/>
    </clipPath>
  </defs>
  <g id="Capa_1-2" data-name="Capa 1">
    <ellipse class="cls-3" cx="205" cy="387.1" rx="204.9" ry="70.5"/>
    <g id="Grupo_1490" data-name="Grupo 1490">
      <g>
        <path id="Rectángulo_1799" data-name="Rectángulo 1799" class="cls-2" d="M28.9,342.9h351c8.3,0,15,6.7,15,15v43.5c0,8.3-6.7,15-15,15H28.9c-8.3,0-15-6.7-15-15v-43.5c0-8.2,6.7-15,15-15Z"/>
        <path id="Rectángulo_1710" data-name="Rectángulo 1710" class="cls-5" d="M35.4,6h338c8.3,0,15,6.7,15,15v373c0,8.3-6.7,15-15,15H35.4c-8.3,0-15-6.7-15-15V21c0-8.2,6.7-15,15-15Z"/>
        <g id="Gestión_de_aprendizajes" data-name="Gestión de aprendizajes">
          <g class="cls-7">
            <path class="cls-2" d="M68.8,60.2c-.6.8-1.6,1.4-2.8,1.8s-2.5.7-4,.7-2.9-.3-4-1c-1.2-.7-2.1-1.6-2.7-2.9-.6-1.3-1-2.8-1-4.5v-1.3c0-1.8.3-3.3.9-4.6.6-1.3,1.5-2.3,2.6-3s2.4-1,4-1,3.8.5,4.9,1.5c1.2,1,1.9,2.5,2.1,4.4h-3.6c-.2-1-.5-1.8-1.1-2.2-.6-.5-1.3-.7-2.3-.7s-2.2.5-2.8,1.4c-.7.9-1,2.3-1,4.2v1.1c0,1.9.4,3.3,1.1,4.2s1.7,1.4,3.1,1.4,2.4-.3,2.9-.9v-3.1h-3.3v-2.7h7v7.2Z"/>
            <path class="cls-2" d="M77.6,62.7c-1.9,0-3.5-.6-4.7-1.8s-1.8-2.8-1.8-4.7v-.3c0-1.3.3-2.5.8-3.6s1.2-1.9,2.2-2.4c.9-.6,2-.8,3.2-.8,1.8,0,3.2.6,4.3,1.7,1,1.1,1.6,2.8,1.6,4.8v1.4h-8.4c0,.9.5,1.6,1,2.1.6.5,1.3.8,2.2.8,1.4,0,2.4-.5,3.2-1.5l1.7,1.9c-.5.7-1.2,1.3-2.1,1.8s-2.1.6-3.2.6ZM77.2,51.8c-.7,0-1.3.2-1.7.7-.4.5-.7,1.2-.8,2h4.9v-.3c0-.8-.2-1.4-.6-1.8-.4-.4-1-.6-1.8-.6Z"/>
            <path class="cls-2" d="M92.2,58.8c0-.4-.2-.8-.6-1s-1.1-.5-2.1-.7c-3.1-.7-4.7-2-4.7-4s.5-2.2,1.5-2.9c1-.8,2.2-1.2,3.8-1.2s3,.4,4,1.2,1.5,1.8,1.5,3.1h-3.5c0-.5-.2-.9-.5-1.3-.3-.3-.8-.5-1.5-.5s-1.1,0-1.4.4c-.3.3-.5.6-.5,1s.2.7.6.9,1,.4,1.9.6,1.6.4,2.2.6c1.9.7,2.8,1.9,2.8,3.6s-.5,2.2-1.6,2.9c-1,.7-2.4,1.1-4,1.1s-2.1-.2-2.9-.6c-.9-.4-1.5-.9-2-1.6-.5-.7-.7-1.4-.7-2.2h3.3c0,.6.3,1.1.7,1.4.4.3,1,.5,1.7.5s1.2,0,1.5-.4c.3-.2.5-.5.5-.9Z"/>
            <path class="cls-2" d="M102.1,46v3.2h2.3v2.6h-2.3v6.6c0,.5,0,.8.3,1,.2.2.5.3,1.1.3s.7,0,1,0v2.7c-.7.2-1.4.3-2.1.3-2.5,0-3.7-1.2-3.8-3.7v-7.1h-1.9v-2.6h1.9v-3.2h3.5Z"/>
            <path class="cls-2" d="M106.3,45.8c0-.5.2-1,.5-1.3.4-.3.8-.5,1.4-.5s1.1.2,1.4.5c.4.3.5.8.5,1.3s-.2,1-.5,1.3c-.4.3-.8.5-1.4.5s-1.1-.2-1.4-.5-.5-.7-.5-1.3ZM110.1,62.4h-3.5v-13.2h3.5v13.2Z"/>
            <path class="cls-2" d="M112.4,55.7c0-1.3.3-2.5.8-3.5s1.2-1.8,2.2-2.4c.9-.6,2-.8,3.3-.8s3.2.5,4.4,1.6c1.1,1.1,1.8,2.6,1.9,4.4v.9c0,2-.6,3.7-1.7,4.9s-2.6,1.8-4.6,1.8-3.4-.6-4.6-1.8c-1.1-1.2-1.7-2.9-1.7-5h0ZM116,56c0,1.3.2,2.2.7,2.9s1.1,1,2,1,1.5-.3,2-1,.7-1.7.7-3.1-.2-2.2-.7-2.9-1.2-1-2-1-1.5.3-2,1c-.5.6-.7,1.7-.7,3.1ZM119.4,43.7h3.8l-3.4,3.8h-2.8l2.4-3.8Z"/>
            <path class="cls-2" d="M130.4,49.2v1.5c1-1.2,2.3-1.8,3.9-1.8s2.4.4,3.1,1.2c.7.8,1,2.1,1,3.7v8.5h-3.5v-8.3c0-.7-.2-1.3-.5-1.6s-.9-.5-1.6-.5c-1,0-1.7.4-2.2,1.3v9.3h-3.5v-13.3h3.3Z"/>
            <path class="cls-2" d="M146.8,55.7c0-2.1.5-3.7,1.4-4.9s2.2-1.8,3.8-1.8,2.3.5,3.2,1.4v-6.7h3.5v18.8h-3.2l-.2-1.4c-.9,1.1-2,1.6-3.4,1.6s-2.8-.6-3.7-1.8c-.9-1.3-1.4-3-1.4-5.2ZM150.3,56c0,1.2.2,2.2.6,2.8.4.7,1.1,1,1.9,1s1.9-.5,2.3-1.4v-5.2c-.4-.9-1.2-1.4-2.3-1.4-1.6.1-2.5,1.4-2.5,4.2Z"/>
            <path class="cls-2" d="M167.5,62.7c-1.9,0-3.5-.6-4.7-1.8s-1.8-2.8-1.8-4.7v-.3c0-1.3.3-2.5.8-3.6s1.2-1.9,2.2-2.4c.9-.6,2-.8,3.2-.8,1.8,0,3.2.6,4.3,1.7,1,1.1,1.6,2.8,1.6,4.8v1.4h-8.4c.1.9.5,1.6,1,2.1.6.5,1.3.8,2.2.8,1.4,0,2.4-.5,3.2-1.5l1.7,1.9c-.5.7-1.2,1.3-2.1,1.8s-2.1.6-3.2.6ZM167.1,51.8c-.7,0-1.3.2-1.7.7s-.7,1.2-.8,2h4.9v-.3c0-.8-.2-1.4-.6-1.8-.5-.4-1-.6-1.8-.6Z"/>
            <path class="cls-2" d="M188.8,62.4c-.2-.3-.3-.7-.4-1.2-.9,1-2,1.4-3.3,1.4s-2.4-.4-3.2-1.1c-.9-.7-1.3-1.7-1.3-2.8s.5-2.5,1.6-3.2c1-.7,2.5-1.1,4.5-1.1h1.6v-.8c0-.6-.2-1.1-.5-1.5s-.8-.5-1.5-.5-1.1,0-1.4.4c-.3.3-.5.7-.5,1.2h-3.4c0-.8.2-1.5.7-2.1.5-.7,1.1-1.2,2-1.5.9-.4,1.8-.6,2.9-.6,1.6,0,2.9.4,3.9,1.2s1.4,2,1.4,3.4v5.7c0,1.3.2,2.2.5,2.8v.2h-3.6ZM185.9,60c.5,0,1,0,1.4-.3s.8-.5,1-.9v-2.3h-1.3c-1.8,0-2.7.6-2.8,1.8v.2c0,.4.2.8.5,1.1.3.2.7.4,1.2.4Z"/>
            <path class="cls-2" d="M206.5,56c0,2-.5,3.7-1.4,4.9s-2.2,1.8-3.7,1.8-2.4-.5-3.2-1.4v6.2h-3.5v-18.3h3.3v1.3c1-1,2.1-1.5,3.4-1.5s2.9.6,3.8,1.8,1.4,2.9,1.4,5v.2h-.1ZM203,55.7c0-1.2-.2-2.2-.7-2.8-.4-.7-1.1-1-1.9-1s-1.9.4-2.3,1.3v5.4c.4.9,1.2,1.3,2.3,1.3,1.7-.1,2.6-1.4,2.6-4.2Z"/>
            <path class="cls-2" d="M216.1,52.5c-.5,0-.9,0-1.3,0-1.3,0-2.2.5-2.6,1.4v8.6h-3.5v-13.2h3.3v1.6c.8-1.2,1.8-1.8,3-1.8s.8,0,1.1.2v3.3Z"/>
            <path class="cls-2" d="M223.6,62.7c-1.9,0-3.5-.6-4.7-1.8s-1.8-2.8-1.8-4.7v-.3c0-1.3.3-2.5.8-3.6s1.2-1.9,2.2-2.4c.9-.6,2-.8,3.2-.8,1.8,0,3.2.6,4.3,1.7,1,1.1,1.6,2.8,1.6,4.8v1.4h-8.4c.1.9.5,1.6,1,2.1.6.5,1.3.8,2.2.8,1.4,0,2.4-.5,3.2-1.5l1.7,1.9c-.5.7-1.2,1.3-2.1,1.8s-2.1.6-3.2.6ZM223.2,51.8c-.7,0-1.3.2-1.7.7s-.7,1.2-.8,2h4.9v-.3c0-.8-.2-1.4-.6-1.8-.4-.4-1-.6-1.8-.6Z"/>
            <path class="cls-2" d="M234.3,49.2v1.5c1-1.2,2.3-1.8,3.9-1.8s2.4.4,3.1,1.2c.7.8,1,2.1,1,3.7v8.5h-3.5v-8.3c0-.7-.2-1.3-.5-1.6s-.9-.5-1.6-.5c-1,0-1.7.4-2.2,1.3v9.3h-3.5v-13.3h3.3Z"/>
            <path class="cls-2" d="M244.5,55.7c0-2.1.5-3.7,1.4-4.9s2.2-1.8,3.8-1.8,2.3.5,3.2,1.4v-6.7h3.5v18.8h-3.2l-.2-1.4c-.9,1.1-2,1.6-3.4,1.6s-2.8-.6-3.7-1.8c-.9-1.3-1.4-3-1.4-5.2ZM248,56c0,1.2.2,2.2.6,2.8.4.7,1.1,1,1.9,1s1.9-.5,2.3-1.4v-5.2c-.4-.9-1.2-1.4-2.3-1.4-1.6.1-2.5,1.4-2.5,4.2Z"/>
            <path class="cls-2" d="M259.1,45.8c0-.5.2-1,.5-1.3.4-.3.8-.5,1.4-.5s1.1.2,1.4.5.5.8.5,1.3-.2,1-.5,1.3-.8.5-1.4.5-1.1-.2-1.4-.5c-.3-.3-.5-.7-.5-1.3ZM262.9,62.4h-3.5v-13.2h3.5v13.2Z"/>
            <path class="cls-2" d="M269.8,59.6h6.5v2.8h-11v-2.1l6.2-8.2h-6v-2.8h10.6v2.1l-6.3,8.2Z"/>
            <path class="cls-2" d="M286.2,62.4c-.2-.3-.3-.7-.4-1.2-.9,1-2,1.4-3.3,1.4s-2.4-.4-3.2-1.1c-.8-.7-1.3-1.7-1.3-2.8s.5-2.5,1.6-3.2c1-.7,2.5-1.1,4.5-1.1h1.6v-.8c0-.6-.2-1.1-.5-1.5s-.8-.5-1.5-.5-1.1,0-1.4.4c-.3.3-.5.7-.5,1.2h-3.5c0-.8.2-1.5.7-2.1.5-.7,1.1-1.2,2-1.5s1.8-.6,2.9-.6c1.6,0,2.9.4,3.9,1.2s1.4,2,1.4,3.4v5.7c0,1.3.2,2.2.5,2.8v.2h-3.5ZM283.2,60c.5,0,1,0,1.4-.3s.8-.5,1-.9v-2.3h-1.3c-1.8,0-2.7.6-2.8,1.8v.2c0,.4.2.8.5,1.1.3.2.7.4,1.2.4Z"/>
            <path class="cls-2" d="M295.6,49.2v13.9c0,1.5-.4,2.6-1.2,3.4-.8.8-1.9,1.2-3.3,1.2s-1.2,0-1.7-.2v-2.8c.4,0,.8,0,1.1,0,1.1,0,1.6-.6,1.6-1.7v-14h3.5ZM291.8,45.8c0-.5.2-1,.5-1.3.4-.3.8-.5,1.4-.5s1.1.2,1.4.5c.4.3.5.8.5,1.3s-.2,1-.5,1.3-.8.5-1.4.5-1.1-.2-1.4-.5-.5-.7-.5-1.3Z"/>
            <path class="cls-2" d="M304.5,62.7c-1.9,0-3.5-.6-4.7-1.8s-1.8-2.8-1.8-4.7v-.3c0-1.3.3-2.5.8-3.6s1.2-1.9,2.2-2.4c.9-.6,2-.8,3.2-.8,1.8,0,3.2.6,4.3,1.7,1,1.1,1.6,2.8,1.6,4.8v1.4h-8.4c.1.9.5,1.6,1,2.1.6.5,1.3.8,2.2.8,1.4,0,2.4-.5,3.2-1.5l1.7,1.9c-.5.7-1.2,1.3-2.1,1.8s-2.1.6-3.2.6ZM304.1,51.8c-.7,0-1.3.2-1.7.7-.4.5-.7,1.2-.8,2h4.9v-.3c0-.8-.2-1.4-.6-1.8-.5-.4-1.1-.6-1.8-.6Z"/>
            <path class="cls-2" d="M319.1,58.8c0-.4-.2-.8-.6-1s-1.1-.5-2.1-.7c-3.1-.7-4.7-2-4.7-4s.5-2.2,1.5-2.9c1-.8,2.2-1.2,3.8-1.2s3,.4,4,1.2,1.5,1.8,1.5,3.1h-3.5c0-.5-.2-.9-.5-1.3-.3-.3-.8-.5-1.5-.5s-1.1,0-1.4.4c-.3.3-.5.6-.5,1s.2.7.6.9,1,.4,1.9.6,1.6.4,2.2.6c1.9.7,2.8,1.9,2.8,3.6s-.5,2.2-1.6,2.9c-1,.7-2.4,1.1-4,1.1s-2.1-.2-2.9-.6c-.9-.4-1.5-.9-2-1.6-.5-.7-.7-1.4-.7-2.2h3.3c0,.6.3,1.1.7,1.4s1,.5,1.7.5,1.2,0,1.5-.4c.3-.2.5-.5.5-.9Z"/>
          </g>
        </g>
        <g id="Pruebas_de_Salida_Controles_de_Lectura_Talleres_Grupales_Tareas" data-name="Pruebas de Salida Controles de Lectura Talleres Grupales Tareas">
          <g class="cls-7">
            <path class="cls-4" d="M41.7,178.2v6.3h-3.7v-17.8h6.9c1.3,0,2.5.2,3.5.7s1.8,1.2,2.3,2.1c.5.9.8,1.9.8,3.1,0,1.7-.6,3.1-1.8,4.1s-2.8,1.5-4.9,1.5h-3.1ZM41.7,175.2h3.3c1,0,1.7-.2,2.2-.7s.8-1.1.8-2-.3-1.6-.8-2.1-1.2-.8-2.1-.8h-3.4v5.6Z"/>
            <path class="cls-4" d="M61.3,174.5c-.5-.1-.9-.1-1.3-.1-1.3,0-2.2.5-2.6,1.4v8.6h-3.5v-13.2h3.3v1.6c.8-1.2,1.8-1.8,3-1.8s.8.1,1.1.2v3.3Z"/>
            <path class="cls-4" d="M70.9,183.1c-.9,1.1-2.1,1.6-3.6,1.6s-2.5-.4-3.2-1.2c-.7-.8-1.1-2-1.1-3.6v-8.7h3.5v8.5c0,1.4.6,2.1,1.9,2.1s2-.4,2.5-1.2v-9.4h3.5v13.2h-3.4v-1.3Z"/>
            <path class="cls-4" d="M83.1,184.7c-1.9,0-3.5-.6-4.7-1.8s-1.8-2.8-1.8-4.7v-.3c0-1.3.3-2.5.8-3.6s1.2-1.9,2.2-2.4c.9-.6,2-.8,3.2-.8,1.8,0,3.2.6,4.3,1.7,1,1.1,1.6,2.8,1.6,4.8v1.4h-8.4c0,.9.5,1.6,1,2.1.6.5,1.3.8,2.2.8,1.4,0,2.4-.5,3.2-1.5l1.7,1.9c-.5.7-1.2,1.3-2.1,1.8s-2.1.6-3.2.6ZM82.7,173.8c-.7,0-1.3.2-1.7.7-.4.5-.7,1.2-.8,2h4.8v-.3c0-.8-.2-1.4-.6-1.8-.4-.4-1-.6-1.7-.6Z"/>
            <path class="cls-4" d="M102.4,178c0,2.1-.5,3.8-1.4,5s-2.2,1.8-3.8,1.8-2.6-.5-3.4-1.6l-.2,1.4h-3.2v-18.8h3.6v6.7c.8-1,1.9-1.4,3.2-1.4s2.9.6,3.8,1.8,1.4,2.8,1.4,5h0ZM98.9,177.7c0-1.3-.2-2.3-.6-2.9-.4-.6-1.1-.9-1.9-.9s-1.9.5-2.3,1.4v5.2c.4.9,1.2,1.4,2.3,1.4s1.9-.6,2.2-1.7c.2-.6.3-1.4.3-2.5Z"/>
            <path class="cls-4" d="M112.2,184.4c-.2-.3-.3-.7-.4-1.2-.9,1-2,1.4-3.3,1.4s-2.4-.4-3.2-1.1c-.9-.7-1.3-1.7-1.3-2.8s.5-2.5,1.6-3.2c1-.7,2.5-1.1,4.5-1.1h1.6v-.8c0-.6-.2-1.1-.5-1.5s-.8-.5-1.5-.5-1.1.1-1.4.4c-.3.3-.5.7-.5,1.2h-3.5c0-.8.2-1.5.7-2.1.5-.7,1.1-1.2,2-1.5.9-.4,1.8-.6,2.9-.6,1.6,0,2.9.4,3.9,1.2s1.4,2,1.4,3.4v5.7c0,1.3.2,2.2.5,2.8v.2h-3.5s0,.1,0,.1ZM109.3,182c.5,0,1-.1,1.4-.3s.8-.5,1-.9v-2.3h-1.3c-1.8,0-2.7.6-2.8,1.8v.2c0,.4.2.8.5,1.1.3.2.7.4,1.2.4Z"/>
            <path class="cls-4" d="M125.1,180.8c0-.4-.2-.8-.6-1s-1.1-.5-2.1-.7c-3.1-.7-4.7-2-4.7-4s.5-2.2,1.5-2.9c1-.8,2.2-1.2,3.8-1.2s3,.4,4,1.2c1,.8,1.5,1.8,1.5,3.1h-3.5c0-.5-.2-.9-.5-1.3-.3-.3-.8-.5-1.5-.5s-1.1.1-1.4.4c-.3.3-.5.6-.5,1s.2.7.6.9,1,.4,1.9.6,1.6.4,2.2.6c1.9.7,2.8,1.9,2.8,3.6s-.5,2.2-1.6,2.9c-1,.7-2.4,1.1-4,1.1s-2.1-.2-2.9-.6c-.9-.4-1.5-.9-2-1.6-.5-.7-.7-1.4-.7-2.2h3.3c0,.6.3,1.1.7,1.4.4.3,1,.5,1.7.5s1.2-.1,1.5-.4c.4-.2.5-.5.5-.9Z"/>
            <path class="cls-4" d="M136.5,177.7c0-2.1.5-3.7,1.4-4.9s2.2-1.8,3.8-1.8,2.3.5,3.2,1.4v-6.7h3.5v18.8h-3.2l-.2-1.4c-.9,1.1-2,1.6-3.4,1.6s-2.8-.6-3.7-1.8c-.9-1.3-1.4-3-1.4-5.2ZM140,178c0,1.2.2,2.2.6,2.8.4.7,1.1,1,1.9,1s1.9-.5,2.3-1.4v-5.2c-.4-.9-1.2-1.4-2.3-1.4-1.6,0-2.5,1.4-2.5,4.2Z"/>
            <path class="cls-4" d="M157.2,184.7c-1.9,0-3.5-.6-4.7-1.8s-1.8-2.8-1.8-4.7v-.3c0-1.3.3-2.5.8-3.6s1.2-1.9,2.2-2.4c.9-.6,2-.8,3.2-.8,1.8,0,3.2.6,4.3,1.7,1,1.1,1.6,2.8,1.6,4.8v1.4h-8.4c.1.9.5,1.6,1,2.1.6.5,1.3.8,2.2.8,1.4,0,2.4-.5,3.2-1.5l1.7,1.9c-.5.7-1.2,1.3-2.1,1.8s-2.1.6-3.2.6ZM156.8,173.8c-.7,0-1.3.2-1.7.7s-.7,1.2-.8,2h4.9v-.3c0-.8-.2-1.4-.6-1.8s-1-.6-1.8-.6Z"/>
            <path class="cls-4" d="M180.3,179.8c0-.7-.2-1.2-.7-1.6s-1.4-.8-2.6-1.2-2.3-.8-3-1.2c-2-1.1-3-2.6-3-4.4s.3-1.8.8-2.6,1.3-1.3,2.3-1.8c1-.4,2.1-.6,3.4-.6s2.4.2,3.4.7,1.8,1.1,2.3,1.9c.5.8.8,1.8.8,2.9h-3.7c0-.8-.3-1.4-.8-1.9s-1.2-.7-2.2-.7-1.6.2-2.1.6c-.5.4-.7.9-.7,1.5s.3,1.1.9,1.5c.6.4,1.4.8,2.6,1.1,2.1.6,3.6,1.4,4.6,2.3s1.4,2.1,1.4,3.5-.6,2.7-1.7,3.6c-1.2.9-2.7,1.3-4.7,1.3s-2.6-.2-3.7-.8c-1.1-.5-2-1.2-2.6-2.1-.6-.9-.9-1.9-.9-3h3.7c0,2,1.2,2.9,3.5,2.9s1.6-.2,2-.5c.5-.3.7-.8.7-1.4Z"/>
            <path class="cls-4" d="M193.9,184.4c-.2-.3-.3-.7-.4-1.2-.9,1-2,1.4-3.3,1.4s-2.4-.4-3.2-1.1c-.9-.7-1.3-1.7-1.3-2.8s.5-2.5,1.6-3.2c1-.7,2.5-1.1,4.5-1.1h1.6v-.8c0-.6-.2-1.1-.5-1.5s-.8-.5-1.5-.5-1.1.1-1.4.4-.5.7-.5,1.2h-3.5c0-.8.2-1.5.7-2.1.5-.7,1.1-1.2,2-1.5.9-.4,1.8-.6,2.9-.6,1.6,0,2.9.4,3.9,1.2s1.4,2,1.4,3.4v5.7c0,1.3.2,2.2.5,2.8v.2h-3.5,0ZM191,182c.5,0,1-.1,1.4-.3s.8-.5,1-.9v-2.3h-1.3c-1.8,0-2.7.6-2.8,1.8v.2c0,.4.2.8.5,1.1.2.2.7.4,1.2.4Z"/>
            <path class="cls-4" d="M203.4,184.4h-3.5v-18.8h3.5v18.8Z"/>
            <path class="cls-4" d="M206.3,167.8c0-.5.2-1,.5-1.3.4-.3.8-.5,1.4-.5s1.1.2,1.4.5.5.8.5,1.3-.2,1-.5,1.3-.8.5-1.4.5-1.1-.2-1.4-.5c-.3-.3-.5-.7-.5-1.3ZM210,184.4h-3.5v-13.2h3.5v13.2Z"/>
            <path class="cls-4" d="M212.4,177.7c0-2.1.5-3.7,1.4-4.9s2.2-1.8,3.8-1.8,2.3.5,3.2,1.4v-6.7h3.5v18.8h-3.2l-.2-1.4c-.9,1.1-2,1.6-3.4,1.6s-2.8-.6-3.7-1.8c-1-1.3-1.4-3-1.4-5.2ZM215.9,178c0,1.2.2,2.2.6,2.8.4.7,1.1,1,1.9,1s1.9-.5,2.3-1.4v-5.2c-.4-.9-1.2-1.4-2.3-1.4-1.6,0-2.5,1.4-2.5,4.2Z"/>
            <path class="cls-4" d="M234.7,184.4c-.2-.3-.3-.7-.4-1.2-.9,1-2,1.4-3.3,1.4s-2.4-.4-3.2-1.1c-.8-.7-1.3-1.7-1.3-2.8s.5-2.5,1.6-3.2c1-.7,2.5-1.1,4.5-1.1h1.6v-.8c0-.6-.2-1.1-.5-1.5s-.8-.5-1.5-.5-1.1.1-1.4.4-.5.7-.5,1.2h-3.5c0-.8.2-1.5.7-2.1.5-.7,1.1-1.2,2-1.5s1.8-.6,2.9-.6c1.6,0,2.9.4,3.9,1.2s1.4,2,1.4,3.4v5.7c0,1.3.2,2.2.5,2.8v.2h-3.5ZM231.7,182c.5,0,1-.1,1.4-.3s.8-.5,1-.9v-2.3h-1.3c-1.8,0-2.7.6-2.8,1.8v.2c0,.4.2.8.5,1.1.3.2.7.4,1.2.4Z"/>
          </g>
          <g class="cls-7">
            <path class="cls-4" d="M51.9,213.5c0,1.9-.8,3.4-2.1,4.5s-3,1.6-5,1.6-4.1-.8-5.4-2.3c-1.3-1.5-2-3.6-2-6.3v-1c0-1.7.3-3.2.9-4.5.6-1.3,1.5-2.3,2.6-3s2.4-1,3.9-1,3.7.5,5,1.6,2,2.6,2.2,4.6h-3.7c0-1.1-.4-2-1-2.5-.5-.5-1.4-.8-2.5-.8s-2.1.4-2.7,1.3c-.6.9-.9,2.2-.9,4.1v1.3c0,1.9.3,3.3.9,4.2.6.9,1.5,1.3,2.8,1.3s2-.3,2.5-.8c.6-.5.9-1.3,1-2.4h3.5Z"/>
            <path class="cls-4" d="M53.6,212.7c0-1.3.3-2.5.8-3.5s1.2-1.8,2.2-2.4c.9-.6,2-.8,3.3-.8s3.2.5,4.4,1.6c1.1,1.1,1.8,2.6,1.9,4.4v.9c0,2-.6,3.7-1.7,4.9s-2.6,1.8-4.6,1.8-3.4-.6-4.6-1.8c-1.1-1.2-1.7-2.9-1.7-5.1,0,.1,0,0,0,0ZM57.1,213c0,1.3.2,2.2.7,2.9s1.1,1,2,1,1.5-.3,2-1,.7-1.7.7-3.1-.2-2.2-.7-2.9-1.2-1-2-1-1.5.3-2,1c-.5.6-.7,1.7-.7,3.1Z"/>
            <path class="cls-4" d="M71.5,206.2v1.5c1-1.2,2.3-1.8,3.9-1.8s2.4.4,3.1,1.2,1,2.1,1,3.7v8.5h-3.5v-8.3c0-.7-.2-1.3-.5-1.6s-.9-.5-1.6-.5c-1,0-1.7.4-2.2,1.3v9.3h-3.5v-13.2h3.3s0-.1,0-.1Z"/>
            <path class="cls-4" d="M86.5,203v3.2h2.3v2.6h-2.3v6.6c0,.5,0,.8.3,1,.2.2.5.3,1.1.3s.7,0,1-.1v2.7c-.7.2-1.4.3-2.1.3-2.5,0-3.7-1.2-3.8-3.7v-7.1h-2v-2.6h2v-3.2h3.5Z"/>
          </g>
          <g class="cls-7">
            <path class="cls-4" d="M98.1,209.5c-.5-.1-.9-.1-1.3-.1-1.3,0-2.2.5-2.6,1.4v8.6h-3.5v-13.2h3.3v1.6c.8-1.2,1.8-1.8,3-1.8s.8.1,1.1.2v3.3Z"/>
          </g>
          <g class="cls-7">
            <path class="cls-4" d="M98.8,212.7c0-1.3.3-2.5.8-3.5s1.2-1.8,2.2-2.4c.9-.6,2-.8,3.3-.8s3.2.5,4.4,1.6,1.8,2.6,1.9,4.4v.9c0,2-.6,3.7-1.7,4.9s-2.6,1.8-4.6,1.8-3.4-.6-4.6-1.8c-1.1-1.2-1.7-2.9-1.7-5.1h0ZM102.4,213c0,1.3.2,2.2.7,2.9s1.1,1,2,1,1.5-.3,2-1,.7-1.7.7-3.1-.2-2.2-.7-2.9-1.2-1-2-1-1.5.3-2,1c-.5.6-.7,1.7-.7,3.1Z"/>
            <path class="cls-4" d="M117.2,219.4h-3.5v-18.8h3.5v18.8Z"/>
            <path class="cls-4" d="M126.2,219.7c-1.9,0-3.5-.6-4.7-1.8s-1.8-2.8-1.8-4.7v-.3c0-1.3.3-2.5.8-3.6s1.2-1.9,2.2-2.4c.9-.6,2-.8,3.2-.8,1.8,0,3.2.6,4.3,1.7,1,1.1,1.6,2.8,1.6,4.8v1.4h-8.4c0,.9.5,1.6,1,2.1.6.5,1.3.8,2.2.8,1.4,0,2.4-.5,3.2-1.5l1.7,1.9c-.5.7-1.2,1.3-2.1,1.8s-2.1.6-3.2.6ZM125.8,208.8c-.7,0-1.3.2-1.7.7-.4.5-.7,1.2-.8,2h4.9v-.3c0-.8-.2-1.4-.6-1.8-.4-.4-1-.6-1.8-.6Z"/>
            <path class="cls-4" d="M140.8,215.8c0-.4-.2-.8-.6-1-.4-.2-1.1-.5-2.1-.7-3.1-.7-4.7-2-4.7-4s.5-2.2,1.5-2.9c1-.8,2.2-1.2,3.8-1.2s3,.4,4,1.2,1.5,1.8,1.5,3.1h-3.5c0-.5-.2-.9-.5-1.3-.3-.3-.8-.5-1.5-.5s-1.1.1-1.4.4-.5.6-.5,1,.2.7.6.9c.4.2,1,.4,1.9.6s1.6.4,2.2.6c1.9.7,2.8,1.9,2.8,3.6s-.5,2.2-1.6,2.9c-1,.7-2.4,1.1-4,1.1s-2.1-.2-2.9-.6c-.9-.4-1.5-.9-2-1.6-.5-.7-.7-1.4-.7-2.2h3.3c0,.6.3,1.1.7,1.4s1,.5,1.7.5,1.2-.1,1.5-.4c.3-.2.5-.5.5-.9Z"/>
            <path class="cls-4" d="M152.2,212.7c0-2.1.5-3.7,1.4-4.9s2.2-1.8,3.8-1.8,2.3.5,3.2,1.4v-6.7h3.5v18.8h-3.2l-.2-1.4c-.9,1.1-2,1.6-3.4,1.6s-2.8-.6-3.7-1.8c-.9-1.3-1.4-3-1.4-5.2ZM155.7,213c0,1.2.2,2.2.6,2.8.4.7,1.1,1,1.9,1s1.9-.5,2.3-1.4v-5.2c-.4-.9-1.2-1.4-2.3-1.4-1.6,0-2.5,1.4-2.5,4.2Z"/>
            <path class="cls-4" d="M172.9,219.7c-1.9,0-3.5-.6-4.7-1.8s-1.8-2.8-1.8-4.7v-.3c0-1.3.3-2.5.8-3.6s1.2-1.9,2.2-2.4c.9-.6,2-.8,3.2-.8,1.8,0,3.2.6,4.3,1.7,1,1.1,1.6,2.8,1.6,4.8v1.4h-8.4c.1.9.5,1.6,1,2.1.6.5,1.3.8,2.2.8,1.4,0,2.4-.5,3.2-1.5l1.7,1.9c-.5.7-1.2,1.3-2.1,1.8s-2.1.6-3.2.6ZM172.5,208.8c-.7,0-1.3.2-1.7.7s-.7,1.2-.8,2h4.9v-.3c0-.8-.2-1.4-.6-1.8-.5-.4-1-.6-1.8-.6Z"/>
            <path class="cls-4" d="M190.5,216.5h7.8v2.9h-11.4v-17.8h3.7v14.9h-.1Z"/>
            <path class="cls-4" d="M206.2,219.7c-1.9,0-3.5-.6-4.7-1.8s-1.8-2.8-1.8-4.7v-.3c0-1.3.3-2.5.8-3.6s1.2-1.9,2.2-2.4c.9-.6,2-.8,3.2-.8,1.8,0,3.2.6,4.3,1.7,1,1.1,1.6,2.8,1.6,4.8v1.4h-8.4c.1.9.5,1.6,1,2.1.6.5,1.3.8,2.2.8,1.4,0,2.4-.5,3.2-1.5l1.7,1.9c-.5.7-1.2,1.3-2.1,1.8s-2.1.6-3.2.6ZM205.8,208.8c-.7,0-1.3.2-1.7.7s-.7,1.2-.8,2h4.9v-.3c0-.8-.2-1.4-.6-1.8-.5-.4-1.1-.6-1.8-.6Z"/>
            <path class="cls-4" d="M219.1,216.8c.7,0,1.2-.2,1.6-.5.4-.4.6-.8.6-1.4h3.3c0,.9-.3,1.7-.7,2.5-.5.7-1.1,1.3-2,1.7-.8.4-1.8.6-2.8.6-1.9,0-3.4-.6-4.5-1.8s-1.6-2.9-1.6-5v-.2c0-2,.5-3.7,1.6-4.9s2.6-1.8,4.5-1.8,3,.5,4,1.4,1.5,2.2,1.5,3.8h-3.3c0-.7-.2-1.2-.6-1.7s-.9-.6-1.6-.6-1.4.3-1.9.9c-.4.6-.6,1.6-.6,2.9v.4c0,1.4.2,2.3.6,2.9.4.5,1.1.8,1.9.8Z"/>
            <path class="cls-4" d="M230.9,203v3.2h2.3v2.6h-2.3v6.6c0,.5.1.8.3,1s.5.3,1.1.3.7,0,1-.1v2.7c-.7.2-1.4.3-2.1.3-2.5,0-3.7-1.2-3.8-3.7v-7.1h-1.9v-2.6h1.9v-3.2h3.5Z"/>
            <path class="cls-4" d="M243,218.1c-.9,1.1-2.1,1.6-3.6,1.6s-2.5-.4-3.2-1.2-1.1-2-1.1-3.6v-8.7h3.5v8.5c0,1.4.6,2.1,1.9,2.1s2-.4,2.5-1.2v-9.4h3.5v13.2h-3.3l-.2-1.3Z"/>
          </g>
          <g class="cls-7">
            <path class="cls-4" d="M256.5,209.5c-.5-.1-.9-.1-1.3-.1-1.3,0-2.2.5-2.6,1.4v8.6h-3.5v-13.2h3.3v1.6c.8-1.2,1.8-1.8,3-1.8s.8.1,1.1.2v3.3Z"/>
          </g>
          <g class="cls-7">
            <path class="cls-4" d="M265.5,219.4c-.2-.3-.3-.7-.4-1.2-.9,1-2,1.4-3.3,1.4s-2.4-.4-3.2-1.1-1.3-1.7-1.3-2.8.5-2.5,1.6-3.2c1-.7,2.5-1.1,4.5-1.1h1.6v-.8c0-.6-.2-1.1-.5-1.5s-.8-.5-1.5-.5-1.1.1-1.4.4c-.3.3-.5.7-.5,1.2h-3.5c0-.8.2-1.5.7-2.1.5-.7,1.1-1.2,2-1.5.9-.4,1.8-.6,2.9-.6,1.6,0,2.9.4,3.9,1.2s1.4,2,1.4,3.4v5.7c0,1.3.2,2.2.5,2.8v.2h-3.5ZM262.6,217c.5,0,1-.1,1.4-.3s.8-.5,1-.9v-2.3h-1.3c-1.8,0-2.7.6-2.8,1.8v.2c0,.4.2.8.5,1.1s.6.4,1.2.4Z"/>
          </g>
          <g class="cls-7">
            <path class="cls-4" d="M51.4,239.6h-5.4v14.8h-3.7v-14.8h-5.4v-3h14.5s0,3,0,3Z"/>
          </g>
          <g class="cls-7">
            <path class="cls-4" d="M58.8,254.4c-.2-.3-.3-.7-.4-1.2-.9,1-2,1.4-3.3,1.4s-2.4-.4-3.2-1.1c-.9-.7-1.3-1.7-1.3-2.8s.5-2.5,1.6-3.2c1-.7,2.5-1.1,4.5-1.1h1.6v-.8c0-.6-.2-1.1-.5-1.5s-.8-.5-1.5-.5-1.1.1-1.4.4c-.3.3-.5.7-.5,1.2h-3.4c0-.8.2-1.5.7-2.1.5-.7,1.1-1.2,2-1.5.9-.4,1.8-.6,2.9-.6,1.6,0,2.9.4,3.9,1.2s1.4,2,1.4,3.4v5.7c0,1.3.2,2.2.5,2.8v.2h-3.6s0,.1,0,.1ZM55.9,252c.5,0,1-.1,1.4-.3s.8-.5,1-.9v-2.3h-1.3c-1.8,0-2.7.6-2.8,1.8v.2c0,.4.2.8.5,1.1.3.2.7.4,1.2.4Z"/>
            <path class="cls-4" d="M68.3,254.4h-3.5v-18.8h3.5v18.8Z"/>
            <path class="cls-4" d="M74.9,254.4h-3.5v-18.8h3.5v18.8Z"/>
            <path class="cls-4" d="M83.9,254.7c-1.9,0-3.5-.6-4.7-1.8s-1.8-2.8-1.8-4.7v-.3c0-1.3.3-2.5.8-3.6s1.2-1.9,2.2-2.4c.9-.6,2-.8,3.2-.8,1.8,0,3.2.6,4.3,1.7,1,1.1,1.6,2.8,1.6,4.8v1.4h-8.4c0,.9.5,1.6,1,2.1.6.5,1.3.8,2.2.8,1.4,0,2.4-.5,3.2-1.5l1.7,1.9c-.5.7-1.2,1.3-2.1,1.8s-2.1.6-3.2.6ZM83.5,243.8c-.7,0-1.3.2-1.7.7-.4.5-.7,1.2-.8,2h4.9v-.3c0-.8-.2-1.4-.6-1.8-.5-.4-1-.6-1.8-.6Z"/>
            <path class="cls-4" d="M98.8,244.5c-.5-.1-.9-.1-1.3-.1-1.3,0-2.2.5-2.6,1.4v8.6h-3.5v-13.2h3.3v1.6c.8-1.2,1.8-1.8,3-1.8s.8.1,1.1.2v3.3Z"/>
            <path class="cls-4" d="M106.3,254.7c-1.9,0-3.5-.6-4.7-1.8s-1.8-2.8-1.8-4.7v-.3c0-1.3.3-2.5.8-3.6s1.2-1.9,2.2-2.4c.9-.6,2-.8,3.2-.8,1.8,0,3.2.6,4.3,1.7,1,1.1,1.6,2.8,1.6,4.8v1.4h-8.4c0,.9.5,1.6,1,2.1.6.5,1.3.8,2.2.8,1.4,0,2.4-.5,3.2-1.5l1.7,1.9c-.5.7-1.2,1.3-2.1,1.8s-2.1.6-3.2.6ZM105.9,243.8c-.7,0-1.3.2-1.7.7-.4.5-.7,1.2-.8,2h4.9v-.3c0-.8-.2-1.4-.6-1.8-.5-.4-1-.6-1.8-.6Z"/>
            <path class="cls-4" d="M120.9,250.8c0-.4-.2-.8-.6-1s-1.1-.5-2.1-.7c-3.1-.7-4.7-2-4.7-4s.5-2.2,1.5-2.9c1-.8,2.2-1.2,3.8-1.2s3,.4,4,1.2,1.5,1.8,1.5,3.1h-3.5c0-.5-.2-.9-.5-1.3-.3-.3-.8-.5-1.5-.5s-1.1.1-1.4.4c-.3.3-.5.6-.5,1s.2.7.6.9,1,.4,1.9.6,1.6.4,2.2.6c1.9.7,2.8,1.9,2.8,3.6s-.5,2.2-1.6,2.9c-1,.7-2.4,1.1-4,1.1s-2.1-.2-2.9-.6c-.9-.4-1.5-.9-2-1.6-.5-.7-.7-1.4-.7-2.2h3.3c0,.6.3,1.1.7,1.4.4.3,1,.5,1.7.5s1.2-.1,1.5-.4c.3-.2.5-.5.5-.9Z"/>
            <path class="cls-4" d="M147.1,252.2c-.7.8-1.6,1.4-2.8,1.8-1.2.4-2.5.7-4,.7s-2.9-.3-4-1c-1.2-.7-2.1-1.6-2.7-2.9-.6-1.3-1-2.8-1-4.5v-1.3c0-1.8.3-3.3.9-4.6.6-1.3,1.5-2.3,2.6-3s2.4-1,4-1,3.8.5,4.9,1.5c1.2,1,1.9,2.5,2.1,4.4h-3.6c-.2-1-.5-1.8-1.1-2.2-.6-.5-1.3-.7-2.3-.7s-2.2.5-2.8,1.4c-.7.9-1,2.3-1,4.2v1.1c0,1.9.4,3.3,1.1,4.2s1.7,1.4,3.1,1.4,2.4-.3,2.9-.9v-3.1h-3.3v-2.7h7v7.2h0Z"/>
            <path class="cls-4" d="M157.3,244.5c-.5-.1-.9-.1-1.3-.1-1.3,0-2.2.5-2.6,1.4v8.6h-3.5v-13.2h3.3v1.6c.8-1.2,1.8-1.8,3-1.8s.8.1,1.1.2v3.3Z"/>
            <path class="cls-4" d="M166.9,253.1c-.9,1.1-2.1,1.6-3.6,1.6s-2.5-.4-3.2-1.2-1.1-2-1.1-3.6v-8.7h3.5v8.5c0,1.4.6,2.1,1.9,2.1s2-.4,2.5-1.2v-9.4h3.5v13.2h-3.4v-1.3Z"/>
            <path class="cls-4" d="M184.9,248c0,2-.5,3.7-1.4,4.9s-2.2,1.8-3.7,1.8-2.4-.5-3.2-1.4v6.2h-3.6v-18.3h3.3v1.3c1-1,2.1-1.5,3.4-1.5s2.9.6,3.8,1.8,1.4,2.9,1.4,5v.2h0ZM181.3,247.7c0-1.2-.2-2.2-.7-2.8-.4-.7-1.1-1-1.9-1s-1.9.4-2.3,1.3v5.4c.4.9,1.2,1.3,2.3,1.3,1.8,0,2.6-1.4,2.6-4.2Z"/>
            <path class="cls-4" d="M194.7,254.4c-.2-.3-.3-.7-.4-1.2-.9,1-2,1.4-3.3,1.4s-2.4-.4-3.2-1.1c-.9-.7-1.3-1.7-1.3-2.8s.5-2.5,1.6-3.2c1-.7,2.5-1.1,4.5-1.1h1.6v-.8c0-.6-.2-1.1-.5-1.5s-.8-.5-1.5-.5-1.1.1-1.4.4-.5.7-.5,1.2h-3.5c0-.8.2-1.5.7-2.1.5-.7,1.1-1.2,2-1.5.9-.4,1.8-.6,2.9-.6,1.6,0,2.9.4,3.9,1.2s1.4,2,1.4,3.4v5.7c0,1.3.2,2.2.5,2.8v.2h-3.5ZM191.8,252c.5,0,1-.1,1.4-.3s.8-.5,1-.9v-2.3h-1.3c-1.8,0-2.7.6-2.8,1.8v.2c0,.4.2.8.5,1.1.2.2.6.4,1.2.4Z"/>
            <path class="cls-4" d="M204.2,254.4h-3.5v-18.8h3.5v18.8Z"/>
            <path class="cls-4" d="M213.2,254.7c-1.9,0-3.5-.6-4.7-1.8s-1.8-2.8-1.8-4.7v-.3c0-1.3.3-2.5.8-3.6s1.2-1.9,2.2-2.4c.9-.6,2-.8,3.2-.8,1.8,0,3.2.6,4.3,1.7,1,1.1,1.6,2.8,1.6,4.8v1.4h-8.4c.1.9.5,1.6,1,2.1.6.5,1.3.8,2.2.8,1.4,0,2.4-.5,3.2-1.5l1.7,1.9c-.5.7-1.2,1.3-2.1,1.8s-2.1.6-3.2.6ZM212.8,243.8c-.7,0-1.3.2-1.7.7s-.7,1.2-.8,2h4.9v-.3c0-.8-.2-1.4-.6-1.8-.5-.4-1.1-.6-1.8-.6Z"/>
            <path class="cls-4" d="M227.7,250.8c0-.4-.2-.8-.6-1-.4-.2-1.1-.5-2.1-.7-3.1-.7-4.7-2-4.7-4s.5-2.2,1.5-2.9c1-.8,2.2-1.2,3.8-1.2s3,.4,4,1.2,1.5,1.8,1.5,3.1h-3.5c0-.5-.2-.9-.5-1.3-.3-.3-.8-.5-1.5-.5s-1.1.1-1.4.4-.5.6-.5,1,.2.7.6.9c.4.2,1,.4,1.9.6s1.6.4,2.2.6c1.9.7,2.8,1.9,2.8,3.6s-.5,2.2-1.6,2.9c-1,.7-2.4,1.1-4,1.1s-2.1-.2-2.9-.6c-.9-.4-1.5-.9-2-1.6-.5-.7-.7-1.4-.7-2.2h3.3c0,.6.3,1.1.7,1.4s1,.5,1.7.5,1.2-.1,1.5-.4c.4-.2.5-.5.5-.9Z"/>
          </g>
          <g class="cls-7">
            <path class="cls-4" d="M51.4,274.6h-5.4v14.8h-3.7v-14.8h-5.4v-3h14.5s0,3,0,3Z"/>
          </g>
          <g class="cls-7">
            <path class="cls-4" d="M58.8,289.4c-.2-.3-.3-.7-.4-1.2-.9,1-2,1.4-3.3,1.4s-2.4-.4-3.2-1.1c-.9-.7-1.3-1.7-1.3-2.8s.5-2.5,1.6-3.2c1-.7,2.5-1.1,4.5-1.1h1.6v-.8c0-.6-.2-1.1-.5-1.5s-.8-.5-1.5-.5-1.1.1-1.4.4c-.3.3-.5.7-.5,1.2h-3.4c0-.8.2-1.5.7-2.1.5-.7,1.1-1.2,2-1.5.9-.4,1.8-.6,2.9-.6,1.6,0,2.9.4,3.9,1.2,1,.8,1.4,2,1.4,3.4v5.7c0,1.3.2,2.2.5,2.8v.2h-3.6s0,.1,0,.1ZM55.9,287c.5,0,1-.1,1.4-.3.4-.2.8-.5,1-.9v-2.3h-1.3c-1.8,0-2.7.6-2.8,1.8v.2c0,.4.2.8.5,1.1.3.2.7.4,1.2.4Z"/>
            <path class="cls-4" d="M72,279.5c-.5-.1-.9-.1-1.3-.1-1.3,0-2.2.5-2.6,1.4v8.6h-3.5v-13.2h3.3v1.6c.8-1.2,1.8-1.8,3-1.8s.8.1,1.1.2v3.3Z"/>
            <path class="cls-4" d="M79.6,289.7c-1.9,0-3.5-.6-4.7-1.8-1.2-1.2-1.8-2.8-1.8-4.7v-.3c0-1.3.3-2.5.8-3.6s1.2-1.9,2.2-2.4c.9-.6,2-.8,3.2-.8,1.8,0,3.2.6,4.3,1.7,1,1.1,1.6,2.8,1.6,4.8v1.4h-8.4c0,.9.5,1.6,1,2.1.6.5,1.3.8,2.2.8,1.4,0,2.4-.5,3.2-1.5l1.7,1.9c-.5.7-1.2,1.3-2.1,1.8s-2.1.6-3.2.6ZM79.2,278.8c-.7,0-1.3.2-1.7.7-.4.5-.7,1.2-.8,2h4.9v-.3c0-.8-.2-1.4-.6-1.8-.5-.4-1.1-.6-1.8-.6Z"/>
            <path class="cls-4" d="M94.6,289.4c-.2-.3-.3-.7-.4-1.2-.9,1-2,1.4-3.3,1.4s-2.4-.4-3.2-1.1c-.9-.7-1.3-1.7-1.3-2.8s.5-2.5,1.6-3.2c1-.7,2.5-1.1,4.5-1.1h1.6v-.8c0-.6-.2-1.1-.5-1.5s-.8-.5-1.5-.5-1.1.1-1.4.4-.5.7-.5,1.2h-3.5c0-.8.2-1.5.7-2.1.5-.7,1.1-1.2,2-1.5.9-.4,1.8-.6,2.9-.6,1.6,0,2.9.4,3.9,1.2,1,.8,1.4,2,1.4,3.4v5.7c0,1.3.2,2.2.5,2.8v.2h-3.5s0,.1,0,.1ZM91.7,287c.5,0,1-.1,1.4-.3.4-.2.8-.5,1-.9v-2.3h-1.3c-1.8,0-2.7.6-2.8,1.8v.2c0,.4.2.8.5,1.1.3.2.7.4,1.2.4Z"/>
            <path class="cls-4" d="M107.5,285.8c0-.4-.2-.8-.6-1s-1.1-.5-2.1-.7c-3.1-.7-4.7-2-4.7-4s.5-2.2,1.5-2.9c1-.8,2.2-1.2,3.8-1.2s3,.4,4,1.2c1,.8,1.5,1.8,1.5,3.1h-3.5c0-.5-.2-.9-.5-1.3-.3-.3-.8-.5-1.5-.5s-1.1.1-1.4.4-.5.6-.5,1,.2.7.6.9c.4.2,1,.4,1.9.6s1.6.4,2.2.6c1.9.7,2.8,1.9,2.8,3.6s-.5,2.2-1.6,2.9c-1,.7-2.4,1.1-4,1.1s-2.1-.2-2.9-.6c-.9-.4-1.5-.9-2-1.6s-.7-1.4-.7-2.2h3.3c0,.6.3,1.1.7,1.4.4.3,1,.5,1.7.5s1.2-.1,1.5-.4c.4-.2.5-.5.5-.9Z"/>
          </g>
        </g>
        <path id="question-circle-fill" class="cls-2" d="M366.4,52.4c0,4.4-3.6,8-8,8s-8-3.6-8-8,3.6-8,8-8,8,3.6,8,8ZM355.9,50.5h.8c.1,0,.2,0,.3-.2.1-.7.7-1.2,1.3-1.1.6,0,1.2.4,1.3,1v.2c0,.6-.4.9-1,1.4-.7.4-1.2,1.2-1.2,2v.2c0,0,.1.2.2.2h.8c.1,0,.2,0,.2-.2h0c0-.8.3-1,1-1.6.8-.4,1.2-1.2,1.2-2.1,0-1.5-1.3-2.2-2.7-2.2-1.4-.2-2.6.8-2.7,2.2h0c.2,0,.3.2.5.2h0ZM358.2,56.9c.5,0,1-.3,1-.8s-.3-1-.8-1h-.2c-.5,0-1,.3-1,.9s.4,1,.9,1h.1Z"/>
        <g class="cls-7">
          <path class="cls-4" d="M175.5,111.5h3.8c1.8,0,3.1-.4,4-1.3s1.3-2.1,1.3-3.6-.4-2.5-1.3-3.3c-.9-.8-2-1.2-3.5-1.2s-2.5.4-3.4,1.1-1.4,1.7-1.4,2.9h-7.1c0-1.9.5-3.5,1.5-5s2.4-2.6,4.2-3.5c1.8-.8,3.8-1.2,5.9-1.2,3.8,0,6.7.9,8.8,2.7,2.1,1.8,3.2,4.3,3.2,7.4s-.5,3.1-1.5,4.5-2.3,2.4-3.9,3.1c2,.7,3.5,1.8,4.5,3.2,1,1.4,1.5,3.1,1.5,5.1,0,3.2-1.2,5.7-3.5,7.6-2.3,1.9-5.4,2.9-9.1,2.9s-6.4-.9-8.7-2.8c-2.3-1.9-3.4-4.3-3.4-7.4h7.1c0,1.3.5,2.4,1.5,3.3,1,.8,2.2,1.3,3.7,1.3s3-.4,3.9-1.3c1-.9,1.4-2.1,1.4-3.5,0-3.5-2-5.3-5.9-5.3h-3.7v-5.7h0Z"/>
          <path class="cls-4" d="M220.9,117.7c0,4.9-1,8.7-3.1,11.3-2,2.6-5,3.9-8.9,3.9s-6.8-1.3-8.9-3.8c-2.1-2.6-3.1-6.2-3.1-11v-6.5c0-5,1-8.7,3.1-11.3,2.1-2.6,5-3.9,8.9-3.9s6.8,1.3,8.9,3.8c2.1,2.5,3.1,6.2,3.1,11v6.5ZM213.9,110.5c0-2.9-.4-5.1-1.2-6.4s-2.1-2-3.8-2-2.9.6-3.7,1.9-1.2,3.3-1.3,6v8.7c0,2.9.4,5.1,1.2,6.5s2.1,2.1,3.8,2.1,3-.7,3.7-2c.8-1.4,1.2-3.4,1.2-6.2v-8.6h.1Z"/>
          <path class="cls-4" d="M225.6,103.7c0-2.2.7-4,2.1-5.3,1.4-1.4,3.3-2,5.6-2s4.2.7,5.6,2c1.4,1.3,2.1,3.2,2.1,5.5v1.8c0,2.2-.7,4-2.1,5.3-1.4,1.3-3.3,2-5.6,2s-4.2-.7-5.6-2c-1.4-1.3-2.1-3.2-2.1-5.4v-1.9ZM230.3,105.6c0,1,.3,1.8.8,2.4.6.6,1.3.9,2.2.9s1.6-.3,2.2-.9c.5-.6.8-1.4.8-2.4v-1.8c0-1-.3-1.8-.8-2.4s-1.3-.9-2.2-.9-1.6.3-2.2.9c-.6.6-.8,1.4-.8,2.5v1.7ZM234.7,129.8l-3.4-1.9,17.4-27.8,3.4,1.9-17.4,27.8ZM242.6,123.7c0-2.2.7-4,2.1-5.3,1.4-1.3,3.3-2,5.6-2s4.2.7,5.6,2c1.4,1.3,2.1,3.2,2.1,5.5v1.8c0,2.2-.7,3.9-2.1,5.3-1.4,1.3-3.3,2-5.6,2s-4.2-.7-5.6-2c-1.4-1.4-2.1-3.1-2.1-5.4v-1.9ZM247.3,125.6c0,.9.3,1.7.9,2.3.6.6,1.3,1,2.2,1,2,0,3-1.1,3-3.3v-1.9c0-1-.3-1.8-.8-2.4-.6-.6-1.3-.9-2.2-.9s-1.6.3-2.2.9c-.6.6-.8,1.4-.8,2.4v1.9h0Z"/>
        </g>
      </g>
    </g>
  </g>
  <path class="cls-1" d="M30.1,413.4c1.8,23.5,81.9,42.4,180.3,42.4s178.5-18.9,180.3-42.4H30.1Z"/>
  <text class="cls-6" transform="translate(325.1 184.4)"><tspan x="0" y="0">10%</tspan><tspan x="14.3" y="35">5%</tspan><tspan x="0" y="70">10%</tspan><tspan x="14.3" y="105">5%</tspan></text>
</svg>