<?xml version="1.0" encoding="UTF-8"?><svg id="a" xmlns="http://www.w3.org/2000/svg" viewBox="0 0 71.5 71.5"><defs><style>.cb{fill:#fff;stroke-width:0px;}</style></defs><g id="b"><path id="c" class="cb" d="M52.2,52.6c9.3-9.1,9.5-24,.4-33.2-9.1-9.3-24-9.5-33.2-.4-4.4,4.4-7,10.3-7.1,16.5h-.6.6c-.1,13,10.3,23.6,23.3,23.8,6.2,0,12.2-2.3,16.6-6.7M35.4,60.1h0c-13.7,0-24.7-11.2-24.6-24.9,0-13.7,11.2-24.7,24.9-24.6s24.7,11.2,24.6,24.9c0,13.5-11,24.5-24.6,24.6h-.3"/><path id="d" class="cb" d="M36.1,1.4v-.7.7ZM35.3,70.8v-.7.7ZM35.3,71.5C15.6,71.3-.2,55.1,0,35.3h1.4c-.2,19,14.9,34.5,33.9,34.8,19,.2,34.5-14.9,34.8-33.9.2-19-14.9-34.5-33.9-34.8-9.1-.1-17.9,3.4-24.4,9.8C5.2,17.6,1.5,26.3,1.4,35.3H0C.2,15.6,16.4-.2,36.2,0s35.6,16.4,35.3,36.2c-.2,19.6-16.1,35.3-35.7,35.3h-.5"/><path id="e" class="cb" d="M35.7,16.5l1.3,2.7,2.8.4-2,2.1.5,2.9-2.5-1.4-2.5,1.4.5-2.9-2-2.1,2.8-.4,1.2-2.7h0Z"/><path id="f" class="cb" d="M14.1,58.2l.6-.8h0c-.1.3-.2.5-.2.7,0,.1.1.3.4.5l.6.5c0,0,.1,0,.1,0,0,0,.1,0,.1-.1l1-1.2-.7-.6c-.2-.2-.3-.2-.4-.2-.2,0-.3.2-.5.3h0c0,0,1-1.3,1-1.3h0c-.1.2-.2.4-.2.6,0,.1,0,.2.3.4l.7.6,1.1-1.3c0-.1.1-.2,0-.3-.1-.2-.3-.3-.5-.5-.2-.2-.5-.4-.7-.5-.3,0-.6,0-.8.2h-.1c0,0,.9-.8.9-.8l2.3,2.1h0c-.1,0-.2,0-.4,0,0,0-.2,0-.4.3l-2,2.3c-.1.1-.2.3-.2.4,0,.1.1.3.2.4h0c0,0-2.3-1.9-2.3-1.9h0Z"/><path id="g" class="cb" d="M12.3,56.5c0-.1-.2-.3-.2-.4,0-.1,0-.2-.1-.3h-.1c0,0-.2,0-.2,0h0c0,0,1-1.2,1-1.2h0c-.2.4-.3.7-.4,1.1,0,.2,0,.5.2.6,0,.1.2.2.4.2.2,0,.3,0,.5-.2.1-.1.2-.2.2-.4,0-.2,0-.4,0-.6v-.6c-.1-.3,0-.6,0-.9.2-.6.7-1,1.3-1,.3,0,.6.2.8.4.1.1.2.3.3.5,0,.1,0,.2.1.3h.1c0,0,.1,0,.1,0h0c0,0-.9,1.2-.9,1.2h0c.1-.3.2-.6.3-.9,0-.3,0-.7-.2-1-.1-.1-.3-.2-.5-.2-.2,0-.4,0-.6.2-.2.1-.3.3-.3.5,0,.2,0,.5,0,.7v.6c0,.2,0,.3,0,.5-.1.6-.6,1-1.2,1h0c-.3,0-.5-.1-.7-.3"/><path id="h" class="cb" d="M11,53.7c-.6,0-1.1-.3-1.4-.8-.1-.2-.2-.4-.3-.6,0-.2,0-.3-.1-.4h-.1c0-.1-.1-.1-.2,0h0c0,0,1.2-1,1.2-1h0c-.2.3-.3.5-.4.8-.2.4-.1.8,0,1.1.2.3.6.5,1,.5.5,0,1.1-.2,1.5-.6.4-.3.8-.7,1-1.2.1-.4,0-.8-.1-1.2-.2-.2-.4-.4-.7-.5-.2,0-.4-.1-.6-.2v-.2c.3,0,.5,0,.7.1.4.1.7.4.9.7.3.5.4,1.1.3,1.6-.4,1.1-1.4,1.8-2.5,1.9h-.2"/><path id="i" class="cb" d="M7.6,49.1h.1c.1.1.2.3.3.3.2,0,.3,0,.5-.1l1.9-1c.3-.1.5-.3.7-.5.3-.5.2-1.1-.2-1.5-.2-.1-.4-.2-.6-.2-.3,0-.6.1-.9.3l-1.6.8c-.2,0-.4.2-.6.4,0,.1,0,.3,0,.5h-.1s-.6-1.2-.6-1.2h.1c.1.1.2.2.4.3.2,0,.4,0,.6-.2l1.6-.8c.3-.2.7-.3,1.1-.3.5,0,1,.3,1.2.9.3.5.2,1.1,0,1.5-.2.3-.5.5-.8.6l-1.9.9c-.1,0-.3.2-.4.3,0,.2,0,.3,0,.5h-.1s-.7-1.5-.7-1.5Z"/><path id="j" class="cb" d="M5.5,43.1l.9-.3h0c-.2.2-.4.4-.5.5,0,.2,0,.5,0,.7l.2.8c0,0,0,.1,0,.1,0,0,.1,0,.2,0l1.4-.4-.2-.9c0-.2-.2-.4-.3-.4-.2,0-.4,0-.5,0h0c0-.1,1.5-.6,1.5-.6h0c-.2.2-.3.3-.4.4,0,.2,0,.3,0,.5l.3.9,1.6-.5c.1,0,.2,0,.2-.2,0-.2,0-.4-.1-.6,0-.3-.2-.6-.4-.8-.2-.2-.5-.3-.8-.3v-.2s1.1,0,1.1,0l.9,3.1h-.1c0-.1-.1-.2-.2-.3-.2,0-.3,0-.5,0l-2.9.9c-.2,0-.3.1-.4.2,0,.1,0,.3,0,.4h-.1s-.9-3-.9-3h0Z"/><path id="k" class="cb" d="M5,40.3h.1c0,.1,0,.3.2.4.1,0,.3,0,.4,0l3.2-.5c0,0,.1,0,.2,0s0,0,0-.2h0c0-.2,0-.3,0-.4,0-.4-.1-.7-.3-1-.2-.2-.5-.4-.8-.4h0c0-.1,1.2,0,1.2,0l.4,3.1h-.1c0-.1,0-.3-.2-.4-.1,0-.3,0-.5,0l-3,.5c-.2,0-.3,0-.4.2,0,.1-.1.3,0,.4h-.1s-.2-1.6-.2-1.6h0Z"/><path id="l" class="cb" d="M5.5,35.8l1.8.7v-1.4l-1.8.7h0ZM8.9,37.6c0-.1,0-.3-.2-.3-.3-.1-.6-.3-.9-.4l-3.3-1.3h0c0-.1,3.8-1.5,3.8-1.5.2,0,.3-.1.5-.2,0,0,.1-.2.1-.3h.1v1.5h-.1c0-.1,0-.2,0-.3,0,0,0,0-.2,0s-.1,0-.2,0c0,0-.2,0-.3,0l-.6.2v1.5c.4.2.7.2.8.3,0,0,.1,0,.2,0,0,0,.2,0,.2-.1,0,0,0-.2,0-.3h.1v1.2h-.1,0Z"/><path id="m" class="cb" d="M8,31.9h0c.3-.2.5-.2.8-.3.3-.1.5-.4.6-.8,0-.2,0-.4,0-.5-.1-.2-.3-.3-.5-.3-.2,0-.4,0-.6,0-.2.1-.4.3-.6.5l-.4.4c-.1.1-.2.2-.4.3-.2.1-.5.2-.7.1-.3,0-.6-.2-.8-.5-.2-.2-.3-.5-.2-.8,0-.2.1-.3.2-.5,0,0,.1-.2.2-.3,0,0,0-.1,0-.2,0,0,0,0-.2,0h0c0-.1,1.4,0,1.4,0h0c-.3.1-.7.2-1,.4-.2.1-.3.3-.4.6,0,.1,0,.3,0,.4,0,.1.2.2.4.3.2,0,.3,0,.5,0,.2,0,.3-.2.5-.3l.4-.4c.2-.2.5-.4.7-.6.2,0,.5-.1.7,0,.3,0,.6.2.8.5.2.3.2.6.2.9,0,.2-.1.4-.2.5,0,0-.1.2-.2.3,0,0,0,.1,0,.1h.1c0,0,0,.2,0,.2h-1.4c0-.1,0,0,0,0Z"/><path id="n" class="cb" d="M8.5,28l-2-.7c-.2-.2-.5-.1-.6,0,0,0,0,.2-.1.2h-.1s.5-1.6.5-1.6h.1c0,.2,0,.4,0,.5,0,0,.2.2.4.3l2,.7c.3,0,.5.2.8.2.4,0,.7-.3.8-.7.2-.4,0-.8-.2-1.1-.3-.2-.5-.4-.9-.5l-1.6-.6c-.2-.1-.4-.2-.7-.1-.1,0-.2.2-.3.4h-.1s.4-1.3.4-1.3h.1c0,.2,0,.4,0,.5.2.2.4.3.6.3l1.7.6c.3.1.7.3,1,.5.4.4.5,1,.3,1.5-.1.5-.6.9-1.1,1h-.1c-.3,0-.6,0-.9-.2"/><path id="o" class="cb" d="M8.5,21.4c-.2.1-.3.3-.4.5,0,.1,0,.2,0,.2,0,0,0,0,.1.1l1.5.9c0,0,0-.1.1-.2h0c.1-.3.2-.5.2-.7,0-.4-.3-.7-.6-.8-.2,0-.3-.1-.5-.1s-.3,0-.4.1M11.1,25.1c0-.1,0-.3,0-.4-.1-.1-.3-.3-.4-.3l-2.6-1.4c-.1,0-.3-.1-.4-.1,0,0-.2.1-.3.3h-.1s.7-1.4.7-1.4c.1-.4.4-.7.8-.9.3-.1.7-.1.9,0,.4.2.6.5.7.9,0,.4,0,.8-.2,1.1,0,0,0,.1-.1.2,0,0,0,.1,0,.2l1.1.6c.1,0,.3.1.5.1,0,0,.2-.1.3-.3h.1c0,0-.7,1.5-.7,1.5h-.1Z"/><path id="p" class="cb" d="M12.6,22.1c0-.1.1-.3.1-.4,0,0-.1-.2-.3-.3l-2.5-1.8c-.1-.1-.3-.2-.4-.2-.1,0-.3.1-.3.3h0c0,0,1.7-2.6,1.7-2.6l.8.6h0c-.2,0-.4,0-.6,0-.1,0-.3.2-.5.5l-.4.7c0,0,0,.1,0,.2,0,0,0,0,.1.1l1.2.9.5-.8c.1-.1.2-.3.2-.5,0-.2-.2-.3-.3-.4h0c0-.1,1.3.8,1.3.8h0c-.2,0-.3,0-.5,0,0,0-.2.1-.4.3l-.5.8,1.4,1c.1,0,.2,0,.3,0,.1-.2.3-.3.4-.5.2-.2.3-.5.4-.8,0-.3-.1-.6-.3-.8h0c0-.1.8.7.8.7l-1.8,2.6s-.1,0-.1,0Z"/><path id="q" class="cb" d="M13.1,14.9c-.2,0-.3.2-.5.4,0,0-.1.2-.2.2,0,0,0,0,.1.2l1.2,1.2c.2-.2.4-.5.5-.8,0-.3,0-.7-.3-.9-.2-.2-.4-.3-.6-.3,0,0-.2,0-.2,0M14.7,19.1c.1-.2.2-.3.2-.4,0-.2-.2-.3-.3-.4l-2.1-2.1c0-.1-.2-.2-.4-.3-.1,0-.3,0-.4.2h0c0,0,1.1-1.3,1.1-1.3.2-.2.4-.4.7-.5.4-.2.9,0,1.2.3.2.2.4.5.4.7,0,.3,0,.6-.3.8l2,.3c.1,0,.2,0,.3,0,0,0,.2,0,.3-.1h0c0,0-.6.8-.6.8l-2.5-.4-.2.2,1,.9c.2.2.3.3.4.3.1,0,.3,0,.4-.2h0c0,0-1.1,1.3-1.1,1.3h0c0,0,0,0,0,0Z"/><path id="r" class="cb" d="M17.3,16.3c.1,0,.2-.2.3-.4,0,0,0-.2-.2-.4l-1.9-2.4c-.2-.2-.3-.3-.4-.3-.2,0-.3,0-.4.2h0c0,0,1.3-1.2,1.3-1.2h0c-.1.2-.2.3-.3.5,0,0,0,.2.2.4l1.9,2.4c.2.2.3.3.4.3.1,0,.3,0,.4-.2h0c0,0-1.3,1.2-1.3,1.2h0c0,0,0-.1,0-.1Z"/><path id="s" class="cb" d="M18.1,10.2c-.3.2-.5.6-.4.9,0,.6.2,1.1.6,1.5.3.5.7.9,1.2,1.1.3.1.7.1,1,0,.3-.2.5-.6.4-.9-.2-1.1-.8-2.1-1.8-2.7-.1,0-.3,0-.5,0s-.4,0-.5.2M19.1,14.2c-.6-.2-1.1-.6-1.4-1.1-.4-.5-.5-1.2-.5-1.8,0-.5.3-1,.7-1.3.4-.3.9-.4,1.4-.2.6.2,1.1.6,1.4,1.1.4.5.6,1.2.5,1.8,0,.5-.3.9-.7,1.2-.3.2-.6.3-.9.3s-.4,0-.5,0"/><path id="t" class="cb" d="M21.8,8.1c-.1,0-.2.1-.2.2,0,0,0,.1,0,.2l.7,1.5c.3-.1.5-.3.7-.5.2-.3.2-.7,0-1,0-.3-.4-.5-.7-.6h0c-.2,0-.4,0-.5.1M22.2,12.6c.2-.1.3-.2.3-.3,0-.2,0-.4-.2-.5l-1.3-2.7c0-.2-.1-.3-.3-.4-.1,0-.3,0-.4,0h0c0-.1,1.4-.8,1.4-.8.2-.1.5-.2.8-.2.4,0,.9.3,1,.7.1.3.2.6,0,.8,0,.3-.3.5-.5.7l1.8,1.1c0,0,.2,0,.3.1,0,0,.2,0,.3,0h0c0,.1-.8.5-.8.5l-2.2-1.3h-.2c0,.1.6,1.4.6,1.4.1.2.2.4.3.4.1,0,.3,0,.4,0h0c0,.1-1.4.8-1.4.8h0c0-.1,0-.1,0-.1Z"/><path id="u" class="cb" d="M27.3,6c-.1,0-.2,0-.2,0,0,0,0,.1,0,.2l.4,1.8c0,0,.1,0,.2,0h0c.2,0,.4-.2.6-.3.2-.3.3-.7.1-1,0-.3-.3-.6-.6-.7,0,0-.1,0-.2,0-.1,0-.3,0-.4,0M27.1,10.4c.2,0,.3-.2.4-.3,0-.2,0-.4,0-.5l-.8-2.9c0-.2,0-.3-.2-.4-.1,0-.3,0-.4,0h0c0-.1,1.5-.5,1.5-.5.4-.1.8-.1,1.2,0,.3.1.5.4.6.8.1.4,0,.8-.1,1.1-.2.3-.6.5-.9.6,0,0-.1,0-.2,0,0,0-.1,0-.2,0l.3,1.2c0,.2,0,.3.2.4.1,0,.3,0,.5,0h0c0,.1-1.5.6-1.5.6h0c0-.1,0-.1,0-.1Z"/><path id="v" class="cb" d="M31.7,5c-.4,0-.7.3-.8.6-.3,1.1-.2,2.2.4,3.2.2.3.6.4.9.4.3,0,.6-.3.8-.6.2-.5.3-1.1.2-1.7,0-.6-.2-1.1-.6-1.6-.2-.2-.5-.4-.8-.4h-.1M30.8,9c-.9-1-1-2.4-.4-3.5.3-.4.7-.7,1.2-.8.5,0,1,0,1.4.4.5.4.7,1.1.8,1.7.1.6,0,1.3-.4,1.9-.3.4-.7.7-1.2.8,0,0-.2,0-.2,0-.4,0-.8-.2-1.1-.5"/><path id="w" class="cb" d="M34.4,9.1h0c.1-.1.3-.2.4-.3,0-.1.1-.3,0-.5v-3.1c0-.2,0-.3,0-.5,0,0-.2-.1-.4-.2h0c0-.1,1.6-.1,1.6-.1h0c-.1.1-.3.2-.4.2,0,.1-.1.3-.1.4v3.3c0,0,0,.1,0,.2s0,0,.1,0h.1s.1,0,.3,0c.3,0,.7,0,1-.1.3-.2.4-.5.5-.8h.2l-.3,1.2h-3.1s0,0,0,0Z"/><path id="x" class="cb" d="M37.9,9.2h0c.2-.1.3-.1.4-.2,0,0,.1-.2.1-.5l.3-3.1c0-.2,0-.3,0-.5-.1-.1-.3-.2-.4-.2h0c0-.1,1.6,0,1.6,0h0c-.2,0-.3.1-.5.2,0,0-.1.2-.2.5l-.3,3.1c0,.2,0,.3,0,.5.1,0,.3.1.4.2h0c0,.1-1.7,0-1.7,0h0Z"/><path id="y" class="cb" d="M40.6,9.5h0c.2,0,.3-.1.5-.2,0-.2.2-.3.2-.5l.7-3.4h-.3c-.2-.1-.4-.1-.7,0-.2.2-.3.4-.4.6h-.1s.3-1.2.3-1.2l3.2.7-.2,1.2h-.1c0-.3,0-.6-.1-.8-.1-.2-.4-.3-.6-.3h-.3c0,0-.7,3.4-.7,3.4,0,.2,0,.3,0,.5.1.1.3.2.4.2h0c0,.1-1.6-.2-1.6-.2h0Z"/><path id="z" class="cb" d="M43.1,10.1h0c.1,0,.3,0,.4-.1,0,0,.2-.2.2-.4l1-2.9c0-.1,0-.3,0-.5,0-.1-.2-.2-.3-.3h0c0-.1,2.9.9,2.9.9l-.3.9h-.1c.2-.4,0-.8-.3-1,0,0-.2,0-.3,0l-.7-.3c0,0-.1,0-.2,0,0,0,0,0,0,.2l-.5,1.5.8.3c.2,0,.4,0,.5,0,.1-.1.3-.3.3-.4h.1s-.5,1.6-.5,1.6h-.1c0-.2,0-.4,0-.6,0-.1-.2-.2-.4-.3l-.8-.3-.5,1.6c0,.1,0,.2,0,.3.2.1.4.2.6.3.3.1.6.2.9.1.3,0,.5-.3.7-.5h.1s-.6,1.1-.6,1.1l-2.9-1h0Z"/><path id="aa" class="cb" d="M48.2,12.3c-.5-.3-.9-.7-1-1.3-.2-1.2.4-2.4,1.5-3,.5-.3,1.1-.3,1.6,0,.2,0,.4.2.5.4,0,0,.2.2.3.3h.2s.2,0,.2,0h0s-.6,1.5-.6,1.5h-.1c0-.3,0-.6,0-.9,0-.4-.3-.7-.6-.9-.4-.2-.8-.2-1.1,0-.4.3-.8.7-1,1.2-.3.5-.4,1-.3,1.5,0,.4.3.8.7,1,.3.1.5.2.8.2.2,0,.4,0,.6-.2v.2c-.2.1-.4.2-.6.2-.1,0-.2,0-.3,0-.3,0-.5,0-.7-.2"/><path id="ab" class="cb" d="M52.5,15.1v-4.6c0,0-1.5,2.2-1.5,2.2-.2.2-.3.4-.3.7,0,.1.1.3.2.4h0c0,0-1.1-.7-1.1-.7h0c.1,0,.3,0,.5,0,.2-.1.4-.3.5-.5l1.7-2.5h0c0-.2,0-.3,0-.4,0,0-.1-.1-.2-.2h0c0-.1.8.5.8.5v4s1.2-1.9,1.2-1.9c.2-.2.3-.4.3-.7,0,0,0-.2-.2-.4h0c0-.1,1.1.7,1.1.7h0c-.1,0-.3,0-.5,0-.2.1-.4.3-.5.5l-2,3h0Z"/><path id="ac" class="cb" d="M53.2,15.6h0c.1,0,.3,0,.4.1,0,0,.2-.1.4-.3l2-2.3c.1-.1.2-.3.2-.4,0-.2-.1-.3-.2-.4h0c0,0,1.2,1.1,1.2,1.1h0c-.1,0-.2,0-.4-.1,0,0-.2.1-.4.3l-2,2.3c-.2.2-.2.3-.2.4,0,.1.1.3.2.4h0c0,0-1.2-1-1.2-1h0Z"/><path id="ad" class="cb" d="M56,55.7l1.8.8-.9-1.8-.9,1h0ZM54.6,55.7c-.2,0-.3-.1-.5-.2-.1,0-.2,0-.3.1h0c0,0,1-1.2,1-1.2h0c0,.2-.1.3-.2.4,0,0,0,.1,0,.2,0,0,0,0,.1.1,0,0,.2,0,.2.1l.6.3,1.1-1.1c-.2-.4-.3-.7-.4-.8,0,0,0-.1-.1-.2,0,0-.1-.1-.2,0,0,0-.2,0-.2.2h0c0,0,.8-.9.8-.9h0c0,.2-.1.3,0,.5,0,.3.2.6.4.9l1.5,3.2h0c0,0-3.7-1.6-3.7-1.6h0Z"/><path id="ae" class="cb" d="M54.9,60.2c.1,0,.2-.2.3-.4,0-.2,0-.3-.2-.4l-1.9-2.7h-.1c0-.1-.1,0-.1,0h-.1c0,0-.1.1-.2.2-.3.2-.5.5-.7.8,0,.3,0,.6,0,.9h-.1c0,0-.5-1-.5-1l2.4-1.9h0c-.1.2-.2.3-.2.5,0,.2,0,.3.2.4l1.8,2.5c0,.1.2.2.3.3.1,0,.3,0,.4-.1h0c0,0-1.3,1.1-1.3,1.1h0c0-.1,0,0,0,0Z"/><path id="af" class="cb" d="M21.3,65.3v-.2c.3,0,.4,0,.6,0,.2,0,.3-.2.4-.5l1.8-4.8c.1-.2,0-.5,0-.7-.1-.1-.3-.2-.4-.3v-.3c0,0,4.8,1.9,4.8,1.9l-.8,2h-.2c.1-.6.1-1.1,0-1.6-.3-.4-.7-.8-1.2-.9-.2,0-.3-.1-.5,0,0,0-.2.1-.2.3l-.9,2.3c.3.2.7.2,1.1,0,.3-.3.6-.6.8-1h.2c0,0-1.2,3.4-1.2,3.4h-.2c.1-.5.2-1,0-1.4-.2-.4-.5-.6-.8-.7l-.9,2.4c0,.1,0,.3,0,.5.1.2.3.3.5.3.4.2.9.2,1.4.1.5-.2,1-.5,1.4-1h.2c0,0-1.1,2-1.1,2l-4.7-1.9h0Z"/><path id="ag" class="cb" d="M29.6,68.2c-.2,0-.3,0-.5-.1-.2,0-.3-.2-.5-.3h-.1c0-.1-.1-.2-.1-.2h0c0,0-.1,0-.2,0,0,0,0,.1-.1.2h-.2c0,0,.5-2.6.5-2.6h.2c0,.7,0,1.3.3,1.9.2.4.5.6.9.7.3,0,.6,0,.9-.2.2-.2.3-.5.4-.7,0-.3,0-.6-.1-.8-.2-.2-.4-.5-.6-.6l-.5-.4c-.4-.3-.7-.7-1-1.2-.2-.4-.2-.8-.1-1.3,0-.5.3-1,.7-1.3.4-.4.9-.5,1.5-.4.3,0,.6.2.9.3.1,0,.3.2.5.3,0,0,.2,0,.2,0,0,0,0-.1.1-.2h.3s-.4,2.3-.4,2.3h-.2c0-.6-.1-1.1-.3-1.5-.2-.4-.5-.7-.9-.8-.2,0-.5,0-.7.1-.2.2-.3.4-.4.7,0,.3,0,.5,0,.8.3.3.6.7.9.9l.6.5c.2.2.4.4.6.7.2.5.3,1,.2,1.5-.1.5-.4,1-.8,1.4-.3.3-.7.4-1.2.4-.2,0-.4,0-.6,0"/><path id="ah" class="cb" d="M35.5,61.9c0,0-.1.2-.1.3v2.9c.3,0,.7,0,1-.2.3-.2.4-.7.4-1.4,0-.4,0-.8-.2-1.2-.1-.3-.4-.5-.8-.5-.1,0-.3,0-.4,0M33.1,68.6v-.3c.2,0,.4,0,.6-.2.1-.2.2-.5.2-.7v-4.7c.1-.3,0-.5,0-.7-.2-.1-.4-.2-.6-.2v-.3h2.8c.6,0,1.2.2,1.7.5.4.4.6,1,.6,1.5,0,.3,0,.7-.2,1-.2.3-.4.6-.8.7-.2.1-.5.2-.8.2-.3,0-.7,0-1.2,0v2c0,.3,0,.5.1.8.2.1.4.2.6.2v.3h-2.9s0,0,0,0Z"/><path id="ai" class="cb" d="M41.3,61.2c-.6.1-1,.7-1.1,1.7,0,.7,0,1.3.2,2,.1.7.3,1.3.6,1.9.4.9.9,1.3,1.6,1.1.6-.1,1-.7,1.1-1.7,0-.7,0-1.4-.2-2-.1-.9-.4-1.7-.9-2.4-.2-.4-.6-.6-1.1-.6,0,0-.1,0-.2,0M40.1,67.6c-.7-.6-1.1-1.5-1.3-2.4-.2-1,0-2,.3-2.9.4-.8,1.1-1.3,2-1.5.8-.2,1.7,0,2.3.6.8.6,1.2,1.5,1.4,2.5.2,1,0,2-.4,2.9-.4.8-1.1,1.3-2,1.5-.2,0-.4,0-.6,0-.7,0-1.3-.3-1.8-.7"/><path id="aj" class="cb" d="M46.9,66.7c.2,0,.3-.2.4-.3.1-.2.1-.5,0-.7l-2-4.7c-.1-.3-.3-.4-.4-.5-.2,0-.4,0-.5,0v-.2c-.1,0,2.7-1.2,2.7-1.2v.2c-.1,0-.3.2-.5.5,0,.1,0,.4.1.8l1.9,4.6c0,.2.2.3.3.4.2,0,.4,0,.6-.1.4-.2.8-.5,1-.9.2-.6.3-1.3.2-1.9h.2c0,0,.6,2.3.6,2.3l-4.6,2.1v-.3h-.1Z"/><path id="ak" class="cb" d="M47.7,5.3l-1.1.8h-.4c0,0,.8-.9.8-.9,0,0,.7.2.7.2Z"/><path id="al" class="cb" d="M27.3,49.5s1.2,0,.2,1.5l.8.2s0-1.7,1.2-1.5c0,0-1.9-.1-2.2-.1"/><path id="am" class="cb" d="M37.8,50.1s1.4,0,.9,2.1h.8c0,.1-.5-1.9.9-2.1-.9,0-1.8,0-2.7,0"/><path id="an" class="cb" d="M41.4,49.9s.8.5.7,2c0,0,0-.2.6-.2,0,0,0-1.7-.7-1.9-.4-.2-.2,0-.6,0"/><path id="ao" class="cb" d="M45.6,51.3c.3,0,.6-.2.8-.3,0,0-1-1.5.3-1.9,0,0-1.9.5-2.7.6,0,0,1.6-.4,1.6,1.6"/><path id="ap" class="cb" d="M23.1,51.2s0-1.5,1-1.5c-.5,0-1-.1-1.5-.3,0,0,.4.3-.3,1.6l.8.2h0Z"/><path id="aq" class="cb" d="M20.8,48.7c.4.3.8.4,1.3.6,0,0-.7,0-1,1.5l-.8-.5s1.1-.9.5-1.5"/><path id="ar" class="cb" d="M39.7,52.4c-.7,0-1.5,0-2.2-.1-.7,0-1.3-.3-1.7-.8-.3-.5-.5-1.1-.4-1.8,0-.6,0-1.4,0-1.9-1.2.3-2.3.5-3.5.5-.3.9-.7,1.9-.7,2-.5,1.9-4.7,1-5.7.7-.3.5-.9.8-1.5.7-1.5-.2-3-.7-4.4-1.5-.4-.1-.7-.5-.8-.9,0-.5.2-.9.6-1.2,1.2-1.5,1.6-3.3,1.9-4.7h0c-.2-.2-.7-.6-1.1-1-1.3-.1-2.4-.9-3-2-.1-.2-.3-.7,0-.9.2-.2.4-.2.6-.1,0,0,0,0,0,0,.2.2.5.3.8.4,0-.4,0-.8.3-1.1.2-.3.6-.4.9-.4.1,0,.2,0,.3,0,.6-3.3,2.4-6.2,5.1-8.2,4.2-3.2,7.7-1.7,7.8-1.7,1.4.5,2.8,1.1,4.1,1.7,1.5.9,2.9,2,4,3.4.3.3.5.7.8,1.1.8,1.1,1.8,2.5,2.4,2.6.3,0,.8-.5,1.2-.9.9-2-1-3.7-1-3.8-1-.8-1.9-1.8-2.5-2.9-.9-1.6-1.1-3.1-.6-4.4.8-2.1,3.1-3,3.2-3,1.1-.4,2.3-.4,3.5-.1.2,0,.3.2.2.4,0,.2-.2.2-.3.2-1-.3-2.1-.2-3.1.1,0,0-2.1.8-2.8,2.6-.4,1.1-.2,2.5.6,3.9.7,1,1.5,2,2.4,2.8,0,0,2.3,2,1.2,4.5,0,0,0,0,0,0-.2.2-1,1.2-1.7,1.1-.8-.1-1.7-1.4-2.8-2.8-.3-.4-.5-.7-.8-1,0,0-1.8-2.3-3.7-3.2-1.3-.6-2.7-1.2-4-1.7-.2,0-3.4-1.4-7.3,1.6-2.7,2-4.4,5-5,8.3,0,.2-.2.3-.3.3,0,0-.1,0-.2-.1,0-.1-.2-.2-.4-.2-.1,0-.3,0-.5.2-.2.3-.2.7,0,.9,0,0,0,.2,0,.3,0,0-.2.1-.3.2h-.2c-.4,0-.9-.2-1.2-.5,0,0,0,0,0,.1.5,1,1.5,1.6,2.6,1.7,0,0,.1,0,.2,0,1.5,1.2,1.5,1.2,1.5,1.4v.2c-.3,1.4-.8,3.4-2.1,5-.1.1-.5.5-.4.7,0,.2.2.3.4.4,1.3.7,2.8,1.2,4.2,1.4.4,0,.9-.2,1.1-.6,0-.1.2-.2.3-.1,1.2.3,4.9,1,5.2-.3.3-.7.5-1.4.8-2.1,0-.1.1-.2.3-.2,1.3,0,2.7-.2,4-.6,0,0,.2,0,.3,0,0,0,.1.1.1.2s0,1.4,0,2.4c0,.5,0,.9.3,1.3.3.4.8.6,1.3.6,1,.1,3.9.3,4.7-.4,0,0,.2,0,.3,0,1.1.2,2.3,0,3.4-.4.9-.3,2.2-.9,2.2-1.4,0-.3-.3-.6-.6-.8,0,0-.1-.1-.1-.2,0-.8-.5-3-1.5-3.5-.1,0-.2-.2-.1-.4,0,0,0-.1.1-.1.6-.3.9-1.1.6-1.8,0-.1,0-.3.2-.4h0s0,0,0,0,1.6-.3,2.1-1.3c.2-.6.1-1.2-.2-1.7,0-.1,0-.2,0-.3,0,0,.6-.9.6-3-.1-1.7.9-3.2,2.4-3.9.4-.1,1.5-.6,1.8-1.3.1-.3,0-.6,0-.9,0-.1,0-.3,0-.4.3-.3.5-.7.5-1.2,0-1-.8-2-2.3-3.2-.1,0-.2-.3,0-.4s.3-.2.4,0c1.7,1.3,2.5,2.5,2.6,3.7,0,.5-.2,1.1-.5,1.5.2.4.2.8,0,1.2-.5,1.1-2.1,1.6-2.2,1.6-1.3.6-2.1,1.9-2,3.3,0,1.1-.1,2.2-.6,3.3.4.6.4,1.4.1,2-.5.8-1.3,1.4-2.2,1.6.2.7,0,1.4-.6,1.9,1.1.9,1.4,3,1.5,3.6.5.2.8.7.7,1.3-.2,1.1-2.4,1.8-2.6,1.9-1.1.5-2.4.7-3.6.5-.9.4-1.9.6-2.9.6"/><path id="as" class="cb" d="M31.1,44.9c-2.4,0-4.8-.6-6.9-1.8-1.7-1-3.1-2.3-4.2-4,0-.1,0-.3.1-.4.1,0,.3,0,.4.1h0c.2.3,5,8.5,17.1,4.2.2,0,5-1.9,9.1-.9.2,0,.3.2.2.4,0,.2-.2.3-.4.2-4-1-8.7.8-8.8.8-2.2.8-4.5,1.3-6.9,1.3"/><path id="at" class="cb" d="M31.5,46.4c-4.1,0-9.9-1-12.7-5.9,0-.1,0-.3.1-.4.1,0,.3,0,.4.1,4.3,7.7,16.3,5.3,16.5,5.3,2.5-.9,5.2-1.3,7.8-1.3.8.2,1.7.2,2.5.2.2,0,.3,0,.4.2,0,.1,0,.3-.2.4,0,0-.7.2-2.8-.1-2.6,0-5.2.4-7.6,1.3-1.5.3-3,.4-4.4.4"/><path id="au" class="cb" d="M35.8,47.8h0c-.2,0-.3-.2-.3-.3,0-.5,0-1,0-1.5,0-.2,0-.3.2-.4.2,0,.3,0,.4.2.1.6.1,1.2,0,1.7,0,.2-.1.3-.3.3"/><path id="av" class="cb" d="M27.3,47.8s0,0-.1,0c-.2,0-.2-.2-.2-.4h0c.2-.5.3-1,.4-1.5,0-.2.2-.3.3-.3h0c.2,0,.3.2.3.3,0,.6-.2,1.1-.4,1.7,0,.1-.2.2-.3.2"/><path id="aw" class="cb" d="M41.9,50h0c-.2,0-.3-.2-.3-.3.3-3.5-.8-4.8-.8-4.9,0-.1,0-.3,0-.4s.3,0,.4,0h0c0,0,1.2,1.5.9,5.3,0,.2-.1.3-.3.3"/><path id="ax" class="cb" d="M44.4,42.5c-.2,0-.3-.1-.3-.3,0-.1,0-.3.2-.3,1-.3,1.8-.9,2.2-1.8,0-.1.1-.2.3-.2.7,0,1.4-.4,1.8-1,0-.1.3-.2.4-.1s.2.3.1.4c-.4.7-1.2,1.2-2.1,1.3-.5,1-1.4,1.7-2.5,2,0,0,0,0,0,0"/><path id="ay" class="cb" d="M51.3,30.4c-1.3,0-2.6-.4-3.7-1.1-.1,0-.2-.3,0-.4s.3-.2.4,0h0c1.6,1.1,3.7,1.3,5.5.6.1,0,.3,0,.4.2,0,.1,0,.3-.1.4-.8.3-1.6.5-2.4.5"/><path id="az" class="cb" d="M49.6,21.5c-1,0-1.7,1.5-1.6,3.3,0,1.7.9,3.1,1.8,3.1v.3-.3c1,0,1.7-1.5,1.6-3.3,0-1.7-.9-3.1-1.8-3.1M49.8,28.4c-1.3,0-2.3-1.6-2.4-3.7,0-2.1.8-3.8,2.1-3.9,1.3,0,2.4,1.6,2.5,3.7,0,2.1-.8,3.8-2.1,3.9h0"/><path id="ba" class="cb" d="M49.1,24c-.4,0-.8.8-.8,1.8,0,1,.5,1.7,1,1.7v.3-.3c.4,0,.8-.8.8-1.8,0-1-.5-1.7-1-1.7M49.3,28.1c-.8,0-1.5-1-1.5-2.2,0-1.3.5-2.4,1.3-2.4h0c.9,0,1.5,1,1.6,2.2,0,1.3-.5,2.4-1.3,2.4h0"/><path id="bb" class="cb" d="M45,26.9h0c-.3,0-.6-.2-.7-.5-.2-.6-.2-1.2,0-1.8.5-1.6,3.4-.9,3.5-.9.2,0,.3.2.2.4,0,.2-.2.3-.4.2h0s-2.4-.6-2.8.5c-.2.4-.2.9,0,1.3,0,0,.2.2.3.2,0,0,.2-.1.2-.5.1-.4.4-.8.8-.9.6-.2,1.2,0,1.8.3.1,0,.2.3.1.4h0c0,.1-.3.2-.4.1-.4-.3-.8-.3-1.2-.2-.2,0-.4.3-.5.5,0,.3-.1.6-.4.8-.1.1-.3.2-.5.2"/><path id="bc" class="cb" d="M30.9,31.9c-1.8,0-3.5-.6-5-1.5-.1,0-.2-.3,0-.4h0c0-.1.3-.2.4,0,.2.1,4.6,3.2,8.9,0,.1-.1.3,0,.4,0s0,.3,0,.4c0,0,0,0,0,0-1.3,1-3,1.6-4.7,1.6"/><path id="bd" class="cb" d="M38.7,36.4c-.8,0-1.6-.2-2.2-.7-.8-.4-1.4-1.3-1.5-2.2,0-1.6,1.8-2.9,1.9-2.9.1,0,.3,0,.4,0s0,.3,0,.4c0,0,0,0,0,0,0,0-1.6,1.1-1.6,2.4,0,.8.5,1.4,1.2,1.8,0,0,1.9,1.4,4.4-.3.1,0,.3,0,.4,0,0,.1,0,.3,0,.4,0,0,0,0,0,0-.8.6-1.8,1-2.8,1"/><path id="be" class="cb" d="M39.1,43.1c0,0-.2,0-.2-.1-1.3-1.7-1.7-3.2-1.2-4.4,1-2.1,4.5-2.3,4.7-2.4.2,0,.3.1.3.3,0,.2-.1.3-.3.3h0s-3.4.2-4.2,2c-.4,1,0,2.2,1.1,3.8,0,.1,0,.3,0,.4h0s-.1,0-.2,0"/><path id="bf" class="cb" d="M30.1,44.7c-.2,0-.3-.1-.3-.3,0-1.2.3-2.4,1.1-3.3.7-.7,1.6-1.1,2.6-1.1,0,0,3.1-.4,4.5,3.1,0,.1,0,.3-.2.4s-.3,0-.4-.2h0c-1.2-3.1-3.9-2.8-3.9-2.8-.8,0-1.6.3-2.2.9-.6.8-1,1.8-.9,2.9,0,.2-.1.3-.3.3h0Z"/><path id="bg" class="cb" d="M29.2,44.7c-.1,0-.2,0-.3-.2-.9-2,.5-3.8.6-3.9.7-1.4-.7-2.6-.7-2.6-.4-.4-1-.6-1.6-.4-1.3.6-1.6,4.2-1.7,5.5,0,.2-.1.3-.3.3h0c-.2,0-.3-.1-.3-.3h0c0-.5.1-5.2,2-6.1.6-.3,1.4-.2,2.2.4.6.5,1.6,1.9.9,3.4,0,0-1.3,1.6-.5,3.3,0,.1,0,.3-.1.4,0,0,0,0-.1,0"/><path id="bh" class="cb" d="M25.6,36.9h0c-.3,0-.6-.3-.9-.8-.9-1-1.9-1.9-2.2-1.9h0c-.1,0-.3,0-.4-.2h0c0-.2,0-.3.2-.4.7-.2,2.1,1.2,2.9,2.1.4.5.5.6.5.6,1.2-.5,1.9-1,2-1.7.2-1.3-1.6-2.9-2.3-3.3-.1,0-.2-.3,0-.4s.3-.2.4,0h0c.1,0,2.8,2,2.5,3.9-.1.9-.9,1.7-2.3,2.2,0,0-.2,0-.3,0"/><path id="bi" class="cb" d="M23.3,42.3c-.2,0-.3-.1-.3-.3s0-.1,0-.2c1.1-1.2,1.5-2.3,1.3-3.3-.4-1.9-2.9-2.9-2.9-2.9-.2,0-.2-.2-.2-.4s.2-.2.4-.2h0c.1,0,2.8,1.2,3.2,3.4.3,1.2-.2,2.5-1.5,3.9,0,0-.1,0-.2,0"/><path id="bj" class="cb" d="M30.8,33.3c-.3,0-.6,0-.8.3-.4.5-.5,1-.5,1.6.5,1.9,2.2,3.3,4.2,3.3h.2c2,0,2.4-.5,2.5-.7.2-.9-2.1-2.8-3.8-3.8-.5-.4-1.1-.6-1.8-.6M33.7,39.1c-2.3,0-4.3-1.5-4.8-3.8,0-.8.2-1.5.7-2.1.7-.7,1.8-.7,3.3.2.8.5,4.5,2.9,4.1,4.5-.2.8-1.2,1.1-3,1.2h-.2"/><path id="bk" class="cb" d="M46.9,40.4h0c-.2,0-.3-.2-.2-.3.1-1.1-.3-2.3-1.1-3.1-.1-.1-.1-.3,0-.4.1-.1.3-.1.4,0,.9,1,1.4,2.3,1.2,3.6,0,.1-.1.3-.3.3"/><path id="bl" class="cb" d="M43.4,42.5c-.2,0-.3-.1-.3-.3-.2-3.1,1-4.5,1.1-4.5.1-.1.3-.1.4,0s.1.3,0,.4c0,0-1.1,1.3-.9,4.1,0,.2-.1.3-.3.3h0Z"/><path id="bm" class="cb" d="M25.3,51c0,0-.1,0-.2,0-.1,0-.1-.3,0-.4h0c.7-1,1.4-2.1,2-3.2,0-.1.2-.2.3-.2,1.4.3,2.9.5,4.3.6.2,0,.3.1.3.3s-.1.3-.3.3h0c-1.4,0-2.8-.2-4.2-.5-.5,1.1-1.2,2.1-1.9,3.1,0,0-.1.1-.2.1"/><path id="bn" class="cb" d="M26,50h0c-2.2,0-4.3-.7-6.2-1.7-.1,0-.2-.3,0-.4,0-.1.3-.2.4,0,1.8,1,3.9,1.5,5.9,1.6.2,0,.3.1.3.3s-.1.3-.3.3"/><path id="bo" class="cb" d="M28.4,50s0,0-.1,0c-.6-.2-1.2-.3-1.9-.3-.2,0-.3,0-.3-.2h0c0-.2,0-.3.3-.4h0c.7,0,1.4,0,2.1.3.9-.2,1.9-.2,2.9,0,.2,0,.2.2.2.4,0,.1-.2.2-.4.2-.9-.2-1.8-.2-2.6,0,0,0,0,0,0,0"/><path id="bp" class="cb" d="M42,50.1c-.2,0-.3-.1-.3-.3,0-.2.1-.3.3-.3,3.9,0,5.3-1.1,5.5-1.3.1-.1.3,0,.4,0h0c.1.1,0,.3,0,.4-.4.3-1.9,1.4-5.9,1.5h0Z"/><path id="bq" class="cb" d="M39.1,50.5s0,0,0,0c-1-.4-2.1-.5-3.2-.4-.2,0-.3,0-.4-.2h0c0-.2,0-.3.2-.4,0,0,1.2-.3,3.4.4.9-.3,1.9-.4,2.8-.3.2,0,.3.2.2.3h0c0,.2-.2.3-.3.2h0c-.9,0-1.8,0-2.6.4,0,0,0,0,0,0"/><path id="br" class="cb" d="M56.8,19c-.4,0-.7-.3-1-.5-.4-.4-.6-1-.5-1.6.1-.6.4-1.1.8-1.5.4-.4,1-.7,1.6-.7.6,0,1.1.2,1.5.6.1.2.3.4.3.6,0,.1,0,.2.2.4h.1c0,0,.1,0,.2,0h0c0,0-1.1,1.2-1.1,1.2h0c.1-.3.3-.6.3-.8.2-.6-.2-1.2-.8-1.4-.2,0-.4,0-.5,0-.5.1-1,.4-1.4.8-.4.3-.7.8-.8,1.3,0,.4,0,.8.3,1.1.2.2.5.4.7.4.2,0,.4,0,.6,0v.2c-.1,0-.2,0-.3,0-.1,0-.3,0-.4,0"/><path id="bs" class="cb" d="M59.2,19.8l.7,1.1,1.2-1.6s-1.9.5-1.9.5ZM58.5,21.9h.1c0,0,.1,0,.2.2,0,0,.1,0,.2,0h.1c0-.2.1-.3.2-.3l.4-.6-.8-1.3c-.4.1-.7.2-.8.2,0,0-.1,0-.2,0,0,0-.1.1-.1.2,0,0,0,.2,0,.3h0c0,0-.6-.9-.6-.9h.1c0,0,.2,0,.3,0,.3,0,.6,0,1-.2l3.4-.8h0c0,.1-2.4,3.5-2.4,3.5-.1.1-.2.3-.3.5,0,.1,0,.2,0,.3h0c0,0-.8-1.2-.8-1.2h0Z"/><path id="bt" class="cb" d="M64,23.9l-3.2,1.3c-.1,0-.2,0-.2.1,0,0,0,.2,0,.3.2.9,1.2,1.4,2,1.1.1,0,.3-.1.4-.2.6-.2,1-.6,1.2-1.1.2-.4.1-.9,0-1.4,0,0,0-.2-.1-.2,0,0,0,0,0,0,0,0-.1,0-.1,0M61.6,27.2c-.2,0-.3-.2-.5-.3-.3-.3-.4-.6-.6-1l-.6-1.5h.1c0,0,.1.2.3.3.2,0,.3,0,.5,0l2.8-1.1c.2,0,.3-.1.4-.3,0-.1,0-.3,0-.4h.1s.6,1.4.6,1.4c.2.4.2.9.2,1.4-.1.8-.7,1.4-1.4,1.7-.3.1-.6.2-.9.2s-.6,0-.9-.2"/><path id="bu" class="cb" d="M62.1,31.5l-.7-3.1h.1c0,.1.1.2.2.3,0,0,.2,0,.5,0l2.9-.7c.2,0,.3,0,.4-.2,0-.1,0-.3,0-.4h.1s.7,3,.7,3l-.9.2v-.2c.2,0,.3-.2.5-.4,0-.2,0-.5,0-.7l-.2-.8c0,0,0-.1,0-.1,0,0-.1,0-.2,0l-1.5.3.2.9c0,.2.1.4.2.4.2,0,.3,0,.5,0h0c0,.1-1.5.5-1.5.5h0c.2-.2.3-.3.5-.4,0,0,0-.2,0-.5l-.2-.9-1.6.4c-.1,0-.2,0-.2.2,0,.2,0,.4.1.7,0,.3.2.6.3.8.2.2.5.3.8.3v.2s-1.1,0-1.1,0h0Z"/><path id="bv" class="cb" d="M62.5,35.1l-.2-3.2h.1c0,.1,0,.3.2.4.1,0,.3,0,.5,0l3-.2c.2,0,.3,0,.4-.1,0-.1.1-.3,0-.4h.1v1.6c.1,0,0,0,0,0,0-.1,0-.3-.2-.4-.1,0-.3-.1-.4,0l-3.2.3c0,0-.1,0-.2,0,0,0,0,0,0,.1h0c0,.2,0,.3,0,.4,0,.4,0,.7.2,1,.2.2.5.4.8.5v.2l-1.2-.2h0Z"/><path id="bw" class="cb" d="M62.2,40l.3-3.2h.1c0,.2,0,.3,0,.4,0,0,.2.1.4.1l3,.3c.2,0,.3,0,.5,0,.1-.1.2-.3.2-.4h.1l-.2,1.7h-.1c0-.2,0-.3,0-.5,0,0-.2-.1-.4-.2l-3.2-.4c0,0-.1,0-.2,0,0,0,0,0,0,.1h0c0,.1,0,.3,0,.4,0,.4,0,.7,0,1.1.2.3.4.5.7.6h0c0,.1-1.1-.3-1.1-.3h0Z"/><path id="bx" class="cb" d="M65.9,43.1c0-.2,0-.3,0-.5,0,0-.2-.1-.4-.2l-2.9-.7c-.2,0-.3,0-.5,0-.1.1-.2.3-.2.4h-.1s.3-1.7.3-1.7h.1c0,.2,0,.3,0,.5.1.1.3.2.4.2l2.9.7c.2.1.5,0,.6-.1,0,0,0-.2,0-.3h.1s-.3,1.7-.3,1.7h-.1s0,0,0,0Z"/><path id="by" class="cb" d="M63.8,46.6h0c.2,0,.5,0,.7-.1.1,0,.2-.3.4-.6v-.3c0,0-3.2-1.1-3.2-1.1-.2,0-.4,0-.5,0-.1,0-.2.2-.3.4h-.1s.5-1.7.5-1.7h.1c0,.2,0,.4,0,.5.1.1.3.2.5.3l3.2,1.1v-.3c.2-.2.2-.5.1-.7-.1-.2-.3-.4-.6-.5h0c0-.1,1.1.3,1.1.3l-1,3.2-1.1-.3h0Z"/><path id="bz" class="cb" d="M60.7,47c-.4,0-.7.2-.8.6-.1.3-.1.7,0,1,.7.9,1.7,1.4,2.8,1.5.3,0,.7-.2.8-.6.1-.3.1-.7,0-1-.3-.5-.7-.8-1.2-1.1-.4-.2-.9-.4-1.4-.4,0,0-.1,0-.2,0M60.9,50.2c-.6-.3-1.1-.8-1.3-1.4-.2-.5-.2-1,0-1.4.2-.5.7-.8,1.2-.9.6-.1,1.2,0,1.7.3.6.3,1,.7,1.3,1.3.2.5.2,1,0,1.5-.2.5-.6.8-1.1.9-.2,0-.3,0-.5,0-.4,0-.9-.1-1.3-.3"/><path id="ca" class="cb" d="M59.6,52.6c0,.3,0,.7.4.9.2.2.6.3.9.1.2,0,.3-.2.4-.4,0,0,.1-.2.1-.3,0,0,0,0-.1-.2l-1.3-1c-.2.2-.3.5-.4.8M59.7,53.9c-.2-.2-.4-.4-.5-.7,0-.3,0-.6.1-.9h-2.1c-.1,0-.2,0-.3,0,0,0-.2,0-.2.2h0c0,0,.5-.8.5-.8h2.5s.1-.2.1-.2l-1.1-.8c-.2-.2-.3-.2-.4-.2,0,0-.2,0-.3.3h0c0,0,.9-1.4.9-1.4h0c0,.2-.1.4-.1.5,0,.2.2.3.4.4l2.4,1.8c.1.1.3.2.4.2,0,0,.2,0,.3-.3h0c0,0-.9,1.4-.9,1.4-.2.2-.4.4-.6.6-.2,0-.3.2-.5.2-.2,0-.5,0-.7-.3"/></g></svg>